%TF.GenerationSoftware,KiCad,Pcbnew,(6.0.7-1)-1*%
%TF.CreationDate,2022-10-12T15:07:03-04:00*%
%TF.ProjectId,PICO_v1.0,5049434f-5f76-4312-9e30-2e6b69636164,rev?*%
%TF.SameCoordinates,Original*%
%TF.FileFunction,Paste,Top*%
%TF.FilePolarity,Positive*%
%FSLAX46Y46*%
G04 Gerber Fmt 4.6, Leading zero omitted, Abs format (unit mm)*
G04 Created by KiCad (PCBNEW (6.0.7-1)-1) date 2022-10-12 15:07:03*
%MOMM*%
%LPD*%
G01*
G04 APERTURE LIST*
G04 Aperture macros list*
%AMRoundRect*
0 Rectangle with rounded corners*
0 $1 Rounding radius*
0 $2 $3 $4 $5 $6 $7 $8 $9 X,Y pos of 4 corners*
0 Add a 4 corners polygon primitive as box body*
4,1,4,$2,$3,$4,$5,$6,$7,$8,$9,$2,$3,0*
0 Add four circle primitives for the rounded corners*
1,1,$1+$1,$2,$3*
1,1,$1+$1,$4,$5*
1,1,$1+$1,$6,$7*
1,1,$1+$1,$8,$9*
0 Add four rect primitives between the rounded corners*
20,1,$1+$1,$2,$3,$4,$5,0*
20,1,$1+$1,$4,$5,$6,$7,0*
20,1,$1+$1,$6,$7,$8,$9,0*
20,1,$1+$1,$8,$9,$2,$3,0*%
%AMOutline4P*
0 Free polygon, 4 corners , with rotation*
0 The origin of the aperture is its center*
0 number of corners: always 4*
0 $1 to $8 corner X, Y*
0 $9 Rotation angle, in degrees counterclockwise*
0 create outline with 4 corners*
4,1,4,$1,$2,$3,$4,$5,$6,$7,$8,$1,$2,$9*%
G04 Aperture macros list end*
%ADD10RoundRect,0.250001X-1.074999X0.462499X-1.074999X-0.462499X1.074999X-0.462499X1.074999X0.462499X0*%
%ADD11RoundRect,0.237500X-0.237500X0.300000X-0.237500X-0.300000X0.237500X-0.300000X0.237500X0.300000X0*%
%ADD12RoundRect,0.237500X0.237500X-0.300000X0.237500X0.300000X-0.237500X0.300000X-0.237500X-0.300000X0*%
%ADD13RoundRect,0.237500X-0.300000X-0.237500X0.300000X-0.237500X0.300000X0.237500X-0.300000X0.237500X0*%
%ADD14RoundRect,0.237500X0.237500X-0.250000X0.237500X0.250000X-0.237500X0.250000X-0.237500X-0.250000X0*%
%ADD15RoundRect,0.075000X-0.350000X-0.075000X0.350000X-0.075000X0.350000X0.075000X-0.350000X0.075000X0*%
%ADD16RoundRect,0.075000X0.075000X-0.350000X0.075000X0.350000X-0.075000X0.350000X-0.075000X-0.350000X0*%
%ADD17Outline4P,-1.295400X-1.257300X1.295400X-1.257300X1.295400X1.257300X-1.295400X1.257300X0.000000*%
%ADD18RoundRect,0.249999X0.395001X0.395001X-0.395001X0.395001X-0.395001X-0.395001X0.395001X-0.395001X0*%
%ADD19RoundRect,0.050000X0.387500X0.050000X-0.387500X0.050000X-0.387500X-0.050000X0.387500X-0.050000X0*%
%ADD20RoundRect,0.050000X0.050000X0.387500X-0.050000X0.387500X-0.050000X-0.387500X0.050000X-0.387500X0*%
%ADD21RoundRect,0.237500X-0.237500X0.250000X-0.237500X-0.250000X0.237500X-0.250000X0.237500X0.250000X0*%
%ADD22RoundRect,0.237500X0.250000X0.237500X-0.250000X0.237500X-0.250000X-0.237500X0.250000X-0.237500X0*%
%ADD23RoundRect,0.250000X0.435000X0.615000X-0.435000X0.615000X-0.435000X-0.615000X0.435000X-0.615000X0*%
%ADD24RoundRect,0.125000X0.250000X0.125000X-0.250000X0.125000X-0.250000X-0.125000X0.250000X-0.125000X0*%
%ADD25R,1.100000X1.300000*%
%ADD26RoundRect,0.150000X-0.512500X-0.150000X0.512500X-0.150000X0.512500X0.150000X-0.512500X0.150000X0*%
%ADD27RoundRect,0.237500X0.287500X0.237500X-0.287500X0.237500X-0.287500X-0.237500X0.287500X-0.237500X0*%
%ADD28RoundRect,0.237500X0.300000X0.237500X-0.300000X0.237500X-0.300000X-0.237500X0.300000X-0.237500X0*%
%ADD29R,0.450000X0.600000*%
%ADD30RoundRect,0.200000X-0.200000X-0.275000X0.200000X-0.275000X0.200000X0.275000X-0.200000X0.275000X0*%
G04 APERTURE END LIST*
D10*
%TO.C,SW1*%
X101727000Y-118933900D03*
X101727000Y-121908900D03*
%TD*%
D11*
%TO.C,C3*%
X110109000Y-123621800D03*
X110109000Y-125346800D03*
%TD*%
D12*
%TO.C,C4*%
X114782600Y-103224500D03*
X114782600Y-101499500D03*
%TD*%
D13*
%TO.C,C8*%
X113640700Y-117703600D03*
X115365700Y-117703600D03*
%TD*%
D12*
%TO.C,C13*%
X104394000Y-121233100D03*
X104394000Y-119508100D03*
%TD*%
D14*
%TO.C,R2*%
X102235000Y-116990500D03*
X102235000Y-115165500D03*
%TD*%
D15*
%TO.C,U4*%
X114813800Y-109278100D03*
X114813800Y-109778100D03*
X114813800Y-110278100D03*
X114813800Y-110778100D03*
X114813800Y-111278100D03*
X114813800Y-111778100D03*
D16*
X115513800Y-112478100D03*
X116013800Y-112478100D03*
X116513800Y-112478100D03*
X117013800Y-112478100D03*
X117513800Y-112478100D03*
X118013800Y-112478100D03*
D15*
X118713800Y-111778100D03*
X118713800Y-111278100D03*
X118713800Y-110778100D03*
X118713800Y-110278100D03*
X118713800Y-109778100D03*
X118713800Y-109278100D03*
D16*
X118013800Y-108578100D03*
X117513800Y-108578100D03*
X117013800Y-108578100D03*
X116513800Y-108578100D03*
X116013800Y-108578100D03*
X115513800Y-108578100D03*
D17*
X116763800Y-110515400D03*
%TD*%
D18*
%TO.C,U2*%
X107007400Y-108487700D03*
X108607400Y-110087700D03*
X107007400Y-110087700D03*
X108607400Y-108487700D03*
D19*
X111244900Y-111887700D03*
X111244900Y-111487700D03*
X111244900Y-111087700D03*
X111244900Y-110687700D03*
X111244900Y-110287700D03*
X111244900Y-109887700D03*
X111244900Y-109487700D03*
X111244900Y-109087700D03*
X111244900Y-108687700D03*
X111244900Y-108287700D03*
X111244900Y-107887700D03*
X111244900Y-107487700D03*
X111244900Y-107087700D03*
X111244900Y-106687700D03*
D20*
X110407400Y-105850200D03*
X110007400Y-105850200D03*
X109607400Y-105850200D03*
X109207400Y-105850200D03*
X108807400Y-105850200D03*
X108407400Y-105850200D03*
X108007400Y-105850200D03*
X107607400Y-105850200D03*
X107207400Y-105850200D03*
X106807400Y-105850200D03*
X106407400Y-105850200D03*
X106007400Y-105850200D03*
X105607400Y-105850200D03*
X105207400Y-105850200D03*
D19*
X104369900Y-106687700D03*
X104369900Y-107087700D03*
X104369900Y-107487700D03*
X104369900Y-107887700D03*
X104369900Y-108287700D03*
X104369900Y-108687700D03*
X104369900Y-109087700D03*
X104369900Y-109487700D03*
X104369900Y-109887700D03*
X104369900Y-110287700D03*
X104369900Y-110687700D03*
X104369900Y-111087700D03*
X104369900Y-111487700D03*
X104369900Y-111887700D03*
D20*
X105207400Y-112725200D03*
X105607400Y-112725200D03*
X106007400Y-112725200D03*
X106407400Y-112725200D03*
X106807400Y-112725200D03*
X107207400Y-112725200D03*
X107607400Y-112725200D03*
X108007400Y-112725200D03*
X108407400Y-112725200D03*
X108807400Y-112725200D03*
X109207400Y-112725200D03*
X109607400Y-112725200D03*
X110007400Y-112725200D03*
X110407400Y-112725200D03*
%TD*%
D10*
%TO.C,SW2*%
X105257600Y-101103100D03*
X105257600Y-104078100D03*
%TD*%
D11*
%TO.C,C1*%
X104343200Y-123699100D03*
X104343200Y-125424100D03*
%TD*%
D21*
%TO.C,R7*%
X113182400Y-108802800D03*
X113182400Y-110627800D03*
%TD*%
D14*
%TO.C,R1*%
X103809800Y-116990500D03*
X103809800Y-115165500D03*
%TD*%
D22*
%TO.C,R3*%
X109726100Y-103327200D03*
X107901100Y-103327200D03*
%TD*%
D23*
%TO.C,U3*%
X107684750Y-118838200D03*
X107684750Y-116688200D03*
X109384750Y-116688200D03*
X109384750Y-118838200D03*
D24*
X111234750Y-119668200D03*
X111234750Y-118398200D03*
X111234750Y-117128200D03*
X111234750Y-115858200D03*
X105834750Y-115858200D03*
X105834750Y-117128200D03*
X105834750Y-118398200D03*
X105834750Y-119668200D03*
%TD*%
D12*
%TO.C,C15*%
X111663900Y-125347900D03*
X111663900Y-123622900D03*
%TD*%
D25*
%TO.C,X1*%
X113093000Y-103107200D03*
X113093000Y-101007200D03*
X111443000Y-101007200D03*
X111443000Y-103107200D03*
%TD*%
D26*
%TO.C,U1*%
X106075900Y-123611600D03*
X106075900Y-124561600D03*
X106075900Y-125511600D03*
X108350900Y-125511600D03*
X108350900Y-123611600D03*
%TD*%
D11*
%TO.C,C2*%
X102793800Y-123699100D03*
X102793800Y-125424100D03*
%TD*%
D13*
%TO.C,C12*%
X117272900Y-115925600D03*
X118997900Y-115925600D03*
%TD*%
D22*
%TO.C,R6*%
X114983900Y-107022900D03*
X113158900Y-107022900D03*
%TD*%
D13*
%TO.C,C6*%
X113640700Y-115925600D03*
X115365700Y-115925600D03*
%TD*%
%TO.C,C18*%
X115952100Y-114147600D03*
X117677100Y-114147600D03*
%TD*%
D27*
%TO.C,D2*%
X102906800Y-101650800D03*
X101156800Y-101650800D03*
%TD*%
D28*
%TO.C,C5*%
X109650700Y-101244400D03*
X107925700Y-101244400D03*
%TD*%
D13*
%TO.C,C14*%
X105995300Y-121285000D03*
X107720300Y-121285000D03*
%TD*%
D22*
%TO.C,R5*%
X111097700Y-121285000D03*
X109272700Y-121285000D03*
%TD*%
D11*
%TO.C,C10*%
X100761800Y-115215500D03*
X100761800Y-116940500D03*
%TD*%
D28*
%TO.C,C16*%
X114933900Y-105486200D03*
X113208900Y-105486200D03*
%TD*%
D13*
%TO.C,C11*%
X117298300Y-117678200D03*
X119023300Y-117678200D03*
%TD*%
D12*
%TO.C,C7*%
X100799900Y-113587700D03*
X100799900Y-111862700D03*
%TD*%
D29*
%TO.C,D1*%
X101072100Y-123460800D03*
X101072100Y-125560800D03*
%TD*%
D28*
%TO.C,C17*%
X118769300Y-107022900D03*
X117044300Y-107022900D03*
%TD*%
D12*
%TO.C,C9*%
X102311200Y-113587700D03*
X102311200Y-111862700D03*
%TD*%
D30*
%TO.C,R4*%
X101156000Y-103962200D03*
X102806000Y-103962200D03*
%TD*%
M02*
