M48
; DRILL file {KiCad (6.0.7-1)-1} date Wednesday, October 12, 2022 at 03:07:04 PM
; FORMAT={-:-/ absolute / inch / decimal}
; #@! TF.CreationDate,2022-10-12T15:07:04-04:00
; #@! TF.GenerationSoftware,Kicad,Pcbnew,(6.0.7-1)-1
; #@! TF.FileFunction,Plated,1,2,PTH
FMAT,2
INCH
; #@! TA.AperFunction,Plated,PTH,ViaDrill
T1C0.0157
; #@! TA.AperFunction,Plated,PTH,ComponentDrill
T2C0.0394
%
G90
G05
T1
X4.008Y-4.8
X4.025Y-4.606
X4.088Y-4.606
X4.151Y-3.9794
X4.159Y-4.4
X4.17Y-4.773
X4.187Y-4.041
X4.249Y-4.213
X4.304Y-4.774
X4.318Y-3.986
X4.3309Y-4.3775
X4.3319Y-4.2952
X4.3319Y-4.3372
X4.3339Y-4.2542
X4.3962Y-4.867
X4.428Y-4.783
X4.4487Y-4.4204
X4.4551Y-4.2135
X4.4564Y-4.2832
X4.5087Y-4.2754
X4.521Y-3.998
X4.6777Y-4.4294
T2
X4.01Y-4.1992
X4.01Y-4.2992
X4.0112Y-5.045
X4.1112Y-5.045
X4.2538Y-5.045
X4.3538Y-5.045
X4.499Y-4.7386
X4.499Y-4.8386
X4.499Y-4.9386
X4.499Y-5.0386
X4.646Y-4.7386
X4.646Y-4.8386
X4.646Y-4.9386
X4.646Y-5.0386
X4.651Y-4.012
X4.651Y-4.112
T0
M30
