%TF.GenerationSoftware,KiCad,Pcbnew,(6.0.7-1)-1*%
%TF.CreationDate,2022-10-12T15:07:03-04:00*%
%TF.ProjectId,PICO_v1.0,5049434f-5f76-4312-9e30-2e6b69636164,rev?*%
%TF.SameCoordinates,Original*%
%TF.FileFunction,Copper,L2,Bot*%
%TF.FilePolarity,Positive*%
%FSLAX46Y46*%
G04 Gerber Fmt 4.6, Leading zero omitted, Abs format (unit mm)*
G04 Created by KiCad (PCBNEW (6.0.7-1)-1) date 2022-10-12 15:07:03*
%MOMM*%
%LPD*%
G01*
G04 APERTURE LIST*
G04 Aperture macros list*
%AMRoundRect*
0 Rectangle with rounded corners*
0 $1 Rounding radius*
0 $2 $3 $4 $5 $6 $7 $8 $9 X,Y pos of 4 corners*
0 Add a 4 corners polygon primitive as box body*
4,1,4,$2,$3,$4,$5,$6,$7,$8,$9,$2,$3,0*
0 Add four circle primitives for the rounded corners*
1,1,$1+$1,$2,$3*
1,1,$1+$1,$4,$5*
1,1,$1+$1,$6,$7*
1,1,$1+$1,$8,$9*
0 Add four rect primitives between the rounded corners*
20,1,$1+$1,$2,$3,$4,$5,0*
20,1,$1+$1,$4,$5,$6,$7,0*
20,1,$1+$1,$6,$7,$8,$9,0*
20,1,$1+$1,$8,$9,$2,$3,0*%
G04 Aperture macros list end*
%TA.AperFunction,ComponentPad*%
%ADD10R,1.700000X1.700000*%
%TD*%
%TA.AperFunction,ComponentPad*%
%ADD11O,1.700000X1.700000*%
%TD*%
%TA.AperFunction,SMDPad,CuDef*%
%ADD12RoundRect,0.237500X0.300000X0.237500X-0.300000X0.237500X-0.300000X-0.237500X0.300000X-0.237500X0*%
%TD*%
%TA.AperFunction,ViaPad*%
%ADD13C,0.800000*%
%TD*%
%TA.AperFunction,Conductor*%
%ADD14C,0.200000*%
%TD*%
%TA.AperFunction,Conductor*%
%ADD15C,0.500000*%
%TD*%
G04 APERTURE END LIST*
D10*
%TO.P,ADC1,1,Pin_1*%
%TO.N,GP27*%
X101854000Y-109199600D03*
D11*
%TO.P,ADC1,2,Pin_2*%
%TO.N,GP26*%
X101854000Y-106659600D03*
%TD*%
D10*
%TO.P,Data1,1,Pin_1*%
%TO.N,Net-(Data1-Pad1)*%
X108046600Y-128143000D03*
D11*
%TO.P,Data1,2,Pin_2*%
%TO.N,Net-(Data1-Pad2)*%
X110586600Y-128143000D03*
%TD*%
D10*
%TO.P,E2,1,Pin_1*%
%TO.N,GND*%
X118008400Y-127980600D03*
D11*
%TO.P,E2,2,Pin_2*%
%TO.N,PS*%
X118008400Y-125440600D03*
%TO.P,E2,3,Pin_3*%
%TO.N,EA2*%
X118008400Y-122900600D03*
%TO.P,E2,4,Pin_4*%
%TO.N,EB2*%
X118008400Y-120360600D03*
%TD*%
D10*
%TO.P,I2c1,1,Pin_1*%
%TO.N,SDA*%
X118135400Y-104444800D03*
D11*
%TO.P,I2c1,2,Pin_2*%
%TO.N,SCL*%
X118135400Y-101904800D03*
%TD*%
D10*
%TO.P,PS1,1,Pin_1*%
%TO.N,GND*%
X104424400Y-128143000D03*
D11*
%TO.P,PS1,2,Pin_2*%
%TO.N,PS*%
X101884400Y-128143000D03*
%TD*%
D10*
%TO.P,E1,1,Pin_1*%
%TO.N,GND*%
X114274600Y-127980600D03*
D11*
%TO.P,E1,2,Pin_2*%
%TO.N,PS*%
X114274600Y-125440600D03*
%TO.P,E1,3,Pin_3*%
%TO.N,EA1*%
X114274600Y-122900600D03*
%TO.P,E1,4,Pin_4*%
%TO.N,EB1*%
X114274600Y-120360600D03*
%TD*%
D12*
%TO.P,C19,1*%
%TO.N,Net-(C19-Pad1)*%
X106297900Y-102666800D03*
%TO.P,C19,2*%
%TO.N,GND*%
X104572900Y-102666800D03*
%TD*%
D13*
%TO.N,GND*%
X109677200Y-101244400D03*
X114832850Y-101549750D03*
X105435400Y-101077700D03*
X114520550Y-108595800D03*
%TO.N,V3.3*%
X112996550Y-112278800D03*
X112471553Y-121487847D03*
X113158900Y-107022900D03*
X111662800Y-123621800D03*
X105638600Y-111760000D03*
X107924600Y-107010200D03*
X118813150Y-112507400D03*
X105919100Y-121233100D03*
%TO.N,EB1*%
X110029800Y-110163900D03*
%TO.N,EA1*%
X110004400Y-111188200D03*
%TO.N,EB2*%
X110080425Y-108055700D03*
%TO.N,EA2*%
X110029800Y-109097100D03*
%TO.N,SDA*%
X113192975Y-108792225D03*
%TO.N,Net-(R5-Pad2)*%
X109321600Y-121259600D03*
X101803200Y-121920000D03*
%TO.N,Net-(C19-Pad1)*%
X106349800Y-102641400D03*
%TO.N,Net-(Data1-Pad1)*%
X102235000Y-116992400D03*
%TO.N,Net-(Data1-Pad2)*%
X103835200Y-116992400D03*
%TD*%
D14*
%TO.N,GND*%
X119599133Y-126389867D02*
X118008400Y-127980600D01*
X109321600Y-100355400D02*
X106157700Y-100355400D01*
X104572900Y-102666800D02*
X104572900Y-101940200D01*
D15*
X114274600Y-127980600D02*
X118008400Y-127980600D01*
D14*
X119105600Y-100754800D02*
X119599133Y-101248333D01*
X106157700Y-100355400D02*
X105435400Y-101077700D01*
X119340000Y-108595800D02*
X119599133Y-108854933D01*
X104572900Y-101940200D02*
X105435400Y-101077700D01*
X119599133Y-101248333D02*
X119599133Y-108854933D01*
X114520550Y-108595800D02*
X119340000Y-108595800D01*
X109677200Y-100711000D02*
X109677200Y-101244400D01*
X115627800Y-100754800D02*
X119105600Y-100754800D01*
X119599133Y-110709133D02*
X119599133Y-126389867D01*
X119599133Y-108854933D02*
X119599133Y-110709133D01*
X114832850Y-101549750D02*
X115627800Y-100754800D01*
X109321600Y-100355400D02*
X109677200Y-100711000D01*
D15*
%TO.N,V3.3*%
X105638600Y-111760000D02*
X105638600Y-109296200D01*
X112342975Y-109144307D02*
X112342975Y-107838825D01*
X112996550Y-112278800D02*
X113225150Y-112507400D01*
X112996550Y-112278800D02*
X112996550Y-109797882D01*
X113225150Y-112507400D02*
X118813150Y-112507400D01*
X112471553Y-121487847D02*
X111662800Y-122296600D01*
X112996550Y-109797882D02*
X112342975Y-109144307D01*
X111662800Y-122296600D02*
X111662800Y-123621800D01*
X105638600Y-109296200D02*
X107924600Y-107010200D01*
X112342975Y-107838825D02*
X113158900Y-107022900D01*
X107924600Y-107010200D02*
X113146200Y-107010200D01*
X113146200Y-107010200D02*
X113158900Y-107022900D01*
D14*
%TO.N,EB1*%
X111374225Y-118791025D02*
X111374225Y-111508325D01*
X111374225Y-111508325D02*
X110029800Y-110163900D01*
X112943800Y-120360600D02*
X111374225Y-118791025D01*
X114274600Y-120360600D02*
X112943800Y-120360600D01*
%TO.N,EA1*%
X114274600Y-122301650D02*
X114274600Y-122900600D01*
X110974225Y-119001275D02*
X114274600Y-122301650D01*
X110974225Y-112158025D02*
X110974225Y-119001275D01*
X110004400Y-111188200D02*
X110974225Y-112158025D01*
%TO.N,EB2*%
X117871400Y-120497600D02*
X118008400Y-120360600D01*
X116789200Y-120497600D02*
X117871400Y-120497600D01*
X112174225Y-110149500D02*
X112174225Y-115882625D01*
X110080425Y-108055700D02*
X112174225Y-110149500D01*
X112174225Y-115882625D02*
X116789200Y-120497600D01*
%TO.N,EA2*%
X111774225Y-110841525D02*
X110029800Y-109097100D01*
X116858400Y-121201800D02*
X111774225Y-116117625D01*
X116858400Y-121750600D02*
X116858400Y-121201800D01*
X118008400Y-122900600D02*
X116858400Y-121750600D01*
X111774225Y-116117625D02*
X111774225Y-110841525D01*
%TO.N,SDA*%
X114215500Y-107769700D02*
X113192975Y-108792225D01*
X113334175Y-108792225D02*
X113192975Y-108792225D01*
X114810500Y-107769700D02*
X114215500Y-107769700D01*
X118135400Y-104444800D02*
X114810500Y-107769700D01*
%TO.N,Net-(R5-Pad2)*%
X102489000Y-122605800D02*
X101803200Y-121920000D01*
X109321600Y-121259600D02*
X107975400Y-122605800D01*
X107975400Y-122605800D02*
X102489000Y-122605800D01*
%TO.N,Net-(Data1-Pad1)*%
X100431600Y-118795800D02*
X102235000Y-116992400D01*
X100431600Y-128600200D02*
X100431600Y-118795800D01*
X101549200Y-129717800D02*
X100431600Y-128600200D01*
X108046600Y-128143000D02*
X106471800Y-129717800D01*
X106471800Y-129717800D02*
X101549200Y-129717800D01*
%TO.N,Net-(Data1-Pad2)*%
X109196600Y-126993000D02*
X103294800Y-126993000D01*
X103294800Y-126993000D02*
X101103200Y-124801400D01*
X110586600Y-128143000D02*
X109196600Y-128143000D01*
X101103200Y-119724400D02*
X103835200Y-116992400D01*
X101103200Y-124801400D02*
X101103200Y-119724400D01*
X109196600Y-128143000D02*
X109196600Y-126993000D01*
%TD*%
%TA.AperFunction,Conductor*%
%TO.N,GND*%
G36*
X117428637Y-100528502D02*
G01*
X117475130Y-100582158D01*
X117485234Y-100652432D01*
X117455740Y-100717012D01*
X117418698Y-100746262D01*
X117409007Y-100751307D01*
X117404874Y-100754410D01*
X117404871Y-100754412D01*
X117380647Y-100772600D01*
X117230365Y-100885435D01*
X117076029Y-101046938D01*
X116950143Y-101231480D01*
X116856088Y-101434105D01*
X116796389Y-101649370D01*
X116772651Y-101871495D01*
X116785510Y-102094515D01*
X116786647Y-102099561D01*
X116786648Y-102099567D01*
X116791037Y-102119041D01*
X116834622Y-102312439D01*
X116918666Y-102519416D01*
X117035387Y-102709888D01*
X117181650Y-102878738D01*
X117185630Y-102882042D01*
X117190381Y-102885987D01*
X117230016Y-102944890D01*
X117231513Y-103015871D01*
X117194397Y-103076393D01*
X117154124Y-103100912D01*
X117038695Y-103144185D01*
X116922139Y-103231539D01*
X116834785Y-103348095D01*
X116783655Y-103484484D01*
X116776900Y-103546666D01*
X116776900Y-104890561D01*
X116756898Y-104958682D01*
X116739995Y-104979656D01*
X114595356Y-107124295D01*
X114533044Y-107158321D01*
X114506261Y-107161200D01*
X114263636Y-107161200D01*
X114247193Y-107160122D01*
X114215500Y-107155950D01*
X114207311Y-107157028D01*
X114199055Y-107157028D01*
X114199055Y-107153765D01*
X114144049Y-107145206D01*
X114090935Y-107098095D01*
X114071714Y-107031205D01*
X114071714Y-107029465D01*
X114072404Y-107022900D01*
X114052442Y-106832972D01*
X113993427Y-106651344D01*
X113982791Y-106632921D01*
X113901241Y-106491674D01*
X113897940Y-106485956D01*
X113891654Y-106478974D01*
X113774575Y-106348945D01*
X113774574Y-106348944D01*
X113770153Y-106344034D01*
X113615652Y-106231782D01*
X113609624Y-106229098D01*
X113609622Y-106229097D01*
X113447219Y-106156791D01*
X113447218Y-106156791D01*
X113441188Y-106154106D01*
X113347788Y-106134253D01*
X113260844Y-106115772D01*
X113260839Y-106115772D01*
X113254387Y-106114400D01*
X113063413Y-106114400D01*
X113056961Y-106115772D01*
X113056956Y-106115772D01*
X112970012Y-106134253D01*
X112876612Y-106154106D01*
X112870582Y-106156791D01*
X112870581Y-106156791D01*
X112708178Y-106229097D01*
X112708176Y-106229098D01*
X112702148Y-106231782D01*
X112697794Y-106234946D01*
X112635268Y-106251700D01*
X108467187Y-106251700D01*
X108393128Y-106227637D01*
X108386698Y-106222965D01*
X108386691Y-106222961D01*
X108381352Y-106219082D01*
X108375324Y-106216398D01*
X108375322Y-106216397D01*
X108212919Y-106144091D01*
X108212918Y-106144091D01*
X108206888Y-106141406D01*
X108113488Y-106121553D01*
X108026544Y-106103072D01*
X108026539Y-106103072D01*
X108020087Y-106101700D01*
X107829113Y-106101700D01*
X107822661Y-106103072D01*
X107822656Y-106103072D01*
X107735712Y-106121553D01*
X107642312Y-106141406D01*
X107636282Y-106144091D01*
X107636281Y-106144091D01*
X107473878Y-106216397D01*
X107473876Y-106216398D01*
X107467848Y-106219082D01*
X107462507Y-106222962D01*
X107462506Y-106222963D01*
X107450368Y-106231782D01*
X107313347Y-106331334D01*
X107185560Y-106473256D01*
X107090073Y-106638644D01*
X107061628Y-106726190D01*
X107035213Y-106807485D01*
X107004475Y-106857644D01*
X105149689Y-108712430D01*
X105135277Y-108724816D01*
X105123682Y-108733349D01*
X105123677Y-108733354D01*
X105117782Y-108737692D01*
X105113043Y-108743270D01*
X105113040Y-108743273D01*
X105083565Y-108777968D01*
X105076635Y-108785484D01*
X105070940Y-108791179D01*
X105068660Y-108794061D01*
X105053319Y-108813451D01*
X105050528Y-108816855D01*
X105008009Y-108866903D01*
X105003267Y-108872485D01*
X104999939Y-108879001D01*
X104996572Y-108884050D01*
X104993405Y-108889179D01*
X104988866Y-108894916D01*
X104957945Y-108961075D01*
X104956042Y-108964969D01*
X104922831Y-109030008D01*
X104921092Y-109037116D01*
X104918993Y-109042759D01*
X104917076Y-109048522D01*
X104913978Y-109055150D01*
X104912488Y-109062312D01*
X104912488Y-109062313D01*
X104899114Y-109126612D01*
X104898144Y-109130896D01*
X104880792Y-109201810D01*
X104880100Y-109212964D01*
X104880064Y-109212962D01*
X104879825Y-109216955D01*
X104879451Y-109221147D01*
X104877960Y-109228315D01*
X104878158Y-109235632D01*
X104880054Y-109305721D01*
X104880100Y-109309128D01*
X104880100Y-111223001D01*
X104863219Y-111286000D01*
X104804073Y-111388444D01*
X104745058Y-111570072D01*
X104744368Y-111576633D01*
X104744368Y-111576635D01*
X104738760Y-111629994D01*
X104725096Y-111760000D01*
X104745058Y-111949928D01*
X104804073Y-112131556D01*
X104899560Y-112296944D01*
X104903978Y-112301851D01*
X104903979Y-112301852D01*
X105022925Y-112433955D01*
X105027347Y-112438866D01*
X105181848Y-112551118D01*
X105187876Y-112553802D01*
X105187878Y-112553803D01*
X105350281Y-112626109D01*
X105356312Y-112628794D01*
X105449712Y-112648647D01*
X105536656Y-112667128D01*
X105536661Y-112667128D01*
X105543113Y-112668500D01*
X105734087Y-112668500D01*
X105740539Y-112667128D01*
X105740544Y-112667128D01*
X105827488Y-112648647D01*
X105920888Y-112628794D01*
X105926919Y-112626109D01*
X106089322Y-112553803D01*
X106089324Y-112553802D01*
X106095352Y-112551118D01*
X106249853Y-112438866D01*
X106254275Y-112433955D01*
X106373221Y-112301852D01*
X106373222Y-112301851D01*
X106377640Y-112296944D01*
X106473127Y-112131556D01*
X106532142Y-111949928D01*
X106552104Y-111760000D01*
X106538440Y-111629994D01*
X106532832Y-111576635D01*
X106532832Y-111576633D01*
X106532142Y-111570072D01*
X106473127Y-111388444D01*
X106413981Y-111286000D01*
X106397100Y-111223001D01*
X106397100Y-109662571D01*
X106417102Y-109594450D01*
X106434005Y-109573476D01*
X108080931Y-107926550D01*
X108143828Y-107892399D01*
X108200424Y-107880369D01*
X108200433Y-107880366D01*
X108206888Y-107878994D01*
X108212919Y-107876309D01*
X108375322Y-107804003D01*
X108375324Y-107804002D01*
X108381352Y-107801318D01*
X108386691Y-107797439D01*
X108386698Y-107797435D01*
X108393128Y-107792763D01*
X108467187Y-107768700D01*
X109057148Y-107768700D01*
X109125269Y-107788702D01*
X109171762Y-107842358D01*
X109182458Y-107907870D01*
X109174211Y-107986339D01*
X109166921Y-108055700D01*
X109167611Y-108062265D01*
X109185439Y-108231885D01*
X109186883Y-108245628D01*
X109245898Y-108427256D01*
X109249201Y-108432978D01*
X109249202Y-108432979D01*
X109270321Y-108469558D01*
X109287059Y-108538553D01*
X109270321Y-108595557D01*
X109195273Y-108725544D01*
X109136258Y-108907172D01*
X109135568Y-108913733D01*
X109135568Y-108913735D01*
X109122007Y-109042759D01*
X109116296Y-109097100D01*
X109136258Y-109287028D01*
X109195273Y-109468656D01*
X109198576Y-109474378D01*
X109198577Y-109474379D01*
X109252341Y-109567500D01*
X109269079Y-109636495D01*
X109252341Y-109693499D01*
X109195273Y-109792344D01*
X109136258Y-109973972D01*
X109116296Y-110163900D01*
X109136258Y-110353828D01*
X109195273Y-110535456D01*
X109198576Y-110541178D01*
X109198577Y-110541179D01*
X109227372Y-110591053D01*
X109244110Y-110660048D01*
X109227372Y-110717053D01*
X109169873Y-110816644D01*
X109110858Y-110998272D01*
X109090896Y-111188200D01*
X109110858Y-111378128D01*
X109169873Y-111559756D01*
X109265360Y-111725144D01*
X109269778Y-111730051D01*
X109269779Y-111730052D01*
X109358453Y-111828534D01*
X109393147Y-111867066D01*
X109547648Y-111979318D01*
X109553676Y-111982002D01*
X109553678Y-111982003D01*
X109716081Y-112054309D01*
X109722112Y-112056994D01*
X109815513Y-112076847D01*
X109902456Y-112095328D01*
X109902461Y-112095328D01*
X109908913Y-112096700D01*
X110000161Y-112096700D01*
X110068282Y-112116702D01*
X110089256Y-112133605D01*
X110328820Y-112373169D01*
X110362846Y-112435481D01*
X110365725Y-112462264D01*
X110365725Y-118953139D01*
X110364647Y-118969582D01*
X110360475Y-119001275D01*
X110365725Y-119041155D01*
X110365725Y-119041160D01*
X110375741Y-119117238D01*
X110381387Y-119160126D01*
X110442701Y-119308151D01*
X110447728Y-119314702D01*
X110447729Y-119314704D01*
X110515745Y-119403344D01*
X110515751Y-119403350D01*
X110540238Y-119435262D01*
X110546793Y-119440292D01*
X110565604Y-119454727D01*
X110577995Y-119465594D01*
X111804692Y-120692291D01*
X111838718Y-120754603D01*
X111833653Y-120825418D01*
X111809235Y-120865695D01*
X111732513Y-120950903D01*
X111697527Y-121011500D01*
X111663942Y-121069672D01*
X111637026Y-121116291D01*
X111590438Y-121259675D01*
X111582166Y-121285132D01*
X111551428Y-121335291D01*
X111173889Y-121712830D01*
X111159477Y-121725216D01*
X111147882Y-121733749D01*
X111147877Y-121733754D01*
X111141982Y-121738092D01*
X111137243Y-121743670D01*
X111137240Y-121743673D01*
X111107765Y-121778368D01*
X111100835Y-121785884D01*
X111095140Y-121791579D01*
X111092860Y-121794461D01*
X111077519Y-121813851D01*
X111074728Y-121817255D01*
X111044048Y-121853368D01*
X111027467Y-121872885D01*
X111024139Y-121879401D01*
X111020772Y-121884450D01*
X111017605Y-121889579D01*
X111013066Y-121895316D01*
X110982145Y-121961475D01*
X110980242Y-121965369D01*
X110947031Y-122030408D01*
X110945292Y-122037516D01*
X110943193Y-122043159D01*
X110941276Y-122048922D01*
X110938178Y-122055550D01*
X110936688Y-122062712D01*
X110936688Y-122062713D01*
X110923314Y-122127012D01*
X110922344Y-122131296D01*
X110904992Y-122202210D01*
X110904300Y-122213364D01*
X110904264Y-122213362D01*
X110904025Y-122217355D01*
X110903651Y-122221547D01*
X110902160Y-122228715D01*
X110902358Y-122236032D01*
X110904254Y-122306121D01*
X110904300Y-122309528D01*
X110904300Y-123084801D01*
X110887419Y-123147800D01*
X110828273Y-123250244D01*
X110769258Y-123431872D01*
X110768568Y-123438433D01*
X110768568Y-123438435D01*
X110761001Y-123510429D01*
X110749296Y-123621800D01*
X110749986Y-123628365D01*
X110757651Y-123701289D01*
X110769258Y-123811728D01*
X110828273Y-123993356D01*
X110923760Y-124158744D01*
X110928178Y-124163651D01*
X110928179Y-124163652D01*
X111037187Y-124284718D01*
X111051547Y-124300666D01*
X111206048Y-124412918D01*
X111212076Y-124415602D01*
X111212078Y-124415603D01*
X111283653Y-124447470D01*
X111380512Y-124490594D01*
X111473912Y-124510447D01*
X111560856Y-124528928D01*
X111560861Y-124528928D01*
X111567313Y-124530300D01*
X111758287Y-124530300D01*
X111764739Y-124528928D01*
X111764744Y-124528928D01*
X111851688Y-124510447D01*
X111945088Y-124490594D01*
X112041947Y-124447470D01*
X112113522Y-124415603D01*
X112113524Y-124415602D01*
X112119552Y-124412918D01*
X112274053Y-124300666D01*
X112288413Y-124284718D01*
X112397421Y-124163652D01*
X112397422Y-124163651D01*
X112401840Y-124158744D01*
X112497327Y-123993356D01*
X112556342Y-123811728D01*
X112567950Y-123701289D01*
X112575614Y-123628365D01*
X112576304Y-123621800D01*
X112564599Y-123510429D01*
X112557032Y-123438435D01*
X112557032Y-123438433D01*
X112556342Y-123431872D01*
X112497327Y-123250244D01*
X112438181Y-123147800D01*
X112421300Y-123084801D01*
X112421300Y-122662971D01*
X112441302Y-122594850D01*
X112458205Y-122573876D01*
X112627884Y-122404197D01*
X112690781Y-122370046D01*
X112747377Y-122358016D01*
X112747386Y-122358013D01*
X112753841Y-122356641D01*
X112759868Y-122353958D01*
X112759876Y-122353955D01*
X112808419Y-122332342D01*
X112878786Y-122322908D01*
X112943083Y-122353015D01*
X112980896Y-122413104D01*
X112981084Y-122481121D01*
X112935589Y-122645170D01*
X112911851Y-122867295D01*
X112912148Y-122872448D01*
X112912148Y-122872451D01*
X112923209Y-123064277D01*
X112924710Y-123090315D01*
X112925847Y-123095361D01*
X112925848Y-123095367D01*
X112934171Y-123132296D01*
X112973822Y-123308239D01*
X113057866Y-123515216D01*
X113060565Y-123519620D01*
X113127204Y-123628365D01*
X113174587Y-123705688D01*
X113320850Y-123874538D01*
X113492726Y-124017232D01*
X113563195Y-124058411D01*
X113566045Y-124060076D01*
X113614769Y-124111714D01*
X113627840Y-124181497D01*
X113601109Y-124247269D01*
X113560655Y-124280627D01*
X113548207Y-124287107D01*
X113544074Y-124290210D01*
X113544071Y-124290212D01*
X113519847Y-124308400D01*
X113369565Y-124421235D01*
X113215229Y-124582738D01*
X113089343Y-124767280D01*
X113073603Y-124801190D01*
X112998326Y-124963361D01*
X112995288Y-124969905D01*
X112935589Y-125185170D01*
X112911851Y-125407295D01*
X112912148Y-125412448D01*
X112912148Y-125412451D01*
X112917611Y-125507190D01*
X112924710Y-125630315D01*
X112925847Y-125635361D01*
X112925848Y-125635367D01*
X112945719Y-125723539D01*
X112973822Y-125848239D01*
X113057866Y-126055216D01*
X113174587Y-126245688D01*
X113320850Y-126414538D01*
X113324825Y-126417838D01*
X113324831Y-126417844D01*
X113330025Y-126422156D01*
X113369659Y-126481060D01*
X113371155Y-126552041D01*
X113334039Y-126612562D01*
X113293768Y-126637080D01*
X113186546Y-126677276D01*
X113170951Y-126685814D01*
X113068876Y-126762315D01*
X113056315Y-126774876D01*
X112979814Y-126876951D01*
X112971276Y-126892546D01*
X112926122Y-127012994D01*
X112922495Y-127028249D01*
X112916969Y-127079114D01*
X112916600Y-127085928D01*
X112916600Y-127708485D01*
X112921075Y-127723724D01*
X112922465Y-127724929D01*
X112930148Y-127726600D01*
X115614484Y-127726600D01*
X115629723Y-127722125D01*
X115630928Y-127720735D01*
X115632599Y-127713052D01*
X115632599Y-127085931D01*
X115632229Y-127079110D01*
X115626705Y-127028248D01*
X115623079Y-127012996D01*
X115577924Y-126892546D01*
X115569386Y-126876951D01*
X115492885Y-126774876D01*
X115480324Y-126762315D01*
X115378249Y-126685814D01*
X115362654Y-126677276D01*
X115252413Y-126635948D01*
X115195649Y-126593306D01*
X115170949Y-126526745D01*
X115186157Y-126457396D01*
X115207704Y-126428715D01*
X115309030Y-126327744D01*
X115309040Y-126327732D01*
X115312696Y-126324089D01*
X115372194Y-126241289D01*
X115440035Y-126146877D01*
X115443053Y-126142677D01*
X115515275Y-125996547D01*
X115539736Y-125947053D01*
X115539737Y-125947051D01*
X115542030Y-125942411D01*
X115606970Y-125728669D01*
X115636129Y-125507190D01*
X115637756Y-125440600D01*
X115619452Y-125217961D01*
X115565031Y-125001302D01*
X115475954Y-124796440D01*
X115354614Y-124608877D01*
X115204270Y-124443651D01*
X115200219Y-124440452D01*
X115200215Y-124440448D01*
X115033014Y-124308400D01*
X115033010Y-124308398D01*
X115028959Y-124305198D01*
X114987653Y-124282396D01*
X114937684Y-124231964D01*
X114922912Y-124162521D01*
X114948028Y-124096116D01*
X114975380Y-124069509D01*
X115019203Y-124038250D01*
X115154460Y-123941773D01*
X115312696Y-123784089D01*
X115372194Y-123701289D01*
X115440035Y-123606877D01*
X115443053Y-123602677D01*
X115515275Y-123456547D01*
X115539736Y-123407053D01*
X115539737Y-123407051D01*
X115542030Y-123402411D01*
X115574500Y-123295540D01*
X115605465Y-123193623D01*
X115605465Y-123193621D01*
X115606970Y-123188669D01*
X115636129Y-122967190D01*
X115637157Y-122925118D01*
X115637674Y-122903965D01*
X115637674Y-122903961D01*
X115637756Y-122900600D01*
X115619452Y-122677961D01*
X115565031Y-122461302D01*
X115475954Y-122256440D01*
X115408825Y-122152675D01*
X115357422Y-122073217D01*
X115357420Y-122073214D01*
X115354614Y-122068877D01*
X115204270Y-121903651D01*
X115200219Y-121900452D01*
X115200215Y-121900448D01*
X115033014Y-121768400D01*
X115033010Y-121768398D01*
X115028959Y-121765198D01*
X114987653Y-121742396D01*
X114937684Y-121691964D01*
X114922912Y-121622521D01*
X114948028Y-121556116D01*
X114975380Y-121529509D01*
X115078708Y-121455806D01*
X115154460Y-121401773D01*
X115312696Y-121244089D01*
X115320593Y-121233100D01*
X115440035Y-121066877D01*
X115443053Y-121062677D01*
X115447396Y-121053891D01*
X115502707Y-120941976D01*
X115550821Y-120889769D01*
X115619522Y-120871862D01*
X115686998Y-120893940D01*
X115704759Y-120908708D01*
X116212995Y-121416944D01*
X116247021Y-121479256D01*
X116249900Y-121506039D01*
X116249900Y-121702464D01*
X116248822Y-121718907D01*
X116244650Y-121750600D01*
X116249900Y-121790480D01*
X116249900Y-121790485D01*
X116262887Y-121889131D01*
X116265562Y-121909451D01*
X116326876Y-122057476D01*
X116331903Y-122064027D01*
X116331904Y-122064029D01*
X116399920Y-122152669D01*
X116399926Y-122152675D01*
X116424413Y-122184587D01*
X116430968Y-122189617D01*
X116449779Y-122204052D01*
X116462170Y-122214919D01*
X116665854Y-122418603D01*
X116699880Y-122480915D01*
X116698176Y-122541369D01*
X116669389Y-122645170D01*
X116668841Y-122650300D01*
X116668840Y-122650304D01*
X116665333Y-122683122D01*
X116645651Y-122867295D01*
X116645948Y-122872448D01*
X116645948Y-122872451D01*
X116657009Y-123064277D01*
X116658510Y-123090315D01*
X116659647Y-123095361D01*
X116659648Y-123095367D01*
X116667971Y-123132296D01*
X116707622Y-123308239D01*
X116791666Y-123515216D01*
X116794365Y-123519620D01*
X116861004Y-123628365D01*
X116908387Y-123705688D01*
X117054650Y-123874538D01*
X117226526Y-124017232D01*
X117296995Y-124058411D01*
X117299845Y-124060076D01*
X117348569Y-124111714D01*
X117361640Y-124181497D01*
X117334909Y-124247269D01*
X117294455Y-124280627D01*
X117282007Y-124287107D01*
X117277874Y-124290210D01*
X117277871Y-124290212D01*
X117253647Y-124308400D01*
X117103365Y-124421235D01*
X116949029Y-124582738D01*
X116823143Y-124767280D01*
X116807403Y-124801190D01*
X116732126Y-124963361D01*
X116729088Y-124969905D01*
X116669389Y-125185170D01*
X116645651Y-125407295D01*
X116645948Y-125412448D01*
X116645948Y-125412451D01*
X116651411Y-125507190D01*
X116658510Y-125630315D01*
X116659647Y-125635361D01*
X116659648Y-125635367D01*
X116679519Y-125723539D01*
X116707622Y-125848239D01*
X116791666Y-126055216D01*
X116908387Y-126245688D01*
X117054650Y-126414538D01*
X117058625Y-126417838D01*
X117058631Y-126417844D01*
X117063825Y-126422156D01*
X117103459Y-126481060D01*
X117104955Y-126552041D01*
X117067839Y-126612562D01*
X117027568Y-126637080D01*
X116920346Y-126677276D01*
X116904751Y-126685814D01*
X116802676Y-126762315D01*
X116790115Y-126774876D01*
X116713614Y-126876951D01*
X116705076Y-126892546D01*
X116659922Y-127012994D01*
X116656295Y-127028249D01*
X116650769Y-127079114D01*
X116650400Y-127085928D01*
X116650400Y-127708485D01*
X116654875Y-127723724D01*
X116656265Y-127724929D01*
X116663948Y-127726600D01*
X118136400Y-127726600D01*
X118204521Y-127746602D01*
X118251014Y-127800258D01*
X118262400Y-127852600D01*
X118262400Y-128108600D01*
X118242398Y-128176721D01*
X118188742Y-128223214D01*
X118136400Y-128234600D01*
X116668516Y-128234600D01*
X116653277Y-128239075D01*
X116652072Y-128240465D01*
X116650401Y-128248148D01*
X116650401Y-128875269D01*
X116650771Y-128882090D01*
X116656295Y-128932952D01*
X116659921Y-128948204D01*
X116705076Y-129068654D01*
X116713614Y-129084249D01*
X116790115Y-129186324D01*
X116802676Y-129198885D01*
X116890458Y-129264674D01*
X116932973Y-129321533D01*
X116937999Y-129392352D01*
X116903939Y-129454645D01*
X116841608Y-129488635D01*
X116814893Y-129491500D01*
X115468107Y-129491500D01*
X115399986Y-129471498D01*
X115353493Y-129417842D01*
X115343389Y-129347568D01*
X115372883Y-129282988D01*
X115392542Y-129264674D01*
X115480324Y-129198885D01*
X115492885Y-129186324D01*
X115569386Y-129084249D01*
X115577924Y-129068654D01*
X115623078Y-128948206D01*
X115626705Y-128932951D01*
X115632231Y-128882086D01*
X115632600Y-128875272D01*
X115632600Y-128252715D01*
X115628125Y-128237476D01*
X115626735Y-128236271D01*
X115619052Y-128234600D01*
X112934716Y-128234600D01*
X112919477Y-128239075D01*
X112918272Y-128240465D01*
X112916601Y-128248148D01*
X112916601Y-128875269D01*
X112916971Y-128882090D01*
X112922495Y-128932952D01*
X112926121Y-128948204D01*
X112971276Y-129068654D01*
X112979814Y-129084249D01*
X113056315Y-129186324D01*
X113068876Y-129198885D01*
X113156658Y-129264674D01*
X113199173Y-129321533D01*
X113204199Y-129392352D01*
X113170139Y-129454645D01*
X113107808Y-129488635D01*
X113081093Y-129491500D01*
X111429227Y-129491500D01*
X111361106Y-129471498D01*
X111314613Y-129417842D01*
X111304509Y-129347568D01*
X111334003Y-129282988D01*
X111356059Y-129262921D01*
X111462256Y-129187172D01*
X111462259Y-129187170D01*
X111466460Y-129184173D01*
X111624696Y-129026489D01*
X111691910Y-128932951D01*
X111752035Y-128849277D01*
X111755053Y-128845077D01*
X111854030Y-128644811D01*
X111918970Y-128431069D01*
X111948129Y-128209590D01*
X111949756Y-128143000D01*
X111931452Y-127920361D01*
X111877031Y-127703702D01*
X111787954Y-127498840D01*
X111666614Y-127311277D01*
X111516270Y-127146051D01*
X111512219Y-127142852D01*
X111512215Y-127142848D01*
X111345014Y-127010800D01*
X111345010Y-127010798D01*
X111340959Y-127007598D01*
X111145389Y-126899638D01*
X111140520Y-126897914D01*
X111140516Y-126897912D01*
X110939687Y-126826795D01*
X110939683Y-126826794D01*
X110934812Y-126825069D01*
X110929719Y-126824162D01*
X110929716Y-126824161D01*
X110719973Y-126786800D01*
X110719967Y-126786799D01*
X110714884Y-126785894D01*
X110641052Y-126784992D01*
X110496681Y-126783228D01*
X110496679Y-126783228D01*
X110491511Y-126783165D01*
X110270691Y-126816955D01*
X110058356Y-126886357D01*
X109972731Y-126930931D01*
X109903074Y-126944643D01*
X109837059Y-126918518D01*
X109795647Y-126860850D01*
X109793105Y-126850193D01*
X109792653Y-126850314D01*
X109790516Y-126842338D01*
X109789438Y-126834150D01*
X109728124Y-126686125D01*
X109656901Y-126593306D01*
X109635616Y-126565566D01*
X109635613Y-126565563D01*
X109630587Y-126559013D01*
X109628266Y-126557232D01*
X109503476Y-126461476D01*
X109495850Y-126458317D01*
X109495848Y-126458316D01*
X109363080Y-126403322D01*
X109363077Y-126403321D01*
X109355450Y-126400162D01*
X109196600Y-126379249D01*
X109188412Y-126380327D01*
X109164903Y-126383422D01*
X109148457Y-126384500D01*
X103599039Y-126384500D01*
X103530918Y-126364498D01*
X103509944Y-126347595D01*
X101748605Y-124586256D01*
X101714579Y-124523944D01*
X101711700Y-124497161D01*
X101711700Y-122993239D01*
X101731702Y-122925118D01*
X101785358Y-122878625D01*
X101855632Y-122868521D01*
X101920212Y-122898015D01*
X101926795Y-122904144D01*
X102024685Y-123002034D01*
X102035552Y-123014425D01*
X102055013Y-123039787D01*
X102061563Y-123044813D01*
X102086921Y-123064271D01*
X102086937Y-123064285D01*
X102120861Y-123090315D01*
X102182124Y-123137324D01*
X102330149Y-123198638D01*
X102489000Y-123219551D01*
X102520699Y-123215378D01*
X102537144Y-123214300D01*
X107927264Y-123214300D01*
X107943707Y-123215378D01*
X107975400Y-123219550D01*
X107983589Y-123218472D01*
X108015274Y-123214301D01*
X108015284Y-123214300D01*
X108015285Y-123214300D01*
X108114857Y-123201191D01*
X108126064Y-123199716D01*
X108126066Y-123199715D01*
X108134251Y-123198638D01*
X108282276Y-123137324D01*
X108306727Y-123118562D01*
X108377469Y-123064280D01*
X108377475Y-123064274D01*
X108402834Y-123044815D01*
X108409387Y-123039787D01*
X108414417Y-123033232D01*
X108428852Y-123014421D01*
X108439719Y-123002030D01*
X109236744Y-122205005D01*
X109299056Y-122170979D01*
X109325839Y-122168100D01*
X109417087Y-122168100D01*
X109423539Y-122166728D01*
X109423544Y-122166728D01*
X109510488Y-122148247D01*
X109603888Y-122128394D01*
X109609919Y-122125709D01*
X109772322Y-122053403D01*
X109772324Y-122053402D01*
X109778352Y-122050718D01*
X109788396Y-122043421D01*
X109855838Y-121994421D01*
X109932853Y-121938466D01*
X109946201Y-121923642D01*
X110056221Y-121801452D01*
X110056222Y-121801451D01*
X110060640Y-121796544D01*
X110156127Y-121631156D01*
X110215142Y-121449528D01*
X110217268Y-121429306D01*
X110234414Y-121266165D01*
X110235104Y-121259600D01*
X110221083Y-121126197D01*
X110215832Y-121076235D01*
X110215832Y-121076233D01*
X110215142Y-121069672D01*
X110156127Y-120888044D01*
X110060640Y-120722656D01*
X109932853Y-120580734D01*
X109778352Y-120468482D01*
X109772324Y-120465798D01*
X109772322Y-120465797D01*
X109609919Y-120393491D01*
X109609918Y-120393491D01*
X109603888Y-120390806D01*
X109491848Y-120366991D01*
X109423544Y-120352472D01*
X109423539Y-120352472D01*
X109417087Y-120351100D01*
X109226113Y-120351100D01*
X109219661Y-120352472D01*
X109219656Y-120352472D01*
X109151352Y-120366991D01*
X109039312Y-120390806D01*
X109033282Y-120393491D01*
X109033281Y-120393491D01*
X108870878Y-120465797D01*
X108870876Y-120465798D01*
X108864848Y-120468482D01*
X108710347Y-120580734D01*
X108582560Y-120722656D01*
X108487073Y-120888044D01*
X108428058Y-121069672D01*
X108427368Y-121076233D01*
X108427368Y-121076235D01*
X108422117Y-121126197D01*
X108408096Y-121259600D01*
X108408284Y-121261386D01*
X108388784Y-121327796D01*
X108371881Y-121348770D01*
X107760256Y-121960395D01*
X107697944Y-121994421D01*
X107671161Y-121997300D01*
X106736518Y-121997300D01*
X106668397Y-121977298D01*
X106621904Y-121923642D01*
X106611800Y-121853368D01*
X106642880Y-121786992D01*
X106658140Y-121770044D01*
X106753627Y-121604656D01*
X106812642Y-121423028D01*
X106821864Y-121335291D01*
X106831914Y-121239665D01*
X106832604Y-121233100D01*
X106815427Y-121069672D01*
X106813332Y-121049735D01*
X106813332Y-121049733D01*
X106812642Y-121043172D01*
X106753627Y-120861544D01*
X106658140Y-120696156D01*
X106550718Y-120576851D01*
X106534775Y-120559145D01*
X106534774Y-120559144D01*
X106530353Y-120554234D01*
X106412326Y-120468482D01*
X106381194Y-120445863D01*
X106381193Y-120445862D01*
X106375852Y-120441982D01*
X106369824Y-120439298D01*
X106369822Y-120439297D01*
X106207419Y-120366991D01*
X106207418Y-120366991D01*
X106201388Y-120364306D01*
X106107987Y-120344453D01*
X106021044Y-120325972D01*
X106021039Y-120325972D01*
X106014587Y-120324600D01*
X105823613Y-120324600D01*
X105817161Y-120325972D01*
X105817156Y-120325972D01*
X105730213Y-120344453D01*
X105636812Y-120364306D01*
X105630782Y-120366991D01*
X105630781Y-120366991D01*
X105468378Y-120439297D01*
X105468376Y-120439298D01*
X105462348Y-120441982D01*
X105457007Y-120445862D01*
X105457006Y-120445863D01*
X105425874Y-120468482D01*
X105307847Y-120554234D01*
X105303426Y-120559144D01*
X105303425Y-120559145D01*
X105287483Y-120576851D01*
X105180060Y-120696156D01*
X105084573Y-120861544D01*
X105025558Y-121043172D01*
X105024868Y-121049733D01*
X105024868Y-121049735D01*
X105022773Y-121069672D01*
X105005596Y-121233100D01*
X105006286Y-121239665D01*
X105016337Y-121335291D01*
X105025558Y-121423028D01*
X105084573Y-121604656D01*
X105180060Y-121770044D01*
X105195320Y-121786992D01*
X105226036Y-121850998D01*
X105217271Y-121921452D01*
X105171808Y-121975982D01*
X105101682Y-121997300D01*
X102838280Y-121997300D01*
X102770159Y-121977298D01*
X102723666Y-121923642D01*
X102712970Y-121884471D01*
X102697432Y-121736634D01*
X102697431Y-121736631D01*
X102696742Y-121730072D01*
X102637727Y-121548444D01*
X102542240Y-121383056D01*
X102465583Y-121297919D01*
X102418875Y-121246045D01*
X102418874Y-121246044D01*
X102414453Y-121241134D01*
X102259952Y-121128882D01*
X102253924Y-121126198D01*
X102253922Y-121126197D01*
X102091519Y-121053891D01*
X102091518Y-121053891D01*
X102085488Y-121051206D01*
X101992088Y-121031353D01*
X101905144Y-121012872D01*
X101905139Y-121012872D01*
X101898687Y-121011500D01*
X101837700Y-121011500D01*
X101769579Y-120991498D01*
X101723086Y-120937842D01*
X101711700Y-120885500D01*
X101711700Y-120028639D01*
X101731702Y-119960518D01*
X101748605Y-119939544D01*
X103750344Y-117937805D01*
X103812656Y-117903779D01*
X103839439Y-117900900D01*
X103930687Y-117900900D01*
X103937139Y-117899528D01*
X103937144Y-117899528D01*
X104024087Y-117881047D01*
X104117488Y-117861194D01*
X104123874Y-117858351D01*
X104285922Y-117786203D01*
X104285924Y-117786202D01*
X104291952Y-117783518D01*
X104446453Y-117671266D01*
X104574240Y-117529344D01*
X104669727Y-117363956D01*
X104728742Y-117182328D01*
X104748704Y-116992400D01*
X104728742Y-116802472D01*
X104669727Y-116620844D01*
X104574240Y-116455456D01*
X104446453Y-116313534D01*
X104291952Y-116201282D01*
X104285924Y-116198598D01*
X104285922Y-116198597D01*
X104123519Y-116126291D01*
X104123518Y-116126291D01*
X104117488Y-116123606D01*
X104024087Y-116103753D01*
X103937144Y-116085272D01*
X103937139Y-116085272D01*
X103930687Y-116083900D01*
X103739713Y-116083900D01*
X103733261Y-116085272D01*
X103733256Y-116085272D01*
X103646313Y-116103753D01*
X103552912Y-116123606D01*
X103546882Y-116126291D01*
X103546881Y-116126291D01*
X103384478Y-116198597D01*
X103384476Y-116198598D01*
X103378448Y-116201282D01*
X103223947Y-116313534D01*
X103219526Y-116318444D01*
X103219525Y-116318445D01*
X103128736Y-116419277D01*
X103068290Y-116456517D01*
X102997307Y-116455165D01*
X102941464Y-116419277D01*
X102850675Y-116318445D01*
X102850674Y-116318444D01*
X102846253Y-116313534D01*
X102691752Y-116201282D01*
X102685724Y-116198598D01*
X102685722Y-116198597D01*
X102523319Y-116126291D01*
X102523318Y-116126291D01*
X102517288Y-116123606D01*
X102423887Y-116103753D01*
X102336944Y-116085272D01*
X102336939Y-116085272D01*
X102330487Y-116083900D01*
X102139513Y-116083900D01*
X102133061Y-116085272D01*
X102133056Y-116085272D01*
X102046113Y-116103753D01*
X101952712Y-116123606D01*
X101946682Y-116126291D01*
X101946681Y-116126291D01*
X101784278Y-116198597D01*
X101784276Y-116198598D01*
X101778248Y-116201282D01*
X101623747Y-116313534D01*
X101495960Y-116455456D01*
X101400473Y-116620844D01*
X101341458Y-116802472D01*
X101321496Y-116992400D01*
X101321684Y-116994186D01*
X101302184Y-117060596D01*
X101285281Y-117081570D01*
X100723595Y-117643256D01*
X100661283Y-117677282D01*
X100590468Y-117672217D01*
X100533632Y-117629670D01*
X100508821Y-117563150D01*
X100508500Y-117554161D01*
X100508500Y-110565644D01*
X100528502Y-110497523D01*
X100582158Y-110451030D01*
X100652432Y-110440926D01*
X100710065Y-110464818D01*
X100757295Y-110500215D01*
X100893684Y-110551345D01*
X100955866Y-110558100D01*
X102752134Y-110558100D01*
X102814316Y-110551345D01*
X102950705Y-110500215D01*
X103067261Y-110412861D01*
X103154615Y-110296305D01*
X103205745Y-110159916D01*
X103212500Y-110097734D01*
X103212500Y-108301466D01*
X103205745Y-108239284D01*
X103154615Y-108102895D01*
X103067261Y-107986339D01*
X102950705Y-107898985D01*
X102901047Y-107880369D01*
X102832203Y-107854560D01*
X102775439Y-107811918D01*
X102750739Y-107745356D01*
X102765947Y-107676008D01*
X102787493Y-107647327D01*
X102888435Y-107546737D01*
X102892096Y-107543089D01*
X102962568Y-107445017D01*
X103019435Y-107365877D01*
X103022453Y-107361677D01*
X103115056Y-107174309D01*
X103119136Y-107166053D01*
X103119137Y-107166051D01*
X103121430Y-107161411D01*
X103186370Y-106947669D01*
X103215529Y-106726190D01*
X103217156Y-106659600D01*
X103198852Y-106436961D01*
X103144431Y-106220302D01*
X103055354Y-106015440D01*
X102970251Y-105883891D01*
X102936822Y-105832217D01*
X102936820Y-105832214D01*
X102934014Y-105827877D01*
X102783670Y-105662651D01*
X102779619Y-105659452D01*
X102779615Y-105659448D01*
X102612414Y-105527400D01*
X102612410Y-105527398D01*
X102608359Y-105524198D01*
X102412789Y-105416238D01*
X102407920Y-105414514D01*
X102407916Y-105414512D01*
X102207087Y-105343395D01*
X102207083Y-105343394D01*
X102202212Y-105341669D01*
X102197119Y-105340762D01*
X102197116Y-105340761D01*
X101987373Y-105303400D01*
X101987367Y-105303399D01*
X101982284Y-105302494D01*
X101908452Y-105301592D01*
X101764081Y-105299828D01*
X101764079Y-105299828D01*
X101758911Y-105299765D01*
X101538091Y-105333555D01*
X101325756Y-105402957D01*
X101127607Y-105506107D01*
X101123474Y-105509210D01*
X101123471Y-105509212D01*
X101099247Y-105527400D01*
X100948965Y-105640235D01*
X100945393Y-105643973D01*
X100799592Y-105796545D01*
X100794629Y-105801738D01*
X100791715Y-105806010D01*
X100791714Y-105806011D01*
X100738588Y-105883891D01*
X100683677Y-105928894D01*
X100613152Y-105937065D01*
X100549405Y-105905811D01*
X100512675Y-105845054D01*
X100508500Y-105812887D01*
X100508500Y-102950566D01*
X103527400Y-102950566D01*
X103527737Y-102957082D01*
X103537475Y-103050932D01*
X103540368Y-103064328D01*
X103590888Y-103215753D01*
X103597053Y-103228915D01*
X103680826Y-103364292D01*
X103689860Y-103375690D01*
X103802529Y-103488163D01*
X103813940Y-103497175D01*
X103949463Y-103580712D01*
X103962641Y-103586856D01*
X104114166Y-103637115D01*
X104127532Y-103639981D01*
X104220170Y-103649472D01*
X104226585Y-103649800D01*
X104300785Y-103649800D01*
X104316024Y-103645325D01*
X104317229Y-103643935D01*
X104318900Y-103636252D01*
X104318900Y-103631685D01*
X104826900Y-103631685D01*
X104831375Y-103646924D01*
X104832765Y-103648129D01*
X104840448Y-103649800D01*
X104919166Y-103649800D01*
X104925682Y-103649463D01*
X105019532Y-103639725D01*
X105032928Y-103636832D01*
X105184353Y-103586312D01*
X105197515Y-103580147D01*
X105332892Y-103496374D01*
X105344294Y-103487336D01*
X105345967Y-103485661D01*
X105347393Y-103484881D01*
X105350027Y-103482793D01*
X105350384Y-103483244D01*
X105408249Y-103451581D01*
X105479069Y-103456584D01*
X105524154Y-103485501D01*
X105526821Y-103488163D01*
X105532397Y-103493729D01*
X105538627Y-103497569D01*
X105538628Y-103497570D01*
X105623820Y-103550083D01*
X105680480Y-103585009D01*
X105845591Y-103639774D01*
X105852427Y-103640474D01*
X105852430Y-103640475D01*
X105899770Y-103645325D01*
X105948328Y-103650300D01*
X106647472Y-103650300D01*
X106650718Y-103649963D01*
X106650722Y-103649963D01*
X106744635Y-103640219D01*
X106744639Y-103640218D01*
X106751493Y-103639507D01*
X106758029Y-103637326D01*
X106758031Y-103637326D01*
X106890795Y-103593032D01*
X106916507Y-103584454D01*
X107064431Y-103492916D01*
X107105694Y-103451581D01*
X107182158Y-103374984D01*
X107182162Y-103374979D01*
X107187329Y-103369803D01*
X107268131Y-103238719D01*
X107274769Y-103227950D01*
X107274770Y-103227948D01*
X107278609Y-103221720D01*
X107333374Y-103056609D01*
X107343900Y-102953872D01*
X107343900Y-102379728D01*
X107337415Y-102317225D01*
X107333819Y-102282565D01*
X107333818Y-102282561D01*
X107333107Y-102275707D01*
X107278054Y-102110693D01*
X107186516Y-101962769D01*
X107105625Y-101882019D01*
X107068584Y-101845042D01*
X107068579Y-101845038D01*
X107063403Y-101839871D01*
X106915320Y-101748591D01*
X106750209Y-101693826D01*
X106743373Y-101693126D01*
X106743370Y-101693125D01*
X106691874Y-101687849D01*
X106647472Y-101683300D01*
X105948328Y-101683300D01*
X105945082Y-101683637D01*
X105945078Y-101683637D01*
X105851165Y-101693381D01*
X105851161Y-101693382D01*
X105844307Y-101694093D01*
X105837771Y-101696274D01*
X105837769Y-101696274D01*
X105705005Y-101740568D01*
X105679293Y-101749146D01*
X105531369Y-101840684D01*
X105526197Y-101845865D01*
X105524127Y-101847939D01*
X105522362Y-101848905D01*
X105520459Y-101850413D01*
X105520201Y-101850087D01*
X105461846Y-101882019D01*
X105391025Y-101877018D01*
X105345930Y-101848092D01*
X105343269Y-101845436D01*
X105331860Y-101836425D01*
X105196337Y-101752888D01*
X105183159Y-101746744D01*
X105031634Y-101696485D01*
X105018268Y-101693619D01*
X104925630Y-101684128D01*
X104919215Y-101683800D01*
X104845015Y-101683800D01*
X104829776Y-101688275D01*
X104828571Y-101689665D01*
X104826900Y-101697348D01*
X104826900Y-103631685D01*
X104318900Y-103631685D01*
X104318900Y-102938915D01*
X104314425Y-102923676D01*
X104313035Y-102922471D01*
X104305352Y-102920800D01*
X103545515Y-102920800D01*
X103530276Y-102925275D01*
X103529071Y-102926665D01*
X103527400Y-102934348D01*
X103527400Y-102950566D01*
X100508500Y-102950566D01*
X100508500Y-102394685D01*
X103527400Y-102394685D01*
X103531875Y-102409924D01*
X103533265Y-102411129D01*
X103540948Y-102412800D01*
X104300785Y-102412800D01*
X104316024Y-102408325D01*
X104317229Y-102406935D01*
X104318900Y-102399252D01*
X104318900Y-101701915D01*
X104314425Y-101686676D01*
X104313035Y-101685471D01*
X104305352Y-101683800D01*
X104226634Y-101683800D01*
X104220118Y-101684137D01*
X104126268Y-101693875D01*
X104112872Y-101696768D01*
X103961447Y-101747288D01*
X103948285Y-101753453D01*
X103812908Y-101837226D01*
X103801510Y-101846260D01*
X103689037Y-101958929D01*
X103680025Y-101970340D01*
X103596488Y-102105863D01*
X103590344Y-102119041D01*
X103540085Y-102270566D01*
X103537219Y-102283932D01*
X103527728Y-102376570D01*
X103527400Y-102382985D01*
X103527400Y-102394685D01*
X100508500Y-102394685D01*
X100508500Y-100634500D01*
X100528502Y-100566379D01*
X100582158Y-100519886D01*
X100634500Y-100508500D01*
X117360516Y-100508500D01*
X117428637Y-100528502D01*
G37*
%TD.AperFunction*%
%TA.AperFunction,Conductor*%
G36*
X106630221Y-127621502D02*
G01*
X106676714Y-127675158D01*
X106688100Y-127727500D01*
X106688100Y-128588761D01*
X106668098Y-128656882D01*
X106651195Y-128677856D01*
X106256656Y-129072395D01*
X106194344Y-129106421D01*
X106167561Y-129109300D01*
X105908400Y-129109300D01*
X105840279Y-129089298D01*
X105793786Y-129035642D01*
X105782400Y-128983300D01*
X105782400Y-128415115D01*
X105777925Y-128399876D01*
X105776535Y-128398671D01*
X105768852Y-128397000D01*
X104296400Y-128397000D01*
X104228279Y-128376998D01*
X104181786Y-128323342D01*
X104170400Y-128271000D01*
X104170400Y-128015000D01*
X104190402Y-127946879D01*
X104244058Y-127900386D01*
X104296400Y-127889000D01*
X105764284Y-127889000D01*
X105779523Y-127884525D01*
X105780728Y-127883135D01*
X105782399Y-127875452D01*
X105782399Y-127727500D01*
X105802401Y-127659379D01*
X105856057Y-127612886D01*
X105908399Y-127601500D01*
X106562100Y-127601500D01*
X106630221Y-127621502D01*
G37*
%TD.AperFunction*%
%TA.AperFunction,Conductor*%
G36*
X119425824Y-105692279D02*
G01*
X119476054Y-105742453D01*
X119491500Y-105802900D01*
X119491500Y-111629994D01*
X119471498Y-111698115D01*
X119417842Y-111744608D01*
X119347568Y-111754712D01*
X119291438Y-111731929D01*
X119275245Y-111720164D01*
X119269902Y-111716282D01*
X119263874Y-111713598D01*
X119263872Y-111713597D01*
X119101469Y-111641291D01*
X119101468Y-111641291D01*
X119095438Y-111638606D01*
X119002037Y-111618753D01*
X118915094Y-111600272D01*
X118915089Y-111600272D01*
X118908637Y-111598900D01*
X118717663Y-111598900D01*
X118711211Y-111600272D01*
X118711206Y-111600272D01*
X118624262Y-111618753D01*
X118530862Y-111638606D01*
X118524832Y-111641291D01*
X118524831Y-111641291D01*
X118362428Y-111713597D01*
X118362426Y-111713598D01*
X118356398Y-111716282D01*
X118351059Y-111720161D01*
X118351052Y-111720165D01*
X118344622Y-111724837D01*
X118270563Y-111748900D01*
X113881050Y-111748900D01*
X113812929Y-111728898D01*
X113766436Y-111675242D01*
X113755050Y-111622900D01*
X113755050Y-109864952D01*
X113756483Y-109846002D01*
X113758649Y-109831767D01*
X113758649Y-109831763D01*
X113759749Y-109824533D01*
X113755465Y-109771864D01*
X113755050Y-109761649D01*
X113755050Y-109753589D01*
X113751759Y-109725362D01*
X113751328Y-109721003D01*
X113746004Y-109655544D01*
X113746003Y-109655541D01*
X113745410Y-109648246D01*
X113743155Y-109641286D01*
X113741968Y-109635344D01*
X113740579Y-109629468D01*
X113739732Y-109622201D01*
X113737252Y-109615369D01*
X113741049Y-109544493D01*
X113785812Y-109484471D01*
X113798884Y-109474974D01*
X113798886Y-109474972D01*
X113804228Y-109471091D01*
X113932015Y-109329169D01*
X114027502Y-109163781D01*
X114086517Y-108982153D01*
X114088323Y-108964975D01*
X114105789Y-108798790D01*
X114106479Y-108792225D01*
X114106291Y-108790439D01*
X114125791Y-108724029D01*
X114142694Y-108703055D01*
X114430644Y-108415105D01*
X114492956Y-108381079D01*
X114519739Y-108378200D01*
X114762364Y-108378200D01*
X114778807Y-108379278D01*
X114810500Y-108383450D01*
X114818689Y-108382372D01*
X114850374Y-108378201D01*
X114850384Y-108378200D01*
X114850385Y-108378200D01*
X114949957Y-108365091D01*
X114961164Y-108363616D01*
X114961166Y-108363615D01*
X114969351Y-108362538D01*
X115117376Y-108301224D01*
X115212572Y-108228177D01*
X115212575Y-108228174D01*
X115244487Y-108203687D01*
X115249517Y-108197132D01*
X115263952Y-108178321D01*
X115274819Y-108165930D01*
X117600544Y-105840205D01*
X117662856Y-105806179D01*
X117689639Y-105803300D01*
X119033534Y-105803300D01*
X119095716Y-105796545D01*
X119232105Y-105745415D01*
X119289934Y-105702074D01*
X119356442Y-105677226D01*
X119425824Y-105692279D01*
G37*
%TD.AperFunction*%
%TA.AperFunction,Conductor*%
G36*
X119433621Y-100528502D02*
G01*
X119480114Y-100582158D01*
X119491500Y-100634500D01*
X119491500Y-101073105D01*
X119471498Y-101141226D01*
X119417842Y-101187719D01*
X119347568Y-101197823D01*
X119282988Y-101168329D01*
X119259708Y-101141545D01*
X119218222Y-101077417D01*
X119218220Y-101077414D01*
X119215414Y-101073077D01*
X119065070Y-100907851D01*
X119061019Y-100904652D01*
X119061015Y-100904648D01*
X118893814Y-100772600D01*
X118893810Y-100772598D01*
X118889759Y-100769398D01*
X118852660Y-100748918D01*
X118845216Y-100744809D01*
X118795245Y-100694376D01*
X118780473Y-100624933D01*
X118805589Y-100558528D01*
X118862620Y-100516243D01*
X118906109Y-100508500D01*
X119365500Y-100508500D01*
X119433621Y-100528502D01*
G37*
%TD.AperFunction*%
%TD*%
M02*
