%TF.GenerationSoftware,KiCad,Pcbnew,(6.0.7-1)-1*%
%TF.CreationDate,2022-10-12T15:07:03-04:00*%
%TF.ProjectId,PICO_v1.0,5049434f-5f76-4312-9e30-2e6b69636164,rev?*%
%TF.SameCoordinates,Original*%
%TF.FileFunction,Legend,Bot*%
%TF.FilePolarity,Positive*%
%FSLAX46Y46*%
G04 Gerber Fmt 4.6, Leading zero omitted, Abs format (unit mm)*
G04 Created by KiCad (PCBNEW (6.0.7-1)-1) date 2022-10-12 15:07:03*
%MOMM*%
%LPD*%
G01*
G04 APERTURE LIST*
%ADD10C,0.050000*%
%ADD11C,0.100000*%
G04 APERTURE END LIST*
D10*
%TO.C,C19*%
X103688342Y-102499342D02*
X103702628Y-102485057D01*
X103716914Y-102442200D01*
X103716914Y-102413628D01*
X103702628Y-102370771D01*
X103674057Y-102342200D01*
X103645485Y-102327914D01*
X103588342Y-102313628D01*
X103545485Y-102313628D01*
X103488342Y-102327914D01*
X103459771Y-102342200D01*
X103431200Y-102370771D01*
X103416914Y-102413628D01*
X103416914Y-102442200D01*
X103431200Y-102485057D01*
X103445485Y-102499342D01*
X103716914Y-102785057D02*
X103716914Y-102613628D01*
X103716914Y-102699342D02*
X103416914Y-102699342D01*
X103459771Y-102670771D01*
X103488342Y-102642200D01*
X103502628Y-102613628D01*
X103716914Y-102927914D02*
X103716914Y-102985057D01*
X103702628Y-103013628D01*
X103688342Y-103027914D01*
X103645485Y-103056485D01*
X103588342Y-103070771D01*
X103474057Y-103070771D01*
X103445485Y-103056485D01*
X103431200Y-103042200D01*
X103416914Y-103013628D01*
X103416914Y-102956485D01*
X103431200Y-102927914D01*
X103445485Y-102913628D01*
X103474057Y-102899342D01*
X103545485Y-102899342D01*
X103574057Y-102913628D01*
X103588342Y-102927914D01*
X103602628Y-102956485D01*
X103602628Y-103013628D01*
X103588342Y-103042200D01*
X103574057Y-103056485D01*
X103545485Y-103070771D01*
D11*
%TO.C,GITHUB*%
X116776380Y-112195800D02*
X116824000Y-112171990D01*
X116895428Y-112171990D01*
X116966857Y-112195800D01*
X117014476Y-112243419D01*
X117038285Y-112291038D01*
X117062095Y-112386276D01*
X117062095Y-112457704D01*
X117038285Y-112552942D01*
X117014476Y-112600561D01*
X116966857Y-112648180D01*
X116895428Y-112671990D01*
X116847809Y-112671990D01*
X116776380Y-112648180D01*
X116752571Y-112624371D01*
X116752571Y-112457704D01*
X116847809Y-112457704D01*
X116538285Y-112671990D02*
X116538285Y-112171990D01*
X116371619Y-112171990D02*
X116085904Y-112171990D01*
X116228761Y-112671990D02*
X116228761Y-112171990D01*
X115919238Y-112671990D02*
X115919238Y-112171990D01*
X115919238Y-112410085D02*
X115633523Y-112410085D01*
X115633523Y-112671990D02*
X115633523Y-112171990D01*
X115395428Y-112171990D02*
X115395428Y-112576752D01*
X115371619Y-112624371D01*
X115347809Y-112648180D01*
X115300190Y-112671990D01*
X115204952Y-112671990D01*
X115157333Y-112648180D01*
X115133523Y-112624371D01*
X115109714Y-112576752D01*
X115109714Y-112171990D01*
X114704952Y-112410085D02*
X114633523Y-112433895D01*
X114609714Y-112457704D01*
X114585904Y-112505323D01*
X114585904Y-112576752D01*
X114609714Y-112624371D01*
X114633523Y-112648180D01*
X114681142Y-112671990D01*
X114871619Y-112671990D01*
X114871619Y-112171990D01*
X114704952Y-112171990D01*
X114657333Y-112195800D01*
X114633523Y-112219609D01*
X114609714Y-112267228D01*
X114609714Y-112314847D01*
X114633523Y-112362466D01*
X114657333Y-112386276D01*
X114704952Y-112410085D01*
X114871619Y-112410085D01*
%TO.C,Temple EECE*%
X110915152Y-112220108D02*
X110629438Y-112220108D01*
X110772295Y-112720108D02*
X110772295Y-112220108D01*
X110272295Y-112696298D02*
X110319914Y-112720108D01*
X110415152Y-112720108D01*
X110462771Y-112696298D01*
X110486580Y-112648679D01*
X110486580Y-112458203D01*
X110462771Y-112410584D01*
X110415152Y-112386775D01*
X110319914Y-112386775D01*
X110272295Y-112410584D01*
X110248485Y-112458203D01*
X110248485Y-112505822D01*
X110486580Y-112553441D01*
X110034200Y-112720108D02*
X110034200Y-112386775D01*
X110034200Y-112434394D02*
X110010390Y-112410584D01*
X109962771Y-112386775D01*
X109891342Y-112386775D01*
X109843723Y-112410584D01*
X109819914Y-112458203D01*
X109819914Y-112720108D01*
X109819914Y-112458203D02*
X109796104Y-112410584D01*
X109748485Y-112386775D01*
X109677057Y-112386775D01*
X109629438Y-112410584D01*
X109605628Y-112458203D01*
X109605628Y-112720108D01*
X109367533Y-112386775D02*
X109367533Y-112886775D01*
X109367533Y-112410584D02*
X109319914Y-112386775D01*
X109224676Y-112386775D01*
X109177057Y-112410584D01*
X109153247Y-112434394D01*
X109129438Y-112482013D01*
X109129438Y-112624870D01*
X109153247Y-112672489D01*
X109177057Y-112696298D01*
X109224676Y-112720108D01*
X109319914Y-112720108D01*
X109367533Y-112696298D01*
X108843723Y-112720108D02*
X108891342Y-112696298D01*
X108915152Y-112648679D01*
X108915152Y-112220108D01*
X108462771Y-112696298D02*
X108510390Y-112720108D01*
X108605628Y-112720108D01*
X108653247Y-112696298D01*
X108677057Y-112648679D01*
X108677057Y-112458203D01*
X108653247Y-112410584D01*
X108605628Y-112386775D01*
X108510390Y-112386775D01*
X108462771Y-112410584D01*
X108438961Y-112458203D01*
X108438961Y-112505822D01*
X108677057Y-112553441D01*
X107843723Y-112458203D02*
X107677057Y-112458203D01*
X107605628Y-112720108D02*
X107843723Y-112720108D01*
X107843723Y-112220108D01*
X107605628Y-112220108D01*
X107391342Y-112458203D02*
X107224676Y-112458203D01*
X107153247Y-112720108D02*
X107391342Y-112720108D01*
X107391342Y-112220108D01*
X107153247Y-112220108D01*
X106653247Y-112672489D02*
X106677057Y-112696298D01*
X106748485Y-112720108D01*
X106796104Y-112720108D01*
X106867533Y-112696298D01*
X106915152Y-112648679D01*
X106938961Y-112601060D01*
X106962771Y-112505822D01*
X106962771Y-112434394D01*
X106938961Y-112339156D01*
X106915152Y-112291537D01*
X106867533Y-112243918D01*
X106796104Y-112220108D01*
X106748485Y-112220108D01*
X106677057Y-112243918D01*
X106653247Y-112267727D01*
X106438961Y-112458203D02*
X106272295Y-112458203D01*
X106200866Y-112720108D02*
X106438961Y-112720108D01*
X106438961Y-112220108D01*
X106200866Y-112220108D01*
D10*
%TO.C,C19*%
X105581667Y-102156800D02*
X105289133Y-102156800D01*
X105581667Y-103176800D02*
X105289133Y-103176800D01*
%TO.C,GITHUB*%
G36*
X113864523Y-117878765D02*
G01*
X113726572Y-117878765D01*
X113726572Y-117740813D01*
X113864523Y-117740813D01*
X113864523Y-117878765D01*
G37*
G36*
X113594251Y-114362405D02*
G01*
X113594251Y-114227268D01*
X113729387Y-114227268D01*
X114405069Y-114227268D01*
X114405069Y-113551587D01*
X113729387Y-113551587D01*
X113729387Y-114227268D01*
X113594251Y-114227268D01*
X113594251Y-113416450D01*
X114540205Y-113416450D01*
X114540205Y-114362405D01*
X113594251Y-114362405D01*
G37*
G36*
X117107795Y-114362405D02*
G01*
X117107795Y-114227268D01*
X117242932Y-114227268D01*
X117918613Y-114227268D01*
X117918613Y-113551587D01*
X117242932Y-113551587D01*
X117242932Y-114227268D01*
X117107795Y-114227268D01*
X117107795Y-113416450D01*
X118053750Y-113416450D01*
X118053750Y-114362405D01*
X117107795Y-114362405D01*
G37*
G36*
X117783477Y-117605677D02*
G01*
X117378068Y-117605677D01*
X117378068Y-117200268D01*
X117783477Y-117200268D01*
X117783477Y-117605677D01*
G37*
G36*
X117107795Y-117875949D02*
G01*
X117107795Y-117740813D01*
X117242932Y-117740813D01*
X117918613Y-117740813D01*
X117918613Y-117065131D01*
X117242932Y-117065131D01*
X117242932Y-117740813D01*
X117107795Y-117740813D01*
X117107795Y-116929995D01*
X118053750Y-116929995D01*
X118053750Y-117875949D01*
X117107795Y-117875949D01*
G37*
G36*
X114269932Y-114092132D02*
G01*
X113864523Y-114092132D01*
X113864523Y-113686723D01*
X114269932Y-113686723D01*
X114269932Y-114092132D01*
G37*
G36*
X114540205Y-117067947D02*
G01*
X114402253Y-117067947D01*
X114402253Y-116929995D01*
X114540205Y-116929995D01*
X114540205Y-117067947D01*
G37*
G36*
X117783477Y-114092132D02*
G01*
X117378068Y-114092132D01*
X117378068Y-113686723D01*
X117783477Y-113686723D01*
X117783477Y-114092132D01*
G37*
G36*
X116972659Y-117878663D02*
G01*
X116905795Y-117879417D01*
X116893993Y-117879525D01*
X116873553Y-117879642D01*
X116849103Y-117879722D01*
X116821583Y-117879764D01*
X116791931Y-117879768D01*
X116761086Y-117879734D01*
X116729986Y-117879660D01*
X116699571Y-117879547D01*
X116677326Y-117879449D01*
X116646428Y-117879322D01*
X116615588Y-117879203D01*
X116585734Y-117879095D01*
X116557794Y-117879002D01*
X116532699Y-117878927D01*
X116511376Y-117878873D01*
X116494755Y-117878843D01*
X116429298Y-117878765D01*
X116429298Y-117740813D01*
X116972659Y-117740813D01*
X116972659Y-117878663D01*
G37*
G36*
X116837523Y-114500356D02*
G01*
X116837523Y-114632677D01*
X116972659Y-114632677D01*
X116972659Y-114905765D01*
X116905795Y-114905891D01*
X116895831Y-114905906D01*
X116875699Y-114905924D01*
X116851495Y-114905933D01*
X116824180Y-114905933D01*
X116794719Y-114905925D01*
X116764075Y-114905909D01*
X116733211Y-114905885D01*
X116703090Y-114905853D01*
X116567250Y-114905689D01*
X116567250Y-115040902D01*
X116429298Y-115040902D01*
X116429298Y-114902950D01*
X116564435Y-114902950D01*
X116564435Y-114767915D01*
X116631299Y-114767161D01*
X116698163Y-114766406D01*
X116698708Y-114698838D01*
X116698713Y-114698225D01*
X116698892Y-114673529D01*
X116699063Y-114645578D01*
X116699214Y-114616593D01*
X116699335Y-114588794D01*
X116699412Y-114564405D01*
X116699571Y-114497541D01*
X116834648Y-114497541D01*
X116833300Y-114231491D01*
X116703794Y-114231491D01*
X116703039Y-114298356D01*
X116702317Y-114362405D01*
X116702285Y-114365220D01*
X116567250Y-114365220D01*
X116567250Y-114500356D01*
X116429400Y-114500356D01*
X116428646Y-114433492D01*
X116427891Y-114366628D01*
X116296977Y-114365116D01*
X116296977Y-115040902D01*
X116161841Y-115040902D01*
X116161841Y-115176038D01*
X116026705Y-115176038D01*
X116026705Y-115443495D01*
X116159026Y-115443495D01*
X116159026Y-115308359D01*
X116429298Y-115308359D01*
X116429298Y-115173223D01*
X116567250Y-115173223D01*
X116567250Y-115311174D01*
X116432114Y-115311174D01*
X116432114Y-115446311D01*
X116365250Y-115446491D01*
X116363911Y-115446494D01*
X116339388Y-115446530D01*
X116311558Y-115446529D01*
X116282609Y-115446491D01*
X116254731Y-115446422D01*
X116230113Y-115446322D01*
X116161841Y-115445974D01*
X116161841Y-115716481D01*
X116028113Y-115717991D01*
X116027381Y-115851016D01*
X116026650Y-115984041D01*
X116159026Y-115984041D01*
X116159026Y-115848904D01*
X116294499Y-115848904D01*
X116294150Y-115780632D01*
X116294143Y-115779266D01*
X116294046Y-115754386D01*
X116293978Y-115726380D01*
X116293963Y-115713768D01*
X116567250Y-115713768D01*
X116834648Y-115713768D01*
X116833300Y-115447718D01*
X116767843Y-115446962D01*
X116702386Y-115446207D01*
X116702386Y-115581447D01*
X116567250Y-115581447D01*
X116567250Y-115713768D01*
X116293963Y-115713768D01*
X116293943Y-115697437D01*
X116293943Y-115669746D01*
X116293982Y-115645496D01*
X116294162Y-115578632D01*
X116564435Y-115578632D01*
X116564435Y-115443495D01*
X116699908Y-115443495D01*
X116972659Y-115443495D01*
X117105084Y-115443495D01*
X117104328Y-115378039D01*
X117103572Y-115312582D01*
X117038116Y-115311826D01*
X116972659Y-115311070D01*
X116972659Y-115443495D01*
X116699908Y-115443495D01*
X116699559Y-115375223D01*
X116699552Y-115373857D01*
X116699455Y-115348977D01*
X116699387Y-115320971D01*
X116699352Y-115292028D01*
X116699352Y-115264337D01*
X116699391Y-115240087D01*
X116699564Y-115175934D01*
X116837523Y-115175934D01*
X116837523Y-115308359D01*
X116969948Y-115308359D01*
X117107795Y-115308359D01*
X117172637Y-115308359D01*
X117174583Y-115308358D01*
X117196066Y-115308275D01*
X117212511Y-115308025D01*
X117224465Y-115307579D01*
X117232475Y-115306909D01*
X117237089Y-115305983D01*
X117238854Y-115304773D01*
X117239018Y-115303855D01*
X117239344Y-115298024D01*
X117239561Y-115287787D01*
X117239659Y-115274012D01*
X117239631Y-115257566D01*
X117239469Y-115239316D01*
X117238709Y-115177446D01*
X117107795Y-115175934D01*
X117107795Y-115308359D01*
X116969948Y-115308359D01*
X116969192Y-115242902D01*
X116968436Y-115177446D01*
X116902979Y-115176690D01*
X116837523Y-115175934D01*
X116699564Y-115175934D01*
X116699571Y-115173223D01*
X116834707Y-115173223D01*
X116834707Y-115038086D01*
X116972659Y-115038086D01*
X116972659Y-115173223D01*
X117104980Y-115173223D01*
X117377964Y-115173223D01*
X117645629Y-115173223D01*
X117644874Y-115107766D01*
X117644118Y-115042309D01*
X117379476Y-115042309D01*
X117377964Y-115173223D01*
X117104980Y-115173223D01*
X117104980Y-115038188D01*
X117171844Y-115037433D01*
X117238709Y-115036678D01*
X117238709Y-114907173D01*
X117171844Y-114906418D01*
X117104980Y-114905663D01*
X117104980Y-114902950D01*
X117242932Y-114902950D01*
X117374784Y-114902950D01*
X117399917Y-114902915D01*
X117425026Y-114902808D01*
X117447872Y-114902636D01*
X117467894Y-114902406D01*
X117484530Y-114902127D01*
X117497219Y-114901807D01*
X117505400Y-114901453D01*
X117508512Y-114901073D01*
X117508833Y-114899785D01*
X117509333Y-114893597D01*
X117509761Y-114883070D01*
X117510095Y-114869013D01*
X117510312Y-114852238D01*
X117510389Y-114833556D01*
X117510389Y-114767915D01*
X117577253Y-114767161D01*
X117644118Y-114766406D01*
X117644118Y-114636900D01*
X117379476Y-114636900D01*
X117378721Y-114703765D01*
X117377966Y-114770629D01*
X117242932Y-114770629D01*
X117242932Y-114902950D01*
X117104980Y-114902950D01*
X117104980Y-114767814D01*
X117240220Y-114767814D01*
X117239465Y-114702357D01*
X117238709Y-114636900D01*
X117171844Y-114636145D01*
X117104980Y-114635391D01*
X117104980Y-114497541D01*
X117783477Y-114497541D01*
X117783477Y-114902950D01*
X117918613Y-114902950D01*
X117918613Y-115040800D01*
X117851749Y-115041554D01*
X117784885Y-115042309D01*
X117784130Y-115109174D01*
X117783407Y-115173223D01*
X117783375Y-115176038D01*
X117648341Y-115176038D01*
X117648341Y-115311072D01*
X117581477Y-115311827D01*
X117514612Y-115312582D01*
X117513893Y-115443495D01*
X117513881Y-115445607D01*
X117513149Y-115578632D01*
X117648341Y-115578632D01*
X117648341Y-115716583D01*
X117581477Y-115716763D01*
X117565434Y-115716798D01*
X117537338Y-115716822D01*
X117509762Y-115716800D01*
X117483273Y-115716737D01*
X117458438Y-115716636D01*
X117435827Y-115716501D01*
X117416005Y-115716335D01*
X117399543Y-115716143D01*
X117387008Y-115715928D01*
X117378967Y-115715693D01*
X117375989Y-115715442D01*
X117375816Y-115712584D01*
X117375628Y-115704644D01*
X117375430Y-115692174D01*
X117375230Y-115675725D01*
X117375033Y-115655850D01*
X117374845Y-115633100D01*
X117374672Y-115608027D01*
X117374520Y-115581183D01*
X117373845Y-115447718D01*
X117107795Y-115446370D01*
X117107795Y-115578632D01*
X117242932Y-115578632D01*
X117242932Y-115716583D01*
X117176068Y-115716709D01*
X117166103Y-115716724D01*
X117145972Y-115716742D01*
X117121767Y-115716751D01*
X117094453Y-115716751D01*
X117064991Y-115716743D01*
X117034347Y-115716727D01*
X117003483Y-115716703D01*
X116973363Y-115716671D01*
X116837523Y-115716507D01*
X116837523Y-115851618D01*
X116770659Y-115852372D01*
X116703794Y-115853127D01*
X116703038Y-115918584D01*
X116702299Y-115982633D01*
X116702283Y-115984041D01*
X116969844Y-115984041D01*
X116969844Y-115848904D01*
X117242932Y-115848904D01*
X117242932Y-115986856D01*
X117176068Y-115987036D01*
X117174729Y-115987039D01*
X117150206Y-115987076D01*
X117122376Y-115987074D01*
X117093427Y-115987037D01*
X117065549Y-115986967D01*
X117040931Y-115986868D01*
X116972659Y-115986519D01*
X116972659Y-116121992D01*
X116905795Y-116122106D01*
X116896198Y-116122125D01*
X116876129Y-116122176D01*
X116851973Y-116122249D01*
X116824700Y-116122339D01*
X116795276Y-116122444D01*
X116764672Y-116122559D01*
X116733855Y-116122682D01*
X116703794Y-116122810D01*
X116568658Y-116123400D01*
X116567927Y-116257781D01*
X116567196Y-116392163D01*
X116433522Y-116393673D01*
X116432010Y-116524623D01*
X116632655Y-116523901D01*
X116833300Y-116523178D01*
X116833300Y-116393673D01*
X116766435Y-116392918D01*
X116699571Y-116392163D01*
X116699571Y-116254313D01*
X116837523Y-116254313D01*
X116837523Y-116389450D01*
X116972659Y-116389450D01*
X116972659Y-116932810D01*
X116837523Y-116932810D01*
X116837523Y-117065131D01*
X116972659Y-117065131D01*
X116972659Y-117608492D01*
X116834809Y-117608492D01*
X116834055Y-117541628D01*
X116833300Y-117474763D01*
X116567250Y-117473415D01*
X116567250Y-117608492D01*
X116429400Y-117608492D01*
X116428646Y-117541628D01*
X116427891Y-117474763D01*
X116028113Y-117474763D01*
X116027390Y-117676713D01*
X116026668Y-117878663D01*
X115959822Y-117879417D01*
X115954926Y-117879469D01*
X115930356Y-117879651D01*
X115902656Y-117879754D01*
X115873868Y-117879776D01*
X115846030Y-117879714D01*
X115821185Y-117879566D01*
X115815637Y-117879520D01*
X115790060Y-117879335D01*
X115762097Y-117879166D01*
X115733753Y-117879025D01*
X115707032Y-117878920D01*
X115683937Y-117878862D01*
X115618480Y-117878765D01*
X115618480Y-117740867D01*
X115752913Y-117740136D01*
X115887345Y-117739405D01*
X115887345Y-117609900D01*
X115819777Y-117609355D01*
X115819152Y-117609350D01*
X115794460Y-117609171D01*
X115766519Y-117609000D01*
X115737547Y-117608849D01*
X115709766Y-117608728D01*
X115685396Y-117608651D01*
X115618582Y-117608492D01*
X115617828Y-117541628D01*
X115617073Y-117474763D01*
X115487567Y-117474763D01*
X115486812Y-117541577D01*
X115486058Y-117608390D01*
X115419244Y-117609145D01*
X115352431Y-117609900D01*
X115351675Y-117675356D01*
X115350919Y-117740813D01*
X115486159Y-117740813D01*
X115486159Y-117878765D01*
X115348310Y-117878765D01*
X115347555Y-117811900D01*
X115346800Y-117745036D01*
X115082158Y-117745036D01*
X115081403Y-117811900D01*
X115080649Y-117878765D01*
X114942799Y-117878765D01*
X114942685Y-117811900D01*
X114942666Y-117802304D01*
X114942615Y-117782234D01*
X114942542Y-117758079D01*
X114942452Y-117730805D01*
X114942347Y-117701382D01*
X114942232Y-117670777D01*
X114942109Y-117639961D01*
X114941981Y-117609900D01*
X114941391Y-117474763D01*
X114740798Y-117474117D01*
X114540205Y-117473470D01*
X114540205Y-117605677D01*
X114810478Y-117605677D01*
X114810478Y-117743628D01*
X114743613Y-117743754D01*
X114733649Y-117743769D01*
X114713518Y-117743787D01*
X114689313Y-117743796D01*
X114661999Y-117743796D01*
X114632537Y-117743788D01*
X114601893Y-117743772D01*
X114571029Y-117743748D01*
X114540909Y-117743716D01*
X114405069Y-117743552D01*
X114405069Y-117878765D01*
X114267219Y-117878765D01*
X114266464Y-117811900D01*
X114265709Y-117745036D01*
X114132245Y-117744361D01*
X114105540Y-117744210D01*
X114080457Y-117744037D01*
X114057693Y-117743849D01*
X114037801Y-117743652D01*
X114021332Y-117743452D01*
X114008839Y-117743254D01*
X114000873Y-117743066D01*
X113997985Y-117742892D01*
X113997841Y-117741847D01*
X113997799Y-117740813D01*
X114269932Y-117740813D01*
X114402357Y-117740813D01*
X114401602Y-117675356D01*
X114400846Y-117609900D01*
X114269932Y-117608388D01*
X114269932Y-117740813D01*
X113997799Y-117740813D01*
X113997598Y-117735911D01*
X113997374Y-117725236D01*
X113997172Y-117710391D01*
X113996994Y-117691943D01*
X113996846Y-117670460D01*
X113996730Y-117646510D01*
X113996650Y-117620662D01*
X113996628Y-117605677D01*
X114134796Y-117605677D01*
X114267221Y-117605677D01*
X114265709Y-117474763D01*
X114200253Y-117474007D01*
X114134796Y-117473252D01*
X114134796Y-117605677D01*
X113996628Y-117605677D01*
X113996610Y-117593483D01*
X113996614Y-117565541D01*
X113996664Y-117537405D01*
X113996844Y-117470540D01*
X114132085Y-117470540D01*
X114269829Y-117470540D01*
X114537494Y-117470540D01*
X114945614Y-117470540D01*
X115080750Y-117470540D01*
X115080750Y-117605677D01*
X115145337Y-117605677D01*
X115146634Y-117605676D01*
X115168438Y-117605541D01*
X115186253Y-117605173D01*
X115199670Y-117604590D01*
X115208280Y-117603810D01*
X115211671Y-117602850D01*
X115211957Y-117601463D01*
X115212394Y-117595086D01*
X115212739Y-117584381D01*
X115212976Y-117570177D01*
X115213088Y-117553300D01*
X115213059Y-117534578D01*
X115213058Y-117534439D01*
X115212955Y-117510394D01*
X115212883Y-117482946D01*
X115212845Y-117454309D01*
X115212845Y-117426695D01*
X115212886Y-117402319D01*
X115213071Y-117335506D01*
X115222104Y-117335404D01*
X115486159Y-117335404D01*
X115621296Y-117335404D01*
X115621296Y-117470540D01*
X115754884Y-117470540D01*
X115786701Y-117470509D01*
X115813305Y-117470411D01*
X115835100Y-117470235D01*
X115852490Y-117469972D01*
X115865878Y-117469610D01*
X115875668Y-117469138D01*
X115882265Y-117468545D01*
X115886071Y-117467821D01*
X115887491Y-117466954D01*
X115887655Y-117466036D01*
X115887981Y-117460205D01*
X115888197Y-117449968D01*
X115888296Y-117436194D01*
X115888268Y-117419748D01*
X115888106Y-117401498D01*
X115887345Y-117339627D01*
X115820532Y-117338872D01*
X115753718Y-117338118D01*
X115753687Y-117335404D01*
X116026601Y-117335404D01*
X116160307Y-117335404D01*
X116192120Y-117335372D01*
X116218721Y-117335274D01*
X116240514Y-117335099D01*
X116257902Y-117334835D01*
X116271289Y-117334473D01*
X116281078Y-117334001D01*
X116287674Y-117333408D01*
X116291480Y-117332684D01*
X116292900Y-117331818D01*
X116293064Y-117330900D01*
X116293390Y-117325069D01*
X116293606Y-117314832D01*
X116293705Y-117301057D01*
X116293677Y-117284611D01*
X116293515Y-117266361D01*
X116292754Y-117204491D01*
X116028113Y-117204491D01*
X116027357Y-117269947D01*
X116026601Y-117335404D01*
X115753687Y-117335404D01*
X115752964Y-117271304D01*
X115752209Y-117204491D01*
X115619184Y-117203816D01*
X115486159Y-117203142D01*
X115486159Y-117335404D01*
X115222104Y-117335404D01*
X115279936Y-117334751D01*
X115346800Y-117333996D01*
X115346800Y-117204491D01*
X115213775Y-117203816D01*
X115080750Y-117203142D01*
X115080750Y-117338219D01*
X114945614Y-117338219D01*
X114945614Y-117470540D01*
X114537494Y-117470540D01*
X114536738Y-117405084D01*
X114535982Y-117339627D01*
X114271340Y-117339627D01*
X114270584Y-117405084D01*
X114269829Y-117470540D01*
X114132085Y-117470540D01*
X114131329Y-117405084D01*
X114130573Y-117339627D01*
X114063760Y-117338872D01*
X113996946Y-117338118D01*
X113996915Y-117335404D01*
X114810374Y-117335404D01*
X114942903Y-117335404D01*
X114942147Y-117269947D01*
X114941391Y-117204491D01*
X114811886Y-117204491D01*
X114811130Y-117269947D01*
X114810374Y-117335404D01*
X113996915Y-117335404D01*
X113996191Y-117271304D01*
X113995437Y-117204491D01*
X113864523Y-117202979D01*
X113864523Y-117473356D01*
X113726674Y-117473356D01*
X113725919Y-117406491D01*
X113725164Y-117339627D01*
X113658300Y-117338872D01*
X113591435Y-117338117D01*
X113591367Y-117272008D01*
X113591366Y-117270356D01*
X113591356Y-117256992D01*
X113591346Y-117238595D01*
X113591337Y-117215679D01*
X113591332Y-117200268D01*
X113729387Y-117200268D01*
X113861784Y-117200268D01*
X114269895Y-117200268D01*
X114469891Y-117200268D01*
X114945510Y-117200268D01*
X115078039Y-117200268D01*
X115351023Y-117200268D01*
X115483344Y-117200268D01*
X115483344Y-117065233D01*
X115492377Y-117065131D01*
X116026705Y-117065131D01*
X116296977Y-117065131D01*
X116296977Y-117200268D01*
X116432114Y-117200268D01*
X116432114Y-117470540D01*
X116564771Y-117470540D01*
X116564423Y-117402268D01*
X116564416Y-117400895D01*
X116564318Y-117376018D01*
X116564251Y-117348017D01*
X116564216Y-117319081D01*
X116564216Y-117291399D01*
X116564255Y-117267159D01*
X116564435Y-117200322D01*
X116698867Y-117199591D01*
X116833300Y-117198860D01*
X116833300Y-117069354D01*
X116698163Y-117068764D01*
X116680430Y-117068688D01*
X116649807Y-117068563D01*
X116619005Y-117068444D01*
X116588994Y-117068334D01*
X116560742Y-117068238D01*
X116535215Y-117068158D01*
X116513383Y-117068097D01*
X116496214Y-117068060D01*
X116429400Y-117067947D01*
X116428646Y-117001082D01*
X116427891Y-116934218D01*
X116227298Y-116933571D01*
X116026705Y-116932925D01*
X116026705Y-117065131D01*
X115492377Y-117065131D01*
X115550208Y-117064478D01*
X115617073Y-117063723D01*
X115617663Y-116928587D01*
X115617739Y-116910863D01*
X115617864Y-116880236D01*
X115617983Y-116849429D01*
X115618093Y-116819410D01*
X115618189Y-116791148D01*
X115618269Y-116765611D01*
X115618330Y-116743768D01*
X115618367Y-116726587D01*
X115618480Y-116659722D01*
X115753721Y-116659722D01*
X115752965Y-116594266D01*
X115752209Y-116528809D01*
X115619184Y-116528135D01*
X115486159Y-116527460D01*
X115486159Y-116932810D01*
X115351023Y-116932810D01*
X115351023Y-117200268D01*
X115078039Y-117200268D01*
X115076527Y-117069354D01*
X114947022Y-117069354D01*
X114946790Y-117089430D01*
X114945510Y-117200268D01*
X114469891Y-117200268D01*
X114472014Y-117200267D01*
X114511721Y-117200246D01*
X114546138Y-117200182D01*
X114575587Y-117200070D01*
X114600393Y-117199903D01*
X114620879Y-117199677D01*
X114637367Y-117199385D01*
X114650183Y-117199022D01*
X114659650Y-117198583D01*
X114666090Y-117198061D01*
X114669828Y-117197452D01*
X114671188Y-117196748D01*
X114671336Y-117194968D01*
X114671522Y-117187955D01*
X114671678Y-117176096D01*
X114671803Y-117159852D01*
X114671894Y-117139686D01*
X114671951Y-117116058D01*
X114671971Y-117089430D01*
X114671954Y-117060263D01*
X114671899Y-117029017D01*
X114671803Y-116996155D01*
X114671573Y-116929995D01*
X114945510Y-116929995D01*
X115080750Y-116929995D01*
X115080750Y-117065131D01*
X115145034Y-117065131D01*
X115155093Y-117065108D01*
X115172656Y-117064950D01*
X115187867Y-117064663D01*
X115199907Y-117064269D01*
X115207956Y-117063792D01*
X115211195Y-117063254D01*
X115211517Y-117061958D01*
X115212016Y-117055760D01*
X115212444Y-117045223D01*
X115212778Y-117031159D01*
X115212994Y-117014376D01*
X115213071Y-116995686D01*
X115213071Y-116929995D01*
X115348149Y-116929995D01*
X115347474Y-116796970D01*
X115346800Y-116663945D01*
X115082158Y-116663945D01*
X115081403Y-116730759D01*
X115080649Y-116797572D01*
X115013835Y-116798327D01*
X114947022Y-116799082D01*
X114946266Y-116864538D01*
X114945510Y-116929995D01*
X114671573Y-116929995D01*
X114671118Y-116799082D01*
X114271340Y-116799082D01*
X114270618Y-116999675D01*
X114270387Y-117063723D01*
X114269895Y-117200268D01*
X113861784Y-117200268D01*
X113861620Y-117064427D01*
X113861600Y-117045996D01*
X113861573Y-117015303D01*
X113861554Y-116984461D01*
X113861543Y-116954432D01*
X113861540Y-116926181D01*
X113861545Y-116900670D01*
X113861559Y-116878863D01*
X113861582Y-116861723D01*
X113861708Y-116794859D01*
X113999660Y-116794859D01*
X113999660Y-117065235D01*
X114065116Y-117064479D01*
X114130573Y-117063723D01*
X114130573Y-116663945D01*
X114063005Y-116663400D01*
X114062380Y-116663395D01*
X114037688Y-116663217D01*
X114009746Y-116663046D01*
X113980775Y-116662894D01*
X113952994Y-116662774D01*
X113928623Y-116662697D01*
X113861810Y-116662538D01*
X113861778Y-116659722D01*
X114675238Y-116659722D01*
X114808943Y-116659722D01*
X114840757Y-116659691D01*
X114867358Y-116659592D01*
X114889151Y-116659417D01*
X114906539Y-116659154D01*
X114919926Y-116658791D01*
X114929715Y-116658319D01*
X114936311Y-116657727D01*
X114940117Y-116657003D01*
X114941536Y-116656136D01*
X114941701Y-116655218D01*
X114942027Y-116649387D01*
X114942243Y-116639150D01*
X114942341Y-116625376D01*
X114942314Y-116608930D01*
X114942152Y-116590680D01*
X114941391Y-116528809D01*
X114676749Y-116528809D01*
X114675993Y-116594266D01*
X114675238Y-116659722D01*
X113861778Y-116659722D01*
X113861055Y-116595673D01*
X113860300Y-116528809D01*
X113794844Y-116528053D01*
X113729387Y-116527297D01*
X113729387Y-117200268D01*
X113591332Y-117200268D01*
X113591329Y-117188758D01*
X113591322Y-117158348D01*
X113591315Y-117124962D01*
X113591310Y-117089115D01*
X113591305Y-117051321D01*
X113591302Y-117012095D01*
X113591300Y-116971951D01*
X113591299Y-116931403D01*
X113591299Y-116924855D01*
X113591300Y-116884336D01*
X113591302Y-116844302D01*
X113591306Y-116805269D01*
X113591310Y-116767750D01*
X113591316Y-116732260D01*
X113591323Y-116699314D01*
X113591330Y-116669426D01*
X113591339Y-116643111D01*
X113591348Y-116620883D01*
X113591357Y-116603257D01*
X113591367Y-116590746D01*
X113591435Y-116524586D01*
X113726676Y-116524586D01*
X113864523Y-116524586D01*
X114064501Y-116524586D01*
X114404965Y-116524586D01*
X114469858Y-116524586D01*
X114945614Y-116524586D01*
X115483285Y-116524586D01*
X115756328Y-116524586D01*
X115891568Y-116524586D01*
X115891568Y-116662538D01*
X115756432Y-116662538D01*
X115756432Y-116929995D01*
X116024226Y-116929995D01*
X116567146Y-116929995D01*
X116834648Y-116929995D01*
X116833300Y-116663945D01*
X116703794Y-116663945D01*
X116703040Y-116730759D01*
X116702332Y-116793451D01*
X116702285Y-116797572D01*
X116635471Y-116798327D01*
X116568658Y-116799082D01*
X116567902Y-116864538D01*
X116567146Y-116929995D01*
X116024226Y-116929995D01*
X116023878Y-116861723D01*
X116023871Y-116860356D01*
X116023773Y-116835477D01*
X116023705Y-116807471D01*
X116023670Y-116778528D01*
X116023671Y-116750836D01*
X116023709Y-116726587D01*
X116023889Y-116659722D01*
X116161841Y-116659722D01*
X116161841Y-116794914D01*
X116294866Y-116794182D01*
X116427891Y-116793451D01*
X116427891Y-116528809D01*
X116360323Y-116528264D01*
X116359710Y-116528259D01*
X116335014Y-116528080D01*
X116307063Y-116527909D01*
X116278078Y-116527758D01*
X116250279Y-116527638D01*
X116225890Y-116527560D01*
X116159026Y-116527401D01*
X116159026Y-116389551D01*
X116225890Y-116388797D01*
X116292754Y-116388042D01*
X116292754Y-116258536D01*
X116225941Y-116257782D01*
X116159127Y-116257027D01*
X116158373Y-116190213D01*
X116157618Y-116123400D01*
X116028113Y-116123400D01*
X116028004Y-116143476D01*
X116027381Y-116257832D01*
X116026650Y-116392265D01*
X115959813Y-116392424D01*
X115959201Y-116392425D01*
X115934696Y-116392504D01*
X115906844Y-116392625D01*
X115877865Y-116392778D01*
X115849979Y-116392949D01*
X115825408Y-116393128D01*
X115757840Y-116393673D01*
X115757084Y-116459129D01*
X115756328Y-116524586D01*
X115483285Y-116524586D01*
X115482611Y-116391561D01*
X115481936Y-116258536D01*
X115416480Y-116257780D01*
X115351023Y-116257025D01*
X115351023Y-116391985D01*
X115281343Y-116392829D01*
X115278429Y-116392863D01*
X115253207Y-116393070D01*
X115225112Y-116393176D01*
X115196271Y-116393178D01*
X115168809Y-116393077D01*
X115144850Y-116392871D01*
X115078037Y-116392070D01*
X115076527Y-116258536D01*
X115011071Y-116257780D01*
X114945614Y-116257025D01*
X114945614Y-116524586D01*
X114469858Y-116524586D01*
X114471874Y-116524585D01*
X114493351Y-116524501D01*
X114509791Y-116524251D01*
X114521742Y-116523806D01*
X114529750Y-116523135D01*
X114534363Y-116522210D01*
X114536127Y-116521000D01*
X114536292Y-116520082D01*
X114536618Y-116514251D01*
X114536834Y-116504014D01*
X114536932Y-116490239D01*
X114536905Y-116473793D01*
X114536743Y-116455543D01*
X114535982Y-116393673D01*
X114406477Y-116393673D01*
X114405721Y-116459129D01*
X114405362Y-116490239D01*
X114404965Y-116524586D01*
X114064501Y-116524586D01*
X114074388Y-116524585D01*
X114112898Y-116524558D01*
X114146189Y-116524488D01*
X114174593Y-116524371D01*
X114198444Y-116524200D01*
X114218075Y-116523970D01*
X114233817Y-116523673D01*
X114246004Y-116523306D01*
X114254968Y-116522860D01*
X114261043Y-116522331D01*
X114264561Y-116521713D01*
X114265855Y-116521000D01*
X114266019Y-116520082D01*
X114266345Y-116514251D01*
X114266561Y-116504014D01*
X114266660Y-116490239D01*
X114266632Y-116473793D01*
X114266470Y-116455543D01*
X114265709Y-116393673D01*
X114198896Y-116392918D01*
X114132082Y-116392163D01*
X114132051Y-116389450D01*
X114540101Y-116389450D01*
X114604994Y-116389450D01*
X114607010Y-116389449D01*
X114628487Y-116389365D01*
X114644928Y-116389115D01*
X114656878Y-116388669D01*
X114664887Y-116387999D01*
X114669499Y-116387073D01*
X114671264Y-116385864D01*
X114671428Y-116384945D01*
X114671754Y-116379114D01*
X114671970Y-116368878D01*
X114672069Y-116355103D01*
X114672041Y-116338657D01*
X114671879Y-116320407D01*
X114671118Y-116258536D01*
X114541613Y-116258536D01*
X114540101Y-116389450D01*
X114132051Y-116389450D01*
X114131328Y-116325350D01*
X114130573Y-116258536D01*
X114065116Y-116257780D01*
X113999660Y-116257025D01*
X113999660Y-116392265D01*
X113864523Y-116392265D01*
X113864523Y-116524586D01*
X113726676Y-116524586D01*
X113725920Y-116459129D01*
X113725164Y-116393673D01*
X113658300Y-116392918D01*
X113591435Y-116392163D01*
X113591435Y-116254313D01*
X113729387Y-116254313D01*
X113729387Y-116389450D01*
X113861708Y-116389450D01*
X113861708Y-116254313D01*
X113996948Y-116254313D01*
X113996193Y-116188857D01*
X113995437Y-116123400D01*
X113927869Y-116122855D01*
X113927244Y-116122850D01*
X113902552Y-116122671D01*
X113874610Y-116122500D01*
X113845638Y-116122349D01*
X113817858Y-116122229D01*
X113793487Y-116122151D01*
X113726674Y-116121992D01*
X113726642Y-116119177D01*
X114404965Y-116119177D01*
X114469858Y-116119177D01*
X114675238Y-116119177D01*
X114810478Y-116119177D01*
X114810478Y-116254313D01*
X114942684Y-116254313D01*
X114942258Y-116121888D01*
X115215887Y-116121888D01*
X115215887Y-116254313D01*
X115348312Y-116254313D01*
X115621296Y-116254313D01*
X115753705Y-116254313D01*
X115782335Y-116254289D01*
X115809859Y-116254198D01*
X115832489Y-116254028D01*
X115850617Y-116253770D01*
X115864634Y-116253414D01*
X115874930Y-116252948D01*
X115881898Y-116252363D01*
X115885929Y-116251649D01*
X115887415Y-116250794D01*
X115887563Y-116249014D01*
X115887749Y-116242000D01*
X115887905Y-116230141D01*
X115888030Y-116213898D01*
X115888121Y-116193732D01*
X115888178Y-116170104D01*
X115888198Y-116143476D01*
X115888184Y-116119177D01*
X116161841Y-116119177D01*
X116293693Y-116119177D01*
X116318826Y-116119142D01*
X116343935Y-116119035D01*
X116366781Y-116118863D01*
X116386803Y-116118633D01*
X116403439Y-116118354D01*
X116416128Y-116118034D01*
X116424310Y-116117680D01*
X116427422Y-116117300D01*
X116427743Y-116116012D01*
X116428243Y-116109824D01*
X116428671Y-116099297D01*
X116429004Y-116085240D01*
X116429221Y-116068465D01*
X116429298Y-116049783D01*
X116429298Y-115984142D01*
X116496163Y-115983388D01*
X116563027Y-115982633D01*
X116563027Y-115717991D01*
X116433522Y-115717991D01*
X116432767Y-115784855D01*
X116432012Y-115851720D01*
X116296977Y-115851720D01*
X116296977Y-115986856D01*
X116161841Y-115986856D01*
X116161841Y-116119177D01*
X115888184Y-116119177D01*
X115888181Y-116114308D01*
X115888126Y-116083063D01*
X115888030Y-116050201D01*
X115887345Y-115853127D01*
X115820532Y-115852373D01*
X115753718Y-115851618D01*
X115752964Y-115784804D01*
X115752209Y-115717991D01*
X115686752Y-115717235D01*
X115621296Y-115716479D01*
X115621296Y-116254313D01*
X115348312Y-116254313D01*
X115347556Y-116188857D01*
X115346800Y-116123400D01*
X115281343Y-116122644D01*
X115215887Y-116121888D01*
X114942258Y-116121888D01*
X114942249Y-116119177D01*
X115080647Y-116119177D01*
X115213175Y-116119177D01*
X115212420Y-116053720D01*
X115211664Y-115988264D01*
X115082158Y-115988264D01*
X115081402Y-116053720D01*
X115080647Y-116119177D01*
X114942249Y-116119177D01*
X114942038Y-116053720D01*
X114941813Y-115984041D01*
X115350919Y-115984041D01*
X115415812Y-115984041D01*
X115417828Y-115984040D01*
X115439305Y-115983956D01*
X115455746Y-115983706D01*
X115467696Y-115983260D01*
X115475705Y-115982590D01*
X115480317Y-115981664D01*
X115482082Y-115980455D01*
X115482246Y-115979536D01*
X115482572Y-115973705D01*
X115482788Y-115963469D01*
X115482887Y-115949694D01*
X115482859Y-115933248D01*
X115482697Y-115914998D01*
X115481936Y-115853127D01*
X115352431Y-115853127D01*
X115350919Y-115984041D01*
X114941813Y-115984041D01*
X114941391Y-115853127D01*
X114875934Y-115852371D01*
X114810478Y-115851616D01*
X114810478Y-115986754D01*
X114743613Y-115987509D01*
X114676749Y-115988264D01*
X114675993Y-116053720D01*
X114675634Y-116084830D01*
X114675238Y-116119177D01*
X114469858Y-116119177D01*
X114471874Y-116119176D01*
X114493351Y-116119092D01*
X114509791Y-116118842D01*
X114521742Y-116118397D01*
X114529750Y-116117726D01*
X114534363Y-116116801D01*
X114536127Y-116115591D01*
X114536292Y-116114673D01*
X114536618Y-116108842D01*
X114536834Y-116098605D01*
X114536932Y-116084830D01*
X114536905Y-116068384D01*
X114536743Y-116050134D01*
X114535982Y-115988264D01*
X114406477Y-115988264D01*
X114405721Y-116053720D01*
X114404965Y-116119177D01*
X113726642Y-116119177D01*
X113725164Y-115988264D01*
X113658300Y-115987509D01*
X113591435Y-115986754D01*
X113591435Y-115984041D01*
X113729387Y-115984041D01*
X113794228Y-115984041D01*
X113999556Y-115984041D01*
X114064449Y-115984041D01*
X114066465Y-115984040D01*
X114087942Y-115983956D01*
X114104382Y-115983706D01*
X114116333Y-115983260D01*
X114124341Y-115982590D01*
X114128954Y-115981664D01*
X114130718Y-115980455D01*
X114130883Y-115979536D01*
X114131209Y-115973705D01*
X114131425Y-115963469D01*
X114131523Y-115949694D01*
X114131496Y-115933248D01*
X114131334Y-115914998D01*
X114130573Y-115853127D01*
X114001068Y-115853127D01*
X113999953Y-115949694D01*
X113999556Y-115984041D01*
X113794228Y-115984041D01*
X113796175Y-115984040D01*
X113817658Y-115983956D01*
X113834103Y-115983706D01*
X113846057Y-115983261D01*
X113854067Y-115982590D01*
X113858681Y-115981665D01*
X113860446Y-115980455D01*
X113860610Y-115979536D01*
X113860936Y-115973705D01*
X113861152Y-115963469D01*
X113861251Y-115949694D01*
X113861223Y-115933248D01*
X113861061Y-115914998D01*
X113860300Y-115853127D01*
X113794844Y-115852371D01*
X113729387Y-115851616D01*
X113729387Y-115984041D01*
X113591435Y-115984041D01*
X113591435Y-115848904D01*
X113726676Y-115848904D01*
X114134796Y-115848904D01*
X114201584Y-115848904D01*
X114540205Y-115848904D01*
X114807766Y-115848904D01*
X114945510Y-115848904D01*
X115077414Y-115848904D01*
X115102593Y-115848870D01*
X115127704Y-115848762D01*
X115150552Y-115848590D01*
X115170575Y-115848360D01*
X115187212Y-115848082D01*
X115199901Y-115847761D01*
X115208083Y-115847407D01*
X115211195Y-115847027D01*
X115211516Y-115845739D01*
X115212016Y-115839551D01*
X115212444Y-115829024D01*
X115212777Y-115814968D01*
X115212994Y-115798193D01*
X115213071Y-115779510D01*
X115213071Y-115713870D01*
X115222104Y-115713768D01*
X115486056Y-115713768D01*
X115618584Y-115713768D01*
X115617829Y-115648311D01*
X115617073Y-115582855D01*
X115487567Y-115582855D01*
X115486811Y-115648311D01*
X115486072Y-115712360D01*
X115486056Y-115713768D01*
X115222104Y-115713768D01*
X115279936Y-115713115D01*
X115346800Y-115712360D01*
X115346800Y-115578632D01*
X115621296Y-115578632D01*
X115756432Y-115578632D01*
X115756432Y-115713768D01*
X115821273Y-115713768D01*
X115842729Y-115713697D01*
X115859816Y-115713457D01*
X115872306Y-115713020D01*
X115880722Y-115712358D01*
X115885589Y-115711444D01*
X115887429Y-115710249D01*
X115887650Y-115707610D01*
X115887864Y-115699786D01*
X115888031Y-115687402D01*
X115888146Y-115671032D01*
X115888208Y-115651253D01*
X115888213Y-115628642D01*
X115888160Y-115603773D01*
X115888045Y-115577224D01*
X115887345Y-115447718D01*
X115754321Y-115447044D01*
X115621296Y-115446370D01*
X115621296Y-115578632D01*
X115346800Y-115578632D01*
X115346800Y-115447718D01*
X115281343Y-115446962D01*
X115215887Y-115446207D01*
X115215887Y-115581447D01*
X115080750Y-115581447D01*
X115080750Y-115716481D01*
X114947022Y-115717991D01*
X114946266Y-115783448D01*
X114945510Y-115848904D01*
X114807766Y-115848904D01*
X114807011Y-115783448D01*
X114806255Y-115717991D01*
X114673230Y-115717317D01*
X114540205Y-115716642D01*
X114540205Y-115848904D01*
X114201584Y-115848904D01*
X114223067Y-115848820D01*
X114239512Y-115848570D01*
X114251466Y-115848125D01*
X114259476Y-115847454D01*
X114264090Y-115846528D01*
X114265855Y-115845318D01*
X114266019Y-115844400D01*
X114266345Y-115838569D01*
X114266561Y-115828332D01*
X114266660Y-115814558D01*
X114266632Y-115798112D01*
X114266470Y-115779862D01*
X114265709Y-115717991D01*
X114200253Y-115717235D01*
X114134796Y-115716479D01*
X114134796Y-115848904D01*
X113726676Y-115848904D01*
X113725920Y-115783448D01*
X113725164Y-115717991D01*
X113658300Y-115717236D01*
X113591435Y-115716481D01*
X113591435Y-115578632D01*
X113729387Y-115578632D01*
X113729387Y-115713872D01*
X113794844Y-115713116D01*
X113860300Y-115712360D01*
X113861810Y-115578632D01*
X113999660Y-115578632D01*
X113999660Y-115713768D01*
X114132317Y-115713768D01*
X114405069Y-115713768D01*
X114537494Y-115713768D01*
X114536738Y-115648311D01*
X114535982Y-115582855D01*
X114470525Y-115582099D01*
X114405069Y-115581343D01*
X114405069Y-115713768D01*
X114132317Y-115713768D01*
X114131969Y-115645496D01*
X114131962Y-115644129D01*
X114131864Y-115619250D01*
X114131797Y-115591244D01*
X114131762Y-115562301D01*
X114131762Y-115534609D01*
X114131801Y-115510359D01*
X114131981Y-115443495D01*
X114269932Y-115443495D01*
X114269932Y-115578632D01*
X114402139Y-115578632D01*
X114675238Y-115578632D01*
X114740131Y-115578632D01*
X114945614Y-115578632D01*
X115078039Y-115578632D01*
X115076527Y-115447718D01*
X115011071Y-115446962D01*
X114945614Y-115446207D01*
X114945614Y-115578632D01*
X114740131Y-115578632D01*
X114742147Y-115578631D01*
X114763624Y-115578547D01*
X114780064Y-115578297D01*
X114792015Y-115577851D01*
X114800023Y-115577181D01*
X114804636Y-115576255D01*
X114806400Y-115575046D01*
X114806564Y-115574127D01*
X114806890Y-115568296D01*
X114807107Y-115558060D01*
X114807205Y-115544285D01*
X114807177Y-115527839D01*
X114807015Y-115509589D01*
X114806255Y-115447718D01*
X114676749Y-115447718D01*
X114675993Y-115513175D01*
X114675238Y-115578632D01*
X114402139Y-115578632D01*
X114401492Y-115378039D01*
X114401268Y-115308359D01*
X114540205Y-115308359D01*
X114810478Y-115308359D01*
X114810478Y-115443495D01*
X114942799Y-115443495D01*
X114942799Y-115308359D01*
X115080750Y-115308359D01*
X115080750Y-115443495D01*
X115213408Y-115443495D01*
X115486056Y-115443495D01*
X115618584Y-115443495D01*
X115617829Y-115378039D01*
X115617073Y-115312582D01*
X115487567Y-115312582D01*
X115486811Y-115378039D01*
X115486056Y-115443495D01*
X115213408Y-115443495D01*
X115213060Y-115375223D01*
X115213053Y-115373857D01*
X115212955Y-115348977D01*
X115212887Y-115320971D01*
X115212872Y-115308359D01*
X115756432Y-115308359D01*
X115821273Y-115308359D01*
X115823220Y-115308358D01*
X115844703Y-115308275D01*
X115861148Y-115308025D01*
X115873102Y-115307579D01*
X115881112Y-115306909D01*
X115885726Y-115305983D01*
X115887491Y-115304773D01*
X115887655Y-115303855D01*
X115887981Y-115298024D01*
X115888197Y-115287787D01*
X115888296Y-115274012D01*
X115888268Y-115257566D01*
X115888106Y-115239316D01*
X115887345Y-115177446D01*
X115821889Y-115176690D01*
X115756432Y-115175934D01*
X115756432Y-115308359D01*
X115212872Y-115308359D01*
X115212852Y-115292028D01*
X115212853Y-115264337D01*
X115212891Y-115240087D01*
X115213071Y-115173223D01*
X115753617Y-115173223D01*
X115891568Y-115173223D01*
X116023993Y-115173223D01*
X116023238Y-115107766D01*
X116022482Y-115042309D01*
X115957025Y-115041553D01*
X115891568Y-115040798D01*
X115891568Y-115173223D01*
X115753617Y-115173223D01*
X115753617Y-115038086D01*
X115889090Y-115038086D01*
X116026601Y-115038086D01*
X116159130Y-115038086D01*
X116158374Y-114972630D01*
X116157618Y-114907173D01*
X116028113Y-114907173D01*
X116027357Y-114972630D01*
X116026601Y-115038086D01*
X115889090Y-115038086D01*
X115888741Y-114969814D01*
X115888734Y-114968436D01*
X115888637Y-114943560D01*
X115888569Y-114915563D01*
X115888534Y-114886634D01*
X115888534Y-114858960D01*
X115888573Y-114834729D01*
X115888753Y-114767915D01*
X115955617Y-114767161D01*
X116022482Y-114766406D01*
X116023236Y-114699592D01*
X116023991Y-114632779D01*
X116090805Y-114632024D01*
X116157618Y-114631269D01*
X116157618Y-114366628D01*
X116090754Y-114365873D01*
X116023889Y-114365118D01*
X116023883Y-114362405D01*
X116161737Y-114362405D01*
X116294266Y-114362405D01*
X116432010Y-114362405D01*
X116564539Y-114362405D01*
X116563027Y-114231491D01*
X116433522Y-114231491D01*
X116432010Y-114362405D01*
X116294266Y-114362405D01*
X116292754Y-114231491D01*
X116163249Y-114231491D01*
X116161737Y-114362405D01*
X116023883Y-114362405D01*
X116023730Y-114298305D01*
X116023729Y-114297687D01*
X116023650Y-114273190D01*
X116023529Y-114245345D01*
X116023377Y-114216373D01*
X116023205Y-114188492D01*
X116023027Y-114163923D01*
X116022482Y-114096355D01*
X115954914Y-114095810D01*
X115954289Y-114095805D01*
X115929597Y-114095626D01*
X115901655Y-114095455D01*
X115872683Y-114095304D01*
X115844903Y-114095184D01*
X115820532Y-114095106D01*
X115753719Y-114094947D01*
X115752209Y-113961219D01*
X115686752Y-113960463D01*
X115621296Y-113959707D01*
X115621296Y-114365220D01*
X115486159Y-114365220D01*
X115486159Y-114632781D01*
X115617073Y-114631269D01*
X115617828Y-114564405D01*
X115618582Y-114497541D01*
X115753953Y-114497541D01*
X115753605Y-114429269D01*
X115753598Y-114427902D01*
X115753500Y-114403023D01*
X115753433Y-114375017D01*
X115753398Y-114346074D01*
X115753398Y-114318382D01*
X115753437Y-114294132D01*
X115753617Y-114227268D01*
X115891568Y-114227268D01*
X115891568Y-114500356D01*
X115756432Y-114500356D01*
X115756432Y-114770527D01*
X115622704Y-114772037D01*
X115622178Y-114868603D01*
X115621972Y-114906469D01*
X115621241Y-115040902D01*
X115555108Y-115041002D01*
X115550114Y-115041009D01*
X115525762Y-115041039D01*
X115498271Y-115041065D01*
X115469663Y-115041085D01*
X115441960Y-115041098D01*
X115417184Y-115041103D01*
X115411788Y-115041102D01*
X115386153Y-115041096D01*
X115358064Y-115041081D01*
X115329542Y-115041059D01*
X115302608Y-115041032D01*
X115279283Y-115041002D01*
X115213173Y-115040902D01*
X115212419Y-114974037D01*
X115211664Y-114907173D01*
X115144096Y-114906628D01*
X115143471Y-114906623D01*
X115118779Y-114906444D01*
X115090837Y-114906273D01*
X115061865Y-114906122D01*
X115034085Y-114906002D01*
X115009714Y-114905924D01*
X114942901Y-114905765D01*
X114942869Y-114902950D01*
X115215887Y-114902950D01*
X115349475Y-114902950D01*
X115381292Y-114902918D01*
X115407896Y-114902820D01*
X115429691Y-114902645D01*
X115447081Y-114902382D01*
X115460469Y-114902019D01*
X115470259Y-114901547D01*
X115476856Y-114900954D01*
X115480662Y-114900230D01*
X115482082Y-114899364D01*
X115482246Y-114898446D01*
X115482572Y-114892615D01*
X115482788Y-114882378D01*
X115482887Y-114868603D01*
X115482859Y-114852157D01*
X115482697Y-114833907D01*
X115481936Y-114772037D01*
X115348912Y-114771362D01*
X115215887Y-114770688D01*
X115215887Y-114902950D01*
X114942869Y-114902950D01*
X114941391Y-114772037D01*
X114875934Y-114771281D01*
X114810478Y-114770525D01*
X114810478Y-115038086D01*
X114945614Y-115038086D01*
X114945614Y-115176038D01*
X114878750Y-115176164D01*
X114868786Y-115176179D01*
X114848654Y-115176196D01*
X114824450Y-115176205D01*
X114797135Y-115176206D01*
X114767674Y-115176198D01*
X114737030Y-115176181D01*
X114706166Y-115176157D01*
X114676045Y-115176126D01*
X114540205Y-115175962D01*
X114540205Y-115308359D01*
X114401268Y-115308359D01*
X114400846Y-115177446D01*
X114269932Y-115175934D01*
X114269932Y-115311174D01*
X114132083Y-115311174D01*
X114130573Y-115177446D01*
X114065116Y-115176690D01*
X113999660Y-115175934D01*
X113999660Y-115446031D01*
X113929980Y-115446874D01*
X113927066Y-115446908D01*
X113901843Y-115447116D01*
X113873749Y-115447221D01*
X113844908Y-115447224D01*
X113817445Y-115447123D01*
X113793487Y-115446917D01*
X113726673Y-115446116D01*
X113725919Y-115379349D01*
X113725164Y-115312582D01*
X113658300Y-115311827D01*
X113591435Y-115311072D01*
X113591335Y-115244963D01*
X113591328Y-115239965D01*
X113591298Y-115215620D01*
X113591272Y-115188136D01*
X113591262Y-115173223D01*
X113729283Y-115173223D01*
X113996948Y-115173223D01*
X114134692Y-115173223D01*
X114267221Y-115173223D01*
X114265709Y-115042309D01*
X114136204Y-115042309D01*
X114134692Y-115173223D01*
X113996948Y-115173223D01*
X113996193Y-115107766D01*
X113995437Y-115042309D01*
X113730795Y-115042309D01*
X113729283Y-115173223D01*
X113591262Y-115173223D01*
X113591252Y-115159534D01*
X113591239Y-115131836D01*
X113591234Y-115107062D01*
X113591235Y-115101672D01*
X113591241Y-115076035D01*
X113591256Y-115047941D01*
X113591264Y-115038086D01*
X114269932Y-115038086D01*
X114405069Y-115038086D01*
X114405069Y-115173223D01*
X114537390Y-115173223D01*
X114537390Y-115038188D01*
X114671118Y-115036678D01*
X114671118Y-114907173D01*
X114603550Y-114906628D01*
X114602925Y-114906623D01*
X114578233Y-114906444D01*
X114550292Y-114906273D01*
X114521320Y-114906122D01*
X114493539Y-114906002D01*
X114469169Y-114905924D01*
X114402355Y-114905765D01*
X114401601Y-114838901D01*
X114400846Y-114772037D01*
X114269932Y-114770525D01*
X114269932Y-115038086D01*
X113591264Y-115038086D01*
X113591278Y-115019412D01*
X113591305Y-114992471D01*
X113591335Y-114969138D01*
X113591435Y-114903004D01*
X113601366Y-114902950D01*
X113999556Y-114902950D01*
X114064449Y-114902950D01*
X114066465Y-114902949D01*
X114087942Y-114902865D01*
X114104382Y-114902615D01*
X114116333Y-114902170D01*
X114124341Y-114901499D01*
X114128954Y-114900574D01*
X114130718Y-114899364D01*
X114130883Y-114898446D01*
X114131209Y-114892615D01*
X114131425Y-114882378D01*
X114131523Y-114868603D01*
X114131496Y-114852157D01*
X114131334Y-114833907D01*
X114130573Y-114772037D01*
X114001068Y-114772037D01*
X114000312Y-114837493D01*
X113999556Y-114902950D01*
X113601366Y-114902950D01*
X113725868Y-114902273D01*
X113860300Y-114901542D01*
X113860300Y-114772037D01*
X113792732Y-114771492D01*
X113792119Y-114771487D01*
X113767424Y-114771308D01*
X113739473Y-114771137D01*
X113710487Y-114770986D01*
X113682689Y-114770865D01*
X113658300Y-114770788D01*
X113591435Y-114770629D01*
X113591435Y-114767814D01*
X114134692Y-114767814D01*
X114267221Y-114767814D01*
X114265709Y-114636900D01*
X114136204Y-114636900D01*
X114134692Y-114767814D01*
X113591435Y-114767814D01*
X113591435Y-114632732D01*
X113725868Y-114632001D01*
X113860300Y-114631269D01*
X113861810Y-114497541D01*
X114540205Y-114497541D01*
X114540205Y-114767814D01*
X114807603Y-114767814D01*
X114945614Y-114767814D01*
X115213012Y-114767814D01*
X115211664Y-114501764D01*
X115144850Y-114501009D01*
X115078037Y-114500255D01*
X115078006Y-114497541D01*
X115215887Y-114497541D01*
X115280728Y-114497541D01*
X115282675Y-114497540D01*
X115304158Y-114497457D01*
X115320602Y-114497207D01*
X115332556Y-114496761D01*
X115340566Y-114496091D01*
X115345180Y-114495165D01*
X115346945Y-114493955D01*
X115347110Y-114493037D01*
X115347436Y-114487206D01*
X115347652Y-114476969D01*
X115347750Y-114463194D01*
X115347723Y-114446748D01*
X115347561Y-114428498D01*
X115346800Y-114366628D01*
X115281343Y-114365872D01*
X115215887Y-114365116D01*
X115215887Y-114497541D01*
X115078006Y-114497541D01*
X115077282Y-114433441D01*
X115076527Y-114366628D01*
X115011071Y-114365872D01*
X114945614Y-114365116D01*
X114945614Y-114767814D01*
X114807603Y-114767814D01*
X114806255Y-114501764D01*
X114739488Y-114501009D01*
X114672721Y-114500255D01*
X114671920Y-114433441D01*
X114671887Y-114430642D01*
X114671695Y-114406116D01*
X114671608Y-114378358D01*
X114671623Y-114349494D01*
X114671742Y-114321648D01*
X114671962Y-114296948D01*
X114672773Y-114229980D01*
X114810478Y-114229980D01*
X114810478Y-114362405D01*
X114942903Y-114362405D01*
X114941391Y-114231491D01*
X114875934Y-114230735D01*
X114810478Y-114229980D01*
X114672773Y-114229980D01*
X114672806Y-114227268D01*
X114807603Y-114227268D01*
X114806929Y-114094243D01*
X114806255Y-113961219D01*
X114739390Y-113960464D01*
X114672526Y-113959709D01*
X114672526Y-113821859D01*
X114810478Y-113821859D01*
X114810478Y-113956996D01*
X114942799Y-113956996D01*
X114942799Y-113821859D01*
X115078039Y-113821859D01*
X115077283Y-113756403D01*
X115076527Y-113690946D01*
X115009714Y-113690191D01*
X114942900Y-113689437D01*
X114942146Y-113622623D01*
X114941391Y-113555810D01*
X114874527Y-113555055D01*
X114807662Y-113554300D01*
X114807662Y-113416450D01*
X114945614Y-113416450D01*
X114945614Y-113551587D01*
X115080750Y-113551587D01*
X115080750Y-113686723D01*
X115215887Y-113686723D01*
X115215887Y-113824675D01*
X115080750Y-113824675D01*
X115080750Y-113956996D01*
X115215887Y-113956996D01*
X115215887Y-114094947D01*
X115078037Y-114094947D01*
X115076527Y-113961219D01*
X115011071Y-113960463D01*
X114945614Y-113959707D01*
X114945614Y-114227268D01*
X115080750Y-114227268D01*
X115080750Y-114362405D01*
X115213071Y-114362405D01*
X115213071Y-114227268D01*
X115351023Y-114227268D01*
X115351023Y-114362405D01*
X115483420Y-114362405D01*
X115483256Y-114226564D01*
X115483236Y-114208133D01*
X115483209Y-114177440D01*
X115483190Y-114146598D01*
X115483179Y-114116569D01*
X115483176Y-114088318D01*
X115483181Y-114062807D01*
X115483195Y-114041000D01*
X115483218Y-114023860D01*
X115483344Y-113956996D01*
X115618584Y-113956996D01*
X115617829Y-113891539D01*
X115617073Y-113826082D01*
X115549505Y-113825537D01*
X115548892Y-113825532D01*
X115524196Y-113825354D01*
X115496245Y-113825183D01*
X115467260Y-113825031D01*
X115439461Y-113824911D01*
X115415072Y-113824834D01*
X115348208Y-113824675D01*
X115348208Y-113821859D01*
X115621241Y-113821859D01*
X115753558Y-113821859D01*
X115752883Y-113688834D01*
X115752209Y-113555810D01*
X115622704Y-113555810D01*
X115621972Y-113688834D01*
X115621241Y-113821859D01*
X115348208Y-113821859D01*
X115348208Y-113686825D01*
X115481936Y-113685315D01*
X115481936Y-113555810D01*
X115414368Y-113555265D01*
X115413755Y-113555260D01*
X115389060Y-113555081D01*
X115361109Y-113554910D01*
X115332123Y-113554759D01*
X115304325Y-113554638D01*
X115279936Y-113554561D01*
X115213071Y-113554402D01*
X115213071Y-113416450D01*
X115756432Y-113416450D01*
X115756432Y-113551690D01*
X115821889Y-113550935D01*
X115887345Y-113550179D01*
X115888100Y-113483314D01*
X115888855Y-113416450D01*
X116026705Y-113416450D01*
X116026705Y-113686723D01*
X116161841Y-113686723D01*
X116161841Y-113824675D01*
X116023991Y-113824675D01*
X116023237Y-113757810D01*
X116022482Y-113690946D01*
X115892976Y-113690946D01*
X115892221Y-113757810D01*
X115891499Y-113821859D01*
X115891467Y-113824675D01*
X115756432Y-113824675D01*
X115756432Y-113956996D01*
X116161841Y-113956996D01*
X116161841Y-114092236D01*
X116227298Y-114091480D01*
X116292754Y-114090724D01*
X116294264Y-113956996D01*
X116432114Y-113956996D01*
X116432114Y-114092236D01*
X116497570Y-114091480D01*
X116563027Y-114090724D01*
X116563027Y-113826082D01*
X116495459Y-113825537D01*
X116494846Y-113825532D01*
X116470151Y-113825354D01*
X116442199Y-113825183D01*
X116413214Y-113825031D01*
X116385416Y-113824911D01*
X116361026Y-113824834D01*
X116294162Y-113824675D01*
X116294162Y-113821859D01*
X116567250Y-113821859D01*
X116702386Y-113821859D01*
X116702386Y-114092132D01*
X116767228Y-114092132D01*
X116788714Y-114092061D01*
X116805789Y-114091820D01*
X116818269Y-114091383D01*
X116826676Y-114090722D01*
X116831535Y-114089807D01*
X116833369Y-114088613D01*
X116833517Y-114086832D01*
X116833704Y-114079819D01*
X116833860Y-114067960D01*
X116833984Y-114051717D01*
X116834075Y-114031551D01*
X116834132Y-114007923D01*
X116834153Y-113981294D01*
X116834136Y-113952127D01*
X116834080Y-113920882D01*
X116833984Y-113888020D01*
X116833300Y-113690946D01*
X116766486Y-113690191D01*
X116699673Y-113689437D01*
X116698918Y-113622623D01*
X116698163Y-113555810D01*
X116632707Y-113555054D01*
X116567250Y-113554298D01*
X116567250Y-113821859D01*
X116294162Y-113821859D01*
X116294162Y-113686825D01*
X116361026Y-113686070D01*
X116427891Y-113685315D01*
X116427891Y-113555810D01*
X116361026Y-113555055D01*
X116294162Y-113554300D01*
X116294162Y-113416450D01*
X116432114Y-113416450D01*
X116432114Y-113551587D01*
X116564435Y-113551587D01*
X116564435Y-113416450D01*
X116837523Y-113416450D01*
X116837523Y-113686723D01*
X116972659Y-113686723D01*
X116972659Y-114500356D01*
X116837523Y-114500356D01*
G37*
G36*
X117513204Y-116392265D02*
G01*
X117513204Y-116524586D01*
X117648341Y-116524586D01*
X117648341Y-116797572D01*
X117581477Y-116798428D01*
X117569669Y-116798567D01*
X117551446Y-116798727D01*
X117535404Y-116798803D01*
X117522404Y-116798794D01*
X117513309Y-116798700D01*
X117508981Y-116798518D01*
X117507513Y-116798407D01*
X117500739Y-116798194D01*
X117489650Y-116798007D01*
X117475132Y-116797858D01*
X117458071Y-116797756D01*
X117439353Y-116797712D01*
X117375355Y-116797674D01*
X117374600Y-116730810D01*
X117373845Y-116663945D01*
X117308388Y-116663189D01*
X117242932Y-116662434D01*
X117242932Y-116797674D01*
X117104980Y-116797674D01*
X117104980Y-116659722D01*
X117240220Y-116659722D01*
X117239465Y-116594266D01*
X117238709Y-116528809D01*
X117171844Y-116528054D01*
X117104980Y-116527299D01*
X117104980Y-116389551D01*
X117113937Y-116389450D01*
X117378068Y-116389450D01*
X117510493Y-116389450D01*
X117508981Y-116258536D01*
X117443525Y-116257780D01*
X117378068Y-116257025D01*
X117378068Y-116389450D01*
X117113937Y-116389450D01*
X117171844Y-116388797D01*
X117238709Y-116388042D01*
X117238709Y-116258536D01*
X117171844Y-116257781D01*
X117104980Y-116257027D01*
X117104980Y-116119177D01*
X117242932Y-116119177D01*
X117242932Y-116254313D01*
X117375589Y-116254313D01*
X117375241Y-116186041D01*
X117375234Y-116184675D01*
X117375136Y-116159795D01*
X117375069Y-116131789D01*
X117375034Y-116102846D01*
X117375034Y-116075155D01*
X117375073Y-116050905D01*
X117375253Y-115984041D01*
X117513204Y-115984041D01*
X117513204Y-116119281D01*
X117644118Y-116117769D01*
X117644873Y-116050905D01*
X117645627Y-115984041D01*
X117780998Y-115984041D01*
X117780650Y-115915768D01*
X117780643Y-115914402D01*
X117780545Y-115889522D01*
X117780478Y-115861516D01*
X117780443Y-115832573D01*
X117780443Y-115804882D01*
X117780482Y-115780632D01*
X117780662Y-115713768D01*
X117915902Y-115713768D01*
X117915146Y-115648311D01*
X117914390Y-115582855D01*
X117780662Y-115581345D01*
X117780662Y-115443495D01*
X117918613Y-115443495D01*
X117918613Y-115578632D01*
X118053750Y-115578632D01*
X118053750Y-115716583D01*
X117918613Y-115716583D01*
X117918613Y-115986856D01*
X117783477Y-115986856D01*
X117783477Y-116119177D01*
X118053750Y-116119177D01*
X118053750Y-116797674D01*
X117915798Y-116797674D01*
X117915702Y-116730810D01*
X117915692Y-116724439D01*
X117915659Y-116707588D01*
X117915611Y-116686094D01*
X117915549Y-116660618D01*
X117915476Y-116631824D01*
X117915394Y-116600372D01*
X117915303Y-116566926D01*
X117915205Y-116532147D01*
X117915103Y-116496698D01*
X117914999Y-116461241D01*
X117914390Y-116258536D01*
X117649749Y-116258536D01*
X117648994Y-116325401D01*
X117648271Y-116389450D01*
X117648239Y-116392265D01*
X117513204Y-116392265D01*
G37*
G36*
X116296977Y-117878765D02*
G01*
X116159306Y-117878765D01*
X116158462Y-117809085D01*
X116158428Y-117806182D01*
X116158220Y-117780956D01*
X116158115Y-117752852D01*
X116158113Y-117723997D01*
X116158214Y-117696517D01*
X116158419Y-117672541D01*
X116159221Y-117605677D01*
X116296977Y-117605677D01*
X116296977Y-117878765D01*
G37*
G36*
X118053750Y-114770629D02*
G01*
X117916078Y-114770629D01*
X117915234Y-114700949D01*
X117915200Y-114698046D01*
X117914993Y-114672820D01*
X117914887Y-114644716D01*
X117914885Y-114615861D01*
X117914986Y-114588382D01*
X117915192Y-114564405D01*
X117915993Y-114497541D01*
X118053750Y-114497541D01*
X118053750Y-114770629D01*
G37*
%TO.C,Temple EECE*%
G36*
X110589837Y-117749955D02*
G01*
X110256491Y-117749955D01*
X110256491Y-117416609D01*
X110589837Y-117416609D01*
X110589837Y-117749955D01*
G37*
G36*
X110034260Y-117972186D02*
G01*
X110034260Y-117861071D01*
X110145375Y-117861071D01*
X110700953Y-117861071D01*
X110700953Y-117305493D01*
X110145375Y-117305493D01*
X110145375Y-117861071D01*
X110034260Y-117861071D01*
X110034260Y-117194378D01*
X110812068Y-117194378D01*
X110812068Y-117972186D01*
X110034260Y-117972186D01*
G37*
G36*
X110812068Y-114419015D02*
G01*
X110698428Y-114419015D01*
X110698428Y-114305374D01*
X110812068Y-114305374D01*
X110812068Y-114419015D01*
G37*
G36*
X107367487Y-113974456D02*
G01*
X107311298Y-113975160D01*
X107303824Y-113975247D01*
X107287958Y-113975390D01*
X107274042Y-113975458D01*
X107262851Y-113975451D01*
X107255161Y-113975368D01*
X107251746Y-113975208D01*
X107251265Y-113975152D01*
X107246567Y-113974961D01*
X107237845Y-113974796D01*
X107225900Y-113974667D01*
X107211536Y-113974583D01*
X107195556Y-113974553D01*
X107142731Y-113974553D01*
X107142731Y-113860912D01*
X107367487Y-113860912D01*
X107367487Y-113974456D01*
G37*
G36*
X107034140Y-117308018D02*
G01*
X106920500Y-117308018D01*
X106920500Y-117194378D01*
X107034140Y-117194378D01*
X107034140Y-117308018D01*
G37*
G36*
X110034260Y-114194258D02*
G01*
X110034260Y-114083143D01*
X110145375Y-114083143D01*
X110700953Y-114083143D01*
X110700953Y-113527565D01*
X110145375Y-113527565D01*
X110145375Y-114083143D01*
X110034260Y-114083143D01*
X110034260Y-113416450D01*
X110812068Y-113416450D01*
X110812068Y-114194258D01*
X110034260Y-114194258D01*
G37*
G36*
X106367447Y-116307979D02*
G01*
X106253806Y-116307979D01*
X106253732Y-116253684D01*
X106253709Y-116234305D01*
X106253689Y-116211011D01*
X106253672Y-116186457D01*
X106253662Y-116162577D01*
X106253658Y-116141305D01*
X106253661Y-116121171D01*
X106253672Y-116097127D01*
X106253688Y-116072212D01*
X106253708Y-116048400D01*
X106253732Y-116027665D01*
X106253806Y-115972107D01*
X106367447Y-115972107D01*
X106367447Y-116307979D01*
G37*
G36*
X108034180Y-117752481D02*
G01*
X107920539Y-117752481D01*
X107920539Y-117638840D01*
X108034180Y-117638840D01*
X108034180Y-117752481D01*
G37*
G36*
X107589718Y-117974712D02*
G01*
X107476077Y-117974712D01*
X107476077Y-117861071D01*
X107589718Y-117861071D01*
X107589718Y-117974712D01*
G37*
G36*
X109589798Y-114083143D02*
G01*
X109700913Y-114083143D01*
X109700913Y-114416489D01*
X110031734Y-114416489D01*
X110031734Y-114305374D01*
X110589837Y-114305374D01*
X110589837Y-114419015D01*
X110533648Y-114419107D01*
X110530460Y-114419112D01*
X110514213Y-114419128D01*
X110494059Y-114419137D01*
X110470920Y-114419139D01*
X110445718Y-114419133D01*
X110419379Y-114419122D01*
X110392823Y-114419104D01*
X110366975Y-114419079D01*
X110256491Y-114418958D01*
X110256491Y-114530130D01*
X110145375Y-114530130D01*
X110145375Y-114638720D01*
X110256491Y-114638720D01*
X110256491Y-114749836D01*
X110367606Y-114749836D01*
X110367606Y-114972067D01*
X110478722Y-114972067D01*
X110478722Y-115083183D01*
X110698528Y-115083183D01*
X110697846Y-115029519D01*
X110697165Y-114975855D01*
X110642238Y-114975174D01*
X110587312Y-114974494D01*
X110587253Y-114920248D01*
X110587249Y-114916327D01*
X110587233Y-114895776D01*
X110587220Y-114871177D01*
X110587210Y-114843351D01*
X110587202Y-114813119D01*
X110587198Y-114781301D01*
X110587197Y-114748720D01*
X110587199Y-114716196D01*
X110587204Y-114684549D01*
X110587212Y-114654602D01*
X110587222Y-114627174D01*
X110587236Y-114603088D01*
X110587253Y-114583163D01*
X110587312Y-114527605D01*
X110700953Y-114527605D01*
X110700953Y-114749836D01*
X110812068Y-114749836D01*
X110812068Y-114863477D01*
X110700953Y-114863477D01*
X110700953Y-114972067D01*
X110812068Y-114972067D01*
X110812068Y-115085708D01*
X110700953Y-115085708D01*
X110700953Y-115194298D01*
X110812068Y-115194298D01*
X110812068Y-115307939D01*
X110755879Y-115308072D01*
X110738099Y-115308099D01*
X110714353Y-115308102D01*
X110689517Y-115308076D01*
X110665638Y-115308023D01*
X110644764Y-115307946D01*
X110589837Y-115307687D01*
X110589837Y-115527645D01*
X110698428Y-115527645D01*
X110698428Y-115416529D01*
X110812068Y-115416529D01*
X110812068Y-115863517D01*
X110698428Y-115863517D01*
X110698316Y-115808590D01*
X110698267Y-115791776D01*
X110698164Y-115768196D01*
X110698025Y-115743338D01*
X110697861Y-115719281D01*
X110697685Y-115698106D01*
X110697165Y-115642548D01*
X110643501Y-115641867D01*
X110589837Y-115641185D01*
X110589837Y-115752401D01*
X110478722Y-115752401D01*
X110478722Y-116085748D01*
X110367606Y-116085748D01*
X110367606Y-116305453D01*
X110476196Y-116305453D01*
X110589837Y-116305453D01*
X110698528Y-116305453D01*
X110697846Y-116251790D01*
X110697165Y-116198126D01*
X110643501Y-116197444D01*
X110589837Y-116196763D01*
X110589837Y-116305453D01*
X110476196Y-116305453D01*
X110476196Y-116194338D01*
X110587312Y-116194338D01*
X110587312Y-116083222D01*
X110698428Y-116083222D01*
X110698428Y-115972107D01*
X110812068Y-115972107D01*
X110812068Y-116085748D01*
X110700953Y-116085748D01*
X110700953Y-116194338D01*
X110812068Y-116194338D01*
X110812068Y-116307979D01*
X110700953Y-116307979D01*
X110700953Y-116419094D01*
X110587411Y-116419094D01*
X110586730Y-116364168D01*
X110586049Y-116309241D01*
X110532386Y-116308560D01*
X110478722Y-116307878D01*
X110478722Y-116530210D01*
X110365179Y-116530210D01*
X110364499Y-116475283D01*
X110363818Y-116420357D01*
X110310155Y-116419675D01*
X110256491Y-116418994D01*
X110256491Y-116530210D01*
X110145375Y-116530210D01*
X110145375Y-116641325D01*
X110034260Y-116641325D01*
X110034260Y-116749915D01*
X110253965Y-116749915D01*
X110253965Y-116638800D01*
X110367606Y-116638800D01*
X110367606Y-116749915D01*
X110476196Y-116749915D01*
X110476196Y-116638800D01*
X110587312Y-116638800D01*
X110587312Y-116527684D01*
X110700953Y-116527684D01*
X110700953Y-116638800D01*
X110812068Y-116638800D01*
X110812068Y-117085787D01*
X110698428Y-117085787D01*
X110698347Y-117030861D01*
X110698341Y-117027293D01*
X110698303Y-117011240D01*
X110698242Y-116991290D01*
X110698162Y-116968350D01*
X110698066Y-116943325D01*
X110697957Y-116917124D01*
X110697839Y-116890653D01*
X110697716Y-116864819D01*
X110697165Y-116753703D01*
X110643501Y-116753022D01*
X110589837Y-116752340D01*
X110589837Y-116863556D01*
X110478722Y-116863556D01*
X110478722Y-116974672D01*
X110367606Y-116974672D01*
X110367606Y-117085787D01*
X110254064Y-117085787D01*
X110253383Y-117030861D01*
X110252703Y-116975935D01*
X110145375Y-116974571D01*
X110145375Y-117085787D01*
X110089186Y-117085921D01*
X110071406Y-117085948D01*
X110047659Y-117085950D01*
X110022823Y-117085924D01*
X109998945Y-117085872D01*
X109978071Y-117085795D01*
X109923144Y-117085535D01*
X109923144Y-117196903D01*
X109809503Y-117196903D01*
X109809503Y-117083262D01*
X109920619Y-117083262D01*
X109920619Y-116972147D01*
X110142950Y-116972147D01*
X110142269Y-116918483D01*
X110141587Y-116864819D01*
X110030472Y-116864268D01*
X110023561Y-116864234D01*
X109997467Y-116864112D01*
X109970985Y-116863996D01*
X109945021Y-116863891D01*
X109920482Y-116863798D01*
X109898275Y-116863723D01*
X109879305Y-116863668D01*
X109864479Y-116863637D01*
X109809602Y-116863556D01*
X109809571Y-116861031D01*
X110256491Y-116861031D01*
X110365181Y-116861031D01*
X110364500Y-116807367D01*
X110363818Y-116753703D01*
X110310155Y-116753022D01*
X110256491Y-116752340D01*
X110256491Y-116861031D01*
X109809571Y-116861031D01*
X109808921Y-116808630D01*
X109808241Y-116753703D01*
X109753363Y-116753023D01*
X109698486Y-116752343D01*
X109697806Y-116697465D01*
X109697125Y-116642588D01*
X109642199Y-116641907D01*
X109587272Y-116641227D01*
X109587272Y-116641225D01*
X109812029Y-116641225D01*
X109812029Y-116749915D01*
X109920719Y-116749915D01*
X109920038Y-116696252D01*
X109919356Y-116642588D01*
X109865692Y-116641906D01*
X109812029Y-116641225D01*
X109587272Y-116641225D01*
X109587272Y-116527684D01*
X109923144Y-116527684D01*
X109923144Y-116638800D01*
X110031734Y-116638800D01*
X110031734Y-116527684D01*
X110142950Y-116527684D01*
X110142269Y-116474021D01*
X110141587Y-116420357D01*
X109810135Y-116419786D01*
X109478682Y-116419216D01*
X109478682Y-116749915D01*
X109589798Y-116749915D01*
X109589798Y-116861031D01*
X109700913Y-116861031D01*
X109700913Y-116974672D01*
X109589798Y-116974672D01*
X109589798Y-117083262D01*
X109700913Y-117083262D01*
X109700913Y-117305493D01*
X109923144Y-117305493D01*
X109923144Y-117752481D01*
X109809602Y-117752481D01*
X109808921Y-117697554D01*
X109808241Y-117642628D01*
X109754577Y-117641946D01*
X109700913Y-117641265D01*
X109700913Y-117861071D01*
X109923144Y-117861071D01*
X109923144Y-117974615D01*
X109866955Y-117975319D01*
X109859481Y-117975406D01*
X109843615Y-117975549D01*
X109829699Y-117975618D01*
X109818508Y-117975610D01*
X109810818Y-117975527D01*
X109807403Y-117975367D01*
X109806928Y-117975311D01*
X109802241Y-117975121D01*
X109793528Y-117974956D01*
X109781591Y-117974826D01*
X109767235Y-117974742D01*
X109751263Y-117974712D01*
X109698486Y-117974712D01*
X109697806Y-117919785D01*
X109697125Y-117864859D01*
X109587904Y-117864244D01*
X109478682Y-117863629D01*
X109478682Y-117974712D01*
X109365041Y-117974712D01*
X109364967Y-117920417D01*
X109364944Y-117901038D01*
X109364924Y-117877744D01*
X109364907Y-117853190D01*
X109364897Y-117829310D01*
X109364893Y-117808038D01*
X109364896Y-117787904D01*
X109364907Y-117763860D01*
X109364923Y-117738945D01*
X109364943Y-117715133D01*
X109364967Y-117694397D01*
X109365041Y-117638840D01*
X109476157Y-117638840D01*
X109476157Y-117527724D01*
X109809604Y-117527724D01*
X109808922Y-117474060D01*
X109808241Y-117420397D01*
X109697125Y-117419846D01*
X109690224Y-117419812D01*
X109664127Y-117419690D01*
X109637640Y-117419574D01*
X109611668Y-117419468D01*
X109587120Y-117419376D01*
X109564902Y-117419301D01*
X109545921Y-117419246D01*
X109531083Y-117419214D01*
X109476157Y-117419134D01*
X109476157Y-117305493D01*
X109587240Y-117305493D01*
X109586625Y-117196272D01*
X109586010Y-117087050D01*
X109532346Y-117086369D01*
X109478682Y-117085687D01*
X109478682Y-117196903D01*
X109367567Y-117196903D01*
X109367567Y-117308018D01*
X109256451Y-117308018D01*
X109256451Y-117416609D01*
X109367567Y-117416609D01*
X109367567Y-117530250D01*
X109256451Y-117530250D01*
X109256451Y-117641365D01*
X109145335Y-117641365D01*
X109145335Y-117749955D01*
X109256451Y-117749955D01*
X109256451Y-117974712D01*
X109142810Y-117974712D01*
X109142699Y-117919785D01*
X109142650Y-117902971D01*
X109142547Y-117879391D01*
X109142407Y-117854533D01*
X109142244Y-117830476D01*
X109142068Y-117809301D01*
X109141547Y-117753743D01*
X109032326Y-117753128D01*
X108923104Y-117752513D01*
X108923104Y-117861071D01*
X109034220Y-117861071D01*
X109034220Y-117974712D01*
X108978031Y-117974845D01*
X108961393Y-117974876D01*
X108934756Y-117974890D01*
X108909509Y-117974861D01*
X108886110Y-117974791D01*
X108865016Y-117974684D01*
X108846684Y-117974543D01*
X108831573Y-117974371D01*
X108820140Y-117974172D01*
X108812842Y-117973947D01*
X108810137Y-117973701D01*
X108810084Y-117973266D01*
X108809942Y-117968816D01*
X108809792Y-117959900D01*
X108809637Y-117946939D01*
X108809480Y-117930355D01*
X108809325Y-117910566D01*
X108809176Y-117887995D01*
X108809035Y-117863061D01*
X108808907Y-117836186D01*
X108808794Y-117807789D01*
X108808201Y-117642628D01*
X108698979Y-117642013D01*
X108589758Y-117641398D01*
X108589758Y-117861071D01*
X108700873Y-117861071D01*
X108700873Y-117974712D01*
X108587331Y-117974712D01*
X108586650Y-117919785D01*
X108585970Y-117864859D01*
X108476748Y-117864244D01*
X108367527Y-117863629D01*
X108367527Y-117974712D01*
X108253886Y-117974712D01*
X108253886Y-117861071D01*
X108365102Y-117861071D01*
X108364420Y-117807407D01*
X108363739Y-117753743D01*
X108308861Y-117753063D01*
X108253984Y-117752382D01*
X108253304Y-117697505D01*
X108252623Y-117642628D01*
X108197697Y-117641947D01*
X108142770Y-117641267D01*
X108142770Y-117638840D01*
X109034220Y-117638840D01*
X109142810Y-117638840D01*
X109142810Y-117527724D01*
X109254026Y-117527724D01*
X109253345Y-117474060D01*
X109252663Y-117420397D01*
X109143441Y-117419782D01*
X109034220Y-117419167D01*
X109034220Y-117638840D01*
X108142770Y-117638840D01*
X108142770Y-117527724D01*
X108365102Y-117527724D01*
X108478642Y-117527724D01*
X108587333Y-117527724D01*
X108700873Y-117527724D01*
X108920680Y-117527724D01*
X108919998Y-117474060D01*
X108919316Y-117420397D01*
X108810095Y-117419782D01*
X108700873Y-117419167D01*
X108700873Y-117527724D01*
X108587333Y-117527724D01*
X108586651Y-117474060D01*
X108585970Y-117420397D01*
X108532306Y-117419715D01*
X108478642Y-117419034D01*
X108478642Y-117527724D01*
X108365102Y-117527724D01*
X108364420Y-117474060D01*
X108363739Y-117420397D01*
X108308812Y-117419716D01*
X108253886Y-117419035D01*
X108253886Y-117305493D01*
X108364969Y-117305493D01*
X108364358Y-117196980D01*
X108478642Y-117196980D01*
X108478642Y-117305493D01*
X108809564Y-117305493D01*
X108808882Y-117251829D01*
X108808201Y-117198166D01*
X108643422Y-117197573D01*
X108478642Y-117196980D01*
X108364358Y-117196980D01*
X108364354Y-117196272D01*
X108363739Y-117087050D01*
X108310075Y-117086369D01*
X108256411Y-117085687D01*
X108256411Y-117196903D01*
X108145296Y-117196903D01*
X108145296Y-117308018D01*
X108034180Y-117308018D01*
X108034180Y-117419134D01*
X107923065Y-117419134D01*
X107923065Y-117530250D01*
X107866876Y-117530383D01*
X107849095Y-117530410D01*
X107825349Y-117530412D01*
X107800513Y-117530386D01*
X107776634Y-117530334D01*
X107755760Y-117530257D01*
X107700834Y-117529997D01*
X107700834Y-117638840D01*
X107811949Y-117638840D01*
X107811949Y-117861071D01*
X108145296Y-117861071D01*
X108145296Y-117974712D01*
X108089738Y-117974786D01*
X108070248Y-117974808D01*
X108046554Y-117974829D01*
X108021648Y-117974846D01*
X107997505Y-117974856D01*
X107976097Y-117974860D01*
X107955735Y-117974857D01*
X107931931Y-117974846D01*
X107907381Y-117974830D01*
X107884015Y-117974810D01*
X107863768Y-117974786D01*
X107809522Y-117974712D01*
X107808842Y-117919785D01*
X107808161Y-117864859D01*
X107753284Y-117864178D01*
X107698406Y-117863498D01*
X107697726Y-117808621D01*
X107697046Y-117753743D01*
X107641488Y-117753223D01*
X107624517Y-117753079D01*
X107600848Y-117752912D01*
X107575995Y-117752767D01*
X107552038Y-117752657D01*
X107531053Y-117752592D01*
X107476176Y-117752481D01*
X107475495Y-117697554D01*
X107474815Y-117642628D01*
X107256371Y-117641398D01*
X107256371Y-117861071D01*
X107367487Y-117861071D01*
X107367487Y-117974712D01*
X107253945Y-117974712D01*
X107253264Y-117919785D01*
X107252583Y-117864859D01*
X107143362Y-117864244D01*
X107034140Y-117863629D01*
X107034140Y-117974712D01*
X106978583Y-117974786D01*
X106959092Y-117974808D01*
X106935399Y-117974829D01*
X106910493Y-117974846D01*
X106886350Y-117974856D01*
X106864942Y-117974860D01*
X106844579Y-117974857D01*
X106820776Y-117974846D01*
X106796225Y-117974830D01*
X106772860Y-117974810D01*
X106752613Y-117974786D01*
X106698367Y-117974712D01*
X106697686Y-117919785D01*
X106697006Y-117864859D01*
X106643342Y-117864177D01*
X106589678Y-117863496D01*
X106589678Y-117974712D01*
X106476136Y-117974712D01*
X106475455Y-117919785D01*
X106474775Y-117864859D01*
X106419848Y-117864178D01*
X106364922Y-117863498D01*
X106364922Y-117861071D01*
X106478563Y-117861071D01*
X106587253Y-117861071D01*
X106811909Y-117861071D01*
X107031716Y-117861071D01*
X107030352Y-117753743D01*
X106921131Y-117753128D01*
X106811909Y-117752513D01*
X106811909Y-117861071D01*
X106587253Y-117861071D01*
X106586572Y-117807407D01*
X106585890Y-117753743D01*
X106532227Y-117753062D01*
X106478563Y-117752380D01*
X106478563Y-117861071D01*
X106364922Y-117861071D01*
X106364922Y-117749955D01*
X106476094Y-117749955D01*
X106589678Y-117749955D01*
X106698369Y-117749955D01*
X106697687Y-117696291D01*
X106697006Y-117642628D01*
X106643342Y-117641946D01*
X106589678Y-117641265D01*
X106589678Y-117749955D01*
X106476094Y-117749955D01*
X106475973Y-117639471D01*
X106475972Y-117638840D01*
X106700794Y-117638840D01*
X106809484Y-117638840D01*
X106923025Y-117638840D01*
X107031716Y-117638840D01*
X107145256Y-117638840D01*
X107253947Y-117638840D01*
X107478603Y-117638840D01*
X107587293Y-117638840D01*
X107586612Y-117585176D01*
X107585930Y-117531512D01*
X107532266Y-117530831D01*
X107478603Y-117530149D01*
X107478603Y-117638840D01*
X107253947Y-117638840D01*
X107252583Y-117531512D01*
X107198920Y-117530831D01*
X107145256Y-117530149D01*
X107145256Y-117638840D01*
X107031716Y-117638840D01*
X107030352Y-117531512D01*
X106976689Y-117530831D01*
X106923025Y-117530149D01*
X106923025Y-117638840D01*
X106809484Y-117638840D01*
X106808803Y-117585176D01*
X106808121Y-117531512D01*
X106754458Y-117530831D01*
X106700794Y-117530149D01*
X106700794Y-117638840D01*
X106475972Y-117638840D01*
X106475966Y-117633434D01*
X106475944Y-117607334D01*
X106475927Y-117580746D01*
X106475917Y-117554594D01*
X106475913Y-117529800D01*
X106475917Y-117507287D01*
X106475927Y-117487978D01*
X106475945Y-117472798D01*
X106476033Y-117419034D01*
X106589678Y-117419034D01*
X106589678Y-117527724D01*
X106698369Y-117527724D01*
X106697687Y-117474060D01*
X106697006Y-117420397D01*
X106643342Y-117419715D01*
X106600159Y-117419167D01*
X107256371Y-117419167D01*
X107256371Y-117527724D01*
X107476178Y-117527724D01*
X107475496Y-117474060D01*
X107474815Y-117420397D01*
X107256371Y-117419167D01*
X106600159Y-117419167D01*
X106589678Y-117419034D01*
X106476033Y-117419034D01*
X106476037Y-117416609D01*
X106587076Y-117416609D01*
X106811909Y-117416609D01*
X107142653Y-117416609D01*
X107142254Y-117305493D01*
X107367487Y-117305493D01*
X107478603Y-117305493D01*
X107478603Y-117416609D01*
X107589718Y-117416609D01*
X107589718Y-117527724D01*
X107698308Y-117527724D01*
X107698308Y-117416609D01*
X107920640Y-117416609D01*
X107919958Y-117362945D01*
X107919277Y-117309281D01*
X107754115Y-117308688D01*
X107742864Y-117308646D01*
X107715005Y-117308523D01*
X107688829Y-117308381D01*
X107664755Y-117308225D01*
X107643205Y-117308059D01*
X107624601Y-117307885D01*
X107609363Y-117307709D01*
X107597912Y-117307533D01*
X107590670Y-117307362D01*
X107588057Y-117307199D01*
X107587928Y-117306036D01*
X107587717Y-117300406D01*
X107587499Y-117290580D01*
X107587281Y-117277078D01*
X107587069Y-117260418D01*
X107586871Y-117241118D01*
X107586694Y-117219698D01*
X107586545Y-117196676D01*
X107585930Y-117087050D01*
X107532266Y-117086369D01*
X107478603Y-117085687D01*
X107478603Y-117196903D01*
X107367487Y-117196903D01*
X107367487Y-117305493D01*
X107142254Y-117305493D01*
X107142061Y-117251829D01*
X107141854Y-117194378D01*
X107256371Y-117194378D01*
X107364962Y-117194378D01*
X107364962Y-117083262D01*
X107476077Y-117083262D01*
X107589718Y-117083262D01*
X107700834Y-117083262D01*
X107700834Y-117194378D01*
X107809391Y-117194378D01*
X108034180Y-117194378D01*
X108142871Y-117194378D01*
X108142189Y-117140714D01*
X108141508Y-117087050D01*
X108087844Y-117086369D01*
X108034180Y-117085687D01*
X108034180Y-117194378D01*
X107809391Y-117194378D01*
X107808776Y-117085156D01*
X107808161Y-116975935D01*
X107698940Y-116975320D01*
X107589718Y-116974705D01*
X107589718Y-117083262D01*
X107476077Y-117083262D01*
X107476077Y-116972147D01*
X107587160Y-116972147D01*
X107585930Y-116753703D01*
X107421151Y-116753111D01*
X107256371Y-116752518D01*
X107256371Y-117194378D01*
X107141854Y-117194378D01*
X107141468Y-117087050D01*
X106976689Y-117086457D01*
X106811909Y-117085865D01*
X106811909Y-117416609D01*
X106587076Y-117416609D01*
X106586483Y-117251829D01*
X106585890Y-117087050D01*
X106532227Y-117086369D01*
X106478563Y-117085687D01*
X106478563Y-117308018D01*
X106365020Y-117308018D01*
X106364340Y-117253092D01*
X106363659Y-117198166D01*
X106308733Y-117197485D01*
X106253806Y-117196804D01*
X106253732Y-117142559D01*
X106253709Y-117123185D01*
X106253689Y-117099906D01*
X106253672Y-117075366D01*
X106253662Y-117051496D01*
X106253658Y-117030230D01*
X106253661Y-117010095D01*
X106253672Y-116986052D01*
X106253688Y-116961136D01*
X106253708Y-116937324D01*
X106253732Y-116916589D01*
X106253806Y-116861031D01*
X106367447Y-116861031D01*
X106367447Y-117083262D01*
X106476037Y-117083262D01*
X106476037Y-116972147D01*
X106587153Y-116972147D01*
X106587153Y-116861031D01*
X106698369Y-116861031D01*
X106697687Y-116807367D01*
X106697006Y-116753703D01*
X106642128Y-116753023D01*
X106587251Y-116752343D01*
X106586571Y-116697465D01*
X106585890Y-116642588D01*
X106532227Y-116641906D01*
X106478563Y-116641225D01*
X106478563Y-116752256D01*
X106422374Y-116752980D01*
X106404825Y-116753150D01*
X106380855Y-116753261D01*
X106355668Y-116753269D01*
X106331351Y-116753175D01*
X106309995Y-116752978D01*
X106253806Y-116752253D01*
X106253806Y-116638800D01*
X106476037Y-116638800D01*
X106700794Y-116638800D01*
X106811909Y-116638800D01*
X106811909Y-116749915D01*
X106920500Y-116749915D01*
X106920500Y-116638800D01*
X107142831Y-116638800D01*
X107142149Y-116585136D01*
X107141468Y-116531472D01*
X107086541Y-116530792D01*
X107031615Y-116530111D01*
X107031615Y-116416569D01*
X107142831Y-116416569D01*
X107256371Y-116416569D01*
X107367487Y-116416569D01*
X107367487Y-116638800D01*
X107476077Y-116638800D01*
X107476077Y-116527684D01*
X107589718Y-116527684D01*
X107589718Y-116638800D01*
X107700834Y-116638800D01*
X107700834Y-116749915D01*
X107923065Y-116749915D01*
X107923065Y-116972147D01*
X108031655Y-116972147D01*
X108031655Y-116861031D01*
X108145296Y-116861031D01*
X108145296Y-117083262D01*
X108253942Y-117083262D01*
X108253823Y-116974705D01*
X108367527Y-116974705D01*
X108367527Y-117083262D01*
X108587333Y-117083262D01*
X108700873Y-117083262D01*
X108809464Y-117083262D01*
X108809464Y-116972147D01*
X108923104Y-116972147D01*
X108923104Y-117305493D01*
X109031695Y-117305493D01*
X109031695Y-117194378D01*
X109145335Y-117194378D01*
X109145335Y-117305493D01*
X109253926Y-117305493D01*
X109253926Y-117194378D01*
X109365293Y-117194378D01*
X109365034Y-117139451D01*
X109364967Y-117121972D01*
X109364911Y-117098416D01*
X109364880Y-117073593D01*
X109364879Y-117049551D01*
X109364908Y-117028336D01*
X109365041Y-116972147D01*
X109587373Y-116972147D01*
X109586691Y-116918483D01*
X109586010Y-116864819D01*
X109531132Y-116864139D01*
X109476255Y-116863458D01*
X109475575Y-116808581D01*
X109474894Y-116753703D01*
X109420017Y-116753023D01*
X109365139Y-116752343D01*
X109364459Y-116697465D01*
X109363779Y-116642588D01*
X109308852Y-116641907D01*
X109253926Y-116641227D01*
X109253845Y-116586350D01*
X109253839Y-116582779D01*
X109253801Y-116566737D01*
X109253740Y-116546796D01*
X109253660Y-116523865D01*
X109253564Y-116498849D01*
X109253455Y-116472654D01*
X109253337Y-116446188D01*
X109253214Y-116420357D01*
X109252663Y-116309241D01*
X109198999Y-116308560D01*
X109145335Y-116307878D01*
X109145335Y-116641325D01*
X109089146Y-116641418D01*
X109085958Y-116641423D01*
X109069711Y-116641439D01*
X109049557Y-116641447D01*
X109026418Y-116641449D01*
X109001217Y-116641444D01*
X108974877Y-116641432D01*
X108948321Y-116641414D01*
X108922473Y-116641390D01*
X108811989Y-116641269D01*
X108811989Y-116752441D01*
X108700873Y-116752441D01*
X108700873Y-117083262D01*
X108587333Y-117083262D01*
X108586651Y-117029598D01*
X108585970Y-116975935D01*
X108476748Y-116975320D01*
X108367527Y-116974705D01*
X108253823Y-116974705D01*
X108253821Y-116972778D01*
X108253815Y-116966741D01*
X108253792Y-116940641D01*
X108253775Y-116914053D01*
X108253765Y-116887901D01*
X108253762Y-116863106D01*
X108253762Y-116861031D01*
X108478642Y-116861031D01*
X108587333Y-116861031D01*
X108586651Y-116807367D01*
X108585970Y-116753703D01*
X108532306Y-116753022D01*
X108478642Y-116752340D01*
X108478642Y-116861031D01*
X108253762Y-116861031D01*
X108253765Y-116840594D01*
X108253776Y-116821285D01*
X108253793Y-116806105D01*
X108253886Y-116749915D01*
X108365102Y-116749915D01*
X108364420Y-116696252D01*
X108363739Y-116642588D01*
X108254517Y-116641973D01*
X108145296Y-116641358D01*
X108145296Y-116752441D01*
X108031753Y-116752441D01*
X108031073Y-116697514D01*
X108030392Y-116642588D01*
X107974834Y-116642068D01*
X107957864Y-116641924D01*
X107934194Y-116641757D01*
X107909342Y-116641612D01*
X107885384Y-116641501D01*
X107864399Y-116641436D01*
X107809522Y-116641325D01*
X107809491Y-116638800D01*
X108034180Y-116638800D01*
X108142871Y-116638800D01*
X108367527Y-116638800D01*
X108589758Y-116638800D01*
X108589758Y-116749915D01*
X108698600Y-116749915D01*
X108698341Y-116694989D01*
X108698274Y-116677510D01*
X108698218Y-116653954D01*
X108698187Y-116629131D01*
X108698186Y-116605089D01*
X108698215Y-116583874D01*
X108698348Y-116527684D01*
X108920680Y-116527684D01*
X108919998Y-116474021D01*
X108919316Y-116420357D01*
X108863759Y-116419837D01*
X108846788Y-116419693D01*
X108823119Y-116419526D01*
X108798266Y-116419381D01*
X108774309Y-116419270D01*
X108753324Y-116419205D01*
X108698447Y-116419094D01*
X108697766Y-116364168D01*
X108697085Y-116309241D01*
X108643422Y-116308560D01*
X108589758Y-116307878D01*
X108589758Y-116530210D01*
X108533569Y-116530343D01*
X108515789Y-116530370D01*
X108492042Y-116530373D01*
X108467206Y-116530347D01*
X108443328Y-116530294D01*
X108422453Y-116530217D01*
X108367527Y-116529957D01*
X108367527Y-116638800D01*
X108142871Y-116638800D01*
X108142189Y-116585136D01*
X108141508Y-116531472D01*
X108087844Y-116530791D01*
X108034180Y-116530109D01*
X108034180Y-116638800D01*
X107809491Y-116638800D01*
X107808842Y-116586399D01*
X107808161Y-116531472D01*
X107753284Y-116530792D01*
X107698406Y-116530112D01*
X107698376Y-116527684D01*
X107811949Y-116527684D01*
X108031655Y-116527684D01*
X108031655Y-116416569D01*
X108145296Y-116416569D01*
X108145296Y-116527684D01*
X108365102Y-116527684D01*
X108364420Y-116474021D01*
X108363739Y-116420357D01*
X108308861Y-116419676D01*
X108253984Y-116418996D01*
X108253304Y-116364119D01*
X108252623Y-116309241D01*
X108197746Y-116308561D01*
X108142869Y-116307880D01*
X108142839Y-116305453D01*
X108811989Y-116305453D01*
X108920680Y-116305453D01*
X108919998Y-116251790D01*
X108919316Y-116198126D01*
X108865653Y-116197444D01*
X108811989Y-116196763D01*
X108811989Y-116305453D01*
X108142839Y-116305453D01*
X108142188Y-116253003D01*
X108141508Y-116198126D01*
X108032286Y-116197511D01*
X107923065Y-116196896D01*
X107923065Y-116419094D01*
X107811949Y-116419094D01*
X107811949Y-116527684D01*
X107698376Y-116527684D01*
X107697726Y-116475234D01*
X107697046Y-116420357D01*
X107642168Y-116419676D01*
X107587291Y-116418996D01*
X107586610Y-116364119D01*
X107585930Y-116309241D01*
X107421151Y-116308649D01*
X107256371Y-116308056D01*
X107256371Y-116416569D01*
X107142831Y-116416569D01*
X107142149Y-116362905D01*
X107141468Y-116309241D01*
X107032246Y-116308626D01*
X106923025Y-116308011D01*
X106923025Y-116419094D01*
X106811909Y-116419094D01*
X106811909Y-116530210D01*
X106700794Y-116530210D01*
X106700794Y-116638800D01*
X106476037Y-116638800D01*
X106476037Y-116527684D01*
X106587153Y-116527684D01*
X106587153Y-116416569D01*
X106809484Y-116416569D01*
X106808803Y-116362905D01*
X106808121Y-116309241D01*
X106752564Y-116308721D01*
X106735593Y-116308577D01*
X106711924Y-116308410D01*
X106687071Y-116308266D01*
X106663114Y-116308155D01*
X106642129Y-116308090D01*
X106587251Y-116307979D01*
X106586571Y-116253052D01*
X106585890Y-116198126D01*
X106530964Y-116197445D01*
X106476037Y-116196765D01*
X106476037Y-116194338D01*
X106589678Y-116194338D01*
X106809484Y-116194338D01*
X106808803Y-116140674D01*
X106808121Y-116087010D01*
X106698900Y-116086395D01*
X106589678Y-116085780D01*
X106589678Y-116194338D01*
X106476037Y-116194338D01*
X106476037Y-116083222D01*
X106587120Y-116083222D01*
X106586505Y-115974001D01*
X106586494Y-115972107D01*
X106700794Y-115972107D01*
X107031716Y-115972107D01*
X107030352Y-115864779D01*
X106976689Y-115864098D01*
X106923025Y-115863416D01*
X106923025Y-115972107D01*
X106809484Y-115972107D01*
X106808803Y-115918443D01*
X106808121Y-115864779D01*
X106754458Y-115864098D01*
X106700794Y-115863416D01*
X106700794Y-115972107D01*
X106586494Y-115972107D01*
X106585890Y-115864779D01*
X106420729Y-115864186D01*
X106409470Y-115864144D01*
X106381614Y-115864022D01*
X106355441Y-115863883D01*
X106331372Y-115863730D01*
X106309828Y-115863568D01*
X106291229Y-115863400D01*
X106275998Y-115863230D01*
X106264555Y-115863061D01*
X106257320Y-115862897D01*
X106254716Y-115862742D01*
X106254628Y-115862077D01*
X106254590Y-115860991D01*
X106589678Y-115860991D01*
X106698268Y-115860991D01*
X106698268Y-115749876D01*
X106811909Y-115749876D01*
X106811909Y-115860991D01*
X106920500Y-115860991D01*
X106920500Y-115749876D01*
X107367487Y-115749876D01*
X107367487Y-115863517D01*
X107256371Y-115863517D01*
X107256371Y-115974632D01*
X107145256Y-115974632D01*
X107145256Y-116085748D01*
X107089067Y-116085881D01*
X107071287Y-116085908D01*
X107047540Y-116085911D01*
X107022704Y-116085884D01*
X106998826Y-116085832D01*
X106977951Y-116085755D01*
X106923025Y-116085495D01*
X106923025Y-116194338D01*
X107145256Y-116194338D01*
X107145256Y-116305453D01*
X107253846Y-116305453D01*
X107700834Y-116305453D01*
X107809524Y-116305453D01*
X107808843Y-116251790D01*
X107808161Y-116198126D01*
X107754497Y-116197444D01*
X107700834Y-116196763D01*
X107700834Y-116305453D01*
X107253846Y-116305453D01*
X107253846Y-116194338D01*
X107476178Y-116194338D01*
X107475496Y-116140674D01*
X107474815Y-116087010D01*
X107419888Y-116086330D01*
X107364962Y-116085649D01*
X107364962Y-116083222D01*
X107478603Y-116083222D01*
X107589718Y-116083222D01*
X107589718Y-116194338D01*
X107698308Y-116194338D01*
X108145296Y-116194338D01*
X108253886Y-116194338D01*
X108367527Y-116194338D01*
X108809564Y-116194338D01*
X108808882Y-116140674D01*
X108808201Y-116087010D01*
X108753274Y-116086330D01*
X108698348Y-116085649D01*
X108698348Y-115972107D01*
X108811989Y-115972107D01*
X108811989Y-116083222D01*
X108923104Y-116083222D01*
X108923104Y-116194338D01*
X109034220Y-116194338D01*
X109034220Y-116305453D01*
X109142777Y-116305453D01*
X109256451Y-116305453D01*
X109367567Y-116305453D01*
X109367567Y-116416569D01*
X109476124Y-116416569D01*
X110145375Y-116416569D01*
X110254066Y-116416569D01*
X110253384Y-116362905D01*
X110252703Y-116309241D01*
X110199039Y-116308560D01*
X110145375Y-116307878D01*
X110145375Y-116416569D01*
X109476124Y-116416569D01*
X109475509Y-116307347D01*
X109474894Y-116198126D01*
X109420017Y-116197445D01*
X109365139Y-116196765D01*
X109365139Y-116196763D01*
X110034260Y-116196763D01*
X110034260Y-116305453D01*
X110142950Y-116305453D01*
X110142269Y-116251790D01*
X110141587Y-116198126D01*
X110087923Y-116197444D01*
X110034260Y-116196763D01*
X109365139Y-116196763D01*
X109365109Y-116194338D01*
X109478682Y-116194338D01*
X109809503Y-116194338D01*
X109809503Y-116083222D01*
X109923144Y-116083222D01*
X109923144Y-116194338D01*
X110031734Y-116194338D01*
X110145375Y-116194338D01*
X110254066Y-116194338D01*
X110253384Y-116140674D01*
X110252703Y-116087010D01*
X110199039Y-116086329D01*
X110145375Y-116085647D01*
X110145375Y-116194338D01*
X110031734Y-116194338D01*
X110031734Y-116083222D01*
X110365181Y-116083222D01*
X110364500Y-116029559D01*
X110363818Y-115975895D01*
X110310155Y-115975213D01*
X110256491Y-115974532D01*
X110256491Y-116083222D01*
X110142950Y-116083222D01*
X110142269Y-116029559D01*
X110141587Y-115975895D01*
X110086710Y-115975214D01*
X110031833Y-115974534D01*
X110031152Y-115919657D01*
X110030472Y-115864779D01*
X109920845Y-115864164D01*
X109905759Y-115864071D01*
X109883718Y-115863904D01*
X109863617Y-115863715D01*
X109845973Y-115863510D01*
X109831305Y-115863296D01*
X109820132Y-115863081D01*
X109812973Y-115862872D01*
X109810345Y-115862675D01*
X109810219Y-115861514D01*
X109810200Y-115860991D01*
X110034260Y-115860991D01*
X110142950Y-115860991D01*
X110256491Y-115860991D01*
X110365048Y-115860991D01*
X110364433Y-115751770D01*
X110363818Y-115642548D01*
X110310155Y-115641867D01*
X110256491Y-115641185D01*
X110256491Y-115860991D01*
X110142950Y-115860991D01*
X110142269Y-115807327D01*
X110141587Y-115753664D01*
X110087923Y-115752982D01*
X110034260Y-115752301D01*
X110034260Y-115860991D01*
X109810200Y-115860991D01*
X109810013Y-115855888D01*
X109809799Y-115846066D01*
X109809585Y-115832568D01*
X109809376Y-115815911D01*
X109809180Y-115796614D01*
X109809005Y-115775195D01*
X109808856Y-115752175D01*
X109808241Y-115642548D01*
X109754577Y-115641867D01*
X109700913Y-115641185D01*
X109700913Y-115752401D01*
X109589798Y-115752401D01*
X109589798Y-115860991D01*
X109700913Y-115860991D01*
X109700913Y-115974632D01*
X109589798Y-115974632D01*
X109589798Y-116085748D01*
X109478682Y-116085748D01*
X109478682Y-116194338D01*
X109365109Y-116194338D01*
X109364459Y-116141888D01*
X109363779Y-116087010D01*
X109310115Y-116086329D01*
X109256451Y-116085647D01*
X109256451Y-116305453D01*
X109142777Y-116305453D01*
X109142162Y-116196232D01*
X109141547Y-116087010D01*
X109086670Y-116086330D01*
X109031793Y-116085649D01*
X109031763Y-116083222D01*
X109367567Y-116083222D01*
X109476257Y-116083222D01*
X109475576Y-116029559D01*
X109474894Y-115975895D01*
X109421230Y-115975213D01*
X109367567Y-115974532D01*
X109367567Y-116083222D01*
X109031763Y-116083222D01*
X109031112Y-116030772D01*
X109030432Y-115975895D01*
X108975555Y-115975214D01*
X108920677Y-115974534D01*
X108919997Y-115919657D01*
X108919316Y-115864779D01*
X108864439Y-115864099D01*
X108809562Y-115863418D01*
X108809562Y-115863416D01*
X109034220Y-115863416D01*
X109034220Y-115972107D01*
X109142911Y-115972107D01*
X109141547Y-115864779D01*
X109087884Y-115864098D01*
X109034220Y-115863416D01*
X108809562Y-115863416D01*
X108809532Y-115860991D01*
X108923104Y-115860991D01*
X109031795Y-115860991D01*
X109145335Y-115860991D01*
X109256451Y-115860991D01*
X109256451Y-115972107D01*
X109365041Y-115972107D01*
X109478682Y-115972107D01*
X109587373Y-115972107D01*
X109586691Y-115918443D01*
X109586010Y-115864779D01*
X109532346Y-115864098D01*
X109478682Y-115863416D01*
X109478682Y-115972107D01*
X109365041Y-115972107D01*
X109365041Y-115860991D01*
X109476213Y-115860991D01*
X109476092Y-115750507D01*
X109476086Y-115744470D01*
X109476063Y-115718370D01*
X109476046Y-115691782D01*
X109476036Y-115665630D01*
X109476033Y-115640836D01*
X109476033Y-115638760D01*
X109923144Y-115638760D01*
X110142950Y-115638760D01*
X110367606Y-115638760D01*
X110587412Y-115638760D01*
X110586731Y-115585096D01*
X110586049Y-115531433D01*
X110476828Y-115530818D01*
X110367606Y-115530203D01*
X110367606Y-115638760D01*
X110142950Y-115638760D01*
X110142269Y-115585096D01*
X110141587Y-115531433D01*
X110032366Y-115530818D01*
X109923144Y-115530203D01*
X109923144Y-115638760D01*
X109476033Y-115638760D01*
X109476036Y-115618323D01*
X109476046Y-115599014D01*
X109476064Y-115583834D01*
X109476157Y-115527645D01*
X109587272Y-115527645D01*
X109587272Y-115416529D01*
X109809604Y-115416529D01*
X109808922Y-115362865D01*
X109808241Y-115309202D01*
X109643461Y-115308609D01*
X109478682Y-115308016D01*
X109478682Y-115419054D01*
X109367567Y-115419054D01*
X109367567Y-115530170D01*
X109311377Y-115530303D01*
X109293597Y-115530330D01*
X109269851Y-115530333D01*
X109245015Y-115530307D01*
X109221136Y-115530254D01*
X109200262Y-115530177D01*
X109145335Y-115529918D01*
X109145335Y-115638760D01*
X109256451Y-115638760D01*
X109256451Y-115752401D01*
X109145335Y-115752401D01*
X109145335Y-115860991D01*
X109031795Y-115860991D01*
X109031113Y-115807327D01*
X109030432Y-115753664D01*
X108976768Y-115752982D01*
X108923104Y-115752301D01*
X108923104Y-115860991D01*
X108809532Y-115860991D01*
X108808881Y-115808541D01*
X108808201Y-115753664D01*
X108754537Y-115752982D01*
X108700873Y-115752301D01*
X108700873Y-115863517D01*
X108589758Y-115863517D01*
X108589758Y-116085748D01*
X108533569Y-116085881D01*
X108515789Y-116085908D01*
X108492042Y-116085911D01*
X108467206Y-116085884D01*
X108443328Y-116085832D01*
X108422453Y-116085755D01*
X108367527Y-116085495D01*
X108367527Y-116194338D01*
X108253886Y-116194338D01*
X108253886Y-116083222D01*
X108365102Y-116083222D01*
X108364420Y-116029559D01*
X108363739Y-115975895D01*
X108308861Y-115975214D01*
X108253984Y-115974534D01*
X108253304Y-115919657D01*
X108252623Y-115864779D01*
X108198959Y-115864098D01*
X108145296Y-115863416D01*
X108145296Y-116194338D01*
X107698308Y-116194338D01*
X107698308Y-116083222D01*
X107809524Y-116083222D01*
X107808843Y-116029559D01*
X107808161Y-115975895D01*
X107478603Y-115974709D01*
X107478603Y-116083222D01*
X107364962Y-116083222D01*
X107364962Y-115972107D01*
X107476000Y-115972107D01*
X107475407Y-115807327D01*
X107474815Y-115642548D01*
X107419257Y-115642028D01*
X107402286Y-115641884D01*
X107378617Y-115641717D01*
X107353764Y-115641572D01*
X107329807Y-115641462D01*
X107308822Y-115641397D01*
X107253945Y-115641286D01*
X107253914Y-115638760D01*
X107478603Y-115638760D01*
X107587293Y-115638760D01*
X107586612Y-115585096D01*
X107585930Y-115531433D01*
X107532266Y-115530751D01*
X107478603Y-115530070D01*
X107478603Y-115638760D01*
X107253914Y-115638760D01*
X107253264Y-115586359D01*
X107252583Y-115531433D01*
X107197026Y-115530912D01*
X107180055Y-115530768D01*
X107156386Y-115530602D01*
X107131533Y-115530457D01*
X107107576Y-115530346D01*
X107086591Y-115530281D01*
X107031714Y-115530170D01*
X107031683Y-115527645D01*
X107256371Y-115527645D01*
X107365062Y-115527645D01*
X107364381Y-115473981D01*
X107363699Y-115420317D01*
X107310035Y-115419636D01*
X107256371Y-115418954D01*
X107256371Y-115527645D01*
X107031683Y-115527645D01*
X107031033Y-115475244D01*
X107030352Y-115420317D01*
X106921131Y-115419702D01*
X106811909Y-115419087D01*
X106811909Y-115641286D01*
X106755720Y-115641419D01*
X106737940Y-115641446D01*
X106714193Y-115641448D01*
X106689358Y-115641422D01*
X106665479Y-115641370D01*
X106644605Y-115641293D01*
X106589678Y-115641033D01*
X106589678Y-115860991D01*
X106254590Y-115860991D01*
X106254455Y-115857127D01*
X106254295Y-115847660D01*
X106254150Y-115834036D01*
X106254021Y-115816616D01*
X106253908Y-115795761D01*
X106253815Y-115771829D01*
X106253754Y-115749876D01*
X106367447Y-115749876D01*
X106476138Y-115749876D01*
X106475456Y-115696212D01*
X106474775Y-115642548D01*
X106421111Y-115641867D01*
X106367447Y-115641185D01*
X106367447Y-115749876D01*
X106253754Y-115749876D01*
X106253741Y-115745182D01*
X106253688Y-115716181D01*
X106253658Y-115685185D01*
X106253651Y-115652555D01*
X106253669Y-115618651D01*
X106253714Y-115583834D01*
X106253806Y-115527645D01*
X106478563Y-115527645D01*
X106478563Y-115638760D01*
X106587153Y-115638760D01*
X106587153Y-115527645D01*
X106698369Y-115527645D01*
X106697687Y-115473981D01*
X106697006Y-115420317D01*
X106530333Y-115419754D01*
X106527694Y-115419745D01*
X106497220Y-115419644D01*
X106466834Y-115419547D01*
X106437159Y-115419456D01*
X106408813Y-115419372D01*
X106382416Y-115419297D01*
X106358590Y-115419233D01*
X106337954Y-115419181D01*
X106321128Y-115419144D01*
X106308733Y-115419123D01*
X106253806Y-115419054D01*
X106253806Y-115416529D01*
X107034140Y-115416529D01*
X107142831Y-115416529D01*
X107478603Y-115416529D01*
X107587293Y-115416529D01*
X107700834Y-115416529D01*
X107809524Y-115416529D01*
X107808843Y-115362865D01*
X107808161Y-115309202D01*
X107754497Y-115308520D01*
X107700834Y-115307838D01*
X107700834Y-115416529D01*
X107587293Y-115416529D01*
X107586612Y-115362865D01*
X107585930Y-115309202D01*
X107532266Y-115308520D01*
X107478603Y-115307838D01*
X107478603Y-115416529D01*
X107142831Y-115416529D01*
X107142149Y-115362865D01*
X107141468Y-115309202D01*
X107034140Y-115307838D01*
X107034140Y-115416529D01*
X106253806Y-115416529D01*
X106253806Y-115305414D01*
X106476037Y-115305414D01*
X106589678Y-115305414D01*
X106809307Y-115305414D01*
X106923025Y-115305414D01*
X107031716Y-115305414D01*
X107030352Y-115198086D01*
X106976689Y-115197405D01*
X106923025Y-115196723D01*
X106923025Y-115305414D01*
X106809307Y-115305414D01*
X106808907Y-115194298D01*
X107034140Y-115194298D01*
X107145256Y-115194298D01*
X107145256Y-115305414D01*
X107365214Y-115305414D01*
X107589718Y-115305414D01*
X107698409Y-115305414D01*
X107697727Y-115251750D01*
X107697046Y-115198086D01*
X107643382Y-115197405D01*
X107589718Y-115196723D01*
X107589718Y-115305414D01*
X107365214Y-115305414D01*
X107364954Y-115250487D01*
X107364888Y-115233008D01*
X107364831Y-115209452D01*
X107364801Y-115184629D01*
X107364799Y-115160587D01*
X107364828Y-115139372D01*
X107364962Y-115083183D01*
X107478603Y-115083183D01*
X107478603Y-115194298D01*
X107587160Y-115194298D01*
X107586545Y-115085077D01*
X107585930Y-114975855D01*
X107365593Y-114975273D01*
X107145256Y-114974692D01*
X107145256Y-115085708D01*
X107034140Y-115085708D01*
X107034140Y-115194298D01*
X106808907Y-115194298D01*
X106808714Y-115140634D01*
X106808507Y-115083183D01*
X106923025Y-115083183D01*
X107031716Y-115083183D01*
X107030352Y-114975855D01*
X106976689Y-114975173D01*
X106923025Y-114974492D01*
X106923025Y-115083183D01*
X106808507Y-115083183D01*
X106808121Y-114975855D01*
X106754458Y-114975173D01*
X106700794Y-114974492D01*
X106700794Y-115196823D01*
X106589678Y-115196823D01*
X106589678Y-115305414D01*
X106476037Y-115305414D01*
X106476037Y-115194298D01*
X106587076Y-115194298D01*
X106586483Y-115029519D01*
X106585890Y-114864739D01*
X106532227Y-114864058D01*
X106478563Y-114863376D01*
X106478563Y-114974408D01*
X106422374Y-114975131D01*
X106404825Y-114975302D01*
X106380855Y-114975412D01*
X106355668Y-114975420D01*
X106331351Y-114975326D01*
X106309995Y-114975130D01*
X106253806Y-114974405D01*
X106253806Y-114860951D01*
X106365022Y-114860951D01*
X106364341Y-114807288D01*
X106363659Y-114753624D01*
X106308733Y-114752943D01*
X106253806Y-114752263D01*
X106253806Y-114638720D01*
X106478563Y-114638720D01*
X106478563Y-114749836D01*
X106587153Y-114749836D01*
X106587153Y-114638720D01*
X106698236Y-114638720D01*
X106811909Y-114638720D01*
X106920600Y-114638720D01*
X106919918Y-114585057D01*
X106919237Y-114531393D01*
X106865573Y-114530711D01*
X106811909Y-114530030D01*
X106811909Y-114638720D01*
X106698236Y-114638720D01*
X106697621Y-114529499D01*
X106697006Y-114420277D01*
X106643342Y-114419596D01*
X106589678Y-114418914D01*
X106589678Y-114530130D01*
X106534121Y-114530204D01*
X106514630Y-114530227D01*
X106490937Y-114530248D01*
X106466031Y-114530264D01*
X106441887Y-114530275D01*
X106420480Y-114530279D01*
X106400126Y-114530275D01*
X106376313Y-114530265D01*
X106351749Y-114530249D01*
X106328367Y-114530228D01*
X106308101Y-114530204D01*
X106253806Y-114530130D01*
X106253806Y-114416489D01*
X106476037Y-114416489D01*
X106476037Y-114305374D01*
X107034140Y-114305374D01*
X107034140Y-114641246D01*
X106923025Y-114641246D01*
X106923025Y-114752361D01*
X106866836Y-114752495D01*
X106849056Y-114752521D01*
X106825309Y-114752524D01*
X106800473Y-114752498D01*
X106776595Y-114752445D01*
X106755720Y-114752368D01*
X106700794Y-114752109D01*
X106700794Y-114860951D01*
X107253947Y-114860951D01*
X107253265Y-114807288D01*
X107252583Y-114753624D01*
X107197657Y-114752943D01*
X107142731Y-114752263D01*
X107142656Y-114698017D01*
X107142629Y-114675321D01*
X107142603Y-114638720D01*
X107256371Y-114638720D01*
X107367487Y-114638720D01*
X107367487Y-114860951D01*
X107476077Y-114860951D01*
X107589718Y-114860951D01*
X107700834Y-114860951D01*
X107700834Y-114972067D01*
X107811949Y-114972067D01*
X107811949Y-115194298D01*
X108034180Y-115194298D01*
X108034180Y-115307939D01*
X107923065Y-115307939D01*
X107923065Y-115530170D01*
X107866876Y-115530303D01*
X107849095Y-115530330D01*
X107825349Y-115530333D01*
X107800513Y-115530307D01*
X107776634Y-115530254D01*
X107755760Y-115530177D01*
X107700834Y-115529918D01*
X107700834Y-115860991D01*
X107923065Y-115860991D01*
X107923065Y-116083222D01*
X108031907Y-116083222D01*
X108031648Y-116028296D01*
X108031581Y-116010817D01*
X108031524Y-115987261D01*
X108031494Y-115962438D01*
X108031492Y-115938396D01*
X108031522Y-115917180D01*
X108031655Y-115860991D01*
X108142871Y-115860991D01*
X108256411Y-115860991D01*
X108367527Y-115860991D01*
X108367527Y-115972107D01*
X108476084Y-115972107D01*
X108475469Y-115862885D01*
X108474854Y-115753664D01*
X108365633Y-115753049D01*
X108256411Y-115752434D01*
X108256411Y-115860991D01*
X108142871Y-115860991D01*
X108142189Y-115807327D01*
X108141508Y-115753664D01*
X108086581Y-115752983D01*
X108031655Y-115752303D01*
X108031655Y-115638760D01*
X108145296Y-115638760D01*
X108145296Y-115749876D01*
X108253886Y-115749876D01*
X108253886Y-115641318D01*
X108478642Y-115641318D01*
X108478642Y-115749876D01*
X108698448Y-115749876D01*
X108697767Y-115696212D01*
X108697085Y-115642548D01*
X108587864Y-115641933D01*
X108478642Y-115641318D01*
X108253886Y-115641318D01*
X108253886Y-115638760D01*
X108476173Y-115638760D01*
X108700873Y-115638760D01*
X108811989Y-115638760D01*
X108811989Y-115749876D01*
X108920831Y-115749876D01*
X109034220Y-115749876D01*
X109142911Y-115749876D01*
X109141547Y-115642548D01*
X109087884Y-115641867D01*
X109034220Y-115641185D01*
X109034220Y-115749876D01*
X108920831Y-115749876D01*
X108920572Y-115694949D01*
X108920505Y-115677470D01*
X108920449Y-115653914D01*
X108920418Y-115629091D01*
X108920417Y-115605049D01*
X108920446Y-115583834D01*
X108920579Y-115527645D01*
X109142911Y-115527645D01*
X109141547Y-115420317D01*
X109085990Y-115419797D01*
X109069019Y-115419653D01*
X109045350Y-115419486D01*
X109020497Y-115419341D01*
X108996540Y-115419231D01*
X108975555Y-115419166D01*
X108920678Y-115419054D01*
X108920647Y-115416529D01*
X109256451Y-115416529D01*
X109365142Y-115416529D01*
X109364460Y-115362865D01*
X109363779Y-115309202D01*
X109256451Y-115307838D01*
X109256451Y-115416529D01*
X108920647Y-115416529D01*
X108919316Y-115309202D01*
X108865653Y-115308520D01*
X108811989Y-115307838D01*
X108811989Y-115530170D01*
X108700873Y-115530170D01*
X108700873Y-115638760D01*
X108476173Y-115638760D01*
X108476052Y-115528276D01*
X108476051Y-115527645D01*
X108589758Y-115527645D01*
X108698448Y-115527645D01*
X108697767Y-115473981D01*
X108697085Y-115420317D01*
X108643422Y-115419636D01*
X108589758Y-115418954D01*
X108589758Y-115527645D01*
X108476051Y-115527645D01*
X108476046Y-115522239D01*
X108476023Y-115496139D01*
X108476006Y-115469551D01*
X108475996Y-115443399D01*
X108475993Y-115418605D01*
X108475996Y-115396092D01*
X108476007Y-115376783D01*
X108476024Y-115361603D01*
X108476117Y-115305414D01*
X109476257Y-115305414D01*
X109475576Y-115251750D01*
X109474894Y-115198086D01*
X109421230Y-115197405D01*
X109367567Y-115196723D01*
X109367567Y-115305414D01*
X109142733Y-115305414D01*
X109142333Y-115194298D01*
X109589798Y-115194298D01*
X109809604Y-115194298D01*
X109808922Y-115140634D01*
X109808241Y-115086971D01*
X109699019Y-115086356D01*
X109589798Y-115085741D01*
X109589798Y-115194298D01*
X109142333Y-115194298D01*
X109142140Y-115140634D01*
X109141547Y-114975855D01*
X109032326Y-114975240D01*
X108923104Y-114974625D01*
X108923104Y-115085708D01*
X108811989Y-115085708D01*
X108811989Y-115194298D01*
X109034220Y-115194298D01*
X109034220Y-115305414D01*
X108809564Y-115305414D01*
X108808882Y-115251750D01*
X108808201Y-115198086D01*
X108753274Y-115197405D01*
X108698348Y-115196725D01*
X108698348Y-115083183D01*
X108809386Y-115083183D01*
X108808794Y-114918403D01*
X108808201Y-114753624D01*
X108754537Y-114752942D01*
X108700873Y-114752261D01*
X109145335Y-114752261D01*
X109145335Y-114972067D01*
X109365142Y-114972067D01*
X109478682Y-114972067D01*
X109698388Y-114972067D01*
X109698388Y-114860951D01*
X109812029Y-114860951D01*
X109812029Y-115083183D01*
X109923144Y-115083183D01*
X109923144Y-115196823D01*
X109812029Y-115196823D01*
X109812029Y-115305414D01*
X109923144Y-115305414D01*
X109923144Y-115416529D01*
X110142950Y-115416529D01*
X110367606Y-115416529D01*
X110476297Y-115416529D01*
X110475615Y-115362865D01*
X110474934Y-115309202D01*
X110367606Y-115307838D01*
X110367606Y-115416529D01*
X110142950Y-115416529D01*
X110142269Y-115362865D01*
X110141587Y-115309202D01*
X110086661Y-115308521D01*
X110031734Y-115307840D01*
X110031734Y-115194298D01*
X110145375Y-115194298D01*
X110145375Y-115305414D01*
X110365081Y-115305414D01*
X110365081Y-115194298D01*
X110476297Y-115194298D01*
X110475615Y-115140634D01*
X110474934Y-115086971D01*
X110420057Y-115086290D01*
X110365179Y-115085610D01*
X110364499Y-115030732D01*
X110363818Y-114975855D01*
X110254597Y-114975240D01*
X110145375Y-114974625D01*
X110145375Y-115085708D01*
X110031734Y-115085708D01*
X110031734Y-114972067D01*
X110142950Y-114972067D01*
X110142269Y-114918403D01*
X110141587Y-114864739D01*
X110086029Y-114864219D01*
X110069069Y-114864075D01*
X110045390Y-114863908D01*
X110020524Y-114863764D01*
X109996549Y-114863653D01*
X109975545Y-114863588D01*
X109920619Y-114863477D01*
X109920619Y-114749836D01*
X110142950Y-114749836D01*
X110142269Y-114696172D01*
X110141587Y-114642508D01*
X110086029Y-114641988D01*
X110069059Y-114641844D01*
X110045389Y-114641677D01*
X110020537Y-114641533D01*
X109996579Y-114641422D01*
X109975595Y-114641357D01*
X109920717Y-114641246D01*
X109920037Y-114586319D01*
X109919356Y-114531393D01*
X109810135Y-114530778D01*
X109700913Y-114530163D01*
X109700913Y-114638720D01*
X109812029Y-114638720D01*
X109812029Y-114752361D01*
X109698486Y-114752361D01*
X109697806Y-114697435D01*
X109697125Y-114642508D01*
X109643461Y-114641827D01*
X109589798Y-114641145D01*
X109589798Y-114863477D01*
X109478682Y-114863477D01*
X109478682Y-114972067D01*
X109365142Y-114972067D01*
X109364460Y-114918403D01*
X109363779Y-114864739D01*
X109308901Y-114864059D01*
X109254024Y-114863379D01*
X109253343Y-114808501D01*
X109252663Y-114753624D01*
X109198999Y-114752942D01*
X109145335Y-114752261D01*
X108700873Y-114752261D01*
X108700873Y-114863292D01*
X108644684Y-114864016D01*
X108627126Y-114864186D01*
X108603165Y-114864297D01*
X108577991Y-114864305D01*
X108553692Y-114864211D01*
X108532355Y-114864014D01*
X108476215Y-114863290D01*
X108475535Y-114808457D01*
X108474854Y-114753624D01*
X108421191Y-114752942D01*
X108367527Y-114752261D01*
X108367527Y-114972067D01*
X108589758Y-114972067D01*
X108589758Y-115085708D01*
X108478642Y-115085708D01*
X108478642Y-115196823D01*
X108367527Y-115196823D01*
X108367527Y-115307939D01*
X108256411Y-115307939D01*
X108256411Y-115416529D01*
X108367527Y-115416529D01*
X108367527Y-115530170D01*
X108253984Y-115530170D01*
X108253304Y-115475244D01*
X108252623Y-115420317D01*
X108197697Y-115419637D01*
X108142770Y-115418956D01*
X108142690Y-115364079D01*
X108142684Y-115360509D01*
X108142646Y-115344466D01*
X108142585Y-115324526D01*
X108142505Y-115301594D01*
X108142408Y-115276578D01*
X108142300Y-115250384D01*
X108142182Y-115223918D01*
X108142059Y-115198086D01*
X108141508Y-115086971D01*
X108086581Y-115086290D01*
X108031655Y-115085609D01*
X108031655Y-114972067D01*
X108253986Y-114972067D01*
X108253305Y-114918403D01*
X108252623Y-114864739D01*
X108031915Y-114864158D01*
X108003607Y-114864076D01*
X107971912Y-114863965D01*
X107941994Y-114863842D01*
X107914219Y-114863708D01*
X107888948Y-114863565D01*
X107866547Y-114863416D01*
X107847378Y-114863264D01*
X107831805Y-114863111D01*
X107820192Y-114862959D01*
X107812902Y-114862810D01*
X107810299Y-114862669D01*
X107810169Y-114861504D01*
X107809956Y-114855872D01*
X107809736Y-114846045D01*
X107809516Y-114832541D01*
X107809303Y-114815879D01*
X107809104Y-114796578D01*
X107808926Y-114775157D01*
X107808776Y-114752135D01*
X107808161Y-114642508D01*
X107754497Y-114641827D01*
X107711299Y-114641278D01*
X107923065Y-114641278D01*
X107923065Y-114749836D01*
X108142871Y-114749836D01*
X108142189Y-114696172D01*
X108141508Y-114642508D01*
X108032286Y-114641893D01*
X107923065Y-114641278D01*
X107711299Y-114641278D01*
X107700834Y-114641145D01*
X107700834Y-114752361D01*
X107589718Y-114752361D01*
X107589718Y-114860951D01*
X107476077Y-114860951D01*
X107476077Y-114749836D01*
X107587193Y-114749836D01*
X107587193Y-114638720D01*
X107698409Y-114638720D01*
X107697727Y-114585057D01*
X107697046Y-114531393D01*
X107642168Y-114530712D01*
X107587291Y-114530032D01*
X107587261Y-114527605D01*
X107700834Y-114527605D01*
X107920640Y-114527605D01*
X108034180Y-114527605D01*
X108142871Y-114527605D01*
X108142189Y-114473941D01*
X108141508Y-114420277D01*
X108087844Y-114419596D01*
X108034180Y-114418914D01*
X108034180Y-114527605D01*
X107920640Y-114527605D01*
X107919958Y-114473941D01*
X107919277Y-114420277D01*
X107810055Y-114419662D01*
X107700834Y-114419047D01*
X107700834Y-114527605D01*
X107587261Y-114527605D01*
X107586610Y-114475155D01*
X107585930Y-114420277D01*
X107532266Y-114419596D01*
X107478603Y-114418914D01*
X107478603Y-114530130D01*
X107422413Y-114530264D01*
X107404633Y-114530290D01*
X107380887Y-114530293D01*
X107356051Y-114530267D01*
X107332172Y-114530214D01*
X107311298Y-114530137D01*
X107256371Y-114529878D01*
X107256371Y-114638720D01*
X107142603Y-114638720D01*
X107142594Y-114625180D01*
X107142586Y-114573159D01*
X107142607Y-114521400D01*
X107142656Y-114472047D01*
X107142731Y-114416489D01*
X107476077Y-114416489D01*
X107476077Y-114305374D01*
X107589718Y-114305374D01*
X107589718Y-114416489D01*
X107698308Y-114416489D01*
X107698308Y-114305374D01*
X107809391Y-114305374D01*
X107923065Y-114305374D01*
X108031907Y-114305374D01*
X108031648Y-114250447D01*
X108031581Y-114232968D01*
X108031524Y-114209412D01*
X108031494Y-114184590D01*
X108031492Y-114160547D01*
X108031522Y-114139332D01*
X108031655Y-114083143D01*
X108145296Y-114083143D01*
X108145296Y-114416489D01*
X108256411Y-114416489D01*
X108256411Y-114530130D01*
X108145296Y-114530130D01*
X108145296Y-114638720D01*
X108256411Y-114638720D01*
X108256411Y-114749836D01*
X108365001Y-114749836D01*
X108589758Y-114749836D01*
X108698348Y-114749836D01*
X108698348Y-114638720D01*
X108811989Y-114638720D01*
X108811989Y-114749836D01*
X108920831Y-114749836D01*
X108920572Y-114694909D01*
X108920505Y-114677430D01*
X108920449Y-114653874D01*
X108920430Y-114638720D01*
X109145335Y-114638720D01*
X109254026Y-114638720D01*
X109253345Y-114585057D01*
X109252663Y-114531393D01*
X109198999Y-114530711D01*
X109145335Y-114530030D01*
X109145335Y-114638720D01*
X108920430Y-114638720D01*
X108920418Y-114629052D01*
X108920417Y-114605009D01*
X108920446Y-114583794D01*
X108920579Y-114527605D01*
X109142758Y-114527605D01*
X109142737Y-114416489D01*
X109256451Y-114416489D01*
X109367567Y-114416489D01*
X109367567Y-114749836D01*
X109476157Y-114749836D01*
X109476157Y-114638720D01*
X109587240Y-114638720D01*
X109586625Y-114529499D01*
X109586614Y-114527605D01*
X110034260Y-114527605D01*
X110142950Y-114527605D01*
X110142269Y-114473941D01*
X110141587Y-114420277D01*
X110087923Y-114419596D01*
X110034260Y-114418914D01*
X110034260Y-114527605D01*
X109586614Y-114527605D01*
X109586010Y-114420277D01*
X109531132Y-114419597D01*
X109476255Y-114418916D01*
X109475575Y-114364039D01*
X109474894Y-114309162D01*
X109419968Y-114308481D01*
X109365041Y-114307801D01*
X109365036Y-114305374D01*
X109478682Y-114305374D01*
X109587240Y-114305374D01*
X109586625Y-114196152D01*
X109586010Y-114086931D01*
X109532346Y-114086249D01*
X109478682Y-114085568D01*
X109478682Y-114305374D01*
X109365036Y-114305374D01*
X109364930Y-114252923D01*
X109364881Y-114236111D01*
X109364778Y-114212547D01*
X109364638Y-114187704D01*
X109364475Y-114163658D01*
X109364299Y-114142489D01*
X109363779Y-114086931D01*
X109310115Y-114086249D01*
X109256451Y-114085568D01*
X109256451Y-114416489D01*
X109142737Y-114416489D01*
X109142716Y-114306005D01*
X109142712Y-114286179D01*
X109142708Y-114251721D01*
X109142705Y-114217872D01*
X109142704Y-114185125D01*
X109142705Y-114153973D01*
X109142707Y-114124911D01*
X109142711Y-114098432D01*
X109142715Y-114083143D01*
X109367567Y-114083143D01*
X109476257Y-114083143D01*
X109475576Y-114029479D01*
X109474894Y-113975815D01*
X109421230Y-113975134D01*
X109367567Y-113974452D01*
X109367567Y-114083143D01*
X109142715Y-114083143D01*
X109142717Y-114075030D01*
X109142724Y-114055197D01*
X109142732Y-114039428D01*
X109142742Y-114028216D01*
X109142810Y-113972027D01*
X109365142Y-113972027D01*
X109364460Y-113918363D01*
X109363779Y-113864700D01*
X109308221Y-113864180D01*
X109291260Y-113864036D01*
X109267582Y-113863869D01*
X109242715Y-113863724D01*
X109218740Y-113863613D01*
X109197737Y-113863548D01*
X109142810Y-113863437D01*
X109142810Y-113749796D01*
X109254026Y-113749796D01*
X109253345Y-113696132D01*
X109252663Y-113642469D01*
X109143441Y-113641854D01*
X109034220Y-113641239D01*
X109034220Y-113863437D01*
X108920678Y-113863437D01*
X108919997Y-113808511D01*
X108919316Y-113753584D01*
X108810095Y-113752969D01*
X108700873Y-113752354D01*
X108700873Y-113860912D01*
X108811989Y-113860912D01*
X108811989Y-114305374D01*
X108920635Y-114305374D01*
X108920515Y-114194890D01*
X108920508Y-114188853D01*
X108920485Y-114162753D01*
X108920469Y-114136165D01*
X108920458Y-114110012D01*
X108920455Y-114085218D01*
X108920458Y-114062705D01*
X108920469Y-114043397D01*
X108920486Y-114028216D01*
X108920579Y-113972027D01*
X109034220Y-113972027D01*
X109034220Y-114419015D01*
X108978031Y-114419148D01*
X108960251Y-114419175D01*
X108936504Y-114419178D01*
X108911668Y-114419152D01*
X108887790Y-114419099D01*
X108866915Y-114419022D01*
X108811989Y-114418762D01*
X108811989Y-114530130D01*
X108755800Y-114530264D01*
X108738020Y-114530290D01*
X108714273Y-114530293D01*
X108689437Y-114530267D01*
X108665559Y-114530214D01*
X108644684Y-114530137D01*
X108589758Y-114529878D01*
X108589758Y-114749836D01*
X108365001Y-114749836D01*
X108365001Y-114638720D01*
X108476217Y-114638720D01*
X108475536Y-114585057D01*
X108474854Y-114531393D01*
X108419928Y-114530712D01*
X108365001Y-114530032D01*
X108365001Y-114416489D01*
X108476217Y-114416489D01*
X108700873Y-114416489D01*
X108809564Y-114416489D01*
X108808882Y-114362826D01*
X108808201Y-114309162D01*
X108754537Y-114308480D01*
X108700873Y-114307799D01*
X108700873Y-114416489D01*
X108476217Y-114416489D01*
X108475536Y-114362826D01*
X108474854Y-114309162D01*
X108365228Y-114308547D01*
X108350145Y-114308453D01*
X108328102Y-114308285D01*
X108307998Y-114308094D01*
X108290351Y-114307886D01*
X108275679Y-114307669D01*
X108264502Y-114307451D01*
X108257337Y-114307237D01*
X108254705Y-114307035D01*
X108254643Y-114306592D01*
X108254476Y-114302120D01*
X108254303Y-114293184D01*
X108254126Y-114280203D01*
X108253951Y-114263599D01*
X108253780Y-114243794D01*
X108253617Y-114221208D01*
X108253466Y-114196262D01*
X108253456Y-114194258D01*
X108367527Y-114194258D01*
X108476117Y-114194258D01*
X108476117Y-114083143D01*
X108589758Y-114083143D01*
X108589758Y-114194258D01*
X108698315Y-114194258D01*
X108697700Y-114085037D01*
X108697085Y-113975815D01*
X108532306Y-113975223D01*
X108367527Y-113974630D01*
X108367527Y-114194258D01*
X108253456Y-114194258D01*
X108253331Y-114169378D01*
X108253216Y-114140977D01*
X108252623Y-113975815D01*
X108197697Y-113975135D01*
X108142770Y-113974454D01*
X108142770Y-113860912D01*
X108365102Y-113860912D01*
X108364420Y-113807248D01*
X108363739Y-113753584D01*
X108198959Y-113752991D01*
X108034180Y-113752399D01*
X108034180Y-113863437D01*
X107923065Y-113863437D01*
X107923065Y-114305374D01*
X107809391Y-114305374D01*
X107808776Y-114196152D01*
X107808161Y-114086931D01*
X107754497Y-114086249D01*
X107700834Y-114085568D01*
X107700834Y-114196784D01*
X107587381Y-114196784D01*
X107586655Y-114140595D01*
X107586484Y-114123045D01*
X107586373Y-114099076D01*
X107586364Y-114073889D01*
X107586458Y-114049572D01*
X107586654Y-114028216D01*
X107587377Y-113972027D01*
X107809391Y-113972027D01*
X107808776Y-113862806D01*
X107808161Y-113753584D01*
X107698940Y-113752969D01*
X107589718Y-113752354D01*
X107589718Y-113863437D01*
X107476077Y-113863437D01*
X107476077Y-113749796D01*
X107587249Y-113749796D01*
X107587130Y-113641239D01*
X107811949Y-113641239D01*
X107811949Y-113749796D01*
X108031755Y-113749796D01*
X108478642Y-113749796D01*
X108698348Y-113749796D01*
X108698348Y-113638681D01*
X108809564Y-113638681D01*
X108808882Y-113585017D01*
X108808201Y-113531353D01*
X108698979Y-113530738D01*
X108589758Y-113530123D01*
X108589758Y-113641206D01*
X108478642Y-113641206D01*
X108478642Y-113749796D01*
X108031755Y-113749796D01*
X108031074Y-113696132D01*
X108030392Y-113642469D01*
X107921171Y-113641854D01*
X107811949Y-113641239D01*
X107587130Y-113641239D01*
X107587128Y-113639312D01*
X107587122Y-113633275D01*
X107587099Y-113607175D01*
X107587082Y-113580587D01*
X107587072Y-113554435D01*
X107587069Y-113529641D01*
X107587072Y-113507128D01*
X107587082Y-113487819D01*
X107587100Y-113472639D01*
X107587193Y-113416450D01*
X107700834Y-113416450D01*
X107700834Y-113527565D01*
X107809424Y-113527565D01*
X107809424Y-113416450D01*
X108256411Y-113416450D01*
X108256411Y-113530090D01*
X108145296Y-113530090D01*
X108145296Y-113638681D01*
X108365254Y-113638681D01*
X108364994Y-113583754D01*
X108364927Y-113566275D01*
X108364871Y-113542719D01*
X108364841Y-113517896D01*
X108364839Y-113493854D01*
X108364868Y-113472639D01*
X108365001Y-113416450D01*
X109256451Y-113416450D01*
X109256451Y-113638681D01*
X109698488Y-113638681D01*
X109697807Y-113585017D01*
X109697125Y-113531353D01*
X109641567Y-113530833D01*
X109624607Y-113530689D01*
X109600928Y-113530522D01*
X109576062Y-113530377D01*
X109552087Y-113530267D01*
X109531083Y-113530202D01*
X109476157Y-113530090D01*
X109476157Y-113416450D01*
X109812029Y-113416450D01*
X109812029Y-113638681D01*
X109923144Y-113638681D01*
X109923144Y-114307899D01*
X109809503Y-114307899D01*
X109809442Y-114252973D01*
X109809433Y-114246995D01*
X109809410Y-114233221D01*
X109809375Y-114215176D01*
X109809329Y-114193351D01*
X109809274Y-114168235D01*
X109809211Y-114140317D01*
X109809141Y-114110085D01*
X109809064Y-114078030D01*
X109808983Y-114044641D01*
X109808898Y-114010406D01*
X109808810Y-113975815D01*
X109808241Y-113753584D01*
X109643461Y-113752991D01*
X109478682Y-113752399D01*
X109478682Y-113972027D01*
X109589798Y-113972027D01*
X109589798Y-114083143D01*
G37*
G36*
X107256371Y-114307899D02*
G01*
X107142918Y-114307899D01*
X107142193Y-114251710D01*
X107142022Y-114234161D01*
X107141911Y-114210192D01*
X107141902Y-114185004D01*
X107141996Y-114160688D01*
X107142191Y-114139332D01*
X107142915Y-114083143D01*
X107256371Y-114083143D01*
X107256371Y-114307899D01*
G37*
G36*
X106811909Y-113972027D02*
G01*
X106478563Y-113972027D01*
X106478563Y-113638681D01*
X106811909Y-113638681D01*
X106811909Y-113972027D01*
G37*
G36*
X106256332Y-114194258D02*
G01*
X106256332Y-114083143D01*
X106367447Y-114083143D01*
X106923025Y-114083143D01*
X106923025Y-113527565D01*
X106367447Y-113527565D01*
X106367447Y-114083143D01*
X106256332Y-114083143D01*
X106256332Y-113416450D01*
X107034140Y-113416450D01*
X107034140Y-114194258D01*
X106256332Y-114194258D01*
G37*
G36*
X107478603Y-113641206D02*
G01*
X107365060Y-113641206D01*
X107364380Y-113586280D01*
X107363699Y-113531353D01*
X107310035Y-113530672D01*
X107256371Y-113529990D01*
X107256371Y-113641206D01*
X107142918Y-113641206D01*
X107142193Y-113585017D01*
X107142022Y-113567468D01*
X107141911Y-113543498D01*
X107141902Y-113518311D01*
X107141996Y-113493995D01*
X107142191Y-113472639D01*
X107142915Y-113416450D01*
X107478603Y-113416450D01*
X107478603Y-113641206D01*
G37*
G36*
X107478603Y-114196784D02*
G01*
X107364962Y-114196784D01*
X107364962Y-114083143D01*
X107478603Y-114083143D01*
X107478603Y-114196784D01*
G37*
G36*
X109256451Y-117085691D02*
G01*
X109200262Y-117086394D01*
X109192788Y-117086482D01*
X109176922Y-117086625D01*
X109163006Y-117086693D01*
X109151815Y-117086686D01*
X109144125Y-117086603D01*
X109140710Y-117086443D01*
X109140229Y-117086387D01*
X109135531Y-117086196D01*
X109126809Y-117086031D01*
X109114864Y-117085902D01*
X109100500Y-117085818D01*
X109084520Y-117085787D01*
X109031695Y-117085787D01*
X109031695Y-116972147D01*
X109142911Y-116972147D01*
X109141547Y-116864819D01*
X109085990Y-116864299D01*
X109069029Y-116864155D01*
X109045351Y-116863988D01*
X109020484Y-116863843D01*
X108996509Y-116863732D01*
X108975506Y-116863667D01*
X108920579Y-116863556D01*
X108920579Y-116749915D01*
X109256451Y-116749915D01*
X109256451Y-117085691D01*
G37*
G36*
X110589837Y-113972027D02*
G01*
X110256491Y-113972027D01*
X110256491Y-113638681D01*
X110589837Y-113638681D01*
X110589837Y-113972027D01*
G37*
%TD*%
M02*
