%TF.GenerationSoftware,KiCad,Pcbnew,(6.0.7-1)-1*%
%TF.CreationDate,2022-10-12T15:07:03-04:00*%
%TF.ProjectId,PICO_v1.0,5049434f-5f76-4312-9e30-2e6b69636164,rev?*%
%TF.SameCoordinates,Original*%
%TF.FileFunction,Legend,Top*%
%TF.FilePolarity,Positive*%
%FSLAX46Y46*%
G04 Gerber Fmt 4.6, Leading zero omitted, Abs format (unit mm)*
G04 Created by KiCad (PCBNEW (6.0.7-1)-1) date 2022-10-12 15:07:03*
%MOMM*%
%LPD*%
G01*
G04 APERTURE LIST*
%ADD10C,0.050000*%
G04 APERTURE END LIST*
D10*
X116386771Y-123322514D02*
X116386771Y-123222514D01*
X116543914Y-123179657D02*
X116543914Y-123322514D01*
X116243914Y-123322514D01*
X116243914Y-123179657D01*
X116458200Y-123065371D02*
X116458200Y-122922514D01*
X116543914Y-123093942D02*
X116243914Y-122993942D01*
X116543914Y-122893942D01*
X116272485Y-122808228D02*
X116258200Y-122793942D01*
X116243914Y-122765371D01*
X116243914Y-122693942D01*
X116258200Y-122665371D01*
X116272485Y-122651085D01*
X116301057Y-122636800D01*
X116329628Y-122636800D01*
X116372485Y-122651085D01*
X116543914Y-122822514D01*
X116543914Y-122636800D01*
X112652971Y-120575342D02*
X112652971Y-120475342D01*
X112810114Y-120432485D02*
X112810114Y-120575342D01*
X112510114Y-120575342D01*
X112510114Y-120432485D01*
X112652971Y-120203914D02*
X112667257Y-120161057D01*
X112681542Y-120146771D01*
X112710114Y-120132485D01*
X112752971Y-120132485D01*
X112781542Y-120146771D01*
X112795828Y-120161057D01*
X112810114Y-120189628D01*
X112810114Y-120303914D01*
X112510114Y-120303914D01*
X112510114Y-120203914D01*
X112524400Y-120175342D01*
X112538685Y-120161057D01*
X112567257Y-120146771D01*
X112595828Y-120146771D01*
X112624400Y-120161057D01*
X112638685Y-120175342D01*
X112652971Y-120203914D01*
X112652971Y-120303914D01*
X112810114Y-119846771D02*
X112810114Y-120018200D01*
X112810114Y-119932485D02*
X112510114Y-119932485D01*
X112552971Y-119961057D01*
X112581542Y-119989628D01*
X112595828Y-120018200D01*
X116569314Y-125646628D02*
X116269314Y-125646628D01*
X116269314Y-125532342D01*
X116283600Y-125503771D01*
X116297885Y-125489485D01*
X116326457Y-125475200D01*
X116369314Y-125475200D01*
X116397885Y-125489485D01*
X116412171Y-125503771D01*
X116426457Y-125532342D01*
X116426457Y-125646628D01*
X116555028Y-125360914D02*
X116569314Y-125318057D01*
X116569314Y-125246628D01*
X116555028Y-125218057D01*
X116540742Y-125203771D01*
X116512171Y-125189485D01*
X116483600Y-125189485D01*
X116455028Y-125203771D01*
X116440742Y-125218057D01*
X116426457Y-125246628D01*
X116412171Y-125303771D01*
X116397885Y-125332342D01*
X116383600Y-125346628D01*
X116355028Y-125360914D01*
X116326457Y-125360914D01*
X116297885Y-125346628D01*
X116283600Y-125332342D01*
X116269314Y-125303771D01*
X116269314Y-125232342D01*
X116283600Y-125189485D01*
X103578800Y-108862857D02*
X103593085Y-108834285D01*
X103593085Y-108791428D01*
X103578800Y-108748571D01*
X103550228Y-108720000D01*
X103521657Y-108705714D01*
X103464514Y-108691428D01*
X103421657Y-108691428D01*
X103364514Y-108705714D01*
X103335942Y-108720000D01*
X103307371Y-108748571D01*
X103293085Y-108791428D01*
X103293085Y-108820000D01*
X103307371Y-108862857D01*
X103321657Y-108877142D01*
X103421657Y-108877142D01*
X103421657Y-108820000D01*
X103293085Y-109005714D02*
X103593085Y-109005714D01*
X103593085Y-109120000D01*
X103578800Y-109148571D01*
X103564514Y-109162857D01*
X103535942Y-109177142D01*
X103493085Y-109177142D01*
X103464514Y-109162857D01*
X103450228Y-109148571D01*
X103435942Y-109120000D01*
X103435942Y-109005714D01*
X103564514Y-109291428D02*
X103578800Y-109305714D01*
X103593085Y-109334285D01*
X103593085Y-109405714D01*
X103578800Y-109434285D01*
X103564514Y-109448571D01*
X103535942Y-109462857D01*
X103507371Y-109462857D01*
X103464514Y-109448571D01*
X103293085Y-109277142D01*
X103293085Y-109462857D01*
X103593085Y-109562857D02*
X103593085Y-109762857D01*
X103293085Y-109634285D01*
X101657971Y-126703914D02*
X101657971Y-126403914D01*
X101772257Y-126403914D01*
X101800828Y-126418200D01*
X101815114Y-126432485D01*
X101829400Y-126461057D01*
X101829400Y-126503914D01*
X101815114Y-126532485D01*
X101800828Y-126546771D01*
X101772257Y-126561057D01*
X101657971Y-126561057D01*
X101943685Y-126689628D02*
X101986542Y-126703914D01*
X102057971Y-126703914D01*
X102086542Y-126689628D01*
X102100828Y-126675342D01*
X102115114Y-126646771D01*
X102115114Y-126618200D01*
X102100828Y-126589628D01*
X102086542Y-126575342D01*
X102057971Y-126561057D01*
X102000828Y-126546771D01*
X101972257Y-126532485D01*
X101957971Y-126518200D01*
X101943685Y-126489628D01*
X101943685Y-126461057D01*
X101957971Y-126432485D01*
X101972257Y-126418200D01*
X102000828Y-126403914D01*
X102072257Y-126403914D01*
X102115114Y-126418200D01*
X110413828Y-126754714D02*
X110413828Y-126454714D01*
X110485257Y-126454714D01*
X110528114Y-126469000D01*
X110556685Y-126497571D01*
X110570971Y-126526142D01*
X110585257Y-126583285D01*
X110585257Y-126626142D01*
X110570971Y-126683285D01*
X110556685Y-126711857D01*
X110528114Y-126740428D01*
X110485257Y-126754714D01*
X110413828Y-126754714D01*
X110713828Y-126754714D02*
X110713828Y-126454714D01*
X110828114Y-126454714D01*
X110856685Y-126469000D01*
X110870971Y-126483285D01*
X110885257Y-126511857D01*
X110885257Y-126554714D01*
X110870971Y-126583285D01*
X110856685Y-126597571D01*
X110828114Y-126611857D01*
X110713828Y-126611857D01*
X104195828Y-126392800D02*
X104167257Y-126378514D01*
X104124400Y-126378514D01*
X104081542Y-126392800D01*
X104052971Y-126421371D01*
X104038685Y-126449942D01*
X104024400Y-126507085D01*
X104024400Y-126549942D01*
X104038685Y-126607085D01*
X104052971Y-126635657D01*
X104081542Y-126664228D01*
X104124400Y-126678514D01*
X104152971Y-126678514D01*
X104195828Y-126664228D01*
X104210114Y-126649942D01*
X104210114Y-126549942D01*
X104152971Y-126549942D01*
X104338685Y-126678514D02*
X104338685Y-126378514D01*
X104510114Y-126678514D01*
X104510114Y-126378514D01*
X104652971Y-126678514D02*
X104652971Y-126378514D01*
X104724400Y-126378514D01*
X104767257Y-126392800D01*
X104795828Y-126421371D01*
X104810114Y-126449942D01*
X104824400Y-126507085D01*
X104824400Y-126549942D01*
X104810114Y-126607085D01*
X104795828Y-126635657D01*
X104767257Y-126664228D01*
X104724400Y-126678514D01*
X104652971Y-126678514D01*
X116258200Y-128219171D02*
X116243914Y-128247742D01*
X116243914Y-128290600D01*
X116258200Y-128333457D01*
X116286771Y-128362028D01*
X116315342Y-128376314D01*
X116372485Y-128390600D01*
X116415342Y-128390600D01*
X116472485Y-128376314D01*
X116501057Y-128362028D01*
X116529628Y-128333457D01*
X116543914Y-128290600D01*
X116543914Y-128262028D01*
X116529628Y-128219171D01*
X116515342Y-128204885D01*
X116415342Y-128204885D01*
X116415342Y-128262028D01*
X116543914Y-128076314D02*
X116243914Y-128076314D01*
X116543914Y-127904885D01*
X116243914Y-127904885D01*
X116543914Y-127762028D02*
X116243914Y-127762028D01*
X116243914Y-127690600D01*
X116258200Y-127647742D01*
X116286771Y-127619171D01*
X116315342Y-127604885D01*
X116372485Y-127590600D01*
X116415342Y-127590600D01*
X116472485Y-127604885D01*
X116501057Y-127619171D01*
X116529628Y-127647742D01*
X116543914Y-127690600D01*
X116543914Y-127762028D01*
X103604200Y-106348257D02*
X103618485Y-106319685D01*
X103618485Y-106276828D01*
X103604200Y-106233971D01*
X103575628Y-106205400D01*
X103547057Y-106191114D01*
X103489914Y-106176828D01*
X103447057Y-106176828D01*
X103389914Y-106191114D01*
X103361342Y-106205400D01*
X103332771Y-106233971D01*
X103318485Y-106276828D01*
X103318485Y-106305400D01*
X103332771Y-106348257D01*
X103347057Y-106362542D01*
X103447057Y-106362542D01*
X103447057Y-106305400D01*
X103318485Y-106491114D02*
X103618485Y-106491114D01*
X103618485Y-106605400D01*
X103604200Y-106633971D01*
X103589914Y-106648257D01*
X103561342Y-106662542D01*
X103518485Y-106662542D01*
X103489914Y-106648257D01*
X103475628Y-106633971D01*
X103461342Y-106605400D01*
X103461342Y-106491114D01*
X103589914Y-106776828D02*
X103604200Y-106791114D01*
X103618485Y-106819685D01*
X103618485Y-106891114D01*
X103604200Y-106919685D01*
X103589914Y-106933971D01*
X103561342Y-106948257D01*
X103532771Y-106948257D01*
X103489914Y-106933971D01*
X103318485Y-106762542D01*
X103318485Y-106948257D01*
X103618485Y-107205400D02*
X103618485Y-107148257D01*
X103604200Y-107119685D01*
X103589914Y-107105400D01*
X103547057Y-107076828D01*
X103489914Y-107062542D01*
X103375628Y-107062542D01*
X103347057Y-107076828D01*
X103332771Y-107091114D01*
X103318485Y-107119685D01*
X103318485Y-107176828D01*
X103332771Y-107205400D01*
X103347057Y-107219685D01*
X103375628Y-107233971D01*
X103447057Y-107233971D01*
X103475628Y-107219685D01*
X103489914Y-107205400D01*
X103504200Y-107176828D01*
X103504200Y-107119685D01*
X103489914Y-107091114D01*
X103475628Y-107076828D01*
X103447057Y-107062542D01*
X107725400Y-126627714D02*
X107725400Y-126327714D01*
X107796828Y-126327714D01*
X107839685Y-126342000D01*
X107868257Y-126370571D01*
X107882542Y-126399142D01*
X107896828Y-126456285D01*
X107896828Y-126499142D01*
X107882542Y-126556285D01*
X107868257Y-126584857D01*
X107839685Y-126613428D01*
X107796828Y-126627714D01*
X107725400Y-126627714D01*
X108025400Y-126627714D02*
X108025400Y-126327714D01*
X108125400Y-126542000D01*
X108225400Y-126327714D01*
X108225400Y-126627714D01*
X112678371Y-123220914D02*
X112678371Y-123120914D01*
X112835514Y-123078057D02*
X112835514Y-123220914D01*
X112535514Y-123220914D01*
X112535514Y-123078057D01*
X112749800Y-122963771D02*
X112749800Y-122820914D01*
X112835514Y-122992342D02*
X112535514Y-122892342D01*
X112835514Y-122792342D01*
X112835514Y-122535200D02*
X112835514Y-122706628D01*
X112835514Y-122620914D02*
X112535514Y-122620914D01*
X112578371Y-122649485D01*
X112606942Y-122678057D01*
X112621228Y-122706628D01*
X116605828Y-104910685D02*
X116620114Y-104867828D01*
X116620114Y-104796400D01*
X116605828Y-104767828D01*
X116591542Y-104753542D01*
X116562971Y-104739257D01*
X116534400Y-104739257D01*
X116505828Y-104753542D01*
X116491542Y-104767828D01*
X116477257Y-104796400D01*
X116462971Y-104853542D01*
X116448685Y-104882114D01*
X116434400Y-104896400D01*
X116405828Y-104910685D01*
X116377257Y-104910685D01*
X116348685Y-104896400D01*
X116334400Y-104882114D01*
X116320114Y-104853542D01*
X116320114Y-104782114D01*
X116334400Y-104739257D01*
X116620114Y-104610685D02*
X116320114Y-104610685D01*
X116320114Y-104539257D01*
X116334400Y-104496400D01*
X116362971Y-104467828D01*
X116391542Y-104453542D01*
X116448685Y-104439257D01*
X116491542Y-104439257D01*
X116548685Y-104453542D01*
X116577257Y-104467828D01*
X116605828Y-104496400D01*
X116620114Y-104539257D01*
X116620114Y-104610685D01*
X116534400Y-104324971D02*
X116534400Y-104182114D01*
X116620114Y-104353542D02*
X116320114Y-104253542D01*
X116620114Y-104153542D01*
X116555028Y-102236542D02*
X116569314Y-102193685D01*
X116569314Y-102122257D01*
X116555028Y-102093685D01*
X116540742Y-102079400D01*
X116512171Y-102065114D01*
X116483600Y-102065114D01*
X116455028Y-102079400D01*
X116440742Y-102093685D01*
X116426457Y-102122257D01*
X116412171Y-102179400D01*
X116397885Y-102207971D01*
X116383600Y-102222257D01*
X116355028Y-102236542D01*
X116326457Y-102236542D01*
X116297885Y-102222257D01*
X116283600Y-102207971D01*
X116269314Y-102179400D01*
X116269314Y-102107971D01*
X116283600Y-102065114D01*
X116540742Y-101765114D02*
X116555028Y-101779400D01*
X116569314Y-101822257D01*
X116569314Y-101850828D01*
X116555028Y-101893685D01*
X116526457Y-101922257D01*
X116497885Y-101936542D01*
X116440742Y-101950828D01*
X116397885Y-101950828D01*
X116340742Y-101936542D01*
X116312171Y-101922257D01*
X116283600Y-101893685D01*
X116269314Y-101850828D01*
X116269314Y-101822257D01*
X116283600Y-101779400D01*
X116297885Y-101765114D01*
X116569314Y-101493685D02*
X116569314Y-101636542D01*
X116269314Y-101636542D01*
X116412171Y-120702342D02*
X116412171Y-120602342D01*
X116569314Y-120559485D02*
X116569314Y-120702342D01*
X116269314Y-120702342D01*
X116269314Y-120559485D01*
X116412171Y-120330914D02*
X116426457Y-120288057D01*
X116440742Y-120273771D01*
X116469314Y-120259485D01*
X116512171Y-120259485D01*
X116540742Y-120273771D01*
X116555028Y-120288057D01*
X116569314Y-120316628D01*
X116569314Y-120430914D01*
X116269314Y-120430914D01*
X116269314Y-120330914D01*
X116283600Y-120302342D01*
X116297885Y-120288057D01*
X116326457Y-120273771D01*
X116355028Y-120273771D01*
X116383600Y-120288057D01*
X116397885Y-120302342D01*
X116412171Y-120330914D01*
X116412171Y-120430914D01*
X116297885Y-120145200D02*
X116283600Y-120130914D01*
X116269314Y-120102342D01*
X116269314Y-120030914D01*
X116283600Y-120002342D01*
X116297885Y-119988057D01*
X116326457Y-119973771D01*
X116355028Y-119973771D01*
X116397885Y-119988057D01*
X116569314Y-120159485D01*
X116569314Y-119973771D01*
X112549800Y-128142971D02*
X112535514Y-128171542D01*
X112535514Y-128214400D01*
X112549800Y-128257257D01*
X112578371Y-128285828D01*
X112606942Y-128300114D01*
X112664085Y-128314400D01*
X112706942Y-128314400D01*
X112764085Y-128300114D01*
X112792657Y-128285828D01*
X112821228Y-128257257D01*
X112835514Y-128214400D01*
X112835514Y-128185828D01*
X112821228Y-128142971D01*
X112806942Y-128128685D01*
X112706942Y-128128685D01*
X112706942Y-128185828D01*
X112835514Y-128000114D02*
X112535514Y-128000114D01*
X112835514Y-127828685D01*
X112535514Y-127828685D01*
X112835514Y-127685828D02*
X112535514Y-127685828D01*
X112535514Y-127614400D01*
X112549800Y-127571542D01*
X112578371Y-127542971D01*
X112606942Y-127528685D01*
X112664085Y-127514400D01*
X112706942Y-127514400D01*
X112764085Y-127528685D01*
X112792657Y-127542971D01*
X112821228Y-127571542D01*
X112835514Y-127614400D01*
X112835514Y-127685828D01*
X112860914Y-125595828D02*
X112560914Y-125595828D01*
X112560914Y-125481542D01*
X112575200Y-125452971D01*
X112589485Y-125438685D01*
X112618057Y-125424400D01*
X112660914Y-125424400D01*
X112689485Y-125438685D01*
X112703771Y-125452971D01*
X112718057Y-125481542D01*
X112718057Y-125595828D01*
X112846628Y-125310114D02*
X112860914Y-125267257D01*
X112860914Y-125195828D01*
X112846628Y-125167257D01*
X112832342Y-125152971D01*
X112803771Y-125138685D01*
X112775200Y-125138685D01*
X112746628Y-125152971D01*
X112732342Y-125167257D01*
X112718057Y-125195828D01*
X112703771Y-125252971D01*
X112689485Y-125281542D01*
X112675200Y-125295828D01*
X112646628Y-125310114D01*
X112618057Y-125310114D01*
X112589485Y-125295828D01*
X112575200Y-125281542D01*
X112560914Y-125252971D01*
X112560914Y-125181542D01*
X112575200Y-125138685D01*
%TO.C,SW1*%
X103728028Y-118764000D02*
X103742314Y-118721142D01*
X103742314Y-118649714D01*
X103728028Y-118621142D01*
X103713742Y-118606857D01*
X103685171Y-118592571D01*
X103656600Y-118592571D01*
X103628028Y-118606857D01*
X103613742Y-118621142D01*
X103599457Y-118649714D01*
X103585171Y-118706857D01*
X103570885Y-118735428D01*
X103556600Y-118749714D01*
X103528028Y-118764000D01*
X103499457Y-118764000D01*
X103470885Y-118749714D01*
X103456600Y-118735428D01*
X103442314Y-118706857D01*
X103442314Y-118635428D01*
X103456600Y-118592571D01*
X103442314Y-118492571D02*
X103742314Y-118421142D01*
X103528028Y-118364000D01*
X103742314Y-118306857D01*
X103442314Y-118235428D01*
X103742314Y-117964000D02*
X103742314Y-118135428D01*
X103742314Y-118049714D02*
X103442314Y-118049714D01*
X103485171Y-118078285D01*
X103513742Y-118106857D01*
X103528028Y-118135428D01*
%TO.C,C3*%
X110059000Y-122763742D02*
X110044714Y-122778028D01*
X110001857Y-122792314D01*
X109973285Y-122792314D01*
X109930428Y-122778028D01*
X109901857Y-122749457D01*
X109887571Y-122720885D01*
X109873285Y-122663742D01*
X109873285Y-122620885D01*
X109887571Y-122563742D01*
X109901857Y-122535171D01*
X109930428Y-122506600D01*
X109973285Y-122492314D01*
X110001857Y-122492314D01*
X110044714Y-122506600D01*
X110059000Y-122520885D01*
X110159000Y-122492314D02*
X110344714Y-122492314D01*
X110244714Y-122606600D01*
X110287571Y-122606600D01*
X110316142Y-122620885D01*
X110330428Y-122635171D01*
X110344714Y-122663742D01*
X110344714Y-122735171D01*
X110330428Y-122763742D01*
X110316142Y-122778028D01*
X110287571Y-122792314D01*
X110201857Y-122792314D01*
X110173285Y-122778028D01*
X110159000Y-122763742D01*
%TO.C,C4*%
X115880342Y-102361200D02*
X115894628Y-102375485D01*
X115908914Y-102418342D01*
X115908914Y-102446914D01*
X115894628Y-102489771D01*
X115866057Y-102518342D01*
X115837485Y-102532628D01*
X115780342Y-102546914D01*
X115737485Y-102546914D01*
X115680342Y-102532628D01*
X115651771Y-102518342D01*
X115623200Y-102489771D01*
X115608914Y-102446914D01*
X115608914Y-102418342D01*
X115623200Y-102375485D01*
X115637485Y-102361200D01*
X115708914Y-102104057D02*
X115908914Y-102104057D01*
X115594628Y-102175485D02*
X115808914Y-102246914D01*
X115808914Y-102061200D01*
%TO.C,C8*%
X114402400Y-116947142D02*
X114388114Y-116961428D01*
X114345257Y-116975714D01*
X114316685Y-116975714D01*
X114273828Y-116961428D01*
X114245257Y-116932857D01*
X114230971Y-116904285D01*
X114216685Y-116847142D01*
X114216685Y-116804285D01*
X114230971Y-116747142D01*
X114245257Y-116718571D01*
X114273828Y-116690000D01*
X114316685Y-116675714D01*
X114345257Y-116675714D01*
X114388114Y-116690000D01*
X114402400Y-116704285D01*
X114573828Y-116804285D02*
X114545257Y-116790000D01*
X114530971Y-116775714D01*
X114516685Y-116747142D01*
X114516685Y-116732857D01*
X114530971Y-116704285D01*
X114545257Y-116690000D01*
X114573828Y-116675714D01*
X114630971Y-116675714D01*
X114659542Y-116690000D01*
X114673828Y-116704285D01*
X114688114Y-116732857D01*
X114688114Y-116747142D01*
X114673828Y-116775714D01*
X114659542Y-116790000D01*
X114630971Y-116804285D01*
X114573828Y-116804285D01*
X114545257Y-116818571D01*
X114530971Y-116832857D01*
X114516685Y-116861428D01*
X114516685Y-116918571D01*
X114530971Y-116947142D01*
X114545257Y-116961428D01*
X114573828Y-116975714D01*
X114630971Y-116975714D01*
X114659542Y-116961428D01*
X114673828Y-116947142D01*
X114688114Y-116918571D01*
X114688114Y-116861428D01*
X114673828Y-116832857D01*
X114659542Y-116818571D01*
X114630971Y-116804285D01*
%TO.C,C13*%
X104175742Y-122331942D02*
X104161457Y-122346228D01*
X104118600Y-122360514D01*
X104090028Y-122360514D01*
X104047171Y-122346228D01*
X104018600Y-122317657D01*
X104004314Y-122289085D01*
X103990028Y-122231942D01*
X103990028Y-122189085D01*
X104004314Y-122131942D01*
X104018600Y-122103371D01*
X104047171Y-122074800D01*
X104090028Y-122060514D01*
X104118600Y-122060514D01*
X104161457Y-122074800D01*
X104175742Y-122089085D01*
X104461457Y-122360514D02*
X104290028Y-122360514D01*
X104375742Y-122360514D02*
X104375742Y-122060514D01*
X104347171Y-122103371D01*
X104318600Y-122131942D01*
X104290028Y-122146228D01*
X104561457Y-122060514D02*
X104747171Y-122060514D01*
X104647171Y-122174800D01*
X104690028Y-122174800D01*
X104718600Y-122189085D01*
X104732885Y-122203371D01*
X104747171Y-122231942D01*
X104747171Y-122303371D01*
X104732885Y-122331942D01*
X104718600Y-122346228D01*
X104690028Y-122360514D01*
X104604314Y-122360514D01*
X104575742Y-122346228D01*
X104561457Y-122331942D01*
%TO.C,R2*%
X100711800Y-114537314D02*
X100611800Y-114394457D01*
X100540371Y-114537314D02*
X100540371Y-114237314D01*
X100654657Y-114237314D01*
X100683228Y-114251600D01*
X100697514Y-114265885D01*
X100711800Y-114294457D01*
X100711800Y-114337314D01*
X100697514Y-114365885D01*
X100683228Y-114380171D01*
X100654657Y-114394457D01*
X100540371Y-114394457D01*
X100826085Y-114265885D02*
X100840371Y-114251600D01*
X100868942Y-114237314D01*
X100940371Y-114237314D01*
X100968942Y-114251600D01*
X100983228Y-114265885D01*
X100997514Y-114294457D01*
X100997514Y-114323028D01*
X100983228Y-114365885D01*
X100811800Y-114537314D01*
X100997514Y-114537314D01*
%TO.C,U4*%
X114223828Y-112764114D02*
X114223828Y-113006971D01*
X114238114Y-113035542D01*
X114252400Y-113049828D01*
X114280971Y-113064114D01*
X114338114Y-113064114D01*
X114366685Y-113049828D01*
X114380971Y-113035542D01*
X114395257Y-113006971D01*
X114395257Y-112764114D01*
X114666685Y-112864114D02*
X114666685Y-113064114D01*
X114595257Y-112749828D02*
X114523828Y-112964114D01*
X114709542Y-112964114D01*
%TO.C,U2*%
X111379028Y-112941914D02*
X111379028Y-113184771D01*
X111393314Y-113213342D01*
X111407600Y-113227628D01*
X111436171Y-113241914D01*
X111493314Y-113241914D01*
X111521885Y-113227628D01*
X111536171Y-113213342D01*
X111550457Y-113184771D01*
X111550457Y-112941914D01*
X111679028Y-112970485D02*
X111693314Y-112956200D01*
X111721885Y-112941914D01*
X111793314Y-112941914D01*
X111821885Y-112956200D01*
X111836171Y-112970485D01*
X111850457Y-112999057D01*
X111850457Y-113027628D01*
X111836171Y-113070485D01*
X111664742Y-113241914D01*
X111850457Y-113241914D01*
%TO.C,SW2*%
X103524828Y-100806200D02*
X103539114Y-100763342D01*
X103539114Y-100691914D01*
X103524828Y-100663342D01*
X103510542Y-100649057D01*
X103481971Y-100634771D01*
X103453400Y-100634771D01*
X103424828Y-100649057D01*
X103410542Y-100663342D01*
X103396257Y-100691914D01*
X103381971Y-100749057D01*
X103367685Y-100777628D01*
X103353400Y-100791914D01*
X103324828Y-100806200D01*
X103296257Y-100806200D01*
X103267685Y-100791914D01*
X103253400Y-100777628D01*
X103239114Y-100749057D01*
X103239114Y-100677628D01*
X103253400Y-100634771D01*
X103239114Y-100534771D02*
X103539114Y-100463342D01*
X103324828Y-100406200D01*
X103539114Y-100349057D01*
X103239114Y-100277628D01*
X103267685Y-100177628D02*
X103253400Y-100163342D01*
X103239114Y-100134771D01*
X103239114Y-100063342D01*
X103253400Y-100034771D01*
X103267685Y-100020485D01*
X103296257Y-100006200D01*
X103324828Y-100006200D01*
X103367685Y-100020485D01*
X103539114Y-100191914D01*
X103539114Y-100006200D01*
%TO.C,C1*%
X104293200Y-122992342D02*
X104278914Y-123006628D01*
X104236057Y-123020914D01*
X104207485Y-123020914D01*
X104164628Y-123006628D01*
X104136057Y-122978057D01*
X104121771Y-122949485D01*
X104107485Y-122892342D01*
X104107485Y-122849485D01*
X104121771Y-122792342D01*
X104136057Y-122763771D01*
X104164628Y-122735200D01*
X104207485Y-122720914D01*
X104236057Y-122720914D01*
X104278914Y-122735200D01*
X104293200Y-122749485D01*
X104578914Y-123020914D02*
X104407485Y-123020914D01*
X104493200Y-123020914D02*
X104493200Y-122720914D01*
X104464628Y-122763771D01*
X104436057Y-122792342D01*
X104407485Y-122806628D01*
%TO.C,R7*%
X113183200Y-111717914D02*
X113083200Y-111575057D01*
X113011771Y-111717914D02*
X113011771Y-111417914D01*
X113126057Y-111417914D01*
X113154628Y-111432200D01*
X113168914Y-111446485D01*
X113183200Y-111475057D01*
X113183200Y-111517914D01*
X113168914Y-111546485D01*
X113154628Y-111560771D01*
X113126057Y-111575057D01*
X113011771Y-111575057D01*
X113283200Y-111417914D02*
X113483200Y-111417914D01*
X113354628Y-111717914D01*
%TO.C,R1*%
X103734400Y-114537314D02*
X103634400Y-114394457D01*
X103562971Y-114537314D02*
X103562971Y-114237314D01*
X103677257Y-114237314D01*
X103705828Y-114251600D01*
X103720114Y-114265885D01*
X103734400Y-114294457D01*
X103734400Y-114337314D01*
X103720114Y-114365885D01*
X103705828Y-114380171D01*
X103677257Y-114394457D01*
X103562971Y-114394457D01*
X104020114Y-114537314D02*
X103848685Y-114537314D01*
X103934400Y-114537314D02*
X103934400Y-114237314D01*
X103905828Y-114280171D01*
X103877257Y-114308742D01*
X103848685Y-114323028D01*
%TO.C,R3*%
X108789000Y-102523114D02*
X108689000Y-102380257D01*
X108617571Y-102523114D02*
X108617571Y-102223114D01*
X108731857Y-102223114D01*
X108760428Y-102237400D01*
X108774714Y-102251685D01*
X108789000Y-102280257D01*
X108789000Y-102323114D01*
X108774714Y-102351685D01*
X108760428Y-102365971D01*
X108731857Y-102380257D01*
X108617571Y-102380257D01*
X108889000Y-102223114D02*
X109074714Y-102223114D01*
X108974714Y-102337400D01*
X109017571Y-102337400D01*
X109046142Y-102351685D01*
X109060428Y-102365971D01*
X109074714Y-102394542D01*
X109074714Y-102465971D01*
X109060428Y-102494542D01*
X109046142Y-102508828D01*
X109017571Y-102523114D01*
X108931857Y-102523114D01*
X108903285Y-102508828D01*
X108889000Y-102494542D01*
%TO.C,U3*%
X109550228Y-114618314D02*
X109550228Y-114861171D01*
X109564514Y-114889742D01*
X109578800Y-114904028D01*
X109607371Y-114918314D01*
X109664514Y-114918314D01*
X109693085Y-114904028D01*
X109707371Y-114889742D01*
X109721657Y-114861171D01*
X109721657Y-114618314D01*
X109835942Y-114618314D02*
X110021657Y-114618314D01*
X109921657Y-114732600D01*
X109964514Y-114732600D01*
X109993085Y-114746885D01*
X110007371Y-114761171D01*
X110021657Y-114789742D01*
X110021657Y-114861171D01*
X110007371Y-114889742D01*
X109993085Y-114904028D01*
X109964514Y-114918314D01*
X109878800Y-114918314D01*
X109850228Y-114904028D01*
X109835942Y-114889742D01*
%TO.C,C15*%
X111440142Y-122738342D02*
X111425857Y-122752628D01*
X111383000Y-122766914D01*
X111354428Y-122766914D01*
X111311571Y-122752628D01*
X111283000Y-122724057D01*
X111268714Y-122695485D01*
X111254428Y-122638342D01*
X111254428Y-122595485D01*
X111268714Y-122538342D01*
X111283000Y-122509771D01*
X111311571Y-122481200D01*
X111354428Y-122466914D01*
X111383000Y-122466914D01*
X111425857Y-122481200D01*
X111440142Y-122495485D01*
X111725857Y-122766914D02*
X111554428Y-122766914D01*
X111640142Y-122766914D02*
X111640142Y-122466914D01*
X111611571Y-122509771D01*
X111583000Y-122538342D01*
X111554428Y-122552628D01*
X111997285Y-122466914D02*
X111854428Y-122466914D01*
X111840142Y-122609771D01*
X111854428Y-122595485D01*
X111883000Y-122581200D01*
X111954428Y-122581200D01*
X111983000Y-122595485D01*
X111997285Y-122609771D01*
X112011571Y-122638342D01*
X112011571Y-122709771D01*
X111997285Y-122738342D01*
X111983000Y-122752628D01*
X111954428Y-122766914D01*
X111883000Y-122766914D01*
X111854428Y-122752628D01*
X111840142Y-122738342D01*
%TO.C,X1*%
X110147914Y-100572857D02*
X110447914Y-100372857D01*
X110147914Y-100372857D02*
X110447914Y-100572857D01*
X110447914Y-100101428D02*
X110447914Y-100272857D01*
X110447914Y-100187142D02*
X110147914Y-100187142D01*
X110190771Y-100215714D01*
X110219342Y-100244285D01*
X110233628Y-100272857D01*
%TO.C,U1*%
X108661228Y-122720914D02*
X108661228Y-122963771D01*
X108675514Y-122992342D01*
X108689800Y-123006628D01*
X108718371Y-123020914D01*
X108775514Y-123020914D01*
X108804085Y-123006628D01*
X108818371Y-122992342D01*
X108832657Y-122963771D01*
X108832657Y-122720914D01*
X109132657Y-123020914D02*
X108961228Y-123020914D01*
X109046942Y-123020914D02*
X109046942Y-122720914D01*
X109018371Y-122763771D01*
X108989800Y-122792342D01*
X108961228Y-122806628D01*
%TO.C,C2*%
X102693000Y-122966942D02*
X102678714Y-122981228D01*
X102635857Y-122995514D01*
X102607285Y-122995514D01*
X102564428Y-122981228D01*
X102535857Y-122952657D01*
X102521571Y-122924085D01*
X102507285Y-122866942D01*
X102507285Y-122824085D01*
X102521571Y-122766942D01*
X102535857Y-122738371D01*
X102564428Y-122709800D01*
X102607285Y-122695514D01*
X102635857Y-122695514D01*
X102678714Y-122709800D01*
X102693000Y-122724085D01*
X102807285Y-122724085D02*
X102821571Y-122709800D01*
X102850142Y-122695514D01*
X102921571Y-122695514D01*
X102950142Y-122709800D01*
X102964428Y-122724085D01*
X102978714Y-122752657D01*
X102978714Y-122781228D01*
X102964428Y-122824085D01*
X102793000Y-122995514D01*
X102978714Y-122995514D01*
%TO.C,C12*%
X117993342Y-115169142D02*
X117979057Y-115183428D01*
X117936200Y-115197714D01*
X117907628Y-115197714D01*
X117864771Y-115183428D01*
X117836200Y-115154857D01*
X117821914Y-115126285D01*
X117807628Y-115069142D01*
X117807628Y-115026285D01*
X117821914Y-114969142D01*
X117836200Y-114940571D01*
X117864771Y-114912000D01*
X117907628Y-114897714D01*
X117936200Y-114897714D01*
X117979057Y-114912000D01*
X117993342Y-114926285D01*
X118279057Y-115197714D02*
X118107628Y-115197714D01*
X118193342Y-115197714D02*
X118193342Y-114897714D01*
X118164771Y-114940571D01*
X118136200Y-114969142D01*
X118107628Y-114983428D01*
X118393342Y-114926285D02*
X118407628Y-114912000D01*
X118436200Y-114897714D01*
X118507628Y-114897714D01*
X118536200Y-114912000D01*
X118550485Y-114926285D01*
X118564771Y-114954857D01*
X118564771Y-114983428D01*
X118550485Y-115026285D01*
X118379057Y-115197714D01*
X118564771Y-115197714D01*
%TO.C,R6*%
X116061314Y-107034800D02*
X115918457Y-107134800D01*
X116061314Y-107206228D02*
X115761314Y-107206228D01*
X115761314Y-107091942D01*
X115775600Y-107063371D01*
X115789885Y-107049085D01*
X115818457Y-107034800D01*
X115861314Y-107034800D01*
X115889885Y-107049085D01*
X115904171Y-107063371D01*
X115918457Y-107091942D01*
X115918457Y-107206228D01*
X115761314Y-106777657D02*
X115761314Y-106834800D01*
X115775600Y-106863371D01*
X115789885Y-106877657D01*
X115832742Y-106906228D01*
X115889885Y-106920514D01*
X116004171Y-106920514D01*
X116032742Y-106906228D01*
X116047028Y-106891942D01*
X116061314Y-106863371D01*
X116061314Y-106806228D01*
X116047028Y-106777657D01*
X116032742Y-106763371D01*
X116004171Y-106749085D01*
X115932742Y-106749085D01*
X115904171Y-106763371D01*
X115889885Y-106777657D01*
X115875600Y-106806228D01*
X115875600Y-106863371D01*
X115889885Y-106891942D01*
X115904171Y-106906228D01*
X115932742Y-106920514D01*
%TO.C,C6*%
X114427800Y-115143742D02*
X114413514Y-115158028D01*
X114370657Y-115172314D01*
X114342085Y-115172314D01*
X114299228Y-115158028D01*
X114270657Y-115129457D01*
X114256371Y-115100885D01*
X114242085Y-115043742D01*
X114242085Y-115000885D01*
X114256371Y-114943742D01*
X114270657Y-114915171D01*
X114299228Y-114886600D01*
X114342085Y-114872314D01*
X114370657Y-114872314D01*
X114413514Y-114886600D01*
X114427800Y-114900885D01*
X114684942Y-114872314D02*
X114627800Y-114872314D01*
X114599228Y-114886600D01*
X114584942Y-114900885D01*
X114556371Y-114943742D01*
X114542085Y-115000885D01*
X114542085Y-115115171D01*
X114556371Y-115143742D01*
X114570657Y-115158028D01*
X114599228Y-115172314D01*
X114656371Y-115172314D01*
X114684942Y-115158028D01*
X114699228Y-115143742D01*
X114713514Y-115115171D01*
X114713514Y-115043742D01*
X114699228Y-115015171D01*
X114684942Y-115000885D01*
X114656371Y-114986600D01*
X114599228Y-114986600D01*
X114570657Y-115000885D01*
X114556371Y-115015171D01*
X114542085Y-115043742D01*
%TO.C,C18*%
X118801342Y-114315057D02*
X118815628Y-114329342D01*
X118829914Y-114372200D01*
X118829914Y-114400771D01*
X118815628Y-114443628D01*
X118787057Y-114472200D01*
X118758485Y-114486485D01*
X118701342Y-114500771D01*
X118658485Y-114500771D01*
X118601342Y-114486485D01*
X118572771Y-114472200D01*
X118544200Y-114443628D01*
X118529914Y-114400771D01*
X118529914Y-114372200D01*
X118544200Y-114329342D01*
X118558485Y-114315057D01*
X118829914Y-114029342D02*
X118829914Y-114200771D01*
X118829914Y-114115057D02*
X118529914Y-114115057D01*
X118572771Y-114143628D01*
X118601342Y-114172200D01*
X118615628Y-114200771D01*
X118658485Y-113857914D02*
X118644200Y-113886485D01*
X118629914Y-113900771D01*
X118601342Y-113915057D01*
X118587057Y-113915057D01*
X118558485Y-113900771D01*
X118544200Y-113886485D01*
X118529914Y-113857914D01*
X118529914Y-113800771D01*
X118544200Y-113772200D01*
X118558485Y-113757914D01*
X118587057Y-113743628D01*
X118601342Y-113743628D01*
X118629914Y-113757914D01*
X118644200Y-113772200D01*
X118658485Y-113800771D01*
X118658485Y-113857914D01*
X118672771Y-113886485D01*
X118687057Y-113900771D01*
X118715628Y-113915057D01*
X118772771Y-113915057D01*
X118801342Y-113900771D01*
X118815628Y-113886485D01*
X118829914Y-113857914D01*
X118829914Y-113800771D01*
X118815628Y-113772200D01*
X118801342Y-113757914D01*
X118772771Y-113743628D01*
X118715628Y-113743628D01*
X118687057Y-113757914D01*
X118672771Y-113772200D01*
X118658485Y-113800771D01*
%TO.C,D2*%
X101784971Y-103056514D02*
X101784971Y-102756514D01*
X101856400Y-102756514D01*
X101899257Y-102770800D01*
X101927828Y-102799371D01*
X101942114Y-102827942D01*
X101956400Y-102885085D01*
X101956400Y-102927942D01*
X101942114Y-102985085D01*
X101927828Y-103013657D01*
X101899257Y-103042228D01*
X101856400Y-103056514D01*
X101784971Y-103056514D01*
X102070685Y-102785085D02*
X102084971Y-102770800D01*
X102113542Y-102756514D01*
X102184971Y-102756514D01*
X102213542Y-102770800D01*
X102227828Y-102785085D01*
X102242114Y-102813657D01*
X102242114Y-102842228D01*
X102227828Y-102885085D01*
X102056400Y-103056514D01*
X102242114Y-103056514D01*
%TO.C,C5*%
X108789000Y-100411742D02*
X108774714Y-100426028D01*
X108731857Y-100440314D01*
X108703285Y-100440314D01*
X108660428Y-100426028D01*
X108631857Y-100397457D01*
X108617571Y-100368885D01*
X108603285Y-100311742D01*
X108603285Y-100268885D01*
X108617571Y-100211742D01*
X108631857Y-100183171D01*
X108660428Y-100154600D01*
X108703285Y-100140314D01*
X108731857Y-100140314D01*
X108774714Y-100154600D01*
X108789000Y-100168885D01*
X109060428Y-100140314D02*
X108917571Y-100140314D01*
X108903285Y-100283171D01*
X108917571Y-100268885D01*
X108946142Y-100254600D01*
X109017571Y-100254600D01*
X109046142Y-100268885D01*
X109060428Y-100283171D01*
X109074714Y-100311742D01*
X109074714Y-100383171D01*
X109060428Y-100411742D01*
X109046142Y-100426028D01*
X109017571Y-100440314D01*
X108946142Y-100440314D01*
X108917571Y-100426028D01*
X108903285Y-100411742D01*
%TO.C,C14*%
X106664942Y-122331942D02*
X106650657Y-122346228D01*
X106607800Y-122360514D01*
X106579228Y-122360514D01*
X106536371Y-122346228D01*
X106507800Y-122317657D01*
X106493514Y-122289085D01*
X106479228Y-122231942D01*
X106479228Y-122189085D01*
X106493514Y-122131942D01*
X106507800Y-122103371D01*
X106536371Y-122074800D01*
X106579228Y-122060514D01*
X106607800Y-122060514D01*
X106650657Y-122074800D01*
X106664942Y-122089085D01*
X106950657Y-122360514D02*
X106779228Y-122360514D01*
X106864942Y-122360514D02*
X106864942Y-122060514D01*
X106836371Y-122103371D01*
X106807800Y-122131942D01*
X106779228Y-122146228D01*
X107207800Y-122160514D02*
X107207800Y-122360514D01*
X107136371Y-122046228D02*
X107064942Y-122260514D01*
X107250657Y-122260514D01*
%TO.C,R5*%
X110109800Y-122309714D02*
X110009800Y-122166857D01*
X109938371Y-122309714D02*
X109938371Y-122009714D01*
X110052657Y-122009714D01*
X110081228Y-122024000D01*
X110095514Y-122038285D01*
X110109800Y-122066857D01*
X110109800Y-122109714D01*
X110095514Y-122138285D01*
X110081228Y-122152571D01*
X110052657Y-122166857D01*
X109938371Y-122166857D01*
X110381228Y-122009714D02*
X110238371Y-122009714D01*
X110224085Y-122152571D01*
X110238371Y-122138285D01*
X110266942Y-122124000D01*
X110338371Y-122124000D01*
X110366942Y-122138285D01*
X110381228Y-122152571D01*
X110395514Y-122181142D01*
X110395514Y-122252571D01*
X110381228Y-122281142D01*
X110366942Y-122295428D01*
X110338371Y-122309714D01*
X110266942Y-122309714D01*
X110238371Y-122295428D01*
X110224085Y-122281142D01*
%TO.C,C10*%
X102067542Y-114508742D02*
X102053257Y-114523028D01*
X102010400Y-114537314D01*
X101981828Y-114537314D01*
X101938971Y-114523028D01*
X101910400Y-114494457D01*
X101896114Y-114465885D01*
X101881828Y-114408742D01*
X101881828Y-114365885D01*
X101896114Y-114308742D01*
X101910400Y-114280171D01*
X101938971Y-114251600D01*
X101981828Y-114237314D01*
X102010400Y-114237314D01*
X102053257Y-114251600D01*
X102067542Y-114265885D01*
X102353257Y-114537314D02*
X102181828Y-114537314D01*
X102267542Y-114537314D02*
X102267542Y-114237314D01*
X102238971Y-114280171D01*
X102210400Y-114308742D01*
X102181828Y-114323028D01*
X102538971Y-114237314D02*
X102567542Y-114237314D01*
X102596114Y-114251600D01*
X102610400Y-114265885D01*
X102624685Y-114294457D01*
X102638971Y-114351600D01*
X102638971Y-114423028D01*
X102624685Y-114480171D01*
X102610400Y-114508742D01*
X102596114Y-114523028D01*
X102567542Y-114537314D01*
X102538971Y-114537314D01*
X102510400Y-114523028D01*
X102496114Y-114508742D01*
X102481828Y-114480171D01*
X102467542Y-114423028D01*
X102467542Y-114351600D01*
X102481828Y-114294457D01*
X102496114Y-114265885D01*
X102510400Y-114251600D01*
X102538971Y-114237314D01*
%TO.C,C16*%
X116032742Y-105628257D02*
X116047028Y-105642542D01*
X116061314Y-105685400D01*
X116061314Y-105713971D01*
X116047028Y-105756828D01*
X116018457Y-105785400D01*
X115989885Y-105799685D01*
X115932742Y-105813971D01*
X115889885Y-105813971D01*
X115832742Y-105799685D01*
X115804171Y-105785400D01*
X115775600Y-105756828D01*
X115761314Y-105713971D01*
X115761314Y-105685400D01*
X115775600Y-105642542D01*
X115789885Y-105628257D01*
X116061314Y-105342542D02*
X116061314Y-105513971D01*
X116061314Y-105428257D02*
X115761314Y-105428257D01*
X115804171Y-105456828D01*
X115832742Y-105485400D01*
X115847028Y-105513971D01*
X115761314Y-105085400D02*
X115761314Y-105142542D01*
X115775600Y-105171114D01*
X115789885Y-105185400D01*
X115832742Y-105213971D01*
X115889885Y-105228257D01*
X116004171Y-105228257D01*
X116032742Y-105213971D01*
X116047028Y-105199685D01*
X116061314Y-105171114D01*
X116061314Y-105113971D01*
X116047028Y-105085400D01*
X116032742Y-105071114D01*
X116004171Y-105056828D01*
X115932742Y-105056828D01*
X115904171Y-105071114D01*
X115889885Y-105085400D01*
X115875600Y-105113971D01*
X115875600Y-105171114D01*
X115889885Y-105199685D01*
X115904171Y-105213971D01*
X115932742Y-105228257D01*
%TO.C,C11*%
X117942542Y-116972542D02*
X117928257Y-116986828D01*
X117885400Y-117001114D01*
X117856828Y-117001114D01*
X117813971Y-116986828D01*
X117785400Y-116958257D01*
X117771114Y-116929685D01*
X117756828Y-116872542D01*
X117756828Y-116829685D01*
X117771114Y-116772542D01*
X117785400Y-116743971D01*
X117813971Y-116715400D01*
X117856828Y-116701114D01*
X117885400Y-116701114D01*
X117928257Y-116715400D01*
X117942542Y-116729685D01*
X118228257Y-117001114D02*
X118056828Y-117001114D01*
X118142542Y-117001114D02*
X118142542Y-116701114D01*
X118113971Y-116743971D01*
X118085400Y-116772542D01*
X118056828Y-116786828D01*
X118513971Y-117001114D02*
X118342542Y-117001114D01*
X118428257Y-117001114D02*
X118428257Y-116701114D01*
X118399685Y-116743971D01*
X118371114Y-116772542D01*
X118342542Y-116786828D01*
%TO.C,C7*%
X100762600Y-111003542D02*
X100748314Y-111017828D01*
X100705457Y-111032114D01*
X100676885Y-111032114D01*
X100634028Y-111017828D01*
X100605457Y-110989257D01*
X100591171Y-110960685D01*
X100576885Y-110903542D01*
X100576885Y-110860685D01*
X100591171Y-110803542D01*
X100605457Y-110774971D01*
X100634028Y-110746400D01*
X100676885Y-110732114D01*
X100705457Y-110732114D01*
X100748314Y-110746400D01*
X100762600Y-110760685D01*
X100862600Y-110732114D02*
X101062600Y-110732114D01*
X100934028Y-111032114D01*
%TO.C,D1*%
X100465714Y-126180028D02*
X100165714Y-126180028D01*
X100165714Y-126108600D01*
X100180000Y-126065742D01*
X100208571Y-126037171D01*
X100237142Y-126022885D01*
X100294285Y-126008600D01*
X100337142Y-126008600D01*
X100394285Y-126022885D01*
X100422857Y-126037171D01*
X100451428Y-126065742D01*
X100465714Y-126108600D01*
X100465714Y-126180028D01*
X100465714Y-125722885D02*
X100465714Y-125894314D01*
X100465714Y-125808600D02*
X100165714Y-125808600D01*
X100208571Y-125837171D01*
X100237142Y-125865742D01*
X100251428Y-125894314D01*
%TO.C,C17*%
X119868142Y-107253857D02*
X119882428Y-107268142D01*
X119896714Y-107311000D01*
X119896714Y-107339571D01*
X119882428Y-107382428D01*
X119853857Y-107411000D01*
X119825285Y-107425285D01*
X119768142Y-107439571D01*
X119725285Y-107439571D01*
X119668142Y-107425285D01*
X119639571Y-107411000D01*
X119611000Y-107382428D01*
X119596714Y-107339571D01*
X119596714Y-107311000D01*
X119611000Y-107268142D01*
X119625285Y-107253857D01*
X119896714Y-106968142D02*
X119896714Y-107139571D01*
X119896714Y-107053857D02*
X119596714Y-107053857D01*
X119639571Y-107082428D01*
X119668142Y-107111000D01*
X119682428Y-107139571D01*
X119596714Y-106868142D02*
X119596714Y-106668142D01*
X119896714Y-106796714D01*
%TO.C,C9*%
X102235800Y-110952742D02*
X102221514Y-110967028D01*
X102178657Y-110981314D01*
X102150085Y-110981314D01*
X102107228Y-110967028D01*
X102078657Y-110938457D01*
X102064371Y-110909885D01*
X102050085Y-110852742D01*
X102050085Y-110809885D01*
X102064371Y-110752742D01*
X102078657Y-110724171D01*
X102107228Y-110695600D01*
X102150085Y-110681314D01*
X102178657Y-110681314D01*
X102221514Y-110695600D01*
X102235800Y-110709885D01*
X102378657Y-110981314D02*
X102435800Y-110981314D01*
X102464371Y-110967028D01*
X102478657Y-110952742D01*
X102507228Y-110909885D01*
X102521514Y-110852742D01*
X102521514Y-110738457D01*
X102507228Y-110709885D01*
X102492942Y-110695600D01*
X102464371Y-110681314D01*
X102407228Y-110681314D01*
X102378657Y-110695600D01*
X102364371Y-110709885D01*
X102350085Y-110738457D01*
X102350085Y-110809885D01*
X102364371Y-110838457D01*
X102378657Y-110852742D01*
X102407228Y-110867028D01*
X102464371Y-110867028D01*
X102492942Y-110852742D01*
X102507228Y-110838457D01*
X102521514Y-110809885D01*
%TO.C,R4*%
X101981800Y-100795914D02*
X101881800Y-100653057D01*
X101810371Y-100795914D02*
X101810371Y-100495914D01*
X101924657Y-100495914D01*
X101953228Y-100510200D01*
X101967514Y-100524485D01*
X101981800Y-100553057D01*
X101981800Y-100595914D01*
X101967514Y-100624485D01*
X101953228Y-100638771D01*
X101924657Y-100653057D01*
X101810371Y-100653057D01*
X102238942Y-100595914D02*
X102238942Y-100795914D01*
X102167514Y-100481628D02*
X102096085Y-100695914D01*
X102281800Y-100695914D01*
%TO.C,ADC1*%
X103184000Y-109199600D02*
X103184000Y-110529600D01*
X103184000Y-107929600D02*
X100524000Y-107929600D01*
X103184000Y-110529600D02*
X101854000Y-110529600D01*
X103184000Y-105329600D02*
X100524000Y-105329600D01*
X100524000Y-107929600D02*
X100524000Y-105329600D01*
X103184000Y-107929600D02*
X103184000Y-105329600D01*
%TO.C,SW1*%
X100142000Y-117961400D02*
X100142000Y-122021400D01*
X103312000Y-122021400D02*
X103312000Y-117961400D01*
X103312000Y-117961400D02*
X100142000Y-117961400D01*
%TO.C,C3*%
X109599000Y-124338033D02*
X109599000Y-124630567D01*
X110619000Y-124338033D02*
X110619000Y-124630567D01*
%TO.C,C4*%
X115292600Y-102508267D02*
X115292600Y-102215733D01*
X114272600Y-102508267D02*
X114272600Y-102215733D01*
%TO.C,C8*%
X114356933Y-118213600D02*
X114649467Y-118213600D01*
X114356933Y-117193600D02*
X114649467Y-117193600D01*
%TO.C,C13*%
X104904000Y-120516867D02*
X104904000Y-120224333D01*
X103884000Y-120516867D02*
X103884000Y-120224333D01*
%TO.C,R2*%
X101712500Y-116332724D02*
X101712500Y-115823276D01*
X102757500Y-116332724D02*
X102757500Y-115823276D01*
%TO.C,U4*%
X118913800Y-112678100D02*
X118388800Y-112678100D01*
X114613800Y-112678100D02*
X114613800Y-112153100D01*
X118913800Y-112678100D02*
X118913800Y-112153100D01*
X118913800Y-108378100D02*
X118913800Y-108903100D01*
X118913800Y-108378100D02*
X118388800Y-108378100D01*
X114613800Y-108378100D02*
X115138800Y-108378100D01*
X114613800Y-112678100D02*
X115138800Y-112678100D01*
%TO.C,Data1*%
X109316600Y-129473000D02*
X109316600Y-126813000D01*
X108046600Y-129473000D02*
X106716600Y-129473000D01*
X106716600Y-129473000D02*
X106716600Y-128143000D01*
X111916600Y-129473000D02*
X111916600Y-126813000D01*
X109316600Y-129473000D02*
X111916600Y-129473000D01*
X109316600Y-126813000D02*
X111916600Y-126813000D01*
%TO.C,E2*%
X119338400Y-127980600D02*
X119338400Y-129310600D01*
X119338400Y-126710600D02*
X116678400Y-126710600D01*
X116678400Y-126710600D02*
X116678400Y-119030600D01*
X119338400Y-129310600D02*
X118008400Y-129310600D01*
X119338400Y-119030600D02*
X116678400Y-119030600D01*
X119338400Y-126710600D02*
X119338400Y-119030600D01*
%TO.C,U2*%
X110767400Y-112897700D02*
X111417400Y-112897700D01*
X104197400Y-105677700D02*
X104197400Y-106327700D01*
X104197400Y-112897700D02*
X104197400Y-112247700D01*
X104847400Y-105677700D02*
X104197400Y-105677700D01*
X111417400Y-105677700D02*
X111417400Y-106327700D01*
X104847400Y-112897700D02*
X104197400Y-112897700D01*
X110767400Y-105677700D02*
X111417400Y-105677700D01*
%TO.C,SW2*%
X103672600Y-100130600D02*
X103672600Y-104190600D01*
X106842600Y-104190600D02*
X106842600Y-100130600D01*
X106842600Y-100130600D02*
X103672600Y-100130600D01*
%TO.C,C1*%
X103833200Y-124415333D02*
X103833200Y-124707867D01*
X104853200Y-124415333D02*
X104853200Y-124707867D01*
%TO.C,R7*%
X112659900Y-109460576D02*
X112659900Y-109970024D01*
X113704900Y-109460576D02*
X113704900Y-109970024D01*
%TO.C,R1*%
X103287300Y-116332724D02*
X103287300Y-115823276D01*
X104332300Y-116332724D02*
X104332300Y-115823276D01*
%TO.C,R3*%
X109068324Y-103849700D02*
X108558876Y-103849700D01*
X109068324Y-102804700D02*
X108558876Y-102804700D01*
%TO.C,U3*%
X111534750Y-115153200D02*
X105534750Y-115153200D01*
X108534750Y-120373200D02*
X105534750Y-120373200D01*
%TO.C,C15*%
X112173900Y-124631667D02*
X112173900Y-124339133D01*
X111153900Y-124631667D02*
X111153900Y-124339133D01*
%TO.C,X1*%
X113843000Y-103957200D02*
X113843000Y-100157200D01*
X110693000Y-103957200D02*
X113843000Y-103957200D01*
%TO.C,U1*%
X107213400Y-123001600D02*
X108013400Y-123001600D01*
X107213400Y-126121600D02*
X106413400Y-126121600D01*
X107213400Y-123001600D02*
X105413400Y-123001600D01*
X107213400Y-126121600D02*
X108013400Y-126121600D01*
%TO.C,C2*%
X103303800Y-124415333D02*
X103303800Y-124707867D01*
X102283800Y-124415333D02*
X102283800Y-124707867D01*
%TO.C,C12*%
X117989133Y-116435600D02*
X118281667Y-116435600D01*
X117989133Y-115415600D02*
X118281667Y-115415600D01*
%TO.C,R6*%
X114326124Y-106500400D02*
X113816676Y-106500400D01*
X114326124Y-107545400D02*
X113816676Y-107545400D01*
%TO.C,C6*%
X114356933Y-116435600D02*
X114649467Y-116435600D01*
X114356933Y-115415600D02*
X114649467Y-115415600D01*
%TO.C,I2c1*%
X116805400Y-103174800D02*
X116805400Y-100574800D01*
X119465400Y-104444800D02*
X119465400Y-105774800D01*
X119465400Y-103174800D02*
X116805400Y-103174800D01*
X119465400Y-100574800D02*
X116805400Y-100574800D01*
X119465400Y-103174800D02*
X119465400Y-100574800D01*
X119465400Y-105774800D02*
X118135400Y-105774800D01*
%TO.C,C18*%
X116668333Y-114657600D02*
X116960867Y-114657600D01*
X116668333Y-113637600D02*
X116960867Y-113637600D01*
%TO.C,D2*%
X103691800Y-100915800D02*
X101231800Y-100915800D01*
X103691800Y-102385800D02*
X103691800Y-100915800D01*
X101231800Y-102385800D02*
X103691800Y-102385800D01*
%TO.C,C5*%
X108934467Y-100734400D02*
X108641933Y-100734400D01*
X108934467Y-101754400D02*
X108641933Y-101754400D01*
%TO.C,C14*%
X106711533Y-120775000D02*
X107004067Y-120775000D01*
X106711533Y-121795000D02*
X107004067Y-121795000D01*
%TO.C,R5*%
X110439924Y-121807500D02*
X109930476Y-121807500D01*
X110439924Y-120762500D02*
X109930476Y-120762500D01*
%TO.C,C10*%
X100251800Y-115931733D02*
X100251800Y-116224267D01*
X101271800Y-115931733D02*
X101271800Y-116224267D01*
%TO.C,C16*%
X114217667Y-105996200D02*
X113925133Y-105996200D01*
X114217667Y-104976200D02*
X113925133Y-104976200D01*
%TO.C,C11*%
X118014533Y-118188200D02*
X118307067Y-118188200D01*
X118014533Y-117168200D02*
X118307067Y-117168200D01*
%TO.C,PS1*%
X103154400Y-126813000D02*
X103154400Y-129473000D01*
X103154400Y-126813000D02*
X100554400Y-126813000D01*
X104424400Y-126813000D02*
X105754400Y-126813000D01*
X105754400Y-126813000D02*
X105754400Y-128143000D01*
X103154400Y-129473000D02*
X100554400Y-129473000D01*
X100554400Y-126813000D02*
X100554400Y-129473000D01*
%TO.C,C7*%
X101309900Y-112871467D02*
X101309900Y-112578933D01*
X100289900Y-112871467D02*
X100289900Y-112578933D01*
%TO.C,D1*%
X100222100Y-123010800D02*
X100222100Y-125560800D01*
X101922100Y-123010800D02*
X100222100Y-123010800D01*
X101922100Y-123010800D02*
X101922100Y-125560800D01*
%TO.C,C17*%
X118053067Y-106512900D02*
X117760533Y-106512900D01*
X118053067Y-107532900D02*
X117760533Y-107532900D01*
%TO.C,C9*%
X101801200Y-112871467D02*
X101801200Y-112578933D01*
X102821200Y-112871467D02*
X102821200Y-112578933D01*
%TO.C,E1*%
X115604600Y-119030600D02*
X112944600Y-119030600D01*
X115604600Y-129310600D02*
X114274600Y-129310600D01*
X115604600Y-127980600D02*
X115604600Y-129310600D01*
X115604600Y-126710600D02*
X112944600Y-126710600D01*
X115604600Y-126710600D02*
X115604600Y-119030600D01*
X112944600Y-126710600D02*
X112944600Y-119030600D01*
%TO.C,R4*%
X101743742Y-104484700D02*
X102218258Y-104484700D01*
X101743742Y-103439700D02*
X102218258Y-103439700D01*
%TD*%
M02*
