%TF.GenerationSoftware,KiCad,Pcbnew,(6.0.7-1)-1*%
%TF.CreationDate,2022-10-12T15:16:09-04:00*%
%TF.ProjectId,Connection boardV1.0,436f6e6e-6563-4746-996f-6e20626f6172,rev?*%
%TF.SameCoordinates,Original*%
%TF.FileFunction,Drillmap*%
%TF.FilePolarity,Positive*%
%FSLAX45Y45*%
G04 Gerber Fmt 4.5, Leading zero omitted, Abs format (unit mm)*
G04 Created by KiCad (PCBNEW (6.0.7-1)-1) date 2022-10-12 15:16:09*
%MOMM*%
%LPD*%
G01*
G04 APERTURE LIST*
%ADD10C,0.100000*%
%ADD11C,0.200000*%
%ADD12C,0.040000*%
G04 APERTURE END LIST*
D10*
X10000000Y-12200000D02*
X10000000Y-10000000D01*
X11700000Y-10000000D02*
X10000000Y-10000000D01*
X11700000Y-12200000D02*
X10000000Y-12200000D01*
X11700000Y-10000000D02*
X11700000Y-12200000D01*
D11*
D12*
X10814640Y-10744520D02*
X10854640Y-10784520D01*
X10854640Y-10744520D02*
X10814640Y-10784520D01*
D10*
X10348200Y-11423880D02*
G75*
G03*
X10348200Y-11423880I-50000J0D01*
G01*
X10348200Y-11677880D02*
G75*
G03*
X10348200Y-11677880I-50000J0D01*
G01*
X10348200Y-11931880D02*
G75*
G03*
X10348200Y-11931880I-50000J0D01*
G01*
X10353780Y-10299700D02*
G75*
G03*
X10353780Y-10299700I-50000J0D01*
G01*
X10353780Y-10553700D02*
G75*
G03*
X10353780Y-10553700I-50000J0D01*
G01*
X10353780Y-10807700D02*
G75*
G03*
X10353780Y-10807700I-50000J0D01*
G01*
X10602200Y-11423880D02*
G75*
G03*
X10602200Y-11423880I-50000J0D01*
G01*
X10602200Y-11677880D02*
G75*
G03*
X10602200Y-11677880I-50000J0D01*
G01*
X10602200Y-11931880D02*
G75*
G03*
X10602200Y-11931880I-50000J0D01*
G01*
X10607780Y-10299700D02*
G75*
G03*
X10607780Y-10299700I-50000J0D01*
G01*
X10607780Y-10553700D02*
G75*
G03*
X10607780Y-10553700I-50000J0D01*
G01*
X10607780Y-10807700D02*
G75*
G03*
X10607780Y-10807700I-50000J0D01*
G01*
X11186400Y-10298660D02*
G75*
G03*
X11186400Y-10298660I-50000J0D01*
G01*
X11186400Y-10552660D02*
G75*
G03*
X11186400Y-10552660I-50000J0D01*
G01*
X11186400Y-10806660D02*
G75*
G03*
X11186400Y-10806660I-50000J0D01*
G01*
X11194020Y-11423880D02*
G75*
G03*
X11194020Y-11423880I-50000J0D01*
G01*
X11194020Y-11677880D02*
G75*
G03*
X11194020Y-11677880I-50000J0D01*
G01*
X11194020Y-11931880D02*
G75*
G03*
X11194020Y-11931880I-50000J0D01*
G01*
X11440400Y-10298660D02*
G75*
G03*
X11440400Y-10298660I-50000J0D01*
G01*
X11440400Y-10552660D02*
G75*
G03*
X11440400Y-10552660I-50000J0D01*
G01*
X11440400Y-10806660D02*
G75*
G03*
X11440400Y-10806660I-50000J0D01*
G01*
X11448020Y-11423880D02*
G75*
G03*
X11448020Y-11423880I-50000J0D01*
G01*
X11448020Y-11677880D02*
G75*
G03*
X11448020Y-11677880I-50000J0D01*
G01*
X11448020Y-11931880D02*
G75*
G03*
X11448020Y-11931880I-50000J0D01*
G01*
D11*
X10252619Y-12515476D02*
X10252619Y-12315476D01*
X10300238Y-12315476D01*
X10328810Y-12325000D01*
X10347857Y-12344048D01*
X10357381Y-12363095D01*
X10366905Y-12401190D01*
X10366905Y-12429762D01*
X10357381Y-12467857D01*
X10347857Y-12486905D01*
X10328810Y-12505952D01*
X10300238Y-12515476D01*
X10252619Y-12515476D01*
X10452619Y-12515476D02*
X10452619Y-12382143D01*
X10452619Y-12420238D02*
X10462143Y-12401190D01*
X10471667Y-12391667D01*
X10490714Y-12382143D01*
X10509762Y-12382143D01*
X10576429Y-12515476D02*
X10576429Y-12382143D01*
X10576429Y-12315476D02*
X10566905Y-12325000D01*
X10576429Y-12334524D01*
X10585952Y-12325000D01*
X10576429Y-12315476D01*
X10576429Y-12334524D01*
X10700238Y-12515476D02*
X10681190Y-12505952D01*
X10671667Y-12486905D01*
X10671667Y-12315476D01*
X10805000Y-12515476D02*
X10785952Y-12505952D01*
X10776429Y-12486905D01*
X10776429Y-12315476D01*
X11033571Y-12515476D02*
X11033571Y-12315476D01*
X11100238Y-12458333D01*
X11166905Y-12315476D01*
X11166905Y-12515476D01*
X11347857Y-12515476D02*
X11347857Y-12410714D01*
X11338333Y-12391667D01*
X11319286Y-12382143D01*
X11281190Y-12382143D01*
X11262143Y-12391667D01*
X11347857Y-12505952D02*
X11328809Y-12515476D01*
X11281190Y-12515476D01*
X11262143Y-12505952D01*
X11252619Y-12486905D01*
X11252619Y-12467857D01*
X11262143Y-12448809D01*
X11281190Y-12439286D01*
X11328809Y-12439286D01*
X11347857Y-12429762D01*
X11443095Y-12382143D02*
X11443095Y-12582143D01*
X11443095Y-12391667D02*
X11462143Y-12382143D01*
X11500238Y-12382143D01*
X11519286Y-12391667D01*
X11528809Y-12401190D01*
X11538333Y-12420238D01*
X11538333Y-12477381D01*
X11528809Y-12496428D01*
X11519286Y-12505952D01*
X11500238Y-12515476D01*
X11462143Y-12515476D01*
X11443095Y-12505952D01*
X11624048Y-12496428D02*
X11633571Y-12505952D01*
X11624048Y-12515476D01*
X11614524Y-12505952D01*
X11624048Y-12496428D01*
X11624048Y-12515476D01*
X11624048Y-12391667D02*
X11633571Y-12401190D01*
X11624048Y-12410714D01*
X11614524Y-12401190D01*
X11624048Y-12391667D01*
X11624048Y-12410714D01*
D12*
X9955000Y-12825000D02*
X9995000Y-12865000D01*
X9995000Y-12825000D02*
X9955000Y-12865000D01*
D11*
X10290714Y-12735476D02*
X10309762Y-12735476D01*
X10328810Y-12745000D01*
X10338333Y-12754524D01*
X10347857Y-12773571D01*
X10357381Y-12811667D01*
X10357381Y-12859286D01*
X10347857Y-12897381D01*
X10338333Y-12916428D01*
X10328810Y-12925952D01*
X10309762Y-12935476D01*
X10290714Y-12935476D01*
X10271667Y-12925952D01*
X10262143Y-12916428D01*
X10252619Y-12897381D01*
X10243095Y-12859286D01*
X10243095Y-12811667D01*
X10252619Y-12773571D01*
X10262143Y-12754524D01*
X10271667Y-12745000D01*
X10290714Y-12735476D01*
X10443095Y-12916428D02*
X10452619Y-12925952D01*
X10443095Y-12935476D01*
X10433571Y-12925952D01*
X10443095Y-12916428D01*
X10443095Y-12935476D01*
X10624048Y-12802143D02*
X10624048Y-12935476D01*
X10576429Y-12725952D02*
X10528810Y-12868809D01*
X10652619Y-12868809D01*
X10766905Y-12735476D02*
X10785952Y-12735476D01*
X10805000Y-12745000D01*
X10814524Y-12754524D01*
X10824048Y-12773571D01*
X10833571Y-12811667D01*
X10833571Y-12859286D01*
X10824048Y-12897381D01*
X10814524Y-12916428D01*
X10805000Y-12925952D01*
X10785952Y-12935476D01*
X10766905Y-12935476D01*
X10747857Y-12925952D01*
X10738333Y-12916428D01*
X10728810Y-12897381D01*
X10719286Y-12859286D01*
X10719286Y-12811667D01*
X10728810Y-12773571D01*
X10738333Y-12754524D01*
X10747857Y-12745000D01*
X10766905Y-12735476D01*
X10957381Y-12735476D02*
X10976429Y-12735476D01*
X10995476Y-12745000D01*
X11005000Y-12754524D01*
X11014524Y-12773571D01*
X11024048Y-12811667D01*
X11024048Y-12859286D01*
X11014524Y-12897381D01*
X11005000Y-12916428D01*
X10995476Y-12925952D01*
X10976429Y-12935476D01*
X10957381Y-12935476D01*
X10938333Y-12925952D01*
X10928810Y-12916428D01*
X10919286Y-12897381D01*
X10909762Y-12859286D01*
X10909762Y-12811667D01*
X10919286Y-12773571D01*
X10928810Y-12754524D01*
X10938333Y-12745000D01*
X10957381Y-12735476D01*
X11109762Y-12935476D02*
X11109762Y-12802143D01*
X11109762Y-12821190D02*
X11119286Y-12811667D01*
X11138333Y-12802143D01*
X11166905Y-12802143D01*
X11185952Y-12811667D01*
X11195476Y-12830714D01*
X11195476Y-12935476D01*
X11195476Y-12830714D02*
X11205000Y-12811667D01*
X11224048Y-12802143D01*
X11252619Y-12802143D01*
X11271667Y-12811667D01*
X11281190Y-12830714D01*
X11281190Y-12935476D01*
X11376428Y-12935476D02*
X11376428Y-12802143D01*
X11376428Y-12821190D02*
X11385952Y-12811667D01*
X11405000Y-12802143D01*
X11433571Y-12802143D01*
X11452619Y-12811667D01*
X11462143Y-12830714D01*
X11462143Y-12935476D01*
X11462143Y-12830714D02*
X11471667Y-12811667D01*
X11490714Y-12802143D01*
X11519286Y-12802143D01*
X11538333Y-12811667D01*
X11547857Y-12830714D01*
X11547857Y-12935476D01*
X11938333Y-12725952D02*
X11766905Y-12983095D01*
X12195476Y-12735476D02*
X12214524Y-12735476D01*
X12233571Y-12745000D01*
X12243095Y-12754524D01*
X12252619Y-12773571D01*
X12262143Y-12811667D01*
X12262143Y-12859286D01*
X12252619Y-12897381D01*
X12243095Y-12916428D01*
X12233571Y-12925952D01*
X12214524Y-12935476D01*
X12195476Y-12935476D01*
X12176428Y-12925952D01*
X12166905Y-12916428D01*
X12157381Y-12897381D01*
X12147857Y-12859286D01*
X12147857Y-12811667D01*
X12157381Y-12773571D01*
X12166905Y-12754524D01*
X12176428Y-12745000D01*
X12195476Y-12735476D01*
X12347857Y-12916428D02*
X12357381Y-12925952D01*
X12347857Y-12935476D01*
X12338333Y-12925952D01*
X12347857Y-12916428D01*
X12347857Y-12935476D01*
X12481190Y-12735476D02*
X12500238Y-12735476D01*
X12519286Y-12745000D01*
X12528809Y-12754524D01*
X12538333Y-12773571D01*
X12547857Y-12811667D01*
X12547857Y-12859286D01*
X12538333Y-12897381D01*
X12528809Y-12916428D01*
X12519286Y-12925952D01*
X12500238Y-12935476D01*
X12481190Y-12935476D01*
X12462143Y-12925952D01*
X12452619Y-12916428D01*
X12443095Y-12897381D01*
X12433571Y-12859286D01*
X12433571Y-12811667D01*
X12443095Y-12773571D01*
X12452619Y-12754524D01*
X12462143Y-12745000D01*
X12481190Y-12735476D01*
X12738333Y-12935476D02*
X12624048Y-12935476D01*
X12681190Y-12935476D02*
X12681190Y-12735476D01*
X12662143Y-12764048D01*
X12643095Y-12783095D01*
X12624048Y-12792619D01*
X12919286Y-12735476D02*
X12824048Y-12735476D01*
X12814524Y-12830714D01*
X12824048Y-12821190D01*
X12843095Y-12811667D01*
X12890714Y-12811667D01*
X12909762Y-12821190D01*
X12919286Y-12830714D01*
X12928809Y-12849762D01*
X12928809Y-12897381D01*
X12919286Y-12916428D01*
X12909762Y-12925952D01*
X12890714Y-12935476D01*
X12843095Y-12935476D01*
X12824048Y-12925952D01*
X12814524Y-12916428D01*
X12995476Y-12735476D02*
X13128809Y-12735476D01*
X13043095Y-12935476D01*
X13195476Y-12735476D02*
X13195476Y-12773571D01*
X13271667Y-12735476D02*
X13271667Y-12773571D01*
X13566905Y-13011667D02*
X13557381Y-13002143D01*
X13538333Y-12973571D01*
X13528809Y-12954524D01*
X13519286Y-12925952D01*
X13509762Y-12878333D01*
X13509762Y-12840238D01*
X13519286Y-12792619D01*
X13528809Y-12764048D01*
X13538333Y-12745000D01*
X13557381Y-12716428D01*
X13566905Y-12706905D01*
X13747857Y-12935476D02*
X13633571Y-12935476D01*
X13690714Y-12935476D02*
X13690714Y-12735476D01*
X13671667Y-12764048D01*
X13652619Y-12783095D01*
X13633571Y-12792619D01*
X13985952Y-12935476D02*
X13985952Y-12735476D01*
X14071667Y-12935476D02*
X14071667Y-12830714D01*
X14062143Y-12811667D01*
X14043095Y-12802143D01*
X14014524Y-12802143D01*
X13995476Y-12811667D01*
X13985952Y-12821190D01*
X14195476Y-12935476D02*
X14176428Y-12925952D01*
X14166905Y-12916428D01*
X14157381Y-12897381D01*
X14157381Y-12840238D01*
X14166905Y-12821190D01*
X14176428Y-12811667D01*
X14195476Y-12802143D01*
X14224048Y-12802143D01*
X14243095Y-12811667D01*
X14252619Y-12821190D01*
X14262143Y-12840238D01*
X14262143Y-12897381D01*
X14252619Y-12916428D01*
X14243095Y-12925952D01*
X14224048Y-12935476D01*
X14195476Y-12935476D01*
X14376428Y-12935476D02*
X14357381Y-12925952D01*
X14347857Y-12906905D01*
X14347857Y-12735476D01*
X14528809Y-12925952D02*
X14509762Y-12935476D01*
X14471667Y-12935476D01*
X14452619Y-12925952D01*
X14443095Y-12906905D01*
X14443095Y-12830714D01*
X14452619Y-12811667D01*
X14471667Y-12802143D01*
X14509762Y-12802143D01*
X14528809Y-12811667D01*
X14538333Y-12830714D01*
X14538333Y-12849762D01*
X14443095Y-12868809D01*
X14605000Y-13011667D02*
X14614524Y-13002143D01*
X14633571Y-12973571D01*
X14643095Y-12954524D01*
X14652619Y-12925952D01*
X14662143Y-12878333D01*
X14662143Y-12840238D01*
X14652619Y-12792619D01*
X14643095Y-12764048D01*
X14633571Y-12745000D01*
X14614524Y-12716428D01*
X14605000Y-12706905D01*
D10*
X9995000Y-13109000D02*
G75*
G03*
X9995000Y-13109000I-50000J0D01*
G01*
D11*
X10357381Y-13199476D02*
X10243095Y-13199476D01*
X10300238Y-13199476D02*
X10300238Y-12999476D01*
X10281190Y-13028048D01*
X10262143Y-13047095D01*
X10243095Y-13056619D01*
X10443095Y-13180428D02*
X10452619Y-13189952D01*
X10443095Y-13199476D01*
X10433571Y-13189952D01*
X10443095Y-13180428D01*
X10443095Y-13199476D01*
X10576429Y-12999476D02*
X10595476Y-12999476D01*
X10614524Y-13009000D01*
X10624048Y-13018524D01*
X10633571Y-13037571D01*
X10643095Y-13075667D01*
X10643095Y-13123286D01*
X10633571Y-13161381D01*
X10624048Y-13180428D01*
X10614524Y-13189952D01*
X10595476Y-13199476D01*
X10576429Y-13199476D01*
X10557381Y-13189952D01*
X10547857Y-13180428D01*
X10538333Y-13161381D01*
X10528810Y-13123286D01*
X10528810Y-13075667D01*
X10538333Y-13037571D01*
X10547857Y-13018524D01*
X10557381Y-13009000D01*
X10576429Y-12999476D01*
X10766905Y-12999476D02*
X10785952Y-12999476D01*
X10805000Y-13009000D01*
X10814524Y-13018524D01*
X10824048Y-13037571D01*
X10833571Y-13075667D01*
X10833571Y-13123286D01*
X10824048Y-13161381D01*
X10814524Y-13180428D01*
X10805000Y-13189952D01*
X10785952Y-13199476D01*
X10766905Y-13199476D01*
X10747857Y-13189952D01*
X10738333Y-13180428D01*
X10728810Y-13161381D01*
X10719286Y-13123286D01*
X10719286Y-13075667D01*
X10728810Y-13037571D01*
X10738333Y-13018524D01*
X10747857Y-13009000D01*
X10766905Y-12999476D01*
X10957381Y-12999476D02*
X10976429Y-12999476D01*
X10995476Y-13009000D01*
X11005000Y-13018524D01*
X11014524Y-13037571D01*
X11024048Y-13075667D01*
X11024048Y-13123286D01*
X11014524Y-13161381D01*
X11005000Y-13180428D01*
X10995476Y-13189952D01*
X10976429Y-13199476D01*
X10957381Y-13199476D01*
X10938333Y-13189952D01*
X10928810Y-13180428D01*
X10919286Y-13161381D01*
X10909762Y-13123286D01*
X10909762Y-13075667D01*
X10919286Y-13037571D01*
X10928810Y-13018524D01*
X10938333Y-13009000D01*
X10957381Y-12999476D01*
X11109762Y-13199476D02*
X11109762Y-13066143D01*
X11109762Y-13085190D02*
X11119286Y-13075667D01*
X11138333Y-13066143D01*
X11166905Y-13066143D01*
X11185952Y-13075667D01*
X11195476Y-13094714D01*
X11195476Y-13199476D01*
X11195476Y-13094714D02*
X11205000Y-13075667D01*
X11224048Y-13066143D01*
X11252619Y-13066143D01*
X11271667Y-13075667D01*
X11281190Y-13094714D01*
X11281190Y-13199476D01*
X11376428Y-13199476D02*
X11376428Y-13066143D01*
X11376428Y-13085190D02*
X11385952Y-13075667D01*
X11405000Y-13066143D01*
X11433571Y-13066143D01*
X11452619Y-13075667D01*
X11462143Y-13094714D01*
X11462143Y-13199476D01*
X11462143Y-13094714D02*
X11471667Y-13075667D01*
X11490714Y-13066143D01*
X11519286Y-13066143D01*
X11538333Y-13075667D01*
X11547857Y-13094714D01*
X11547857Y-13199476D01*
X11938333Y-12989952D02*
X11766905Y-13247095D01*
X12195476Y-12999476D02*
X12214524Y-12999476D01*
X12233571Y-13009000D01*
X12243095Y-13018524D01*
X12252619Y-13037571D01*
X12262143Y-13075667D01*
X12262143Y-13123286D01*
X12252619Y-13161381D01*
X12243095Y-13180428D01*
X12233571Y-13189952D01*
X12214524Y-13199476D01*
X12195476Y-13199476D01*
X12176428Y-13189952D01*
X12166905Y-13180428D01*
X12157381Y-13161381D01*
X12147857Y-13123286D01*
X12147857Y-13075667D01*
X12157381Y-13037571D01*
X12166905Y-13018524D01*
X12176428Y-13009000D01*
X12195476Y-12999476D01*
X12347857Y-13180428D02*
X12357381Y-13189952D01*
X12347857Y-13199476D01*
X12338333Y-13189952D01*
X12347857Y-13180428D01*
X12347857Y-13199476D01*
X12481190Y-12999476D02*
X12500238Y-12999476D01*
X12519286Y-13009000D01*
X12528809Y-13018524D01*
X12538333Y-13037571D01*
X12547857Y-13075667D01*
X12547857Y-13123286D01*
X12538333Y-13161381D01*
X12528809Y-13180428D01*
X12519286Y-13189952D01*
X12500238Y-13199476D01*
X12481190Y-13199476D01*
X12462143Y-13189952D01*
X12452619Y-13180428D01*
X12443095Y-13161381D01*
X12433571Y-13123286D01*
X12433571Y-13075667D01*
X12443095Y-13037571D01*
X12452619Y-13018524D01*
X12462143Y-13009000D01*
X12481190Y-12999476D01*
X12614524Y-12999476D02*
X12738333Y-12999476D01*
X12671667Y-13075667D01*
X12700238Y-13075667D01*
X12719286Y-13085190D01*
X12728809Y-13094714D01*
X12738333Y-13113762D01*
X12738333Y-13161381D01*
X12728809Y-13180428D01*
X12719286Y-13189952D01*
X12700238Y-13199476D01*
X12643095Y-13199476D01*
X12624048Y-13189952D01*
X12614524Y-13180428D01*
X12833571Y-13199476D02*
X12871667Y-13199476D01*
X12890714Y-13189952D01*
X12900238Y-13180428D01*
X12919286Y-13151857D01*
X12928809Y-13113762D01*
X12928809Y-13037571D01*
X12919286Y-13018524D01*
X12909762Y-13009000D01*
X12890714Y-12999476D01*
X12852619Y-12999476D01*
X12833571Y-13009000D01*
X12824048Y-13018524D01*
X12814524Y-13037571D01*
X12814524Y-13085190D01*
X12824048Y-13104238D01*
X12833571Y-13113762D01*
X12852619Y-13123286D01*
X12890714Y-13123286D01*
X12909762Y-13113762D01*
X12919286Y-13104238D01*
X12928809Y-13085190D01*
X13100238Y-13066143D02*
X13100238Y-13199476D01*
X13052619Y-12989952D02*
X13005000Y-13132809D01*
X13128809Y-13132809D01*
X13195476Y-12999476D02*
X13195476Y-13037571D01*
X13271667Y-12999476D02*
X13271667Y-13037571D01*
X13566905Y-13275667D02*
X13557381Y-13266143D01*
X13538333Y-13237571D01*
X13528809Y-13218524D01*
X13519286Y-13189952D01*
X13509762Y-13142333D01*
X13509762Y-13104238D01*
X13519286Y-13056619D01*
X13528809Y-13028048D01*
X13538333Y-13009000D01*
X13557381Y-12980428D01*
X13566905Y-12970905D01*
X13633571Y-13018524D02*
X13643095Y-13009000D01*
X13662143Y-12999476D01*
X13709762Y-12999476D01*
X13728809Y-13009000D01*
X13738333Y-13018524D01*
X13747857Y-13037571D01*
X13747857Y-13056619D01*
X13738333Y-13085190D01*
X13624048Y-13199476D01*
X13747857Y-13199476D01*
X13919286Y-13066143D02*
X13919286Y-13199476D01*
X13871667Y-12989952D02*
X13824048Y-13132809D01*
X13947857Y-13132809D01*
X14176428Y-13199476D02*
X14176428Y-12999476D01*
X14262143Y-13199476D02*
X14262143Y-13094714D01*
X14252619Y-13075667D01*
X14233571Y-13066143D01*
X14205000Y-13066143D01*
X14185952Y-13075667D01*
X14176428Y-13085190D01*
X14385952Y-13199476D02*
X14366905Y-13189952D01*
X14357381Y-13180428D01*
X14347857Y-13161381D01*
X14347857Y-13104238D01*
X14357381Y-13085190D01*
X14366905Y-13075667D01*
X14385952Y-13066143D01*
X14414524Y-13066143D01*
X14433571Y-13075667D01*
X14443095Y-13085190D01*
X14452619Y-13104238D01*
X14452619Y-13161381D01*
X14443095Y-13180428D01*
X14433571Y-13189952D01*
X14414524Y-13199476D01*
X14385952Y-13199476D01*
X14566905Y-13199476D02*
X14547857Y-13189952D01*
X14538333Y-13170905D01*
X14538333Y-12999476D01*
X14719286Y-13189952D02*
X14700238Y-13199476D01*
X14662143Y-13199476D01*
X14643095Y-13189952D01*
X14633571Y-13170905D01*
X14633571Y-13094714D01*
X14643095Y-13075667D01*
X14662143Y-13066143D01*
X14700238Y-13066143D01*
X14719286Y-13075667D01*
X14728809Y-13094714D01*
X14728809Y-13113762D01*
X14633571Y-13132809D01*
X14805000Y-13189952D02*
X14824048Y-13199476D01*
X14862143Y-13199476D01*
X14881190Y-13189952D01*
X14890714Y-13170905D01*
X14890714Y-13161381D01*
X14881190Y-13142333D01*
X14862143Y-13132809D01*
X14833571Y-13132809D01*
X14814524Y-13123286D01*
X14805000Y-13104238D01*
X14805000Y-13094714D01*
X14814524Y-13075667D01*
X14833571Y-13066143D01*
X14862143Y-13066143D01*
X14881190Y-13075667D01*
X14957381Y-13275667D02*
X14966905Y-13266143D01*
X14985952Y-13237571D01*
X14995476Y-13218524D01*
X15005000Y-13189952D01*
X15014524Y-13142333D01*
X15014524Y-13104238D01*
X15005000Y-13056619D01*
X14995476Y-13028048D01*
X14985952Y-13009000D01*
X14966905Y-12980428D01*
X14957381Y-12970905D01*
M02*
