%TF.GenerationSoftware,KiCad,Pcbnew,(6.0.7-1)-1*%
%TF.CreationDate,2022-10-12T15:16:09-04:00*%
%TF.ProjectId,Connection boardV1.0,436f6e6e-6563-4746-996f-6e20626f6172,rev?*%
%TF.SameCoordinates,Original*%
%TF.FileFunction,Drillmap*%
%TF.FilePolarity,Positive*%
%FSLAX45Y45*%
G04 Gerber Fmt 4.5, Leading zero omitted, Abs format (unit mm)*
G04 Created by KiCad (PCBNEW (6.0.7-1)-1) date 2022-10-12 15:16:09*
%MOMM*%
%LPD*%
G01*
G04 APERTURE LIST*
%ADD10C,0.100000*%
%ADD11C,0.200000*%
G04 APERTURE END LIST*
D10*
X10000000Y-12200000D02*
X10000000Y-10000000D01*
X11700000Y-10000000D02*
X10000000Y-10000000D01*
X11700000Y-12200000D02*
X10000000Y-12200000D01*
X11700000Y-10000000D02*
X11700000Y-12200000D01*
D11*
X10252619Y-12515476D02*
X10252619Y-12315476D01*
X10300238Y-12315476D01*
X10328810Y-12325000D01*
X10347857Y-12344048D01*
X10357381Y-12363095D01*
X10366905Y-12401190D01*
X10366905Y-12429762D01*
X10357381Y-12467857D01*
X10347857Y-12486905D01*
X10328810Y-12505952D01*
X10300238Y-12515476D01*
X10252619Y-12515476D01*
X10452619Y-12515476D02*
X10452619Y-12382143D01*
X10452619Y-12420238D02*
X10462143Y-12401190D01*
X10471667Y-12391667D01*
X10490714Y-12382143D01*
X10509762Y-12382143D01*
X10576429Y-12515476D02*
X10576429Y-12382143D01*
X10576429Y-12315476D02*
X10566905Y-12325000D01*
X10576429Y-12334524D01*
X10585952Y-12325000D01*
X10576429Y-12315476D01*
X10576429Y-12334524D01*
X10700238Y-12515476D02*
X10681190Y-12505952D01*
X10671667Y-12486905D01*
X10671667Y-12315476D01*
X10805000Y-12515476D02*
X10785952Y-12505952D01*
X10776429Y-12486905D01*
X10776429Y-12315476D01*
X11033571Y-12515476D02*
X11033571Y-12315476D01*
X11100238Y-12458333D01*
X11166905Y-12315476D01*
X11166905Y-12515476D01*
X11347857Y-12515476D02*
X11347857Y-12410714D01*
X11338333Y-12391667D01*
X11319286Y-12382143D01*
X11281190Y-12382143D01*
X11262143Y-12391667D01*
X11347857Y-12505952D02*
X11328809Y-12515476D01*
X11281190Y-12515476D01*
X11262143Y-12505952D01*
X11252619Y-12486905D01*
X11252619Y-12467857D01*
X11262143Y-12448809D01*
X11281190Y-12439286D01*
X11328809Y-12439286D01*
X11347857Y-12429762D01*
X11443095Y-12382143D02*
X11443095Y-12582143D01*
X11443095Y-12391667D02*
X11462143Y-12382143D01*
X11500238Y-12382143D01*
X11519286Y-12391667D01*
X11528809Y-12401190D01*
X11538333Y-12420238D01*
X11538333Y-12477381D01*
X11528809Y-12496428D01*
X11519286Y-12505952D01*
X11500238Y-12515476D01*
X11462143Y-12515476D01*
X11443095Y-12505952D01*
X11624048Y-12496428D02*
X11633571Y-12505952D01*
X11624048Y-12515476D01*
X11614524Y-12505952D01*
X11624048Y-12496428D01*
X11624048Y-12515476D01*
X11624048Y-12391667D02*
X11633571Y-12401190D01*
X11624048Y-12410714D01*
X11614524Y-12401190D01*
X11624048Y-12391667D01*
X11624048Y-12410714D01*
M02*
