%TF.GenerationSoftware,KiCad,Pcbnew,(6.0.7-1)-1*%
%TF.CreationDate,2022-10-12T15:16:06-04:00*%
%TF.ProjectId,Connection boardV1.0,436f6e6e-6563-4746-996f-6e20626f6172,rev?*%
%TF.SameCoordinates,Original*%
%TF.FileFunction,Legend,Top*%
%TF.FilePolarity,Positive*%
%FSLAX46Y46*%
G04 Gerber Fmt 4.6, Leading zero omitted, Abs format (unit mm)*
G04 Created by KiCad (PCBNEW (6.0.7-1)-1) date 2022-10-12 15:16:06*
%MOMM*%
%LPD*%
G01*
G04 APERTURE LIST*
%ADD10C,0.100000*%
G04 APERTURE END LIST*
D10*
X107589990Y-108451638D02*
X107589990Y-108689733D01*
X107828085Y-108713542D01*
X107804276Y-108689733D01*
X107780466Y-108642114D01*
X107780466Y-108523066D01*
X107804276Y-108475447D01*
X107828085Y-108451638D01*
X107875704Y-108427828D01*
X107994752Y-108427828D01*
X108042371Y-108451638D01*
X108066180Y-108475447D01*
X108089990Y-108523066D01*
X108089990Y-108642114D01*
X108066180Y-108689733D01*
X108042371Y-108713542D01*
X107589990Y-108284971D02*
X108089990Y-108118304D01*
X107589990Y-107951638D01*
X115921190Y-116808238D02*
X115921190Y-117046333D01*
X116159285Y-117070142D01*
X116135476Y-117046333D01*
X116111666Y-116998714D01*
X116111666Y-116879666D01*
X116135476Y-116832047D01*
X116159285Y-116808238D01*
X116206904Y-116784428D01*
X116325952Y-116784428D01*
X116373571Y-116808238D01*
X116397380Y-116832047D01*
X116421190Y-116879666D01*
X116421190Y-116998714D01*
X116397380Y-117046333D01*
X116373571Y-117070142D01*
X115921190Y-116641571D02*
X116421190Y-116474904D01*
X115921190Y-116308238D01*
X107488390Y-116909838D02*
X107488390Y-117147933D01*
X107726485Y-117171742D01*
X107702676Y-117147933D01*
X107678866Y-117100314D01*
X107678866Y-116981266D01*
X107702676Y-116933647D01*
X107726485Y-116909838D01*
X107774104Y-116886028D01*
X107893152Y-116886028D01*
X107940771Y-116909838D01*
X107964580Y-116933647D01*
X107988390Y-116981266D01*
X107988390Y-117100314D01*
X107964580Y-117147933D01*
X107940771Y-117171742D01*
X107488390Y-116743171D02*
X107988390Y-116576504D01*
X107488390Y-116409838D01*
X108885390Y-120065704D02*
X109385390Y-119899038D01*
X108885390Y-119732371D01*
X108885390Y-119613323D02*
X108885390Y-119303800D01*
X109075866Y-119470466D01*
X109075866Y-119399038D01*
X109099676Y-119351419D01*
X109123485Y-119327609D01*
X109171104Y-119303800D01*
X109290152Y-119303800D01*
X109337771Y-119327609D01*
X109361580Y-119351419D01*
X109385390Y-119399038D01*
X109385390Y-119541895D01*
X109361580Y-119589514D01*
X109337771Y-119613323D01*
X109337771Y-119089514D02*
X109361580Y-119065704D01*
X109385390Y-119089514D01*
X109361580Y-119113323D01*
X109337771Y-119089514D01*
X109385390Y-119089514D01*
X108885390Y-118899038D02*
X108885390Y-118589514D01*
X109075866Y-118756180D01*
X109075866Y-118684752D01*
X109099676Y-118637133D01*
X109123485Y-118613323D01*
X109171104Y-118589514D01*
X109290152Y-118589514D01*
X109337771Y-118613323D01*
X109361580Y-118637133D01*
X109385390Y-118684752D01*
X109385390Y-118827609D01*
X109361580Y-118875228D01*
X109337771Y-118899038D01*
X100554190Y-108991304D02*
X101054190Y-108824638D01*
X100554190Y-108657971D01*
X100554190Y-108538923D02*
X100554190Y-108229400D01*
X100744666Y-108396066D01*
X100744666Y-108324638D01*
X100768476Y-108277019D01*
X100792285Y-108253209D01*
X100839904Y-108229400D01*
X100958952Y-108229400D01*
X101006571Y-108253209D01*
X101030380Y-108277019D01*
X101054190Y-108324638D01*
X101054190Y-108467495D01*
X101030380Y-108515114D01*
X101006571Y-108538923D01*
X101006571Y-108015114D02*
X101030380Y-107991304D01*
X101054190Y-108015114D01*
X101030380Y-108038923D01*
X101006571Y-108015114D01*
X101054190Y-108015114D01*
X100554190Y-107824638D02*
X100554190Y-107515114D01*
X100744666Y-107681780D01*
X100744666Y-107610352D01*
X100768476Y-107562733D01*
X100792285Y-107538923D01*
X100839904Y-107515114D01*
X100958952Y-107515114D01*
X101006571Y-107538923D01*
X101030380Y-107562733D01*
X101054190Y-107610352D01*
X101054190Y-107753209D01*
X101030380Y-107800828D01*
X101006571Y-107824638D01*
X109310780Y-103465238D02*
X109334590Y-103393809D01*
X109334590Y-103274761D01*
X109310780Y-103227142D01*
X109286971Y-103203333D01*
X109239352Y-103179523D01*
X109191733Y-103179523D01*
X109144114Y-103203333D01*
X109120304Y-103227142D01*
X109096495Y-103274761D01*
X109072685Y-103370000D01*
X109048876Y-103417619D01*
X109025066Y-103441428D01*
X108977447Y-103465238D01*
X108929828Y-103465238D01*
X108882209Y-103441428D01*
X108858400Y-103417619D01*
X108834590Y-103370000D01*
X108834590Y-103250952D01*
X108858400Y-103179523D01*
X109286971Y-102679523D02*
X109310780Y-102703333D01*
X109334590Y-102774761D01*
X109334590Y-102822380D01*
X109310780Y-102893809D01*
X109263161Y-102941428D01*
X109215542Y-102965238D01*
X109120304Y-102989047D01*
X109048876Y-102989047D01*
X108953638Y-102965238D01*
X108906019Y-102941428D01*
X108858400Y-102893809D01*
X108834590Y-102822380D01*
X108834590Y-102774761D01*
X108858400Y-102703333D01*
X108882209Y-102679523D01*
X109334590Y-102227142D02*
X109334590Y-102465238D01*
X108834590Y-102465238D01*
X100452590Y-120167304D02*
X100952590Y-120000638D01*
X100452590Y-119833971D01*
X100452590Y-119714923D02*
X100452590Y-119405400D01*
X100643066Y-119572066D01*
X100643066Y-119500638D01*
X100666876Y-119453019D01*
X100690685Y-119429209D01*
X100738304Y-119405400D01*
X100857352Y-119405400D01*
X100904971Y-119429209D01*
X100928780Y-119453019D01*
X100952590Y-119500638D01*
X100952590Y-119643495D01*
X100928780Y-119691114D01*
X100904971Y-119714923D01*
X100904971Y-119191114D02*
X100928780Y-119167304D01*
X100952590Y-119191114D01*
X100928780Y-119214923D01*
X100904971Y-119191114D01*
X100952590Y-119191114D01*
X100452590Y-119000638D02*
X100452590Y-118691114D01*
X100643066Y-118857780D01*
X100643066Y-118786352D01*
X100666876Y-118738733D01*
X100690685Y-118714923D01*
X100738304Y-118691114D01*
X100857352Y-118691114D01*
X100904971Y-118714923D01*
X100928780Y-118738733D01*
X100952590Y-118786352D01*
X100952590Y-118929209D01*
X100928780Y-118976828D01*
X100904971Y-119000638D01*
X115945000Y-114401552D02*
X115921190Y-114449171D01*
X115921190Y-114520600D01*
X115945000Y-114592028D01*
X115992619Y-114639647D01*
X116040238Y-114663457D01*
X116135476Y-114687266D01*
X116206904Y-114687266D01*
X116302142Y-114663457D01*
X116349761Y-114639647D01*
X116397380Y-114592028D01*
X116421190Y-114520600D01*
X116421190Y-114472980D01*
X116397380Y-114401552D01*
X116373571Y-114377742D01*
X116206904Y-114377742D01*
X116206904Y-114472980D01*
X116421190Y-114163457D02*
X115921190Y-114163457D01*
X116421190Y-113877742D01*
X115921190Y-113877742D01*
X116421190Y-113639647D02*
X115921190Y-113639647D01*
X115921190Y-113520600D01*
X115945000Y-113449171D01*
X115992619Y-113401552D01*
X116040238Y-113377742D01*
X116135476Y-113353933D01*
X116206904Y-113353933D01*
X116302142Y-113377742D01*
X116349761Y-113401552D01*
X116397380Y-113449171D01*
X116421190Y-113520600D01*
X116421190Y-113639647D01*
X107613800Y-103327152D02*
X107589990Y-103374771D01*
X107589990Y-103446200D01*
X107613800Y-103517628D01*
X107661419Y-103565247D01*
X107709038Y-103589057D01*
X107804276Y-103612866D01*
X107875704Y-103612866D01*
X107970942Y-103589057D01*
X108018561Y-103565247D01*
X108066180Y-103517628D01*
X108089990Y-103446200D01*
X108089990Y-103398580D01*
X108066180Y-103327152D01*
X108042371Y-103303342D01*
X107875704Y-103303342D01*
X107875704Y-103398580D01*
X108089990Y-103089057D02*
X107589990Y-103089057D01*
X108089990Y-102803342D01*
X107589990Y-102803342D01*
X108089990Y-102565247D02*
X107589990Y-102565247D01*
X107589990Y-102446200D01*
X107613800Y-102374771D01*
X107661419Y-102327152D01*
X107709038Y-102303342D01*
X107804276Y-102279533D01*
X107875704Y-102279533D01*
X107970942Y-102303342D01*
X108018561Y-102327152D01*
X108066180Y-102374771D01*
X108089990Y-102446200D01*
X108089990Y-102565247D01*
X115870390Y-105683038D02*
X115870390Y-105921133D01*
X116108485Y-105944942D01*
X116084676Y-105921133D01*
X116060866Y-105873514D01*
X116060866Y-105754466D01*
X116084676Y-105706847D01*
X116108485Y-105683038D01*
X116156104Y-105659228D01*
X116275152Y-105659228D01*
X116322771Y-105683038D01*
X116346580Y-105706847D01*
X116370390Y-105754466D01*
X116370390Y-105873514D01*
X116346580Y-105921133D01*
X116322771Y-105944942D01*
X115870390Y-105516371D02*
X116370390Y-105349704D01*
X115870390Y-105183038D01*
X107589990Y-105733838D02*
X107589990Y-105971933D01*
X107828085Y-105995742D01*
X107804276Y-105971933D01*
X107780466Y-105924314D01*
X107780466Y-105805266D01*
X107804276Y-105757647D01*
X107828085Y-105733838D01*
X107875704Y-105710028D01*
X107994752Y-105710028D01*
X108042371Y-105733838D01*
X108066180Y-105757647D01*
X108089990Y-105805266D01*
X108089990Y-105924314D01*
X108066180Y-105971933D01*
X108042371Y-105995742D01*
X107589990Y-105567171D02*
X108089990Y-105400504D01*
X107589990Y-105233838D01*
X100928780Y-117472542D02*
X100952590Y-117401114D01*
X100952590Y-117282066D01*
X100928780Y-117234447D01*
X100904971Y-117210638D01*
X100857352Y-117186828D01*
X100809733Y-117186828D01*
X100762114Y-117210638D01*
X100738304Y-117234447D01*
X100714495Y-117282066D01*
X100690685Y-117377304D01*
X100666876Y-117424923D01*
X100643066Y-117448733D01*
X100595447Y-117472542D01*
X100547828Y-117472542D01*
X100500209Y-117448733D01*
X100476400Y-117424923D01*
X100452590Y-117377304D01*
X100452590Y-117258257D01*
X100476400Y-117186828D01*
X100952590Y-116972542D02*
X100452590Y-116972542D01*
X100452590Y-116853495D01*
X100476400Y-116782066D01*
X100524019Y-116734447D01*
X100571638Y-116710638D01*
X100666876Y-116686828D01*
X100738304Y-116686828D01*
X100833542Y-116710638D01*
X100881161Y-116734447D01*
X100928780Y-116782066D01*
X100952590Y-116853495D01*
X100952590Y-116972542D01*
X100809733Y-116496352D02*
X100809733Y-116258257D01*
X100952590Y-116543971D02*
X100452590Y-116377304D01*
X100952590Y-116210638D01*
X101030380Y-106296542D02*
X101054190Y-106225114D01*
X101054190Y-106106066D01*
X101030380Y-106058447D01*
X101006571Y-106034638D01*
X100958952Y-106010828D01*
X100911333Y-106010828D01*
X100863714Y-106034638D01*
X100839904Y-106058447D01*
X100816095Y-106106066D01*
X100792285Y-106201304D01*
X100768476Y-106248923D01*
X100744666Y-106272733D01*
X100697047Y-106296542D01*
X100649428Y-106296542D01*
X100601809Y-106272733D01*
X100578000Y-106248923D01*
X100554190Y-106201304D01*
X100554190Y-106082257D01*
X100578000Y-106010828D01*
X101054190Y-105796542D02*
X100554190Y-105796542D01*
X100554190Y-105677495D01*
X100578000Y-105606066D01*
X100625619Y-105558447D01*
X100673238Y-105534638D01*
X100768476Y-105510828D01*
X100839904Y-105510828D01*
X100935142Y-105534638D01*
X100982761Y-105558447D01*
X101030380Y-105606066D01*
X101054190Y-105677495D01*
X101054190Y-105796542D01*
X100911333Y-105320352D02*
X100911333Y-105082257D01*
X101054190Y-105367971D02*
X100554190Y-105201304D01*
X101054190Y-105034638D01*
X107512200Y-114503152D02*
X107488390Y-114550771D01*
X107488390Y-114622200D01*
X107512200Y-114693628D01*
X107559819Y-114741247D01*
X107607438Y-114765057D01*
X107702676Y-114788866D01*
X107774104Y-114788866D01*
X107869342Y-114765057D01*
X107916961Y-114741247D01*
X107964580Y-114693628D01*
X107988390Y-114622200D01*
X107988390Y-114574580D01*
X107964580Y-114503152D01*
X107940771Y-114479342D01*
X107774104Y-114479342D01*
X107774104Y-114574580D01*
X107988390Y-114265057D02*
X107488390Y-114265057D01*
X107988390Y-113979342D01*
X107488390Y-113979342D01*
X107988390Y-113741247D02*
X107488390Y-113741247D01*
X107488390Y-113622200D01*
X107512200Y-113550771D01*
X107559819Y-113503152D01*
X107607438Y-113479342D01*
X107702676Y-113455533D01*
X107774104Y-113455533D01*
X107869342Y-113479342D01*
X107916961Y-113503152D01*
X107964580Y-113550771D01*
X107988390Y-113622200D01*
X107988390Y-113741247D01*
X101030380Y-103516038D02*
X101054190Y-103444609D01*
X101054190Y-103325561D01*
X101030380Y-103277942D01*
X101006571Y-103254133D01*
X100958952Y-103230323D01*
X100911333Y-103230323D01*
X100863714Y-103254133D01*
X100839904Y-103277942D01*
X100816095Y-103325561D01*
X100792285Y-103420800D01*
X100768476Y-103468419D01*
X100744666Y-103492228D01*
X100697047Y-103516038D01*
X100649428Y-103516038D01*
X100601809Y-103492228D01*
X100578000Y-103468419D01*
X100554190Y-103420800D01*
X100554190Y-103301752D01*
X100578000Y-103230323D01*
X101006571Y-102730323D02*
X101030380Y-102754133D01*
X101054190Y-102825561D01*
X101054190Y-102873180D01*
X101030380Y-102944609D01*
X100982761Y-102992228D01*
X100935142Y-103016038D01*
X100839904Y-103039847D01*
X100768476Y-103039847D01*
X100673238Y-103016038D01*
X100625619Y-102992228D01*
X100578000Y-102944609D01*
X100554190Y-102873180D01*
X100554190Y-102825561D01*
X100578000Y-102754133D01*
X100601809Y-102730323D01*
X101054190Y-102277942D02*
X101054190Y-102516038D01*
X100554190Y-102516038D01*
X115921190Y-119526038D02*
X115921190Y-119764133D01*
X116159285Y-119787942D01*
X116135476Y-119764133D01*
X116111666Y-119716514D01*
X116111666Y-119597466D01*
X116135476Y-119549847D01*
X116159285Y-119526038D01*
X116206904Y-119502228D01*
X116325952Y-119502228D01*
X116373571Y-119526038D01*
X116397380Y-119549847D01*
X116421190Y-119597466D01*
X116421190Y-119716514D01*
X116397380Y-119764133D01*
X116373571Y-119787942D01*
X115921190Y-119359371D02*
X116421190Y-119192704D01*
X115921190Y-119026038D01*
X109310780Y-106245742D02*
X109334590Y-106174314D01*
X109334590Y-106055266D01*
X109310780Y-106007647D01*
X109286971Y-105983838D01*
X109239352Y-105960028D01*
X109191733Y-105960028D01*
X109144114Y-105983838D01*
X109120304Y-106007647D01*
X109096495Y-106055266D01*
X109072685Y-106150504D01*
X109048876Y-106198123D01*
X109025066Y-106221933D01*
X108977447Y-106245742D01*
X108929828Y-106245742D01*
X108882209Y-106221933D01*
X108858400Y-106198123D01*
X108834590Y-106150504D01*
X108834590Y-106031457D01*
X108858400Y-105960028D01*
X109334590Y-105745742D02*
X108834590Y-105745742D01*
X108834590Y-105626695D01*
X108858400Y-105555266D01*
X108906019Y-105507647D01*
X108953638Y-105483838D01*
X109048876Y-105460028D01*
X109120304Y-105460028D01*
X109215542Y-105483838D01*
X109263161Y-105507647D01*
X109310780Y-105555266D01*
X109334590Y-105626695D01*
X109334590Y-105745742D01*
X109191733Y-105269552D02*
X109191733Y-105031457D01*
X109334590Y-105317171D02*
X108834590Y-105150504D01*
X109334590Y-104983838D01*
X115894200Y-103276352D02*
X115870390Y-103323971D01*
X115870390Y-103395400D01*
X115894200Y-103466828D01*
X115941819Y-103514447D01*
X115989438Y-103538257D01*
X116084676Y-103562066D01*
X116156104Y-103562066D01*
X116251342Y-103538257D01*
X116298961Y-103514447D01*
X116346580Y-103466828D01*
X116370390Y-103395400D01*
X116370390Y-103347780D01*
X116346580Y-103276352D01*
X116322771Y-103252542D01*
X116156104Y-103252542D01*
X116156104Y-103347780D01*
X116370390Y-103038257D02*
X115870390Y-103038257D01*
X116370390Y-102752542D01*
X115870390Y-102752542D01*
X116370390Y-102514447D02*
X115870390Y-102514447D01*
X115870390Y-102395400D01*
X115894200Y-102323971D01*
X115941819Y-102276352D01*
X115989438Y-102252542D01*
X116084676Y-102228733D01*
X116156104Y-102228733D01*
X116251342Y-102252542D01*
X116298961Y-102276352D01*
X116346580Y-102323971D01*
X116370390Y-102395400D01*
X116370390Y-102514447D01*
X115870390Y-108400838D02*
X115870390Y-108638933D01*
X116108485Y-108662742D01*
X116084676Y-108638933D01*
X116060866Y-108591314D01*
X116060866Y-108472266D01*
X116084676Y-108424647D01*
X116108485Y-108400838D01*
X116156104Y-108377028D01*
X116275152Y-108377028D01*
X116322771Y-108400838D01*
X116346580Y-108424647D01*
X116370390Y-108472266D01*
X116370390Y-108591314D01*
X116346580Y-108638933D01*
X116322771Y-108662742D01*
X115870390Y-108234171D02*
X116370390Y-108067504D01*
X115870390Y-107900838D01*
X107488390Y-119627638D02*
X107488390Y-119865733D01*
X107726485Y-119889542D01*
X107702676Y-119865733D01*
X107678866Y-119818114D01*
X107678866Y-119699066D01*
X107702676Y-119651447D01*
X107726485Y-119627638D01*
X107774104Y-119603828D01*
X107893152Y-119603828D01*
X107940771Y-119627638D01*
X107964580Y-119651447D01*
X107988390Y-119699066D01*
X107988390Y-119818114D01*
X107964580Y-119865733D01*
X107940771Y-119889542D01*
X107488390Y-119460971D02*
X107988390Y-119294304D01*
X107488390Y-119127638D01*
X109361580Y-114590438D02*
X109385390Y-114519009D01*
X109385390Y-114399961D01*
X109361580Y-114352342D01*
X109337771Y-114328533D01*
X109290152Y-114304723D01*
X109242533Y-114304723D01*
X109194914Y-114328533D01*
X109171104Y-114352342D01*
X109147295Y-114399961D01*
X109123485Y-114495200D01*
X109099676Y-114542819D01*
X109075866Y-114566628D01*
X109028247Y-114590438D01*
X108980628Y-114590438D01*
X108933009Y-114566628D01*
X108909200Y-114542819D01*
X108885390Y-114495200D01*
X108885390Y-114376152D01*
X108909200Y-114304723D01*
X109337771Y-113804723D02*
X109361580Y-113828533D01*
X109385390Y-113899961D01*
X109385390Y-113947580D01*
X109361580Y-114019009D01*
X109313961Y-114066628D01*
X109266342Y-114090438D01*
X109171104Y-114114247D01*
X109099676Y-114114247D01*
X109004438Y-114090438D01*
X108956819Y-114066628D01*
X108909200Y-114019009D01*
X108885390Y-113947580D01*
X108885390Y-113899961D01*
X108909200Y-113828533D01*
X108933009Y-113804723D01*
X109385390Y-113352342D02*
X109385390Y-113590438D01*
X108885390Y-113590438D01*
X100928780Y-114692038D02*
X100952590Y-114620609D01*
X100952590Y-114501561D01*
X100928780Y-114453942D01*
X100904971Y-114430133D01*
X100857352Y-114406323D01*
X100809733Y-114406323D01*
X100762114Y-114430133D01*
X100738304Y-114453942D01*
X100714495Y-114501561D01*
X100690685Y-114596800D01*
X100666876Y-114644419D01*
X100643066Y-114668228D01*
X100595447Y-114692038D01*
X100547828Y-114692038D01*
X100500209Y-114668228D01*
X100476400Y-114644419D01*
X100452590Y-114596800D01*
X100452590Y-114477752D01*
X100476400Y-114406323D01*
X100904971Y-113906323D02*
X100928780Y-113930133D01*
X100952590Y-114001561D01*
X100952590Y-114049180D01*
X100928780Y-114120609D01*
X100881161Y-114168228D01*
X100833542Y-114192038D01*
X100738304Y-114215847D01*
X100666876Y-114215847D01*
X100571638Y-114192038D01*
X100524019Y-114168228D01*
X100476400Y-114120609D01*
X100452590Y-114049180D01*
X100452590Y-114001561D01*
X100476400Y-113930133D01*
X100500209Y-113906323D01*
X100952590Y-113453942D02*
X100952590Y-113692038D01*
X100452590Y-113692038D01*
X109361580Y-117370942D02*
X109385390Y-117299514D01*
X109385390Y-117180466D01*
X109361580Y-117132847D01*
X109337771Y-117109038D01*
X109290152Y-117085228D01*
X109242533Y-117085228D01*
X109194914Y-117109038D01*
X109171104Y-117132847D01*
X109147295Y-117180466D01*
X109123485Y-117275704D01*
X109099676Y-117323323D01*
X109075866Y-117347133D01*
X109028247Y-117370942D01*
X108980628Y-117370942D01*
X108933009Y-117347133D01*
X108909200Y-117323323D01*
X108885390Y-117275704D01*
X108885390Y-117156657D01*
X108909200Y-117085228D01*
X109385390Y-116870942D02*
X108885390Y-116870942D01*
X108885390Y-116751895D01*
X108909200Y-116680466D01*
X108956819Y-116632847D01*
X109004438Y-116609038D01*
X109099676Y-116585228D01*
X109171104Y-116585228D01*
X109266342Y-116609038D01*
X109313961Y-116632847D01*
X109361580Y-116680466D01*
X109385390Y-116751895D01*
X109385390Y-116870942D01*
X109242533Y-116394752D02*
X109242533Y-116156657D01*
X109385390Y-116442371D02*
X108885390Y-116275704D01*
X109385390Y-116109038D01*
X108834590Y-108940504D02*
X109334590Y-108773838D01*
X108834590Y-108607171D01*
X108834590Y-108488123D02*
X108834590Y-108178600D01*
X109025066Y-108345266D01*
X109025066Y-108273838D01*
X109048876Y-108226219D01*
X109072685Y-108202409D01*
X109120304Y-108178600D01*
X109239352Y-108178600D01*
X109286971Y-108202409D01*
X109310780Y-108226219D01*
X109334590Y-108273838D01*
X109334590Y-108416695D01*
X109310780Y-108464314D01*
X109286971Y-108488123D01*
X109286971Y-107964314D02*
X109310780Y-107940504D01*
X109334590Y-107964314D01*
X109310780Y-107988123D01*
X109286971Y-107964314D01*
X109334590Y-107964314D01*
X108834590Y-107773838D02*
X108834590Y-107464314D01*
X109025066Y-107630980D01*
X109025066Y-107559552D01*
X109048876Y-107511933D01*
X109072685Y-107488123D01*
X109120304Y-107464314D01*
X109239352Y-107464314D01*
X109286971Y-107488123D01*
X109310780Y-107511933D01*
X109334590Y-107559552D01*
X109334590Y-107702409D01*
X109310780Y-107750028D01*
X109286971Y-107773838D01*
%TO.C,Temple EECE*%
X110191847Y-110571790D02*
X110477561Y-110571790D01*
X110334704Y-111071790D02*
X110334704Y-110571790D01*
X110834704Y-111047980D02*
X110787085Y-111071790D01*
X110691847Y-111071790D01*
X110644228Y-111047980D01*
X110620419Y-111000361D01*
X110620419Y-110809885D01*
X110644228Y-110762266D01*
X110691847Y-110738457D01*
X110787085Y-110738457D01*
X110834704Y-110762266D01*
X110858514Y-110809885D01*
X110858514Y-110857504D01*
X110620419Y-110905123D01*
X111072800Y-111071790D02*
X111072800Y-110738457D01*
X111072800Y-110786076D02*
X111096609Y-110762266D01*
X111144228Y-110738457D01*
X111215657Y-110738457D01*
X111263276Y-110762266D01*
X111287085Y-110809885D01*
X111287085Y-111071790D01*
X111287085Y-110809885D02*
X111310895Y-110762266D01*
X111358514Y-110738457D01*
X111429942Y-110738457D01*
X111477561Y-110762266D01*
X111501371Y-110809885D01*
X111501371Y-111071790D01*
X111739466Y-110738457D02*
X111739466Y-111238457D01*
X111739466Y-110762266D02*
X111787085Y-110738457D01*
X111882323Y-110738457D01*
X111929942Y-110762266D01*
X111953752Y-110786076D01*
X111977561Y-110833695D01*
X111977561Y-110976552D01*
X111953752Y-111024171D01*
X111929942Y-111047980D01*
X111882323Y-111071790D01*
X111787085Y-111071790D01*
X111739466Y-111047980D01*
X112263276Y-111071790D02*
X112215657Y-111047980D01*
X112191847Y-111000361D01*
X112191847Y-110571790D01*
X112644228Y-111047980D02*
X112596609Y-111071790D01*
X112501371Y-111071790D01*
X112453752Y-111047980D01*
X112429942Y-111000361D01*
X112429942Y-110809885D01*
X112453752Y-110762266D01*
X112501371Y-110738457D01*
X112596609Y-110738457D01*
X112644228Y-110762266D01*
X112668038Y-110809885D01*
X112668038Y-110857504D01*
X112429942Y-110905123D01*
X113263276Y-110809885D02*
X113429942Y-110809885D01*
X113501371Y-111071790D02*
X113263276Y-111071790D01*
X113263276Y-110571790D01*
X113501371Y-110571790D01*
X113715657Y-110809885D02*
X113882323Y-110809885D01*
X113953752Y-111071790D02*
X113715657Y-111071790D01*
X113715657Y-110571790D01*
X113953752Y-110571790D01*
X114453752Y-111024171D02*
X114429942Y-111047980D01*
X114358514Y-111071790D01*
X114310895Y-111071790D01*
X114239466Y-111047980D01*
X114191847Y-111000361D01*
X114168038Y-110952742D01*
X114144228Y-110857504D01*
X114144228Y-110786076D01*
X114168038Y-110690838D01*
X114191847Y-110643219D01*
X114239466Y-110595600D01*
X114310895Y-110571790D01*
X114358514Y-110571790D01*
X114429942Y-110595600D01*
X114453752Y-110619409D01*
X114668038Y-110809885D02*
X114834704Y-110809885D01*
X114906133Y-111071790D02*
X114668038Y-111071790D01*
X114668038Y-110571790D01*
X114906133Y-110571790D01*
%TO.C,J3*%
X112543533Y-111634990D02*
X112543533Y-111992133D01*
X112519723Y-112063561D01*
X112472104Y-112111180D01*
X112400676Y-112134990D01*
X112353057Y-112134990D01*
X112734009Y-111634990D02*
X113043533Y-111634990D01*
X112876866Y-111825466D01*
X112948295Y-111825466D01*
X112995914Y-111849276D01*
X113019723Y-111873085D01*
X113043533Y-111920704D01*
X113043533Y-112039752D01*
X113019723Y-112087371D01*
X112995914Y-112111180D01*
X112948295Y-112134990D01*
X112805438Y-112134990D01*
X112757819Y-112111180D01*
X112734009Y-112087371D01*
%TO.C,J2*%
X112467333Y-100382790D02*
X112467333Y-100739933D01*
X112443523Y-100811361D01*
X112395904Y-100858980D01*
X112324476Y-100882790D01*
X112276857Y-100882790D01*
X112681619Y-100430409D02*
X112705428Y-100406600D01*
X112753047Y-100382790D01*
X112872095Y-100382790D01*
X112919714Y-100406600D01*
X112943523Y-100430409D01*
X112967333Y-100478028D01*
X112967333Y-100525647D01*
X112943523Y-100597076D01*
X112657809Y-100882790D01*
X112967333Y-100882790D01*
%TO.C,J1*%
X104141133Y-100393190D02*
X104141133Y-100750333D01*
X104117323Y-100821761D01*
X104069704Y-100869380D01*
X103998276Y-100893190D01*
X103950657Y-100893190D01*
X104641133Y-100893190D02*
X104355419Y-100893190D01*
X104498276Y-100893190D02*
X104498276Y-100393190D01*
X104450657Y-100464619D01*
X104403038Y-100512238D01*
X104355419Y-100536047D01*
%TO.C,J4*%
X104085333Y-111634990D02*
X104085333Y-111992133D01*
X104061523Y-112063561D01*
X104013904Y-112111180D01*
X103942476Y-112134990D01*
X103894857Y-112134990D01*
X104537714Y-111801657D02*
X104537714Y-112134990D01*
X104418666Y-111611180D02*
X104299619Y-111968323D01*
X104609142Y-111968323D01*
%TO.C,Temple EECE*%
G36*
X109159515Y-110201115D02*
G01*
X109091333Y-110201115D01*
X109091333Y-110132933D01*
X109159515Y-110132933D01*
X109159515Y-110201115D01*
G37*
G36*
X109293171Y-110166645D02*
G01*
X109293289Y-110179458D01*
X109293345Y-110194047D01*
X109293340Y-110209159D01*
X109293273Y-110223540D01*
X109293170Y-110234069D01*
X109292735Y-110267781D01*
X109224666Y-110267781D01*
X109224666Y-110132933D01*
X109292737Y-110132933D01*
X109293171Y-110166645D01*
G37*
G36*
X109293171Y-109766645D02*
G01*
X109293289Y-109779458D01*
X109293345Y-109794047D01*
X109293340Y-109809159D01*
X109293273Y-109823540D01*
X109293170Y-109834069D01*
X109292735Y-109867781D01*
X109224666Y-109867781D01*
X109224666Y-109801054D01*
X109160272Y-109801872D01*
X109159864Y-109834827D01*
X109159456Y-109867781D01*
X109091333Y-109867781D01*
X109091333Y-109732933D01*
X109292737Y-109732933D01*
X109293171Y-109766645D01*
G37*
G36*
X109692848Y-110266266D02*
G01*
X109692848Y-110332933D01*
X109826181Y-110332933D01*
X109826181Y-110401115D01*
X109793606Y-110401159D01*
X109781447Y-110401173D01*
X109767418Y-110401186D01*
X109752680Y-110401195D01*
X109738393Y-110401202D01*
X109726181Y-110401204D01*
X109713337Y-110401201D01*
X109698852Y-110401195D01*
X109683909Y-110401185D01*
X109669693Y-110401173D01*
X109658000Y-110401159D01*
X109624666Y-110401115D01*
X109624666Y-110334388D01*
X109560272Y-110335206D01*
X109559534Y-110466266D01*
X109626181Y-110466266D01*
X109626181Y-110532933D01*
X109691333Y-110532933D01*
X109691333Y-110466266D01*
X109826181Y-110466266D01*
X109826181Y-110534389D01*
X109793227Y-110534797D01*
X109760272Y-110535206D01*
X109759454Y-110599600D01*
X109826181Y-110599600D01*
X109826181Y-110667669D01*
X109792469Y-110668104D01*
X109779656Y-110668222D01*
X109765067Y-110668278D01*
X109749955Y-110668273D01*
X109735574Y-110668207D01*
X109725045Y-110668105D01*
X109691333Y-110667671D01*
X109691333Y-110601054D01*
X109626939Y-110601872D01*
X109626583Y-110700736D01*
X109626228Y-110799600D01*
X109692848Y-110799600D01*
X109692848Y-110866266D01*
X109826181Y-110866266D01*
X109826181Y-110934448D01*
X109793227Y-110934489D01*
X109785790Y-110934502D01*
X109775695Y-110934524D01*
X109763314Y-110934555D01*
X109749018Y-110934593D01*
X109733181Y-110934638D01*
X109716174Y-110934689D01*
X109698370Y-110934744D01*
X109680139Y-110934802D01*
X109661855Y-110934862D01*
X109660272Y-110934868D01*
X109560272Y-110935206D01*
X109559454Y-110999600D01*
X109626181Y-110999600D01*
X109626181Y-111066266D01*
X109691333Y-111066266D01*
X109691333Y-110999600D01*
X109826181Y-110999600D01*
X109826237Y-111033312D01*
X109826264Y-111054201D01*
X109826275Y-111074543D01*
X109826270Y-111094120D01*
X109826252Y-111112717D01*
X109826221Y-111130117D01*
X109826176Y-111146104D01*
X109826120Y-111160463D01*
X109826053Y-111172976D01*
X109825975Y-111183427D01*
X109825888Y-111191601D01*
X109825792Y-111197281D01*
X109825688Y-111200251D01*
X109825636Y-111200650D01*
X109824073Y-111200743D01*
X109819732Y-111200842D01*
X109812867Y-111200943D01*
X109803728Y-111201045D01*
X109792570Y-111201146D01*
X109779644Y-111201243D01*
X109765203Y-111201334D01*
X109749500Y-111201418D01*
X109732787Y-111201491D01*
X109726032Y-111201517D01*
X109626939Y-111201872D01*
X109626570Y-111267403D01*
X109626201Y-111332933D01*
X109692848Y-111332933D01*
X109692848Y-111401056D01*
X109659893Y-111401464D01*
X109626939Y-111401872D01*
X109626531Y-111434827D01*
X109626122Y-111467781D01*
X109593197Y-111467848D01*
X109580607Y-111467887D01*
X109566233Y-111467953D01*
X109551322Y-111468040D01*
X109537121Y-111468140D01*
X109526939Y-111468227D01*
X109493606Y-111468539D01*
X109492788Y-111532933D01*
X109626181Y-111532933D01*
X109626181Y-111599600D01*
X109692848Y-111599600D01*
X109692848Y-111666266D01*
X109826181Y-111666266D01*
X109826181Y-111734335D01*
X109792469Y-111734770D01*
X109779656Y-111734888D01*
X109765067Y-111734945D01*
X109749955Y-111734940D01*
X109735574Y-111734874D01*
X109725045Y-111734771D01*
X109691333Y-111734337D01*
X109691333Y-111667721D01*
X109626939Y-111668539D01*
X109626531Y-111701464D01*
X109626122Y-111734389D01*
X109593197Y-111734797D01*
X109560272Y-111735206D01*
X109559454Y-111799600D01*
X109626181Y-111799600D01*
X109626181Y-111866266D01*
X109692848Y-111866266D01*
X109692848Y-111932933D01*
X109758000Y-111932933D01*
X109758000Y-111799600D01*
X109826181Y-111799600D01*
X109826226Y-111832933D01*
X109826240Y-111845374D01*
X109826252Y-111859660D01*
X109826262Y-111874609D01*
X109826268Y-111889035D01*
X109826270Y-111901115D01*
X109826268Y-111913874D01*
X109826262Y-111928195D01*
X109826252Y-111942919D01*
X109826240Y-111956885D01*
X109826226Y-111968509D01*
X109826181Y-112001056D01*
X109793227Y-112001464D01*
X109760272Y-112001872D01*
X109759864Y-112034827D01*
X109759456Y-112067781D01*
X109691333Y-112067781D01*
X109691333Y-111934388D01*
X109626939Y-111935206D01*
X109626583Y-112034069D01*
X109626228Y-112132933D01*
X109692848Y-112132933D01*
X109692904Y-112166645D01*
X109692914Y-112175753D01*
X109692920Y-112187338D01*
X109692922Y-112200845D01*
X109692920Y-112215721D01*
X109692914Y-112231412D01*
X109692904Y-112247364D01*
X109692891Y-112263023D01*
X109692887Y-112266645D01*
X109692814Y-112332933D01*
X109759515Y-112332933D01*
X109759515Y-112401056D01*
X109726560Y-112401464D01*
X109693606Y-112401872D01*
X109693197Y-112434827D01*
X109692789Y-112467781D01*
X109624666Y-112467781D01*
X109624666Y-112401054D01*
X109560272Y-112401872D01*
X109559864Y-112434827D01*
X109559456Y-112467781D01*
X109526909Y-112467826D01*
X109514762Y-112467840D01*
X109500743Y-112467852D01*
X109486013Y-112467862D01*
X109471732Y-112467868D01*
X109459515Y-112467870D01*
X109446671Y-112467868D01*
X109432185Y-112467862D01*
X109417242Y-112467852D01*
X109403026Y-112467839D01*
X109391333Y-112467826D01*
X109358000Y-112467781D01*
X109358000Y-112401134D01*
X109292469Y-112401503D01*
X109226939Y-112401872D01*
X109226531Y-112434827D01*
X109226122Y-112467781D01*
X109158000Y-112467781D01*
X109158000Y-112399600D01*
X109224666Y-112399600D01*
X109359454Y-112399600D01*
X109491333Y-112399600D01*
X109626121Y-112399600D01*
X109691333Y-112399600D01*
X109691333Y-112334388D01*
X109626939Y-112335206D01*
X109626121Y-112399600D01*
X109491333Y-112399600D01*
X109491333Y-112334468D01*
X109425803Y-112334837D01*
X109360272Y-112335206D01*
X109359454Y-112399600D01*
X109224666Y-112399600D01*
X109224666Y-112332933D01*
X109559454Y-112332933D01*
X109624666Y-112332933D01*
X109624666Y-112267721D01*
X109560272Y-112268539D01*
X109559454Y-112332933D01*
X109224666Y-112332933D01*
X109224666Y-112267801D01*
X109093606Y-112268539D01*
X109093197Y-112301493D01*
X109092789Y-112334448D01*
X109059864Y-112334515D01*
X109047273Y-112334554D01*
X109032899Y-112334620D01*
X109017989Y-112334707D01*
X109003787Y-112334807D01*
X108993606Y-112334893D01*
X108960272Y-112335206D01*
X108959456Y-112401056D01*
X108893606Y-112401872D01*
X108893197Y-112434827D01*
X108892789Y-112467781D01*
X108860243Y-112467826D01*
X108848095Y-112467840D01*
X108834076Y-112467852D01*
X108819346Y-112467862D01*
X108805065Y-112467868D01*
X108792848Y-112467870D01*
X108780004Y-112467868D01*
X108765518Y-112467862D01*
X108750575Y-112467852D01*
X108736360Y-112467839D01*
X108724666Y-112467826D01*
X108691333Y-112467781D01*
X108691333Y-112399600D01*
X108891333Y-112399600D01*
X108891333Y-112266266D01*
X108958000Y-112266266D01*
X109026121Y-112266266D01*
X109558000Y-112266266D01*
X109558000Y-112201054D01*
X109493606Y-112201872D01*
X109492788Y-112266266D01*
X109424666Y-112266266D01*
X109424666Y-112201054D01*
X109360272Y-112201872D01*
X109359454Y-112266266D01*
X109291333Y-112266266D01*
X109291333Y-112201054D01*
X109226939Y-112201872D01*
X109226121Y-112266266D01*
X109091333Y-112266266D01*
X109091333Y-112201054D01*
X109026939Y-112201872D01*
X109026121Y-112266266D01*
X108958000Y-112266266D01*
X108958000Y-112200963D01*
X108925045Y-112201119D01*
X108912521Y-112201165D01*
X108898194Y-112201197D01*
X108883293Y-112201212D01*
X108869046Y-112201211D01*
X108858378Y-112201195D01*
X108824666Y-112201115D01*
X108824666Y-112134448D01*
X108758000Y-112134448D01*
X108758000Y-112132933D01*
X108826121Y-112132933D01*
X108959515Y-112132933D01*
X108959515Y-112199600D01*
X109024666Y-112199600D01*
X109092788Y-112199600D01*
X109224666Y-112199600D01*
X109559454Y-112199600D01*
X109624666Y-112199600D01*
X109624666Y-112134388D01*
X109560272Y-112135206D01*
X109559454Y-112199600D01*
X109224666Y-112199600D01*
X109224666Y-112134468D01*
X109093606Y-112135206D01*
X109092788Y-112199600D01*
X109024666Y-112199600D01*
X109024666Y-112132933D01*
X109091333Y-112132933D01*
X109292894Y-112132933D01*
X109491333Y-112132933D01*
X109491333Y-111934494D01*
X109392469Y-111934850D01*
X109293606Y-111935206D01*
X109293250Y-112034069D01*
X109292894Y-112132933D01*
X109091333Y-112132933D01*
X109091333Y-112066266D01*
X109158000Y-112066266D01*
X109158000Y-112001115D01*
X109091333Y-112001115D01*
X109091333Y-111934388D01*
X109026939Y-111935206D01*
X109026570Y-112000979D01*
X109026480Y-112014791D01*
X109026374Y-112027643D01*
X109026255Y-112039222D01*
X109026128Y-112049218D01*
X109025997Y-112057319D01*
X109025866Y-112063214D01*
X109025740Y-112066592D01*
X109025663Y-112067290D01*
X109024095Y-112067387D01*
X109019750Y-112067490D01*
X109012880Y-112067596D01*
X109003737Y-112067701D01*
X108992575Y-112067805D01*
X108979646Y-112067905D01*
X108965202Y-112067999D01*
X108949497Y-112068084D01*
X108932782Y-112068158D01*
X108926032Y-112068183D01*
X108826939Y-112068539D01*
X108826121Y-112132933D01*
X108758000Y-112132933D01*
X108758000Y-112067781D01*
X108691333Y-112067781D01*
X108691333Y-112001115D01*
X108624666Y-112001115D01*
X108624666Y-111999600D01*
X108692788Y-111999600D01*
X108758000Y-111999600D01*
X108892868Y-111999600D01*
X108958000Y-111999600D01*
X108958000Y-111932933D01*
X109024666Y-111932933D01*
X109024666Y-111867801D01*
X108893606Y-111868539D01*
X108893237Y-111934069D01*
X108892868Y-111999600D01*
X108758000Y-111999600D01*
X108758000Y-111934388D01*
X108693606Y-111935206D01*
X108692788Y-111999600D01*
X108624666Y-111999600D01*
X108624666Y-111934388D01*
X108560272Y-111935206D01*
X108559534Y-112066266D01*
X108626181Y-112066266D01*
X108626181Y-112134389D01*
X108593227Y-112134797D01*
X108560272Y-112135206D01*
X108559454Y-112199600D01*
X108692848Y-112199600D01*
X108692848Y-112267722D01*
X108659893Y-112268131D01*
X108626939Y-112268539D01*
X108626531Y-112301464D01*
X108626122Y-112334389D01*
X108593197Y-112334797D01*
X108560272Y-112335206D01*
X108559454Y-112399600D01*
X108626181Y-112399600D01*
X108626181Y-112467781D01*
X108558000Y-112467781D01*
X108558000Y-112401134D01*
X108492469Y-112401503D01*
X108426939Y-112401872D01*
X108426531Y-112434827D01*
X108426122Y-112467781D01*
X108358000Y-112467781D01*
X108358000Y-112399600D01*
X108424666Y-112399600D01*
X108424666Y-112267801D01*
X108293606Y-112268539D01*
X108293250Y-112367632D01*
X108293182Y-112384669D01*
X108293105Y-112400794D01*
X108293020Y-112415753D01*
X108292931Y-112429296D01*
X108292838Y-112441168D01*
X108292744Y-112451119D01*
X108292651Y-112458895D01*
X108292561Y-112464244D01*
X108292476Y-112466914D01*
X108292444Y-112467175D01*
X108290821Y-112467323D01*
X108286443Y-112467457D01*
X108279583Y-112467577D01*
X108270516Y-112467680D01*
X108259518Y-112467765D01*
X108246862Y-112467829D01*
X108232823Y-112467871D01*
X108217676Y-112467888D01*
X108201694Y-112467880D01*
X108191712Y-112467861D01*
X108158000Y-112467781D01*
X108158000Y-112399600D01*
X108224666Y-112399600D01*
X108224666Y-112334468D01*
X108093606Y-112335206D01*
X108093293Y-112368539D01*
X108093188Y-112381244D01*
X108093090Y-112395677D01*
X108093006Y-112410591D01*
X108092944Y-112424739D01*
X108092915Y-112434827D01*
X108092848Y-112467781D01*
X108024666Y-112467781D01*
X108024666Y-112332933D01*
X108091333Y-112332933D01*
X108091333Y-112267781D01*
X108024666Y-112267781D01*
X108024666Y-112201115D01*
X107958000Y-112201115D01*
X107958000Y-112199600D01*
X108026121Y-112199600D01*
X108092848Y-112199600D01*
X108092848Y-112266266D01*
X108158000Y-112266266D01*
X108158000Y-112199600D01*
X108226121Y-112199600D01*
X108491333Y-112199600D01*
X108491333Y-112134388D01*
X108426939Y-112135206D01*
X108426121Y-112199600D01*
X108358000Y-112199600D01*
X108358000Y-112134468D01*
X108292469Y-112134837D01*
X108226939Y-112135206D01*
X108226121Y-112199600D01*
X108158000Y-112199600D01*
X108158000Y-112134468D01*
X108092469Y-112134837D01*
X108026939Y-112135206D01*
X108026121Y-112199600D01*
X107958000Y-112199600D01*
X107958000Y-112132933D01*
X108024666Y-112132933D01*
X108024666Y-112067781D01*
X107958000Y-112067781D01*
X107958000Y-112001115D01*
X107891333Y-112001115D01*
X107891333Y-111934388D01*
X107826939Y-111935206D01*
X107826201Y-112066266D01*
X107892848Y-112066266D01*
X107892848Y-112134448D01*
X107859893Y-112134496D01*
X107850991Y-112134515D01*
X107839603Y-112134548D01*
X107826273Y-112134593D01*
X107811544Y-112134649D01*
X107795962Y-112134712D01*
X107780070Y-112134781D01*
X107764413Y-112134855D01*
X107760272Y-112134875D01*
X107693606Y-112135206D01*
X107692788Y-112199600D01*
X107892848Y-112199600D01*
X107892848Y-112266266D01*
X107959515Y-112266266D01*
X107959559Y-112299600D01*
X107959573Y-112312040D01*
X107959586Y-112326327D01*
X107959595Y-112341276D01*
X107959602Y-112355701D01*
X107959604Y-112367781D01*
X107959601Y-112380544D01*
X107959595Y-112394871D01*
X107959585Y-112409603D01*
X107959573Y-112423579D01*
X107959559Y-112435206D01*
X107959515Y-112467781D01*
X107891333Y-112467781D01*
X107891333Y-112401134D01*
X107825803Y-112401503D01*
X107760272Y-112401872D01*
X107759864Y-112434827D01*
X107759456Y-112467781D01*
X107727791Y-112467781D01*
X107718208Y-112467799D01*
X107709595Y-112467850D01*
X107702433Y-112467928D01*
X107697205Y-112468027D01*
X107694393Y-112468141D01*
X107694108Y-112468175D01*
X107692059Y-112468271D01*
X107687445Y-112468321D01*
X107680731Y-112468325D01*
X107672382Y-112468284D01*
X107662863Y-112468198D01*
X107658378Y-112468146D01*
X107624666Y-112467723D01*
X107624666Y-112399600D01*
X107758000Y-112399600D01*
X107758000Y-112267721D01*
X107693606Y-112268539D01*
X107693197Y-112301493D01*
X107692789Y-112334448D01*
X107624666Y-112334448D01*
X107624666Y-112066266D01*
X107758000Y-112066266D01*
X107758000Y-111932933D01*
X107824666Y-111932933D01*
X107824666Y-111867781D01*
X107758000Y-111867781D01*
X107758000Y-111866266D01*
X107826121Y-111866266D01*
X107959515Y-111866266D01*
X107959595Y-111899978D01*
X107959612Y-111912707D01*
X107959611Y-111927132D01*
X107959593Y-111942025D01*
X107959559Y-111956158D01*
X107959519Y-111966645D01*
X107959363Y-111999600D01*
X108026181Y-111999600D01*
X108026181Y-112066266D01*
X108091333Y-112066266D01*
X108091333Y-111999600D01*
X108159515Y-111999600D01*
X108159515Y-112066266D01*
X108224666Y-112066266D01*
X108292788Y-112066266D01*
X108491333Y-112066266D01*
X108491333Y-112001161D01*
X108392469Y-112001517D01*
X108293606Y-112001872D01*
X108292788Y-112066266D01*
X108224666Y-112066266D01*
X108224666Y-111866266D01*
X108292848Y-111866266D01*
X108292848Y-111932933D01*
X108358000Y-111932933D01*
X108426121Y-111932933D01*
X108558000Y-111932933D01*
X108558000Y-111867801D01*
X108492469Y-111868170D01*
X108426939Y-111868539D01*
X108426121Y-111932933D01*
X108358000Y-111932933D01*
X108358000Y-111799600D01*
X108426121Y-111799600D01*
X108491333Y-111799600D01*
X108491333Y-111734388D01*
X108426939Y-111735206D01*
X108426121Y-111799600D01*
X108358000Y-111799600D01*
X108358000Y-111734448D01*
X108291333Y-111734448D01*
X108291333Y-111667748D01*
X108225045Y-111667820D01*
X108209537Y-111667835D01*
X108193604Y-111667846D01*
X108177801Y-111667853D01*
X108162681Y-111667856D01*
X108148798Y-111667855D01*
X108136705Y-111667849D01*
X108126958Y-111667840D01*
X108125045Y-111667837D01*
X108091333Y-111667781D01*
X108091333Y-111599600D01*
X108226121Y-111599600D01*
X108359515Y-111599600D01*
X108359595Y-111633312D01*
X108359612Y-111646040D01*
X108359611Y-111660465D01*
X108359593Y-111675358D01*
X108359559Y-111689491D01*
X108359519Y-111699978D01*
X108359363Y-111732933D01*
X108424666Y-111732933D01*
X108559454Y-111732933D01*
X108626181Y-111732933D01*
X108626237Y-111766645D01*
X108626247Y-111775753D01*
X108626254Y-111787338D01*
X108626256Y-111800845D01*
X108626254Y-111815721D01*
X108626248Y-111831412D01*
X108626238Y-111847364D01*
X108626224Y-111863023D01*
X108626220Y-111866645D01*
X108626148Y-111932933D01*
X108691333Y-111932933D01*
X108691333Y-111799600D01*
X108759515Y-111799600D01*
X108759515Y-111866266D01*
X108824666Y-111866266D01*
X109026201Y-111866266D01*
X109092848Y-111866266D01*
X109092848Y-111932933D01*
X109159515Y-111932933D01*
X109159515Y-111999600D01*
X109224666Y-111999600D01*
X109224666Y-111734494D01*
X109125803Y-111734850D01*
X109026939Y-111735206D01*
X109026201Y-111866266D01*
X108824666Y-111866266D01*
X108824666Y-111732933D01*
X108958000Y-111732933D01*
X108958000Y-111666266D01*
X109024666Y-111666266D01*
X109024666Y-111599600D01*
X109092848Y-111599600D01*
X109092848Y-111666266D01*
X109158000Y-111666266D01*
X109292788Y-111666266D01*
X109426181Y-111666266D01*
X109426181Y-111732933D01*
X109491333Y-111732933D01*
X109491333Y-111666266D01*
X109558000Y-111666266D01*
X109558000Y-111601115D01*
X109491333Y-111601115D01*
X109491333Y-111534448D01*
X109424666Y-111534448D01*
X109424666Y-111467801D01*
X109293606Y-111468539D01*
X109292788Y-111532933D01*
X109359515Y-111532933D01*
X109359515Y-111601056D01*
X109326560Y-111601464D01*
X109293606Y-111601872D01*
X109292788Y-111666266D01*
X109158000Y-111666266D01*
X109158000Y-111532933D01*
X109224666Y-111532933D01*
X109224666Y-111467828D01*
X109125803Y-111468183D01*
X109026939Y-111468539D01*
X109026531Y-111501464D01*
X109026122Y-111534389D01*
X108993197Y-111534797D01*
X108960272Y-111535206D01*
X108959456Y-111601056D01*
X108893606Y-111601872D01*
X108893197Y-111634827D01*
X108892789Y-111667781D01*
X108859864Y-111667848D01*
X108847273Y-111667887D01*
X108832899Y-111667953D01*
X108817989Y-111668040D01*
X108803787Y-111668140D01*
X108793606Y-111668227D01*
X108760272Y-111668539D01*
X108759864Y-111701493D01*
X108759456Y-111734448D01*
X108691333Y-111734448D01*
X108691333Y-111667801D01*
X108625803Y-111668170D01*
X108560272Y-111668539D01*
X108559454Y-111732933D01*
X108424666Y-111732933D01*
X108424666Y-111666266D01*
X108558000Y-111666266D01*
X108692788Y-111666266D01*
X108758000Y-111666266D01*
X108758000Y-111601054D01*
X108693606Y-111601872D01*
X108692788Y-111666266D01*
X108558000Y-111666266D01*
X108558000Y-111600963D01*
X108525045Y-111601119D01*
X108512521Y-111601165D01*
X108498194Y-111601197D01*
X108483293Y-111601212D01*
X108469046Y-111601211D01*
X108458378Y-111601195D01*
X108424666Y-111601115D01*
X108424666Y-111599600D01*
X108559454Y-111599600D01*
X108691333Y-111599600D01*
X108691333Y-111532933D01*
X108759515Y-111532933D01*
X108759515Y-111599600D01*
X108891333Y-111599600D01*
X108891333Y-111534448D01*
X108824666Y-111534448D01*
X108824666Y-111466266D01*
X108892788Y-111466266D01*
X108958000Y-111466266D01*
X108958000Y-111401054D01*
X108893606Y-111401872D01*
X108892788Y-111466266D01*
X108824666Y-111466266D01*
X108824666Y-111401134D01*
X108693606Y-111401872D01*
X108693197Y-111434797D01*
X108692789Y-111467722D01*
X108659864Y-111468131D01*
X108626939Y-111468539D01*
X108626531Y-111501464D01*
X108626122Y-111534389D01*
X108593197Y-111534797D01*
X108560272Y-111535206D01*
X108559454Y-111599600D01*
X108424666Y-111599600D01*
X108424666Y-111467721D01*
X108360272Y-111468539D01*
X108359864Y-111501493D01*
X108359456Y-111534448D01*
X108326531Y-111534515D01*
X108313940Y-111534554D01*
X108299566Y-111534620D01*
X108284655Y-111534707D01*
X108270454Y-111534807D01*
X108260272Y-111534893D01*
X108226939Y-111535206D01*
X108226121Y-111599600D01*
X108091333Y-111599600D01*
X108091333Y-111467721D01*
X108026939Y-111468539D01*
X108026608Y-111535206D01*
X108026534Y-111550704D01*
X108026464Y-111566583D01*
X108026398Y-111582299D01*
X108026341Y-111597308D01*
X108026293Y-111611066D01*
X108026256Y-111623030D01*
X108026233Y-111632655D01*
X108026230Y-111634797D01*
X108026181Y-111667722D01*
X107993227Y-111668131D01*
X107960272Y-111668539D01*
X107959456Y-111734389D01*
X107926531Y-111734797D01*
X107893606Y-111735206D01*
X107893197Y-111768131D01*
X107892789Y-111801056D01*
X107826939Y-111801872D01*
X107826121Y-111866266D01*
X107758000Y-111866266D01*
X107758000Y-111799600D01*
X107824666Y-111799600D01*
X107824666Y-111732933D01*
X107891333Y-111732933D01*
X107891333Y-111534521D01*
X107692469Y-111534863D01*
X107493606Y-111535206D01*
X107492788Y-111599600D01*
X107559515Y-111599600D01*
X107559515Y-111666266D01*
X107624666Y-111666266D01*
X107624666Y-111599600D01*
X107826181Y-111599600D01*
X107826181Y-111667722D01*
X107793227Y-111668131D01*
X107760272Y-111668539D01*
X107759456Y-111734389D01*
X107726531Y-111734797D01*
X107693606Y-111735206D01*
X107693197Y-111768160D01*
X107692789Y-111801115D01*
X107659864Y-111801163D01*
X107650969Y-111801182D01*
X107639587Y-111801215D01*
X107626263Y-111801260D01*
X107611540Y-111801315D01*
X107595963Y-111801379D01*
X107580074Y-111801448D01*
X107564419Y-111801521D01*
X107560272Y-111801542D01*
X107493606Y-111801872D01*
X107492788Y-111866266D01*
X107626181Y-111866266D01*
X107626181Y-111932933D01*
X107692848Y-111932933D01*
X107692848Y-112001115D01*
X107624666Y-112001115D01*
X107624666Y-111934297D01*
X107591712Y-111934452D01*
X107579187Y-111934498D01*
X107564861Y-111934530D01*
X107549960Y-111934546D01*
X107535713Y-111934544D01*
X107525045Y-111934528D01*
X107491333Y-111934448D01*
X107491333Y-111867721D01*
X107426939Y-111868539D01*
X107426531Y-111901493D01*
X107426122Y-111934448D01*
X107358000Y-111934448D01*
X107358000Y-111867781D01*
X107291333Y-111867781D01*
X107291333Y-111801115D01*
X107224666Y-111801115D01*
X107224666Y-111799600D01*
X107359454Y-111799600D01*
X107424666Y-111799600D01*
X107424666Y-111734388D01*
X107360272Y-111735206D01*
X107359454Y-111799600D01*
X107224666Y-111799600D01*
X107224666Y-111734388D01*
X107160272Y-111735206D01*
X107159942Y-111801872D01*
X107159868Y-111817372D01*
X107159797Y-111833254D01*
X107159732Y-111848974D01*
X107159674Y-111863988D01*
X107159626Y-111877752D01*
X107159589Y-111889722D01*
X107159566Y-111899353D01*
X107159563Y-111901493D01*
X107159515Y-111934448D01*
X107091333Y-111934448D01*
X107091333Y-111666266D01*
X107158000Y-111666266D01*
X107158000Y-111599600D01*
X107226181Y-111599600D01*
X107226181Y-111666266D01*
X107292848Y-111666266D01*
X107292848Y-111732933D01*
X107358000Y-111732933D01*
X107358000Y-111666266D01*
X107426181Y-111666266D01*
X107426181Y-111732933D01*
X107558000Y-111732933D01*
X107626121Y-111732933D01*
X107691333Y-111732933D01*
X107691333Y-111667721D01*
X107626939Y-111668539D01*
X107626121Y-111732933D01*
X107558000Y-111732933D01*
X107558000Y-111667781D01*
X107491333Y-111667781D01*
X107491333Y-111601115D01*
X107424666Y-111601115D01*
X107424666Y-111534388D01*
X107360272Y-111535206D01*
X107359864Y-111568160D01*
X107359456Y-111601115D01*
X107291333Y-111601115D01*
X107291333Y-111532933D01*
X107426121Y-111532933D01*
X107958000Y-111532933D01*
X107958000Y-111466266D01*
X108024666Y-111466266D01*
X108092868Y-111466266D01*
X108291333Y-111466266D01*
X108291333Y-111401054D01*
X108226939Y-111401872D01*
X108226121Y-111466266D01*
X108158000Y-111466266D01*
X108158000Y-111399600D01*
X108224666Y-111399600D01*
X108224666Y-111332933D01*
X108291333Y-111332933D01*
X108291333Y-111266266D01*
X108359515Y-111266266D01*
X108359515Y-111334389D01*
X108326560Y-111334797D01*
X108293606Y-111335206D01*
X108292788Y-111399600D01*
X108558000Y-111399600D01*
X108558000Y-111334297D01*
X108525045Y-111334452D01*
X108512521Y-111334498D01*
X108498194Y-111334530D01*
X108483293Y-111334546D01*
X108469046Y-111334544D01*
X108458378Y-111334528D01*
X108424666Y-111334448D01*
X108424666Y-111332933D01*
X108559454Y-111332933D01*
X108626181Y-111332933D01*
X108626181Y-111399600D01*
X108691333Y-111399600D01*
X108691333Y-111201054D01*
X108626939Y-111201872D01*
X108626531Y-111234797D01*
X108626122Y-111267722D01*
X108593197Y-111268131D01*
X108560272Y-111268539D01*
X108559454Y-111332933D01*
X108424666Y-111332933D01*
X108424666Y-111266266D01*
X108492868Y-111266266D01*
X108558000Y-111266266D01*
X108558000Y-111199600D01*
X108624666Y-111199600D01*
X108624666Y-111134468D01*
X108493606Y-111135206D01*
X108492868Y-111266266D01*
X108424666Y-111266266D01*
X108424666Y-111201115D01*
X108358000Y-111201115D01*
X108358000Y-111134388D01*
X108293606Y-111135206D01*
X108293197Y-111168131D01*
X108292789Y-111201056D01*
X108226939Y-111201872D01*
X108226531Y-111234797D01*
X108226122Y-111267722D01*
X108193197Y-111268131D01*
X108160272Y-111268539D01*
X108159456Y-111334389D01*
X108126531Y-111334797D01*
X108093606Y-111335206D01*
X108092868Y-111466266D01*
X108024666Y-111466266D01*
X108024666Y-111334388D01*
X107960272Y-111335206D01*
X107959456Y-111401056D01*
X107893606Y-111401872D01*
X107893237Y-111467403D01*
X107892868Y-111532933D01*
X107491333Y-111532933D01*
X107491333Y-111467721D01*
X107426939Y-111468539D01*
X107426121Y-111532933D01*
X107291333Y-111532933D01*
X107291333Y-111467721D01*
X107226939Y-111468539D01*
X107226531Y-111501493D01*
X107226122Y-111534448D01*
X107158000Y-111534448D01*
X107158000Y-111467781D01*
X107091333Y-111467781D01*
X107091333Y-111466266D01*
X107159454Y-111466266D01*
X107224666Y-111466266D01*
X107224666Y-111401054D01*
X107160272Y-111401872D01*
X107159454Y-111466266D01*
X107091333Y-111466266D01*
X107091333Y-111399600D01*
X107158000Y-111399600D01*
X107158000Y-111334448D01*
X107091333Y-111334448D01*
X107091333Y-111266266D01*
X107159515Y-111266266D01*
X107159515Y-111332933D01*
X107226181Y-111332933D01*
X107226181Y-111399600D01*
X107292848Y-111399600D01*
X107292848Y-111466266D01*
X107358000Y-111466266D01*
X107492788Y-111466266D01*
X107558000Y-111466266D01*
X107558000Y-111401054D01*
X107493606Y-111401872D01*
X107492788Y-111466266D01*
X107358000Y-111466266D01*
X107358000Y-111399600D01*
X107426121Y-111399600D01*
X107491333Y-111399600D01*
X107491333Y-111334388D01*
X107426939Y-111335206D01*
X107426121Y-111399600D01*
X107358000Y-111399600D01*
X107358000Y-111334448D01*
X107291333Y-111334448D01*
X107291333Y-111332933D01*
X107424666Y-111332933D01*
X107492788Y-111332933D01*
X107559515Y-111332933D01*
X107559515Y-111399600D01*
X107624666Y-111399600D01*
X107624666Y-111332933D01*
X107692848Y-111332933D01*
X107692848Y-111399600D01*
X107891333Y-111399600D01*
X107891333Y-111334448D01*
X107824666Y-111334448D01*
X107824666Y-111332933D01*
X107892788Y-111332933D01*
X107958000Y-111332933D01*
X107958000Y-111267721D01*
X107893606Y-111268539D01*
X107892788Y-111332933D01*
X107824666Y-111332933D01*
X107824666Y-111267781D01*
X107758000Y-111267781D01*
X107758000Y-111266266D01*
X107826121Y-111266266D01*
X107891333Y-111266266D01*
X107891333Y-111201054D01*
X107826939Y-111201872D01*
X107826121Y-111266266D01*
X107758000Y-111266266D01*
X107758000Y-111199600D01*
X107824666Y-111199600D01*
X107824666Y-111134448D01*
X107758000Y-111134448D01*
X107758000Y-111067721D01*
X107693606Y-111068539D01*
X107693236Y-111134312D01*
X107693147Y-111148124D01*
X107693042Y-111160975D01*
X107692924Y-111172552D01*
X107692799Y-111182546D01*
X107692670Y-111190645D01*
X107692542Y-111196538D01*
X107692419Y-111199913D01*
X107692343Y-111200610D01*
X107690767Y-111200728D01*
X107686471Y-111200854D01*
X107679768Y-111200983D01*
X107670967Y-111201111D01*
X107660381Y-111201234D01*
X107648321Y-111201347D01*
X107635097Y-111201447D01*
X107626045Y-111201503D01*
X107560272Y-111201872D01*
X107559456Y-111267722D01*
X107526531Y-111268131D01*
X107493606Y-111268539D01*
X107492788Y-111332933D01*
X107424666Y-111332933D01*
X107424666Y-111267721D01*
X107360272Y-111268539D01*
X107359454Y-111332933D01*
X107291333Y-111332933D01*
X107291333Y-111199600D01*
X107359534Y-111199600D01*
X107424666Y-111199600D01*
X107492788Y-111199600D01*
X107558000Y-111199600D01*
X107558000Y-111134388D01*
X107493606Y-111135206D01*
X107492788Y-111199600D01*
X107424666Y-111199600D01*
X107424666Y-111067721D01*
X107360272Y-111068539D01*
X107359903Y-111134069D01*
X107359534Y-111199600D01*
X107291333Y-111199600D01*
X107291333Y-111134448D01*
X107224666Y-111134448D01*
X107224666Y-111067721D01*
X107160272Y-111068539D01*
X107159960Y-111101872D01*
X107159854Y-111114577D01*
X107159756Y-111129010D01*
X107159673Y-111143924D01*
X107159611Y-111158072D01*
X107159581Y-111168160D01*
X107159515Y-111201115D01*
X107091333Y-111201115D01*
X107091333Y-111066266D01*
X107226121Y-111066266D01*
X107624666Y-111066266D01*
X107624666Y-111001134D01*
X107493606Y-111001872D01*
X107492788Y-111066266D01*
X107358000Y-111066266D01*
X107358000Y-111001134D01*
X107292469Y-111001503D01*
X107226939Y-111001872D01*
X107226121Y-111066266D01*
X107091333Y-111066266D01*
X107091333Y-110932933D01*
X107159515Y-110932933D01*
X107159515Y-110999600D01*
X107224666Y-110999600D01*
X107224666Y-110932933D01*
X107292788Y-110932933D01*
X107358000Y-110932933D01*
X107358000Y-110867721D01*
X107293606Y-110868539D01*
X107292788Y-110932933D01*
X107224666Y-110932933D01*
X107224666Y-110867630D01*
X107191712Y-110867786D01*
X107179187Y-110867832D01*
X107164861Y-110867863D01*
X107149960Y-110867879D01*
X107135713Y-110867877D01*
X107125045Y-110867861D01*
X107091333Y-110867781D01*
X107091333Y-110799600D01*
X107158000Y-110799600D01*
X107292788Y-110799600D01*
X107359515Y-110799600D01*
X107359515Y-110866266D01*
X107491333Y-110866266D01*
X107491333Y-110799600D01*
X107559515Y-110799600D01*
X107559515Y-110867722D01*
X107526560Y-110868131D01*
X107493606Y-110868539D01*
X107492788Y-110932933D01*
X107624666Y-110932933D01*
X107692788Y-110932933D01*
X107826181Y-110932933D01*
X107826181Y-110999600D01*
X107892848Y-110999600D01*
X107892904Y-111033312D01*
X107892914Y-111042420D01*
X107892920Y-111054004D01*
X107892922Y-111067511D01*
X107892920Y-111082387D01*
X107892914Y-111098078D01*
X107892904Y-111114030D01*
X107892891Y-111129690D01*
X107892887Y-111133312D01*
X107892814Y-111199600D01*
X107959515Y-111199600D01*
X107959515Y-111266266D01*
X108024666Y-111266266D01*
X108092788Y-111266266D01*
X108158000Y-111266266D01*
X108158000Y-111201054D01*
X108093606Y-111201872D01*
X108092788Y-111266266D01*
X108024666Y-111266266D01*
X108024666Y-111199600D01*
X108091333Y-111199600D01*
X108159454Y-111199600D01*
X108224666Y-111199600D01*
X108224666Y-111134388D01*
X108160272Y-111135206D01*
X108159454Y-111199600D01*
X108091333Y-111199600D01*
X108091333Y-111134448D01*
X108024666Y-111134448D01*
X108024666Y-111132933D01*
X108092788Y-111132933D01*
X108158000Y-111132933D01*
X108158000Y-111067721D01*
X108093606Y-111068539D01*
X108092788Y-111132933D01*
X108024666Y-111132933D01*
X108024666Y-111066266D01*
X108091333Y-111066266D01*
X108091333Y-111000963D01*
X108058378Y-111001119D01*
X108045854Y-111001165D01*
X108031528Y-111001197D01*
X108016627Y-111001212D01*
X108002379Y-111001211D01*
X107991712Y-111001195D01*
X107958000Y-111001115D01*
X107958000Y-110999600D01*
X108092788Y-110999600D01*
X108226181Y-110999600D01*
X108226261Y-111033312D01*
X108226279Y-111046040D01*
X108226278Y-111060465D01*
X108226260Y-111075358D01*
X108226226Y-111089491D01*
X108226186Y-111099978D01*
X108226030Y-111132933D01*
X108291333Y-111132933D01*
X108359454Y-111132933D01*
X108491333Y-111132933D01*
X108491333Y-111067801D01*
X108425803Y-111068170D01*
X108360272Y-111068539D01*
X108359454Y-111132933D01*
X108291333Y-111132933D01*
X108291333Y-111066266D01*
X108358000Y-111066266D01*
X108358000Y-111001115D01*
X108291333Y-111001115D01*
X108291333Y-110999600D01*
X108359454Y-110999600D01*
X108424666Y-110999600D01*
X108424666Y-110934388D01*
X108360272Y-110935206D01*
X108359454Y-110999600D01*
X108291333Y-110999600D01*
X108291333Y-110867721D01*
X108226939Y-110868539D01*
X108226531Y-110901493D01*
X108226122Y-110934448D01*
X108193197Y-110934515D01*
X108180607Y-110934554D01*
X108166233Y-110934620D01*
X108151322Y-110934707D01*
X108137121Y-110934807D01*
X108126939Y-110934893D01*
X108093606Y-110935206D01*
X108092788Y-110999600D01*
X107958000Y-110999600D01*
X107958000Y-110934448D01*
X107891333Y-110934448D01*
X107891333Y-110932933D01*
X107959454Y-110932933D01*
X108024666Y-110932933D01*
X108024666Y-110867721D01*
X107960272Y-110868539D01*
X107959454Y-110932933D01*
X107891333Y-110932933D01*
X107891333Y-110867828D01*
X107792469Y-110868183D01*
X107693606Y-110868539D01*
X107692788Y-110932933D01*
X107624666Y-110932933D01*
X107624666Y-110866266D01*
X108158000Y-110866266D01*
X108292788Y-110866266D01*
X108492848Y-110866266D01*
X108492904Y-110899978D01*
X108492914Y-110909086D01*
X108492920Y-110920671D01*
X108492922Y-110934178D01*
X108492920Y-110949054D01*
X108492914Y-110964745D01*
X108492904Y-110980697D01*
X108492891Y-110996356D01*
X108492887Y-110999978D01*
X108492814Y-111066266D01*
X108626181Y-111066266D01*
X108626181Y-111132933D01*
X108691333Y-111132933D01*
X108691333Y-111066266D01*
X108759515Y-111066266D01*
X108759515Y-111134389D01*
X108726560Y-111134797D01*
X108693606Y-111135206D01*
X108692788Y-111199600D01*
X108759515Y-111199600D01*
X108759595Y-111233312D01*
X108759612Y-111246040D01*
X108759611Y-111260465D01*
X108759593Y-111275358D01*
X108759559Y-111289491D01*
X108759519Y-111299978D01*
X108759363Y-111332933D01*
X108824666Y-111332933D01*
X108892788Y-111332933D01*
X108959515Y-111332933D01*
X108959515Y-111399600D01*
X109024666Y-111399600D01*
X109092788Y-111399600D01*
X109226181Y-111399600D01*
X109226181Y-111466266D01*
X109291333Y-111466266D01*
X109291333Y-111399600D01*
X109424666Y-111399600D01*
X109492788Y-111399600D01*
X109624666Y-111399600D01*
X109624666Y-111334468D01*
X109493606Y-111335206D01*
X109492788Y-111399600D01*
X109424666Y-111399600D01*
X109424666Y-111334297D01*
X109391712Y-111334452D01*
X109379187Y-111334498D01*
X109364861Y-111334530D01*
X109349960Y-111334546D01*
X109335713Y-111334544D01*
X109325045Y-111334528D01*
X109291333Y-111334448D01*
X109291333Y-111267781D01*
X109224666Y-111267781D01*
X109224666Y-111266266D01*
X109359454Y-111266266D01*
X109558000Y-111266266D01*
X109558000Y-111201054D01*
X109493606Y-111201872D01*
X109492788Y-111266266D01*
X109424666Y-111266266D01*
X109424666Y-111201054D01*
X109360272Y-111201872D01*
X109359454Y-111266266D01*
X109224666Y-111266266D01*
X109224666Y-111201115D01*
X109158000Y-111201115D01*
X109158000Y-111132933D01*
X109426181Y-111132933D01*
X109426181Y-111199600D01*
X109491333Y-111199600D01*
X109491333Y-111132933D01*
X109559515Y-111132933D01*
X109559515Y-111199600D01*
X109624666Y-111199600D01*
X109624666Y-111132933D01*
X109692788Y-111132933D01*
X109758000Y-111132933D01*
X109758000Y-111067721D01*
X109693606Y-111068539D01*
X109692788Y-111132933D01*
X109624666Y-111132933D01*
X109624666Y-111067630D01*
X109591712Y-111067786D01*
X109579187Y-111067832D01*
X109564861Y-111067863D01*
X109549960Y-111067879D01*
X109535713Y-111067877D01*
X109525045Y-111067861D01*
X109491333Y-111067781D01*
X109491333Y-110934468D01*
X109425803Y-110934837D01*
X109360272Y-110935206D01*
X109359864Y-110968160D01*
X109359456Y-111001115D01*
X109326531Y-111001181D01*
X109313940Y-111001220D01*
X109299566Y-111001287D01*
X109284655Y-111001374D01*
X109270454Y-111001474D01*
X109260272Y-111001560D01*
X109226939Y-111001872D01*
X109226531Y-111034827D01*
X109226122Y-111067781D01*
X109193197Y-111067848D01*
X109180607Y-111067887D01*
X109166233Y-111067953D01*
X109151322Y-111068040D01*
X109137121Y-111068140D01*
X109126939Y-111068227D01*
X109093606Y-111068539D01*
X109093250Y-111167403D01*
X109092894Y-111266266D01*
X109159515Y-111266266D01*
X109159515Y-111334389D01*
X109126560Y-111334797D01*
X109093606Y-111335206D01*
X109092788Y-111399600D01*
X109024666Y-111399600D01*
X109024666Y-111332933D01*
X109091333Y-111332933D01*
X109091333Y-111267828D01*
X108992469Y-111268183D01*
X108893606Y-111268539D01*
X108892788Y-111332933D01*
X108824666Y-111332933D01*
X108824666Y-111199600D01*
X108958000Y-111199600D01*
X108958000Y-111066266D01*
X109026121Y-111066266D01*
X109091333Y-111066266D01*
X109091333Y-111001054D01*
X109026939Y-111001872D01*
X109026121Y-111066266D01*
X108958000Y-111066266D01*
X108958000Y-111000963D01*
X108925045Y-111001119D01*
X108912521Y-111001165D01*
X108898194Y-111001197D01*
X108883293Y-111001212D01*
X108869046Y-111001211D01*
X108858378Y-111001195D01*
X108824666Y-111001115D01*
X108824666Y-110999600D01*
X109159454Y-110999600D01*
X109224666Y-110999600D01*
X109224666Y-110934388D01*
X109160272Y-110935206D01*
X109159454Y-110999600D01*
X108824666Y-110999600D01*
X108824666Y-110932933D01*
X108892788Y-110932933D01*
X109358000Y-110932933D01*
X109358000Y-110867721D01*
X109293606Y-110868539D01*
X109292788Y-110932933D01*
X109091333Y-110932933D01*
X109091333Y-110867721D01*
X109026939Y-110868539D01*
X109026121Y-110932933D01*
X108958000Y-110932933D01*
X108958000Y-110867721D01*
X108893606Y-110868539D01*
X108892788Y-110932933D01*
X108824666Y-110932933D01*
X108824666Y-110867781D01*
X108758000Y-110867781D01*
X108758000Y-110866266D01*
X108959454Y-110866266D01*
X109024666Y-110866266D01*
X109024666Y-110801054D01*
X108960272Y-110801872D01*
X108959454Y-110866266D01*
X108758000Y-110866266D01*
X108758000Y-110799600D01*
X108891333Y-110799600D01*
X109026201Y-110799600D01*
X109091333Y-110799600D01*
X109091333Y-110732933D01*
X109159515Y-110732933D01*
X109159595Y-110766645D01*
X109159612Y-110779374D01*
X109159611Y-110793799D01*
X109159593Y-110808691D01*
X109159559Y-110822824D01*
X109159519Y-110833312D01*
X109159363Y-110866266D01*
X109291333Y-110866266D01*
X109359454Y-110866266D01*
X109424666Y-110866266D01*
X109492894Y-110866266D01*
X109624666Y-110866266D01*
X109624666Y-110801115D01*
X109558000Y-110801115D01*
X109558000Y-110667721D01*
X109493606Y-110668539D01*
X109493250Y-110767403D01*
X109492894Y-110866266D01*
X109424666Y-110866266D01*
X109424666Y-110801054D01*
X109360272Y-110801872D01*
X109359454Y-110866266D01*
X109291333Y-110866266D01*
X109291333Y-110799600D01*
X109358000Y-110799600D01*
X109358000Y-110734448D01*
X109291333Y-110734448D01*
X109291333Y-110732933D01*
X109359454Y-110732933D01*
X109424666Y-110732933D01*
X109424666Y-110667721D01*
X109360272Y-110668539D01*
X109359454Y-110732933D01*
X109291333Y-110732933D01*
X109291333Y-110667841D01*
X109026939Y-110668539D01*
X109026570Y-110734069D01*
X109026201Y-110799600D01*
X108891333Y-110799600D01*
X108891333Y-110666266D01*
X108958000Y-110666266D01*
X108958000Y-110599600D01*
X109024666Y-110599600D01*
X109024666Y-110534448D01*
X108958000Y-110534448D01*
X108958000Y-110467721D01*
X108893606Y-110468539D01*
X108893236Y-110534312D01*
X108893147Y-110548125D01*
X108893040Y-110560977D01*
X108892921Y-110572557D01*
X108892793Y-110582554D01*
X108892661Y-110590656D01*
X108892529Y-110596552D01*
X108892401Y-110599931D01*
X108892323Y-110600630D01*
X108890761Y-110600715D01*
X108886388Y-110600804D01*
X108879420Y-110600895D01*
X108870077Y-110600987D01*
X108858576Y-110601078D01*
X108845135Y-110601167D01*
X108829974Y-110601253D01*
X108813309Y-110601334D01*
X108795359Y-110601408D01*
X108776343Y-110601474D01*
X108759359Y-110601523D01*
X108626939Y-110601872D01*
X108626121Y-110666266D01*
X108759515Y-110666266D01*
X108759515Y-110734389D01*
X108726560Y-110734797D01*
X108693606Y-110735206D01*
X108693275Y-110801872D01*
X108693201Y-110817370D01*
X108693130Y-110833250D01*
X108693065Y-110848966D01*
X108693007Y-110863975D01*
X108692959Y-110877733D01*
X108692923Y-110889697D01*
X108692900Y-110899322D01*
X108692896Y-110901464D01*
X108692848Y-110934389D01*
X108659893Y-110934797D01*
X108626939Y-110935206D01*
X108626531Y-110968160D01*
X108626122Y-111001115D01*
X108558000Y-111001115D01*
X108558000Y-110932933D01*
X108624666Y-110932933D01*
X108624666Y-110867781D01*
X108558000Y-110867781D01*
X108558000Y-110801115D01*
X108491333Y-110801115D01*
X108491333Y-110734448D01*
X108424666Y-110734448D01*
X108424666Y-110666266D01*
X108558000Y-110666266D01*
X108558000Y-110534388D01*
X108493606Y-110535206D01*
X108493197Y-110568104D01*
X108492789Y-110601002D01*
X108459106Y-110601437D01*
X108446305Y-110601555D01*
X108431726Y-110601612D01*
X108416622Y-110601607D01*
X108402246Y-110601540D01*
X108391712Y-110601438D01*
X108358000Y-110601004D01*
X108358000Y-110534388D01*
X108293606Y-110535206D01*
X108293250Y-110634069D01*
X108292894Y-110732933D01*
X108359515Y-110732933D01*
X108359515Y-110801056D01*
X108326560Y-110801464D01*
X108293606Y-110801872D01*
X108292788Y-110866266D01*
X108158000Y-110866266D01*
X108158000Y-110799600D01*
X108291333Y-110799600D01*
X108291333Y-110734448D01*
X108224666Y-110734448D01*
X108224666Y-110667801D01*
X108093606Y-110668539D01*
X108093250Y-110767403D01*
X108092894Y-110866266D01*
X107958000Y-110866266D01*
X107958000Y-110801054D01*
X107893606Y-110801872D01*
X107892788Y-110866266D01*
X107691333Y-110866266D01*
X107691333Y-110801115D01*
X107624666Y-110801115D01*
X107624666Y-110799600D01*
X107692788Y-110799600D01*
X107824666Y-110799600D01*
X107824666Y-110734468D01*
X107693606Y-110735206D01*
X107692788Y-110799600D01*
X107624666Y-110799600D01*
X107624666Y-110732933D01*
X107691333Y-110732933D01*
X107691333Y-110599600D01*
X107759515Y-110599600D01*
X107759515Y-110666266D01*
X107891333Y-110666266D01*
X107959454Y-110666266D01*
X108091333Y-110666266D01*
X108091333Y-110534388D01*
X108026939Y-110535206D01*
X108026531Y-110568131D01*
X108026122Y-110601056D01*
X107960272Y-110601872D01*
X107959454Y-110666266D01*
X107891333Y-110666266D01*
X107891333Y-110601115D01*
X107824666Y-110601115D01*
X107824666Y-110467721D01*
X107760272Y-110468539D01*
X107759864Y-110501493D01*
X107759456Y-110534448D01*
X107691333Y-110534448D01*
X107691333Y-110466266D01*
X107758000Y-110466266D01*
X107826201Y-110466266D01*
X107892848Y-110466266D01*
X107892848Y-110532933D01*
X107958000Y-110532933D01*
X107958000Y-110466266D01*
X108026121Y-110466266D01*
X108091333Y-110466266D01*
X108091333Y-110401054D01*
X108026939Y-110401872D01*
X108026121Y-110466266D01*
X107958000Y-110466266D01*
X107958000Y-110332933D01*
X108024666Y-110332933D01*
X108024666Y-110134388D01*
X107960272Y-110135206D01*
X107959960Y-110168539D01*
X107959855Y-110181240D01*
X107959756Y-110195667D01*
X107959673Y-110210572D01*
X107959611Y-110224710D01*
X107959581Y-110234797D01*
X107959515Y-110267722D01*
X107926560Y-110268131D01*
X107893606Y-110268539D01*
X107893197Y-110301464D01*
X107892789Y-110334389D01*
X107859864Y-110334797D01*
X107826939Y-110335206D01*
X107826201Y-110466266D01*
X107758000Y-110466266D01*
X107758000Y-110401134D01*
X107692469Y-110401503D01*
X107626939Y-110401872D01*
X107626531Y-110434827D01*
X107626122Y-110467781D01*
X107593197Y-110467848D01*
X107580607Y-110467887D01*
X107566233Y-110467953D01*
X107551322Y-110468040D01*
X107537121Y-110468140D01*
X107526939Y-110468227D01*
X107493606Y-110468539D01*
X107492788Y-110532933D01*
X107626181Y-110532933D01*
X107626181Y-110601115D01*
X107593227Y-110601181D01*
X107580625Y-110601220D01*
X107566241Y-110601287D01*
X107551321Y-110601374D01*
X107537115Y-110601474D01*
X107526939Y-110601560D01*
X107493606Y-110601872D01*
X107492788Y-110666266D01*
X107559515Y-110666266D01*
X107559515Y-110734448D01*
X107491333Y-110734448D01*
X107491333Y-110667801D01*
X107425803Y-110668170D01*
X107360272Y-110668539D01*
X107359456Y-110734389D01*
X107326531Y-110734797D01*
X107293606Y-110735206D01*
X107292788Y-110799600D01*
X107158000Y-110799600D01*
X107158000Y-110734448D01*
X107091333Y-110734448D01*
X107091333Y-110666266D01*
X107158000Y-110666266D01*
X107158000Y-110601115D01*
X107091333Y-110601115D01*
X107091333Y-110532933D01*
X107158000Y-110532933D01*
X107158000Y-110399600D01*
X107226181Y-110399600D01*
X107226216Y-110432933D01*
X107226227Y-110444887D01*
X107226235Y-110459339D01*
X107226242Y-110475795D01*
X107226246Y-110493762D01*
X107226249Y-110512750D01*
X107226250Y-110532263D01*
X107226250Y-110551811D01*
X107226247Y-110570901D01*
X107226243Y-110589039D01*
X107226237Y-110605734D01*
X107226229Y-110620493D01*
X107226219Y-110632824D01*
X107226216Y-110635176D01*
X107226181Y-110667722D01*
X107193227Y-110668131D01*
X107160272Y-110668539D01*
X107159454Y-110732933D01*
X107291333Y-110732933D01*
X107291333Y-110666266D01*
X107358000Y-110666266D01*
X107358000Y-110532933D01*
X107424666Y-110532933D01*
X107424666Y-110466266D01*
X107491333Y-110466266D01*
X107491333Y-110401115D01*
X107424666Y-110401115D01*
X107424666Y-110399600D01*
X107492788Y-110399600D01*
X107558000Y-110399600D01*
X107558000Y-110334388D01*
X107493606Y-110335206D01*
X107492788Y-110399600D01*
X107424666Y-110399600D01*
X107424666Y-110334414D01*
X107358378Y-110334487D01*
X107342870Y-110334501D01*
X107326937Y-110334512D01*
X107311134Y-110334519D01*
X107296014Y-110334522D01*
X107282131Y-110334521D01*
X107270039Y-110334516D01*
X107260291Y-110334507D01*
X107258378Y-110334504D01*
X107224666Y-110334448D01*
X107224666Y-110266266D01*
X107559515Y-110266266D01*
X107559515Y-110332933D01*
X107758000Y-110332933D01*
X107758000Y-110266266D01*
X107826201Y-110266266D01*
X107891333Y-110266266D01*
X107891333Y-110134388D01*
X107826939Y-110135206D01*
X107826201Y-110266266D01*
X107758000Y-110266266D01*
X107758000Y-110132933D01*
X107824666Y-110132933D01*
X107892788Y-110132933D01*
X107958000Y-110132933D01*
X107958000Y-110067721D01*
X107893606Y-110068539D01*
X107892788Y-110132933D01*
X107824666Y-110132933D01*
X107824666Y-110066266D01*
X107891333Y-110066266D01*
X107959454Y-110066266D01*
X108092848Y-110066266D01*
X108092889Y-110099978D01*
X108092895Y-110106705D01*
X108092900Y-110116166D01*
X108092904Y-110128065D01*
X108092907Y-110142106D01*
X108092910Y-110157993D01*
X108092911Y-110175430D01*
X108092912Y-110194120D01*
X108092911Y-110213767D01*
X108092909Y-110234076D01*
X108092907Y-110254750D01*
X108092905Y-110266645D01*
X108092879Y-110399600D01*
X108226181Y-110399600D01*
X108226261Y-110433312D01*
X108226279Y-110446040D01*
X108226278Y-110460465D01*
X108226260Y-110475358D01*
X108226226Y-110489491D01*
X108226186Y-110499978D01*
X108226030Y-110532933D01*
X108291333Y-110532933D01*
X108291333Y-110466266D01*
X108359515Y-110466266D01*
X108359515Y-110532933D01*
X108424666Y-110532933D01*
X108424666Y-110466266D01*
X108492788Y-110466266D01*
X108559515Y-110466266D01*
X108559515Y-110532933D01*
X108624666Y-110532933D01*
X108692788Y-110532933D01*
X108824666Y-110532933D01*
X108824666Y-110467801D01*
X108693606Y-110468539D01*
X108692788Y-110532933D01*
X108624666Y-110532933D01*
X108624666Y-110466266D01*
X108691333Y-110466266D01*
X108959454Y-110466266D01*
X109026181Y-110466266D01*
X109026181Y-110532933D01*
X109092848Y-110532933D01*
X109092848Y-110599600D01*
X109158000Y-110599600D01*
X109158000Y-110466266D01*
X109224666Y-110466266D01*
X109224666Y-110400963D01*
X109191712Y-110401119D01*
X109179187Y-110401165D01*
X109164861Y-110401197D01*
X109149960Y-110401212D01*
X109135713Y-110401211D01*
X109125045Y-110401195D01*
X109091333Y-110401115D01*
X109091333Y-110334388D01*
X109026939Y-110335206D01*
X109026531Y-110368131D01*
X109026122Y-110401056D01*
X108960272Y-110401872D01*
X108959454Y-110466266D01*
X108691333Y-110466266D01*
X108691333Y-110401115D01*
X108624666Y-110401115D01*
X108624666Y-110399600D01*
X108692788Y-110399600D01*
X108958000Y-110399600D01*
X108958000Y-110334468D01*
X108892469Y-110334837D01*
X108826939Y-110335206D01*
X108826121Y-110399600D01*
X108758000Y-110399600D01*
X108758000Y-110334388D01*
X108693606Y-110335206D01*
X108692788Y-110399600D01*
X108624666Y-110399600D01*
X108624666Y-110332933D01*
X108691333Y-110332933D01*
X108691333Y-110132933D01*
X108759515Y-110132933D01*
X108759595Y-110166645D01*
X108759612Y-110179374D01*
X108759611Y-110193799D01*
X108759593Y-110208691D01*
X108759559Y-110222824D01*
X108759519Y-110233312D01*
X108759363Y-110266266D01*
X108824666Y-110266266D01*
X108824666Y-110001115D01*
X108758000Y-110001115D01*
X108758000Y-109934494D01*
X108560272Y-109935206D01*
X108559454Y-109999600D01*
X108692848Y-109999600D01*
X108692848Y-110067722D01*
X108659893Y-110068131D01*
X108626939Y-110068539D01*
X108626583Y-110167632D01*
X108626514Y-110184672D01*
X108626433Y-110200802D01*
X108626343Y-110215769D01*
X108626245Y-110229320D01*
X108626142Y-110241202D01*
X108626037Y-110251164D01*
X108625931Y-110258952D01*
X108625827Y-110264314D01*
X108625727Y-110266997D01*
X108625690Y-110267263D01*
X108624110Y-110267384D01*
X108619812Y-110267512D01*
X108613106Y-110267644D01*
X108604303Y-110267774D01*
X108593715Y-110267898D01*
X108581653Y-110268013D01*
X108568428Y-110268114D01*
X108559379Y-110268170D01*
X108493606Y-110268539D01*
X108492788Y-110332933D01*
X108559515Y-110332933D01*
X108559515Y-110401056D01*
X108526560Y-110401464D01*
X108493606Y-110401872D01*
X108492788Y-110466266D01*
X108424666Y-110466266D01*
X108424666Y-110400963D01*
X108391712Y-110401119D01*
X108379187Y-110401165D01*
X108364861Y-110401197D01*
X108349960Y-110401212D01*
X108335713Y-110401211D01*
X108325045Y-110401195D01*
X108291333Y-110401115D01*
X108291333Y-110334297D01*
X108258378Y-110334452D01*
X108245854Y-110334498D01*
X108231528Y-110334530D01*
X108216627Y-110334546D01*
X108202379Y-110334544D01*
X108191712Y-110334528D01*
X108158000Y-110334448D01*
X108158000Y-110332933D01*
X108292788Y-110332933D01*
X108358000Y-110332933D01*
X108358000Y-110267721D01*
X108293606Y-110268539D01*
X108292788Y-110332933D01*
X108158000Y-110332933D01*
X108158000Y-110066266D01*
X108226181Y-110066266D01*
X108226237Y-110099978D01*
X108226247Y-110109086D01*
X108226254Y-110120671D01*
X108226256Y-110134178D01*
X108226254Y-110149054D01*
X108226248Y-110164745D01*
X108226238Y-110180697D01*
X108226224Y-110196356D01*
X108226220Y-110199978D01*
X108226148Y-110266266D01*
X108291333Y-110266266D01*
X108291333Y-110199600D01*
X108359534Y-110199600D01*
X108424666Y-110199600D01*
X108424666Y-110132933D01*
X108492848Y-110132933D01*
X108492848Y-110199600D01*
X108558000Y-110199600D01*
X108558000Y-110067828D01*
X108459136Y-110068183D01*
X108360272Y-110068539D01*
X108359903Y-110134069D01*
X108359534Y-110199600D01*
X108291333Y-110199600D01*
X108291333Y-109999600D01*
X108358000Y-109999600D01*
X108358000Y-109934468D01*
X108292469Y-109934837D01*
X108226939Y-109935206D01*
X108226531Y-109968160D01*
X108226122Y-110001115D01*
X108158000Y-110001115D01*
X108158000Y-109867801D01*
X108092469Y-109868170D01*
X108026939Y-109868539D01*
X108026121Y-109932933D01*
X108092848Y-109932933D01*
X108092848Y-110001115D01*
X108059893Y-110001181D01*
X108047292Y-110001220D01*
X108032907Y-110001287D01*
X108017988Y-110001374D01*
X108003782Y-110001474D01*
X107993606Y-110001560D01*
X107960272Y-110001872D01*
X107959454Y-110066266D01*
X107891333Y-110066266D01*
X107891333Y-109934494D01*
X107792469Y-109934850D01*
X107693606Y-109935206D01*
X107693264Y-110068539D01*
X107693211Y-110089292D01*
X107693160Y-110109833D01*
X107693111Y-110129865D01*
X107693066Y-110149098D01*
X107693023Y-110167236D01*
X107692985Y-110183986D01*
X107692952Y-110199055D01*
X107692925Y-110212150D01*
X107692904Y-110222976D01*
X107692890Y-110231240D01*
X107692885Y-110234827D01*
X107692848Y-110267781D01*
X107624666Y-110267781D01*
X107624666Y-109866266D01*
X107691333Y-109866266D01*
X107691333Y-109732933D01*
X107892848Y-109732933D01*
X107892848Y-109801115D01*
X107859893Y-109801181D01*
X107847292Y-109801220D01*
X107832907Y-109801287D01*
X107817988Y-109801374D01*
X107803782Y-109801474D01*
X107793606Y-109801560D01*
X107760272Y-109801872D01*
X107759454Y-109866266D01*
X108024666Y-109866266D01*
X108292788Y-109866266D01*
X108359515Y-109866266D01*
X108359515Y-109932933D01*
X108491333Y-109932933D01*
X108759454Y-109932933D01*
X108891333Y-109932933D01*
X108891333Y-109867801D01*
X108825803Y-109868170D01*
X108760272Y-109868539D01*
X108759454Y-109932933D01*
X108491333Y-109932933D01*
X108491333Y-109867781D01*
X108424666Y-109867781D01*
X108424666Y-109801134D01*
X108293606Y-109801872D01*
X108292788Y-109866266D01*
X108024666Y-109866266D01*
X108024666Y-109732933D01*
X108559515Y-109732933D01*
X108559595Y-109766645D01*
X108559612Y-109779374D01*
X108559611Y-109793799D01*
X108559593Y-109808691D01*
X108559559Y-109822824D01*
X108559519Y-109833312D01*
X108559363Y-109866266D01*
X108691333Y-109866266D01*
X108691333Y-109801115D01*
X108624666Y-109801115D01*
X108624666Y-109732933D01*
X108892848Y-109732933D01*
X108892848Y-109799600D01*
X108958000Y-109799600D01*
X108958000Y-109732933D01*
X109026181Y-109732933D01*
X109026237Y-109766645D01*
X109026247Y-109775753D01*
X109026254Y-109787338D01*
X109026256Y-109800845D01*
X109026254Y-109815721D01*
X109026248Y-109831412D01*
X109026238Y-109847364D01*
X109026224Y-109863023D01*
X109026220Y-109866645D01*
X109026148Y-109932933D01*
X109092848Y-109932933D01*
X109092848Y-110001115D01*
X109024666Y-110001115D01*
X109024666Y-109934468D01*
X108893606Y-109935206D01*
X108892868Y-110066266D01*
X109026071Y-110066266D01*
X109026505Y-110099978D01*
X109026622Y-110112791D01*
X109026678Y-110127381D01*
X109026673Y-110142492D01*
X109026606Y-110156874D01*
X109026504Y-110167403D01*
X109026069Y-110201115D01*
X108958000Y-110201115D01*
X108958000Y-110134388D01*
X108893606Y-110135206D01*
X108892868Y-110266266D01*
X108959515Y-110266266D01*
X108959515Y-110332933D01*
X109024666Y-110332933D01*
X109024666Y-110266266D01*
X109092848Y-110266266D01*
X109092848Y-110332933D01*
X109292848Y-110332933D01*
X109292893Y-110366266D01*
X109292922Y-110395876D01*
X109292935Y-110426931D01*
X109292930Y-110458143D01*
X109292909Y-110488226D01*
X109292893Y-110501843D01*
X109292848Y-110534389D01*
X109259893Y-110534797D01*
X109226939Y-110535206D01*
X109226530Y-110567403D01*
X109226121Y-110599599D01*
X109392060Y-110599599D01*
X109558000Y-110599600D01*
X109558000Y-110534297D01*
X109525045Y-110534452D01*
X109512521Y-110534498D01*
X109498194Y-110534530D01*
X109483293Y-110534546D01*
X109469046Y-110534544D01*
X109458378Y-110534528D01*
X109424666Y-110534448D01*
X109424666Y-110467781D01*
X109358000Y-110467781D01*
X109358000Y-110466266D01*
X109426121Y-110466266D01*
X109491333Y-110466266D01*
X109491333Y-110401054D01*
X109426939Y-110401872D01*
X109426121Y-110466266D01*
X109358000Y-110466266D01*
X109358000Y-110266266D01*
X109692848Y-110266266D01*
G37*
G36*
X109691333Y-110066266D02*
G01*
X109491333Y-110066266D01*
X109491333Y-109866266D01*
X109691333Y-109866266D01*
X109691333Y-110066266D01*
G37*
G36*
X109824666Y-109732933D02*
G01*
X109824666Y-110199600D01*
X109358000Y-110199600D01*
X109358000Y-110132933D01*
X109424666Y-110132933D01*
X109758000Y-110132933D01*
X109758000Y-109799600D01*
X109424666Y-109799600D01*
X109424666Y-110132933D01*
X109358000Y-110132933D01*
X109358000Y-109732933D01*
X109824666Y-109732933D01*
G37*
G36*
X109292848Y-110067781D02*
G01*
X109261154Y-110067781D01*
X109251566Y-110067799D01*
X109242949Y-110067850D01*
X109235782Y-110067928D01*
X109230548Y-110068026D01*
X109227730Y-110068141D01*
X109227442Y-110068175D01*
X109225393Y-110068271D01*
X109220779Y-110068321D01*
X109214064Y-110068325D01*
X109205715Y-110068284D01*
X109196196Y-110068198D01*
X109191712Y-110068146D01*
X109158000Y-110067723D01*
X109158000Y-109999600D01*
X109292848Y-109999600D01*
X109292848Y-110067781D01*
G37*
G36*
X109426181Y-112067781D02*
G01*
X109358000Y-112067781D01*
X109358000Y-111999600D01*
X109426181Y-111999600D01*
X109426181Y-112067781D01*
G37*
G36*
X109826226Y-111299600D02*
G01*
X109826240Y-111312040D01*
X109826252Y-111326327D01*
X109826262Y-111341276D01*
X109826268Y-111355701D01*
X109826270Y-111367781D01*
X109826268Y-111380544D01*
X109826262Y-111394871D01*
X109826252Y-111409603D01*
X109826239Y-111423579D01*
X109826226Y-111435206D01*
X109826181Y-111467781D01*
X109758000Y-111467781D01*
X109758000Y-111266266D01*
X109826181Y-111266266D01*
X109826226Y-111299600D01*
G37*
G36*
X107558000Y-111999600D02*
G01*
X107558000Y-112466266D01*
X107091333Y-112466266D01*
X107091333Y-112399600D01*
X107158000Y-112399600D01*
X107491333Y-112399600D01*
X107491333Y-112066266D01*
X107158000Y-112066266D01*
X107158000Y-112399600D01*
X107091333Y-112399600D01*
X107091333Y-111999600D01*
X107558000Y-111999600D01*
G37*
G36*
X108226181Y-111801115D02*
G01*
X108193227Y-111801181D01*
X108180625Y-111801220D01*
X108166241Y-111801287D01*
X108151321Y-111801374D01*
X108137115Y-111801474D01*
X108126939Y-111801560D01*
X108093606Y-111801872D01*
X108092788Y-111866266D01*
X108159515Y-111866266D01*
X108159515Y-111934448D01*
X108127820Y-111934448D01*
X108118233Y-111934466D01*
X108109615Y-111934517D01*
X108102449Y-111934594D01*
X108097215Y-111934693D01*
X108094397Y-111934808D01*
X108094108Y-111934841D01*
X108092059Y-111934937D01*
X108087445Y-111934987D01*
X108080731Y-111934992D01*
X108072382Y-111934951D01*
X108062863Y-111934865D01*
X108058378Y-111934812D01*
X108024666Y-111934390D01*
X108024666Y-111732933D01*
X108226181Y-111732933D01*
X108226181Y-111801115D01*
G37*
G36*
X107424666Y-112332933D02*
G01*
X107224666Y-112332933D01*
X107224666Y-112132933D01*
X107424666Y-112132933D01*
X107424666Y-112332933D01*
G37*
G36*
X108826181Y-112334448D02*
G01*
X108758000Y-112334448D01*
X108758000Y-112266266D01*
X108826181Y-112266266D01*
X108826181Y-112334448D01*
G37*
G36*
X107159515Y-110334448D02*
G01*
X107091333Y-110334448D01*
X107091333Y-110266266D01*
X107159515Y-110266266D01*
X107159515Y-110334448D01*
G37*
G36*
X107424666Y-110066266D02*
G01*
X107224666Y-110066266D01*
X107224666Y-109866266D01*
X107424666Y-109866266D01*
X107424666Y-110066266D01*
G37*
G36*
X107558000Y-109732933D02*
G01*
X107558000Y-110199600D01*
X107091333Y-110199600D01*
X107091333Y-110132933D01*
X107158000Y-110132933D01*
X107491333Y-110132933D01*
X107491333Y-109799600D01*
X107158000Y-109799600D01*
X107158000Y-110132933D01*
X107091333Y-110132933D01*
X107091333Y-109732933D01*
X107558000Y-109732933D01*
G37*
G36*
X109092848Y-112467781D02*
G01*
X109024666Y-112467781D01*
X109024666Y-112399600D01*
X109092848Y-112399600D01*
X109092848Y-112467781D01*
G37*
%TO.C,J3*%
X112710200Y-112908800D02*
X115310200Y-112908800D01*
X110110200Y-115508800D02*
X110110200Y-120648800D01*
X110110200Y-114238800D02*
X110110200Y-112908800D01*
X110110200Y-115508800D02*
X112710200Y-115508800D01*
X112710200Y-115508800D02*
X112710200Y-112908800D01*
X110110200Y-120648800D02*
X115310200Y-120648800D01*
X115310200Y-112908800D02*
X115310200Y-120648800D01*
X110110200Y-112908800D02*
X111440200Y-112908800D01*
%TO.C,J2*%
X110034000Y-102986600D02*
X110034000Y-101656600D01*
X110034000Y-101656600D02*
X111364000Y-101656600D01*
X110034000Y-104256600D02*
X112634000Y-104256600D01*
X115234000Y-101656600D02*
X115234000Y-109396600D01*
X110034000Y-104256600D02*
X110034000Y-109396600D01*
X112634000Y-101656600D02*
X115234000Y-101656600D01*
X110034000Y-109396600D02*
X115234000Y-109396600D01*
X112634000Y-104256600D02*
X112634000Y-101656600D01*
%TO.C,J1*%
X104307800Y-101667000D02*
X106907800Y-101667000D01*
X101707800Y-109407000D02*
X106907800Y-109407000D01*
X101707800Y-104267000D02*
X101707800Y-109407000D01*
X101707800Y-101667000D02*
X103037800Y-101667000D01*
X106907800Y-101667000D02*
X106907800Y-109407000D01*
X104307800Y-104267000D02*
X104307800Y-101667000D01*
X101707800Y-104267000D02*
X104307800Y-104267000D01*
X101707800Y-102997000D02*
X101707800Y-101667000D01*
%TO.C,J4*%
X106852000Y-112908800D02*
X106852000Y-120648800D01*
X101652000Y-112908800D02*
X102982000Y-112908800D01*
X101652000Y-115508800D02*
X104252000Y-115508800D01*
X101652000Y-120648800D02*
X106852000Y-120648800D01*
X104252000Y-115508800D02*
X104252000Y-112908800D01*
X104252000Y-112908800D02*
X106852000Y-112908800D01*
X101652000Y-114238800D02*
X101652000Y-112908800D01*
X101652000Y-115508800D02*
X101652000Y-120648800D01*
%TD*%
M02*
