M48
; DRILL file {KiCad (6.0.7-1)-1} date Wednesday, October 12, 2022 at 03:16:10 PM
; FORMAT={-:-/ absolute / inch / decimal}
; #@! TF.CreationDate,2022-10-12T15:16:10-04:00
; #@! TF.GenerationSoftware,Kicad,Pcbnew,(6.0.7-1)-1
; #@! TF.FileFunction,Plated,1,2,PTH
FMAT,2
INCH
; #@! TA.AperFunction,Plated,PTH,ViaDrill
T1C0.0157
; #@! TA.AperFunction,Plated,PTH,ComponentDrill
T2C0.0394
%
G90
G05
T1
X4.2656Y-4.238
T2
X4.0544Y-4.4976
X4.0544Y-4.5976
X4.0544Y-4.6976
X4.0566Y-4.055
X4.0566Y-4.155
X4.0566Y-4.255
X4.1544Y-4.4976
X4.1544Y-4.5976
X4.1544Y-4.6976
X4.1566Y-4.055
X4.1566Y-4.155
X4.1566Y-4.255
X4.3844Y-4.0546
X4.3844Y-4.1546
X4.3844Y-4.2546
X4.3874Y-4.4976
X4.3874Y-4.5976
X4.3874Y-4.6976
X4.4844Y-4.0546
X4.4844Y-4.1546
X4.4844Y-4.2546
X4.4874Y-4.4976
X4.4874Y-4.5976
X4.4874Y-4.6976
T0
M30
