%TF.GenerationSoftware,KiCad,Pcbnew,(6.0.7-1)-1*%
%TF.CreationDate,2022-10-12T15:16:06-04:00*%
%TF.ProjectId,Connection boardV1.0,436f6e6e-6563-4746-996f-6e20626f6172,rev?*%
%TF.SameCoordinates,Original*%
%TF.FileFunction,Copper,L1,Top*%
%TF.FilePolarity,Positive*%
%FSLAX46Y46*%
G04 Gerber Fmt 4.6, Leading zero omitted, Abs format (unit mm)*
G04 Created by KiCad (PCBNEW (6.0.7-1)-1) date 2022-10-12 15:16:06*
%MOMM*%
%LPD*%
G01*
G04 APERTURE LIST*
%TA.AperFunction,ComponentPad*%
%ADD10R,1.700000X1.700000*%
%TD*%
%TA.AperFunction,ComponentPad*%
%ADD11O,1.700000X1.700000*%
%TD*%
%TA.AperFunction,ViaPad*%
%ADD12C,0.800000*%
%TD*%
%TA.AperFunction,Conductor*%
%ADD13C,0.400000*%
%TD*%
G04 APERTURE END LIST*
D10*
%TO.P,J3,1,Pin_1*%
%TO.N,SCL*%
X111440200Y-114238800D03*
D11*
%TO.P,J3,2,Pin_2*%
%TO.N,GND*%
X113980200Y-114238800D03*
%TO.P,J3,3,Pin_3*%
%TO.N,SDA*%
X111440200Y-116778800D03*
%TO.P,J3,4,Pin_4*%
%TO.N,5V*%
X113980200Y-116778800D03*
%TO.P,J3,5,Pin_5*%
%TO.N,3.3V*%
X111440200Y-119318800D03*
%TO.P,J3,6,Pin_6*%
%TO.N,5V*%
X113980200Y-119318800D03*
%TD*%
D10*
%TO.P,J2,1,Pin_1*%
%TO.N,SCL*%
X111364000Y-102986600D03*
D11*
%TO.P,J2,2,Pin_2*%
%TO.N,GND*%
X113904000Y-102986600D03*
%TO.P,J2,3,Pin_3*%
%TO.N,SDA*%
X111364000Y-105526600D03*
%TO.P,J2,4,Pin_4*%
%TO.N,5V*%
X113904000Y-105526600D03*
%TO.P,J2,5,Pin_5*%
%TO.N,3.3V*%
X111364000Y-108066600D03*
%TO.P,J2,6,Pin_6*%
%TO.N,5V*%
X113904000Y-108066600D03*
%TD*%
D10*
%TO.P,J1,1,Pin_1*%
%TO.N,SCL*%
X103037800Y-102997000D03*
D11*
%TO.P,J1,2,Pin_2*%
%TO.N,GND*%
X105577800Y-102997000D03*
%TO.P,J1,3,Pin_3*%
%TO.N,SDA*%
X103037800Y-105537000D03*
%TO.P,J1,4,Pin_4*%
%TO.N,5V*%
X105577800Y-105537000D03*
%TO.P,J1,5,Pin_5*%
%TO.N,3.3V*%
X103037800Y-108077000D03*
%TO.P,J1,6,Pin_6*%
%TO.N,5V*%
X105577800Y-108077000D03*
%TD*%
D10*
%TO.P,J4,1,Pin_1*%
%TO.N,SCL*%
X102982000Y-114238800D03*
D11*
%TO.P,J4,2,Pin_2*%
%TO.N,GND*%
X105522000Y-114238800D03*
%TO.P,J4,3,Pin_3*%
%TO.N,SDA*%
X102982000Y-116778800D03*
%TO.P,J4,4,Pin_4*%
%TO.N,5V*%
X105522000Y-116778800D03*
%TO.P,J4,5,Pin_5*%
%TO.N,3.3V*%
X102982000Y-119318800D03*
%TO.P,J4,6,Pin_6*%
%TO.N,5V*%
X105522000Y-119318800D03*
%TD*%
D12*
%TO.N,GND*%
X108346400Y-107645200D03*
%TD*%
D13*
%TO.N,SDA*%
X110302200Y-105892600D02*
X110998000Y-105892600D01*
X108696600Y-104287000D02*
X110302200Y-105892600D01*
X104287800Y-104287000D02*
X108696600Y-104287000D01*
X110998000Y-105892600D02*
X111364000Y-105526600D01*
X103037800Y-105537000D02*
X104287800Y-104287000D01*
%TO.N,GND*%
X108346400Y-108605000D02*
X113980200Y-114238800D01*
X105577800Y-102997000D02*
X108874400Y-102997000D01*
X106772000Y-115488800D02*
X112730200Y-115488800D01*
X112730200Y-115488800D02*
X113980200Y-114238800D01*
X112654000Y-104236600D02*
X113904000Y-102986600D01*
X108346400Y-107645200D02*
X108346400Y-108605000D01*
X105522000Y-114238800D02*
X106772000Y-115488800D01*
X108874400Y-102997000D02*
X110114000Y-104236600D01*
X110114000Y-104236600D02*
X112654000Y-104236600D01*
%TO.N,5V*%
X112654000Y-109316600D02*
X115230200Y-111892800D01*
X110846233Y-109316600D02*
X112654000Y-109316600D01*
X113904000Y-108066600D02*
X113904000Y-105526600D01*
X107838400Y-105537000D02*
X110114000Y-107812600D01*
X113980200Y-119318800D02*
X113980200Y-116778800D01*
X105522000Y-116778800D02*
X105522000Y-119318800D01*
X105577800Y-105537000D02*
X105577800Y-108077000D01*
X112730200Y-118068800D02*
X113980200Y-119318800D01*
X105577800Y-105537000D02*
X107838400Y-105537000D01*
X110114000Y-107812600D02*
X110114000Y-108584367D01*
X110114000Y-108584367D02*
X110846233Y-109316600D01*
X115230200Y-115528800D02*
X113980200Y-116778800D01*
X112654000Y-109316600D02*
X113904000Y-108066600D01*
X108052000Y-119318800D02*
X109302000Y-118068800D01*
X115230200Y-111892800D02*
X115230200Y-115528800D01*
X105522000Y-119318800D02*
X108052000Y-119318800D01*
X109302000Y-118068800D02*
X112730200Y-118068800D01*
%TO.N,SCL*%
X101264225Y-109783225D02*
X101264225Y-112521025D01*
X101264225Y-104770575D02*
X101264225Y-109783225D01*
X110124400Y-101747000D02*
X104287800Y-101747000D01*
X101264225Y-112521025D02*
X102982000Y-114238800D01*
X111364000Y-102986600D02*
X110124400Y-101747000D01*
X101448962Y-109598488D02*
X101264225Y-109783225D01*
X104287800Y-101747000D02*
X103037800Y-102997000D01*
X103037800Y-102997000D02*
X101264225Y-104770575D01*
X111440200Y-114238800D02*
X106799888Y-109598488D01*
X106799888Y-109598488D02*
X101448962Y-109598488D01*
%TD*%
%TA.AperFunction,Conductor*%
%TO.N,GND*%
G36*
X116433621Y-100528502D02*
G01*
X116480114Y-100582158D01*
X116491500Y-100634500D01*
X116491500Y-121365500D01*
X116471498Y-121433621D01*
X116417842Y-121480114D01*
X116365500Y-121491500D01*
X100634500Y-121491500D01*
X100566379Y-121471498D01*
X100519886Y-121417842D01*
X100508500Y-121365500D01*
X100508500Y-113075117D01*
X100528502Y-113006996D01*
X100582158Y-112960503D01*
X100652432Y-112950399D01*
X100717012Y-112979893D01*
X100725937Y-112988742D01*
X100728868Y-112993006D01*
X100734537Y-112998057D01*
X100734538Y-112998058D01*
X100775395Y-113034460D01*
X100780671Y-113039441D01*
X101586595Y-113845365D01*
X101620621Y-113907677D01*
X101623500Y-113934460D01*
X101623500Y-115136934D01*
X101630255Y-115199116D01*
X101681385Y-115335505D01*
X101768739Y-115452061D01*
X101885295Y-115539415D01*
X101893704Y-115542567D01*
X101893705Y-115542568D01*
X102002451Y-115583335D01*
X102059216Y-115625976D01*
X102083916Y-115692538D01*
X102068709Y-115761887D01*
X102049316Y-115788368D01*
X101922629Y-115920938D01*
X101796743Y-116105480D01*
X101702688Y-116308105D01*
X101642989Y-116523370D01*
X101619251Y-116745495D01*
X101619548Y-116750648D01*
X101619548Y-116750651D01*
X101625011Y-116845390D01*
X101632110Y-116968515D01*
X101633247Y-116973561D01*
X101633248Y-116973567D01*
X101653119Y-117061739D01*
X101681222Y-117186439D01*
X101719461Y-117280611D01*
X101758072Y-117375698D01*
X101765266Y-117393416D01*
X101802689Y-117454485D01*
X101879291Y-117579488D01*
X101881987Y-117583888D01*
X102028250Y-117752738D01*
X102200126Y-117895432D01*
X102215675Y-117904518D01*
X102273445Y-117938276D01*
X102322169Y-117989914D01*
X102335240Y-118059697D01*
X102308509Y-118125469D01*
X102268055Y-118158827D01*
X102255607Y-118165307D01*
X102251474Y-118168410D01*
X102251471Y-118168412D01*
X102229357Y-118185016D01*
X102076965Y-118299435D01*
X101922629Y-118460938D01*
X101796743Y-118645480D01*
X101702688Y-118848105D01*
X101642989Y-119063370D01*
X101619251Y-119285495D01*
X101619548Y-119290648D01*
X101619548Y-119290651D01*
X101625011Y-119385390D01*
X101632110Y-119508515D01*
X101633247Y-119513561D01*
X101633248Y-119513567D01*
X101653119Y-119601739D01*
X101681222Y-119726439D01*
X101719461Y-119820611D01*
X101748535Y-119892211D01*
X101765266Y-119933416D01*
X101805449Y-119998989D01*
X101879291Y-120119488D01*
X101881987Y-120123888D01*
X102028250Y-120292738D01*
X102200126Y-120435432D01*
X102393000Y-120548138D01*
X102601692Y-120627830D01*
X102606760Y-120628861D01*
X102606763Y-120628862D01*
X102714017Y-120650683D01*
X102820597Y-120672367D01*
X102825772Y-120672557D01*
X102825774Y-120672557D01*
X103038673Y-120680364D01*
X103038677Y-120680364D01*
X103043837Y-120680553D01*
X103048957Y-120679897D01*
X103048959Y-120679897D01*
X103260288Y-120652825D01*
X103260289Y-120652825D01*
X103265416Y-120652168D01*
X103270366Y-120650683D01*
X103474429Y-120589461D01*
X103474434Y-120589459D01*
X103479384Y-120587974D01*
X103679994Y-120489696D01*
X103861860Y-120359973D01*
X104020096Y-120202289D01*
X104079594Y-120119489D01*
X104150453Y-120020877D01*
X104151776Y-120021828D01*
X104198645Y-119978657D01*
X104268580Y-119966425D01*
X104334026Y-119993944D01*
X104361875Y-120025794D01*
X104377852Y-120051866D01*
X104421987Y-120123888D01*
X104568250Y-120292738D01*
X104740126Y-120435432D01*
X104933000Y-120548138D01*
X105141692Y-120627830D01*
X105146760Y-120628861D01*
X105146763Y-120628862D01*
X105254017Y-120650683D01*
X105360597Y-120672367D01*
X105365772Y-120672557D01*
X105365774Y-120672557D01*
X105578673Y-120680364D01*
X105578677Y-120680364D01*
X105583837Y-120680553D01*
X105588957Y-120679897D01*
X105588959Y-120679897D01*
X105800288Y-120652825D01*
X105800289Y-120652825D01*
X105805416Y-120652168D01*
X105810366Y-120650683D01*
X106014429Y-120589461D01*
X106014434Y-120589459D01*
X106019384Y-120587974D01*
X106219994Y-120489696D01*
X106401860Y-120359973D01*
X106560096Y-120202289D01*
X106619594Y-120119489D01*
X106648132Y-120079774D01*
X106704127Y-120036126D01*
X106750455Y-120027300D01*
X108023088Y-120027300D01*
X108031658Y-120027592D01*
X108081776Y-120031009D01*
X108081780Y-120031009D01*
X108089352Y-120031525D01*
X108096829Y-120030220D01*
X108096830Y-120030220D01*
X108126298Y-120025077D01*
X108152303Y-120020538D01*
X108158821Y-120019577D01*
X108222242Y-120011902D01*
X108229343Y-120009219D01*
X108231952Y-120008578D01*
X108248262Y-120004115D01*
X108250798Y-120003350D01*
X108258284Y-120002043D01*
X108316800Y-119976356D01*
X108322904Y-119973865D01*
X108375548Y-119953973D01*
X108375549Y-119953972D01*
X108382656Y-119951287D01*
X108388919Y-119946983D01*
X108391285Y-119945746D01*
X108406097Y-119937501D01*
X108408351Y-119936168D01*
X108415305Y-119933115D01*
X108466002Y-119894213D01*
X108471332Y-119890341D01*
X108517720Y-119858461D01*
X108517725Y-119858456D01*
X108523981Y-119854157D01*
X108565436Y-119807629D01*
X108570416Y-119802354D01*
X109558565Y-118814205D01*
X109620877Y-118780179D01*
X109647660Y-118777300D01*
X110014826Y-118777300D01*
X110082947Y-118797302D01*
X110129440Y-118850958D01*
X110139544Y-118921232D01*
X110136245Y-118936964D01*
X110101189Y-119063370D01*
X110077451Y-119285495D01*
X110077748Y-119290648D01*
X110077748Y-119290651D01*
X110083211Y-119385390D01*
X110090310Y-119508515D01*
X110091447Y-119513561D01*
X110091448Y-119513567D01*
X110111319Y-119601739D01*
X110139422Y-119726439D01*
X110177661Y-119820611D01*
X110206735Y-119892211D01*
X110223466Y-119933416D01*
X110263649Y-119998989D01*
X110337491Y-120119488D01*
X110340187Y-120123888D01*
X110486450Y-120292738D01*
X110658326Y-120435432D01*
X110851200Y-120548138D01*
X111059892Y-120627830D01*
X111064960Y-120628861D01*
X111064963Y-120628862D01*
X111172217Y-120650683D01*
X111278797Y-120672367D01*
X111283972Y-120672557D01*
X111283974Y-120672557D01*
X111496873Y-120680364D01*
X111496877Y-120680364D01*
X111502037Y-120680553D01*
X111507157Y-120679897D01*
X111507159Y-120679897D01*
X111718488Y-120652825D01*
X111718489Y-120652825D01*
X111723616Y-120652168D01*
X111728566Y-120650683D01*
X111932629Y-120589461D01*
X111932634Y-120589459D01*
X111937584Y-120587974D01*
X112138194Y-120489696D01*
X112320060Y-120359973D01*
X112478296Y-120202289D01*
X112537794Y-120119489D01*
X112608653Y-120020877D01*
X112609976Y-120021828D01*
X112656845Y-119978657D01*
X112726780Y-119966425D01*
X112792226Y-119993944D01*
X112820075Y-120025794D01*
X112836052Y-120051866D01*
X112880187Y-120123888D01*
X113026450Y-120292738D01*
X113198326Y-120435432D01*
X113391200Y-120548138D01*
X113599892Y-120627830D01*
X113604960Y-120628861D01*
X113604963Y-120628862D01*
X113712217Y-120650683D01*
X113818797Y-120672367D01*
X113823972Y-120672557D01*
X113823974Y-120672557D01*
X114036873Y-120680364D01*
X114036877Y-120680364D01*
X114042037Y-120680553D01*
X114047157Y-120679897D01*
X114047159Y-120679897D01*
X114258488Y-120652825D01*
X114258489Y-120652825D01*
X114263616Y-120652168D01*
X114268566Y-120650683D01*
X114472629Y-120589461D01*
X114472634Y-120589459D01*
X114477584Y-120587974D01*
X114678194Y-120489696D01*
X114860060Y-120359973D01*
X115018296Y-120202289D01*
X115077794Y-120119489D01*
X115145635Y-120025077D01*
X115148653Y-120020877D01*
X115156367Y-120005270D01*
X115245336Y-119825253D01*
X115245337Y-119825251D01*
X115247630Y-119820611D01*
X115312570Y-119606869D01*
X115341729Y-119385390D01*
X115343356Y-119318800D01*
X115325052Y-119096161D01*
X115270631Y-118879502D01*
X115181554Y-118674640D01*
X115060214Y-118487077D01*
X114909870Y-118321851D01*
X114905819Y-118318652D01*
X114905815Y-118318648D01*
X114736608Y-118185016D01*
X114695545Y-118127098D01*
X114688700Y-118086134D01*
X114688700Y-118007097D01*
X114708702Y-117938976D01*
X114741532Y-117904518D01*
X114855856Y-117822972D01*
X114855859Y-117822970D01*
X114860060Y-117819973D01*
X115018296Y-117662289D01*
X115075504Y-117582676D01*
X115145635Y-117485077D01*
X115148653Y-117480877D01*
X115159413Y-117459107D01*
X115245336Y-117285253D01*
X115245337Y-117285251D01*
X115247630Y-117280611D01*
X115312570Y-117066869D01*
X115341729Y-116845390D01*
X115343356Y-116778800D01*
X115325052Y-116556161D01*
X115323793Y-116551148D01*
X115323791Y-116551137D01*
X115318315Y-116529340D01*
X115321118Y-116458398D01*
X115351423Y-116409547D01*
X115710720Y-116050250D01*
X115716985Y-116044396D01*
X115717438Y-116044001D01*
X115760585Y-116006361D01*
X115797329Y-115954080D01*
X115801261Y-115948786D01*
X115835991Y-115904493D01*
X115840676Y-115898518D01*
X115843799Y-115891602D01*
X115845183Y-115889316D01*
X115853557Y-115874635D01*
X115854822Y-115872275D01*
X115859190Y-115866061D01*
X115882403Y-115806523D01*
X115884959Y-115800442D01*
X115891802Y-115785288D01*
X115911245Y-115742227D01*
X115912629Y-115734760D01*
X115913430Y-115732205D01*
X115918059Y-115715952D01*
X115918722Y-115713372D01*
X115921482Y-115706291D01*
X115929822Y-115642939D01*
X115930853Y-115636432D01*
X115932340Y-115628412D01*
X115942496Y-115573614D01*
X115938909Y-115511408D01*
X115938700Y-115504154D01*
X115938700Y-111921712D01*
X115938992Y-111913142D01*
X115942409Y-111863024D01*
X115942409Y-111863020D01*
X115942925Y-111855448D01*
X115931938Y-111792497D01*
X115930976Y-111785975D01*
X115924214Y-111730098D01*
X115923302Y-111722558D01*
X115920619Y-111715457D01*
X115919978Y-111712848D01*
X115915515Y-111696538D01*
X115914750Y-111694002D01*
X115913443Y-111686516D01*
X115887756Y-111628000D01*
X115885265Y-111621896D01*
X115865373Y-111569252D01*
X115865372Y-111569251D01*
X115862687Y-111562144D01*
X115858383Y-111555881D01*
X115857146Y-111553515D01*
X115848901Y-111538703D01*
X115847568Y-111536449D01*
X115844515Y-111529495D01*
X115805613Y-111478798D01*
X115801741Y-111473468D01*
X115769861Y-111427080D01*
X115769856Y-111427075D01*
X115765557Y-111420819D01*
X115719029Y-111379364D01*
X115713754Y-111374384D01*
X113971685Y-109632315D01*
X113937659Y-109570003D01*
X113942724Y-109499188D01*
X113985271Y-109442352D01*
X114044768Y-109418242D01*
X114136003Y-109406554D01*
X114182289Y-109400625D01*
X114182292Y-109400624D01*
X114187416Y-109399968D01*
X114192366Y-109398483D01*
X114396429Y-109337261D01*
X114396434Y-109337259D01*
X114401384Y-109335774D01*
X114601994Y-109237496D01*
X114783860Y-109107773D01*
X114788868Y-109102783D01*
X114938435Y-108953737D01*
X114942096Y-108950089D01*
X114950450Y-108938464D01*
X115069435Y-108772877D01*
X115072453Y-108768677D01*
X115083133Y-108747069D01*
X115169136Y-108573053D01*
X115169137Y-108573051D01*
X115171430Y-108568411D01*
X115236370Y-108354669D01*
X115265529Y-108133190D01*
X115267156Y-108066600D01*
X115248852Y-107843961D01*
X115194431Y-107627302D01*
X115105354Y-107422440D01*
X114984014Y-107234877D01*
X114833670Y-107069651D01*
X114829619Y-107066452D01*
X114829615Y-107066448D01*
X114660408Y-106932816D01*
X114619345Y-106874898D01*
X114612500Y-106833934D01*
X114612500Y-106754897D01*
X114632502Y-106686776D01*
X114665332Y-106652318D01*
X114779656Y-106570772D01*
X114779659Y-106570770D01*
X114783860Y-106567773D01*
X114841036Y-106510797D01*
X114929155Y-106422985D01*
X114942096Y-106410089D01*
X114961978Y-106382421D01*
X115069435Y-106232877D01*
X115072453Y-106228677D01*
X115088180Y-106196857D01*
X115169136Y-106033053D01*
X115169137Y-106033051D01*
X115171430Y-106028411D01*
X115236370Y-105814669D01*
X115265529Y-105593190D01*
X115267156Y-105526600D01*
X115248852Y-105303961D01*
X115194431Y-105087302D01*
X115105354Y-104882440D01*
X114984014Y-104694877D01*
X114833670Y-104529651D01*
X114829619Y-104526452D01*
X114829615Y-104526448D01*
X114662414Y-104394400D01*
X114662410Y-104394398D01*
X114658359Y-104391198D01*
X114616569Y-104368129D01*
X114566598Y-104317697D01*
X114551826Y-104248254D01*
X114576942Y-104181848D01*
X114604294Y-104155241D01*
X114779328Y-104030392D01*
X114787200Y-104023739D01*
X114938052Y-103873412D01*
X114944730Y-103865565D01*
X115069003Y-103692620D01*
X115074313Y-103683783D01*
X115168670Y-103492867D01*
X115172469Y-103483272D01*
X115234377Y-103279510D01*
X115236555Y-103269437D01*
X115237986Y-103258562D01*
X115235775Y-103244378D01*
X115222617Y-103240600D01*
X113776000Y-103240600D01*
X113707879Y-103220598D01*
X113661386Y-103166942D01*
X113650000Y-103114600D01*
X113650000Y-102714485D01*
X114158000Y-102714485D01*
X114162475Y-102729724D01*
X114163865Y-102730929D01*
X114171548Y-102732600D01*
X115222344Y-102732600D01*
X115235875Y-102728627D01*
X115237180Y-102719547D01*
X115195214Y-102552475D01*
X115191894Y-102542724D01*
X115106972Y-102347414D01*
X115102105Y-102338339D01*
X114986426Y-102159526D01*
X114980136Y-102151357D01*
X114836806Y-101993840D01*
X114829273Y-101986815D01*
X114662139Y-101854822D01*
X114653552Y-101849117D01*
X114467117Y-101746199D01*
X114457705Y-101741969D01*
X114256959Y-101670880D01*
X114246988Y-101668246D01*
X114175837Y-101655572D01*
X114162540Y-101657032D01*
X114158000Y-101671589D01*
X114158000Y-102714485D01*
X113650000Y-102714485D01*
X113650000Y-101669702D01*
X113646082Y-101656358D01*
X113631806Y-101654371D01*
X113593324Y-101660260D01*
X113583288Y-101662651D01*
X113380868Y-101728812D01*
X113371359Y-101732809D01*
X113182463Y-101831142D01*
X113173738Y-101836636D01*
X113003433Y-101964505D01*
X112995726Y-101971348D01*
X112918478Y-102052184D01*
X112856954Y-102087614D01*
X112786042Y-102084157D01*
X112728255Y-102042911D01*
X112709402Y-102009363D01*
X112667767Y-101898303D01*
X112664615Y-101889895D01*
X112577261Y-101773339D01*
X112460705Y-101685985D01*
X112324316Y-101634855D01*
X112262134Y-101628100D01*
X111059660Y-101628100D01*
X110991539Y-101608098D01*
X110970565Y-101591195D01*
X110645850Y-101266480D01*
X110639996Y-101260215D01*
X110638212Y-101258170D01*
X110601961Y-101216615D01*
X110549680Y-101179871D01*
X110544386Y-101175939D01*
X110500093Y-101141209D01*
X110494118Y-101136524D01*
X110487202Y-101133401D01*
X110484916Y-101132017D01*
X110470235Y-101123643D01*
X110467875Y-101122378D01*
X110461661Y-101118010D01*
X110454582Y-101115250D01*
X110454580Y-101115249D01*
X110402125Y-101094798D01*
X110396056Y-101092247D01*
X110337827Y-101065955D01*
X110330360Y-101064571D01*
X110327805Y-101063770D01*
X110311552Y-101059141D01*
X110308972Y-101058478D01*
X110301891Y-101055718D01*
X110294360Y-101054727D01*
X110294358Y-101054726D01*
X110264739Y-101050827D01*
X110238539Y-101047378D01*
X110232041Y-101046348D01*
X110169214Y-101034704D01*
X110161634Y-101035141D01*
X110161633Y-101035141D01*
X110107008Y-101038291D01*
X110099754Y-101038500D01*
X104316712Y-101038500D01*
X104308142Y-101038208D01*
X104258024Y-101034791D01*
X104258020Y-101034791D01*
X104250448Y-101034275D01*
X104242971Y-101035580D01*
X104242970Y-101035580D01*
X104216492Y-101040201D01*
X104187497Y-101045262D01*
X104180979Y-101046223D01*
X104117558Y-101053898D01*
X104110457Y-101056581D01*
X104107848Y-101057222D01*
X104091538Y-101061685D01*
X104089002Y-101062450D01*
X104081516Y-101063757D01*
X104069386Y-101069082D01*
X104023005Y-101089442D01*
X104016901Y-101091933D01*
X103957144Y-101114513D01*
X103950881Y-101118817D01*
X103948515Y-101120054D01*
X103933703Y-101128299D01*
X103931449Y-101129632D01*
X103924495Y-101132685D01*
X103873798Y-101171587D01*
X103868468Y-101175459D01*
X103822080Y-101207339D01*
X103822075Y-101207344D01*
X103815819Y-101211643D01*
X103810768Y-101217313D01*
X103810766Y-101217314D01*
X103774365Y-101258170D01*
X103769384Y-101263446D01*
X103431235Y-101601595D01*
X103368923Y-101635621D01*
X103342140Y-101638500D01*
X102139666Y-101638500D01*
X102077484Y-101645255D01*
X101941095Y-101696385D01*
X101824539Y-101783739D01*
X101737185Y-101900295D01*
X101686055Y-102036684D01*
X101679300Y-102098866D01*
X101679300Y-103301340D01*
X101659298Y-103369461D01*
X101642395Y-103390435D01*
X100783705Y-104249125D01*
X100777440Y-104254979D01*
X100733840Y-104293014D01*
X100729474Y-104299226D01*
X100728136Y-104300712D01*
X100667689Y-104337951D01*
X100596706Y-104336599D01*
X100537721Y-104297085D01*
X100509464Y-104231954D01*
X100508500Y-104216401D01*
X100508500Y-100634500D01*
X100528502Y-100566379D01*
X100582158Y-100519886D01*
X100634500Y-100508500D01*
X116365500Y-100508500D01*
X116433621Y-100528502D01*
G37*
%TD.AperFunction*%
%TA.AperFunction,Conductor*%
G36*
X106522349Y-110326990D02*
G01*
X106543323Y-110343893D01*
X110044795Y-113845366D01*
X110078821Y-113907678D01*
X110081700Y-113934460D01*
X110081700Y-115136934D01*
X110088455Y-115199116D01*
X110139585Y-115335505D01*
X110226939Y-115452061D01*
X110343495Y-115539415D01*
X110351904Y-115542567D01*
X110351905Y-115542568D01*
X110460651Y-115583335D01*
X110517416Y-115625976D01*
X110542116Y-115692538D01*
X110526909Y-115761887D01*
X110507516Y-115788368D01*
X110380829Y-115920938D01*
X110254943Y-116105480D01*
X110160888Y-116308105D01*
X110101189Y-116523370D01*
X110077451Y-116745495D01*
X110077748Y-116750648D01*
X110077748Y-116750651D01*
X110083211Y-116845390D01*
X110090310Y-116968515D01*
X110091447Y-116973561D01*
X110091448Y-116973567D01*
X110111319Y-117061739D01*
X110139422Y-117186439D01*
X110141366Y-117191227D01*
X110142914Y-117196167D01*
X110140591Y-117196895D01*
X110146723Y-117257436D01*
X110114552Y-117320726D01*
X110053272Y-117356576D01*
X110022865Y-117360300D01*
X109330912Y-117360300D01*
X109322342Y-117360008D01*
X109272224Y-117356591D01*
X109272220Y-117356591D01*
X109264648Y-117356075D01*
X109257171Y-117357380D01*
X109257170Y-117357380D01*
X109230692Y-117362001D01*
X109201697Y-117367062D01*
X109195179Y-117368023D01*
X109131758Y-117375698D01*
X109124657Y-117378381D01*
X109122048Y-117379022D01*
X109105738Y-117383485D01*
X109103202Y-117384250D01*
X109095716Y-117385557D01*
X109067781Y-117397820D01*
X109037205Y-117411242D01*
X109031101Y-117413733D01*
X108971344Y-117436313D01*
X108965081Y-117440617D01*
X108962715Y-117441854D01*
X108947903Y-117450099D01*
X108945649Y-117451432D01*
X108938695Y-117454485D01*
X108887998Y-117493387D01*
X108882668Y-117497259D01*
X108836280Y-117529139D01*
X108836275Y-117529144D01*
X108830019Y-117533443D01*
X108824968Y-117539113D01*
X108824966Y-117539114D01*
X108788565Y-117579970D01*
X108783584Y-117585246D01*
X107795435Y-118573395D01*
X107733123Y-118607421D01*
X107706340Y-118610300D01*
X106750286Y-118610300D01*
X106682165Y-118590298D01*
X106644494Y-118552741D01*
X106602014Y-118487077D01*
X106451670Y-118321851D01*
X106447619Y-118318652D01*
X106447615Y-118318648D01*
X106278408Y-118185016D01*
X106237345Y-118127098D01*
X106230500Y-118086134D01*
X106230500Y-118007097D01*
X106250502Y-117938976D01*
X106283332Y-117904518D01*
X106397656Y-117822972D01*
X106397659Y-117822970D01*
X106401860Y-117819973D01*
X106560096Y-117662289D01*
X106617304Y-117582676D01*
X106687435Y-117485077D01*
X106690453Y-117480877D01*
X106701213Y-117459107D01*
X106787136Y-117285253D01*
X106787137Y-117285251D01*
X106789430Y-117280611D01*
X106854370Y-117066869D01*
X106883529Y-116845390D01*
X106885156Y-116778800D01*
X106866852Y-116556161D01*
X106812431Y-116339502D01*
X106723354Y-116134640D01*
X106602014Y-115947077D01*
X106451670Y-115781851D01*
X106447619Y-115778652D01*
X106447615Y-115778648D01*
X106280414Y-115646600D01*
X106280410Y-115646598D01*
X106276359Y-115643398D01*
X106234569Y-115620329D01*
X106184598Y-115569897D01*
X106169826Y-115500454D01*
X106194942Y-115434048D01*
X106222294Y-115407441D01*
X106397328Y-115282592D01*
X106405200Y-115275939D01*
X106556052Y-115125612D01*
X106562730Y-115117765D01*
X106687003Y-114944820D01*
X106692313Y-114935983D01*
X106786670Y-114745067D01*
X106790469Y-114735472D01*
X106852377Y-114531710D01*
X106854555Y-114521637D01*
X106855986Y-114510762D01*
X106853775Y-114496578D01*
X106840617Y-114492800D01*
X105394000Y-114492800D01*
X105325879Y-114472798D01*
X105279386Y-114419142D01*
X105268000Y-114366800D01*
X105268000Y-113966685D01*
X105776000Y-113966685D01*
X105780475Y-113981924D01*
X105781865Y-113983129D01*
X105789548Y-113984800D01*
X106840344Y-113984800D01*
X106853875Y-113980827D01*
X106855180Y-113971747D01*
X106813214Y-113804675D01*
X106809894Y-113794924D01*
X106724972Y-113599614D01*
X106720105Y-113590539D01*
X106604426Y-113411726D01*
X106598136Y-113403557D01*
X106454806Y-113246040D01*
X106447273Y-113239015D01*
X106280139Y-113107022D01*
X106271552Y-113101317D01*
X106085117Y-112998399D01*
X106075705Y-112994169D01*
X105874959Y-112923080D01*
X105864988Y-112920446D01*
X105793837Y-112907772D01*
X105780540Y-112909232D01*
X105776000Y-112923789D01*
X105776000Y-113966685D01*
X105268000Y-113966685D01*
X105268000Y-112921902D01*
X105264082Y-112908558D01*
X105249806Y-112906571D01*
X105211324Y-112912460D01*
X105201288Y-112914851D01*
X104998868Y-112981012D01*
X104989359Y-112985009D01*
X104800463Y-113083342D01*
X104791738Y-113088836D01*
X104621433Y-113216705D01*
X104613726Y-113223548D01*
X104536478Y-113304384D01*
X104474954Y-113339814D01*
X104404042Y-113336357D01*
X104346255Y-113295111D01*
X104327402Y-113261563D01*
X104285767Y-113150503D01*
X104282615Y-113142095D01*
X104195261Y-113025539D01*
X104078705Y-112938185D01*
X103942316Y-112887055D01*
X103880134Y-112880300D01*
X102677660Y-112880300D01*
X102609539Y-112860298D01*
X102588565Y-112843395D01*
X102009630Y-112264460D01*
X101975604Y-112202148D01*
X101972725Y-112175365D01*
X101972725Y-110432988D01*
X101992727Y-110364867D01*
X102046383Y-110318374D01*
X102098725Y-110306988D01*
X106454228Y-110306988D01*
X106522349Y-110326990D01*
G37*
%TD.AperFunction*%
%TA.AperFunction,Conductor*%
G36*
X112963550Y-115151392D02*
G01*
X112998217Y-115179380D01*
X113023418Y-115208473D01*
X113030780Y-115215683D01*
X113194634Y-115351716D01*
X113203081Y-115357631D01*
X113272169Y-115398003D01*
X113320893Y-115449642D01*
X113333964Y-115519425D01*
X113307233Y-115585196D01*
X113266784Y-115618552D01*
X113253807Y-115625307D01*
X113249674Y-115628410D01*
X113249671Y-115628412D01*
X113079300Y-115756330D01*
X113075165Y-115759435D01*
X112920829Y-115920938D01*
X112813401Y-116078421D01*
X112758493Y-116123421D01*
X112687968Y-116131592D01*
X112624221Y-116100338D01*
X112603524Y-116075854D01*
X112523022Y-115951417D01*
X112523020Y-115951414D01*
X112520214Y-115947077D01*
X112516732Y-115943250D01*
X112372998Y-115785288D01*
X112341946Y-115721442D01*
X112350341Y-115650943D01*
X112395517Y-115596175D01*
X112421961Y-115582506D01*
X112528497Y-115542567D01*
X112536905Y-115539415D01*
X112653461Y-115452061D01*
X112740815Y-115335505D01*
X112784998Y-115217648D01*
X112827640Y-115160884D01*
X112894201Y-115136184D01*
X112963550Y-115151392D01*
G37*
%TD.AperFunction*%
%TA.AperFunction,Conductor*%
G36*
X107560861Y-106265502D02*
G01*
X107581835Y-106282405D01*
X109368595Y-108069166D01*
X109402621Y-108131478D01*
X109405500Y-108158261D01*
X109405500Y-108555455D01*
X109405208Y-108564025D01*
X109403884Y-108583452D01*
X109401275Y-108621719D01*
X109402580Y-108629196D01*
X109402580Y-108629197D01*
X109412261Y-108684666D01*
X109413223Y-108691188D01*
X109420898Y-108754609D01*
X109423581Y-108761710D01*
X109424222Y-108764319D01*
X109428685Y-108780629D01*
X109429450Y-108783165D01*
X109430757Y-108790651D01*
X109433811Y-108797608D01*
X109456442Y-108849162D01*
X109458935Y-108855271D01*
X109472379Y-108890849D01*
X109481513Y-108915023D01*
X109485817Y-108921286D01*
X109487054Y-108923652D01*
X109495299Y-108938464D01*
X109496632Y-108940718D01*
X109499685Y-108947672D01*
X109527182Y-108983505D01*
X109538579Y-108998358D01*
X109542459Y-109003699D01*
X109574339Y-109050087D01*
X109574344Y-109050092D01*
X109578643Y-109056348D01*
X109584313Y-109061399D01*
X109584314Y-109061401D01*
X109625170Y-109097802D01*
X109630446Y-109102783D01*
X110324783Y-109797120D01*
X110330637Y-109803385D01*
X110368672Y-109846985D01*
X110374890Y-109851355D01*
X110420930Y-109883712D01*
X110426226Y-109887645D01*
X110476515Y-109927077D01*
X110483437Y-109930202D01*
X110485685Y-109931564D01*
X110500418Y-109939968D01*
X110502757Y-109941222D01*
X110508972Y-109945590D01*
X110516048Y-109948349D01*
X110516052Y-109948351D01*
X110568502Y-109968800D01*
X110574567Y-109971349D01*
X110632806Y-109997645D01*
X110640271Y-109999029D01*
X110642815Y-109999826D01*
X110659081Y-110004459D01*
X110661661Y-110005121D01*
X110668742Y-110007882D01*
X110676275Y-110008874D01*
X110676276Y-110008874D01*
X110708932Y-110013173D01*
X110732090Y-110016222D01*
X110738588Y-110017250D01*
X110801420Y-110028896D01*
X110809000Y-110028459D01*
X110809001Y-110028459D01*
X110863626Y-110025309D01*
X110870880Y-110025100D01*
X112308340Y-110025100D01*
X112376461Y-110045102D01*
X112397435Y-110062005D01*
X114484795Y-112149365D01*
X114518821Y-112211677D01*
X114521700Y-112238460D01*
X114521700Y-112811560D01*
X114501698Y-112879681D01*
X114448042Y-112926174D01*
X114377768Y-112936278D01*
X114353640Y-112930333D01*
X114333159Y-112923080D01*
X114323188Y-112920446D01*
X114252037Y-112907772D01*
X114238740Y-112909232D01*
X114234200Y-112923789D01*
X114234200Y-114366800D01*
X114214198Y-114434921D01*
X114160542Y-114481414D01*
X114108200Y-114492800D01*
X113852200Y-114492800D01*
X113784079Y-114472798D01*
X113737586Y-114419142D01*
X113726200Y-114366800D01*
X113726200Y-112921902D01*
X113722282Y-112908558D01*
X113708006Y-112906571D01*
X113669524Y-112912460D01*
X113659488Y-112914851D01*
X113457068Y-112981012D01*
X113447559Y-112985009D01*
X113258663Y-113083342D01*
X113249938Y-113088836D01*
X113079633Y-113216705D01*
X113071926Y-113223548D01*
X112994678Y-113304384D01*
X112933154Y-113339814D01*
X112862242Y-113336357D01*
X112804455Y-113295111D01*
X112785602Y-113261563D01*
X112743967Y-113150503D01*
X112740815Y-113142095D01*
X112653461Y-113025539D01*
X112536905Y-112938185D01*
X112400516Y-112887055D01*
X112338334Y-112880300D01*
X111135860Y-112880300D01*
X111067739Y-112860298D01*
X111046765Y-112843395D01*
X107321338Y-109117968D01*
X107315484Y-109111703D01*
X107308877Y-109104129D01*
X107277449Y-109068103D01*
X107225168Y-109031359D01*
X107219874Y-109027427D01*
X107175581Y-108992697D01*
X107169606Y-108988012D01*
X107162690Y-108984889D01*
X107160404Y-108983505D01*
X107145723Y-108975131D01*
X107143363Y-108973866D01*
X107137149Y-108969498D01*
X107130070Y-108966738D01*
X107130068Y-108966737D01*
X107077613Y-108946286D01*
X107071544Y-108943735D01*
X107013315Y-108917443D01*
X107005848Y-108916059D01*
X107003293Y-108915258D01*
X106987040Y-108910629D01*
X106984460Y-108909966D01*
X106977379Y-108907206D01*
X106969848Y-108906215D01*
X106969846Y-108906214D01*
X106940227Y-108902315D01*
X106914027Y-108898866D01*
X106907529Y-108897836D01*
X106869828Y-108890849D01*
X106806493Y-108858768D01*
X106770557Y-108797538D01*
X106773429Y-108726599D01*
X106779833Y-108711132D01*
X106789479Y-108691616D01*
X106845230Y-108578811D01*
X106910170Y-108365069D01*
X106939329Y-108143590D01*
X106940956Y-108077000D01*
X106922652Y-107854361D01*
X106868231Y-107637702D01*
X106779154Y-107432840D01*
X106657814Y-107245277D01*
X106507470Y-107080051D01*
X106503419Y-107076852D01*
X106503415Y-107076848D01*
X106334208Y-106943216D01*
X106293145Y-106885298D01*
X106286300Y-106844334D01*
X106286300Y-106765297D01*
X106306302Y-106697176D01*
X106339132Y-106662718D01*
X106453456Y-106581172D01*
X106453459Y-106581170D01*
X106457660Y-106578173D01*
X106468097Y-106567773D01*
X106612235Y-106424137D01*
X106615896Y-106420489D01*
X106672233Y-106342088D01*
X106703932Y-106297974D01*
X106759927Y-106254326D01*
X106806255Y-106245500D01*
X107492740Y-106245500D01*
X107560861Y-106265502D01*
G37*
%TD.AperFunction*%
%TA.AperFunction,Conductor*%
G36*
X112887350Y-103899192D02*
G01*
X112922017Y-103927180D01*
X112947218Y-103956273D01*
X112954580Y-103963483D01*
X113118434Y-104099516D01*
X113126881Y-104105431D01*
X113195969Y-104145803D01*
X113244693Y-104197442D01*
X113257764Y-104267225D01*
X113231033Y-104332996D01*
X113190584Y-104366352D01*
X113177607Y-104373107D01*
X113173474Y-104376210D01*
X113173471Y-104376212D01*
X113049567Y-104469242D01*
X112998965Y-104507235D01*
X112844629Y-104668738D01*
X112737201Y-104826221D01*
X112682293Y-104871221D01*
X112611768Y-104879392D01*
X112548021Y-104848138D01*
X112527324Y-104823654D01*
X112446822Y-104699217D01*
X112446820Y-104699214D01*
X112444014Y-104694877D01*
X112427283Y-104676490D01*
X112296798Y-104533088D01*
X112265746Y-104469242D01*
X112274141Y-104398743D01*
X112319317Y-104343975D01*
X112345761Y-104330306D01*
X112452297Y-104290367D01*
X112460705Y-104287215D01*
X112577261Y-104199861D01*
X112664615Y-104083305D01*
X112708798Y-103965448D01*
X112751440Y-103908684D01*
X112818001Y-103883984D01*
X112887350Y-103899192D01*
G37*
%TD.AperFunction*%
%TA.AperFunction,Conductor*%
G36*
X109846861Y-102475502D02*
G01*
X109867835Y-102492405D01*
X109968595Y-102593165D01*
X110002621Y-102655477D01*
X110005500Y-102682260D01*
X110005500Y-103884734D01*
X110012255Y-103946916D01*
X110063385Y-104083305D01*
X110150739Y-104199861D01*
X110267295Y-104287215D01*
X110275704Y-104290367D01*
X110275705Y-104290368D01*
X110384451Y-104331135D01*
X110441216Y-104373776D01*
X110465916Y-104440338D01*
X110450709Y-104509687D01*
X110431316Y-104536168D01*
X110304629Y-104668738D01*
X110301720Y-104673003D01*
X110301714Y-104673011D01*
X110299341Y-104676490D01*
X110244432Y-104721495D01*
X110173907Y-104729669D01*
X110106155Y-104694585D01*
X109218050Y-103806480D01*
X109212196Y-103800215D01*
X109211801Y-103799762D01*
X109174161Y-103756615D01*
X109121880Y-103719871D01*
X109116586Y-103715939D01*
X109072293Y-103681209D01*
X109066318Y-103676524D01*
X109059402Y-103673401D01*
X109057116Y-103672017D01*
X109042435Y-103663643D01*
X109040075Y-103662378D01*
X109033861Y-103658010D01*
X109026782Y-103655250D01*
X109026780Y-103655249D01*
X108974325Y-103634798D01*
X108968256Y-103632247D01*
X108910027Y-103605955D01*
X108902560Y-103604571D01*
X108900005Y-103603770D01*
X108883752Y-103599141D01*
X108881172Y-103598478D01*
X108874091Y-103595718D01*
X108866560Y-103594727D01*
X108866558Y-103594726D01*
X108836939Y-103590827D01*
X108810739Y-103587378D01*
X108804241Y-103586348D01*
X108741414Y-103574704D01*
X108733834Y-103575141D01*
X108733833Y-103575141D01*
X108679208Y-103578291D01*
X108671954Y-103578500D01*
X106990465Y-103578500D01*
X106922344Y-103558498D01*
X106875851Y-103504842D01*
X106865747Y-103434568D01*
X106869907Y-103415871D01*
X106908177Y-103289910D01*
X106910355Y-103279837D01*
X106911786Y-103268962D01*
X106909575Y-103254778D01*
X106896417Y-103251000D01*
X105449800Y-103251000D01*
X105381679Y-103230998D01*
X105335186Y-103177342D01*
X105323800Y-103125000D01*
X105323800Y-102869000D01*
X105343802Y-102800879D01*
X105397458Y-102754386D01*
X105449800Y-102743000D01*
X106896144Y-102743000D01*
X106909675Y-102739027D01*
X106910980Y-102729947D01*
X106881403Y-102612196D01*
X106884207Y-102541255D01*
X106924920Y-102483091D01*
X106990615Y-102456172D01*
X107003607Y-102455500D01*
X109778740Y-102455500D01*
X109846861Y-102475502D01*
G37*
%TD.AperFunction*%
%TD*%
M02*
