%TF.GenerationSoftware,KiCad,Pcbnew,(6.0.7-1)-1*%
%TF.CreationDate,2022-10-12T15:16:06-04:00*%
%TF.ProjectId,Connection boardV1.0,436f6e6e-6563-4746-996f-6e20626f6172,rev?*%
%TF.SameCoordinates,Original*%
%TF.FileFunction,Copper,L2,Bot*%
%TF.FilePolarity,Positive*%
%FSLAX46Y46*%
G04 Gerber Fmt 4.6, Leading zero omitted, Abs format (unit mm)*
G04 Created by KiCad (PCBNEW (6.0.7-1)-1) date 2022-10-12 15:16:06*
%MOMM*%
%LPD*%
G01*
G04 APERTURE LIST*
%TA.AperFunction,ComponentPad*%
%ADD10R,1.700000X1.700000*%
%TD*%
%TA.AperFunction,ComponentPad*%
%ADD11O,1.700000X1.700000*%
%TD*%
%TA.AperFunction,ViaPad*%
%ADD12C,0.800000*%
%TD*%
%TA.AperFunction,Conductor*%
%ADD13C,0.400000*%
%TD*%
G04 APERTURE END LIST*
D10*
%TO.P,J3,1,Pin_1*%
%TO.N,SCL*%
X111440200Y-114238800D03*
D11*
%TO.P,J3,2,Pin_2*%
%TO.N,GND*%
X113980200Y-114238800D03*
%TO.P,J3,3,Pin_3*%
%TO.N,SDA*%
X111440200Y-116778800D03*
%TO.P,J3,4,Pin_4*%
%TO.N,5V*%
X113980200Y-116778800D03*
%TO.P,J3,5,Pin_5*%
%TO.N,3.3V*%
X111440200Y-119318800D03*
%TO.P,J3,6,Pin_6*%
%TO.N,5V*%
X113980200Y-119318800D03*
%TD*%
D10*
%TO.P,J2,1,Pin_1*%
%TO.N,SCL*%
X111364000Y-102986600D03*
D11*
%TO.P,J2,2,Pin_2*%
%TO.N,GND*%
X113904000Y-102986600D03*
%TO.P,J2,3,Pin_3*%
%TO.N,SDA*%
X111364000Y-105526600D03*
%TO.P,J2,4,Pin_4*%
%TO.N,5V*%
X113904000Y-105526600D03*
%TO.P,J2,5,Pin_5*%
%TO.N,3.3V*%
X111364000Y-108066600D03*
%TO.P,J2,6,Pin_6*%
%TO.N,5V*%
X113904000Y-108066600D03*
%TD*%
D10*
%TO.P,J1,1,Pin_1*%
%TO.N,SCL*%
X103037800Y-102997000D03*
D11*
%TO.P,J1,2,Pin_2*%
%TO.N,GND*%
X105577800Y-102997000D03*
%TO.P,J1,3,Pin_3*%
%TO.N,SDA*%
X103037800Y-105537000D03*
%TO.P,J1,4,Pin_4*%
%TO.N,5V*%
X105577800Y-105537000D03*
%TO.P,J1,5,Pin_5*%
%TO.N,3.3V*%
X103037800Y-108077000D03*
%TO.P,J1,6,Pin_6*%
%TO.N,5V*%
X105577800Y-108077000D03*
%TD*%
D10*
%TO.P,J4,1,Pin_1*%
%TO.N,SCL*%
X102982000Y-114238800D03*
D11*
%TO.P,J4,2,Pin_2*%
%TO.N,GND*%
X105522000Y-114238800D03*
%TO.P,J4,3,Pin_3*%
%TO.N,SDA*%
X102982000Y-116778800D03*
%TO.P,J4,4,Pin_4*%
%TO.N,5V*%
X105522000Y-116778800D03*
%TO.P,J4,5,Pin_5*%
%TO.N,3.3V*%
X102982000Y-119318800D03*
%TO.P,J4,6,Pin_6*%
%TO.N,5V*%
X105522000Y-119318800D03*
%TD*%
D12*
%TO.N,GND*%
X108346400Y-107645200D03*
%TD*%
D13*
%TO.N,SDA*%
X103037800Y-105537000D02*
X101264225Y-107310575D01*
X101264225Y-115061025D02*
X102982000Y-116778800D01*
X101264225Y-107310575D02*
X101264225Y-115061025D01*
X105197775Y-110536375D02*
X101264225Y-110536375D01*
X111440200Y-116778800D02*
X105197775Y-110536375D01*
%TO.N,GND*%
X105577800Y-102997000D02*
X108346400Y-105765600D01*
X108346400Y-105765600D02*
X108346400Y-107645200D01*
%TO.N,3.3V*%
X111440200Y-119318800D02*
X111440200Y-120289400D01*
X109524800Y-109905800D02*
X111364000Y-108066600D01*
X115610800Y-112217200D02*
X111460200Y-108066600D01*
X115473776Y-120568800D02*
X115610800Y-120431776D01*
X111460200Y-108066600D02*
X111364000Y-108066600D01*
X104232000Y-120568800D02*
X111719600Y-120568800D01*
X104866600Y-109905800D02*
X109524800Y-109905800D01*
X103037800Y-108077000D02*
X104866600Y-109905800D01*
X111440200Y-120289400D02*
X111719600Y-120568800D01*
X111719600Y-120568800D02*
X115473776Y-120568800D01*
X102982000Y-119318800D02*
X104232000Y-120568800D01*
X115610800Y-120431776D02*
X115610800Y-112217200D01*
%TD*%
%TA.AperFunction,Conductor*%
%TO.N,GND*%
G36*
X104920236Y-111264877D02*
G01*
X104941210Y-111281780D01*
X110067451Y-116408022D01*
X110101477Y-116470334D01*
X110102115Y-116520031D01*
X110101189Y-116523370D01*
X110077451Y-116745495D01*
X110077748Y-116750648D01*
X110077748Y-116750651D01*
X110083211Y-116845390D01*
X110090310Y-116968515D01*
X110091447Y-116973561D01*
X110091448Y-116973567D01*
X110111319Y-117061739D01*
X110139422Y-117186439D01*
X110223466Y-117393416D01*
X110274219Y-117476238D01*
X110337491Y-117579488D01*
X110340187Y-117583888D01*
X110486450Y-117752738D01*
X110658326Y-117895432D01*
X110728795Y-117936611D01*
X110731645Y-117938276D01*
X110780369Y-117989914D01*
X110793440Y-118059697D01*
X110766709Y-118125469D01*
X110726255Y-118158827D01*
X110713807Y-118165307D01*
X110709674Y-118168410D01*
X110709671Y-118168412D01*
X110685447Y-118186600D01*
X110535165Y-118299435D01*
X110380829Y-118460938D01*
X110254943Y-118645480D01*
X110160888Y-118848105D01*
X110101189Y-119063370D01*
X110077451Y-119285495D01*
X110077748Y-119290648D01*
X110077748Y-119290651D01*
X110083211Y-119385390D01*
X110090310Y-119508515D01*
X110091447Y-119513561D01*
X110091448Y-119513567D01*
X110134951Y-119706599D01*
X110130415Y-119777450D01*
X110088293Y-119834602D01*
X110021960Y-119859908D01*
X110012034Y-119860300D01*
X106947340Y-119860300D01*
X106879219Y-119840298D01*
X106832726Y-119786642D01*
X106822622Y-119716368D01*
X106826782Y-119697671D01*
X106852865Y-119611822D01*
X106854370Y-119606869D01*
X106883529Y-119385390D01*
X106885156Y-119318800D01*
X106866852Y-119096161D01*
X106812431Y-118879502D01*
X106723354Y-118674640D01*
X106602014Y-118487077D01*
X106451670Y-118321851D01*
X106447619Y-118318652D01*
X106447615Y-118318648D01*
X106280414Y-118186600D01*
X106280410Y-118186598D01*
X106276359Y-118183398D01*
X106235053Y-118160596D01*
X106185084Y-118110164D01*
X106170312Y-118040721D01*
X106195428Y-117974316D01*
X106222780Y-117947709D01*
X106266603Y-117916450D01*
X106401860Y-117819973D01*
X106560096Y-117662289D01*
X106619594Y-117579489D01*
X106687435Y-117485077D01*
X106690453Y-117480877D01*
X106711320Y-117438657D01*
X106787136Y-117285253D01*
X106787137Y-117285251D01*
X106789430Y-117280611D01*
X106854370Y-117066869D01*
X106883529Y-116845390D01*
X106885156Y-116778800D01*
X106866852Y-116556161D01*
X106812431Y-116339502D01*
X106723354Y-116134640D01*
X106602014Y-115947077D01*
X106451670Y-115781851D01*
X106447619Y-115778652D01*
X106447615Y-115778648D01*
X106280414Y-115646600D01*
X106280410Y-115646598D01*
X106276359Y-115643398D01*
X106234569Y-115620329D01*
X106184598Y-115569897D01*
X106169826Y-115500454D01*
X106194942Y-115434048D01*
X106222294Y-115407441D01*
X106397328Y-115282592D01*
X106405200Y-115275939D01*
X106556052Y-115125612D01*
X106562730Y-115117765D01*
X106687003Y-114944820D01*
X106692313Y-114935983D01*
X106786670Y-114745067D01*
X106790469Y-114735472D01*
X106852377Y-114531710D01*
X106854555Y-114521637D01*
X106855986Y-114510762D01*
X106853775Y-114496578D01*
X106840617Y-114492800D01*
X105394000Y-114492800D01*
X105325879Y-114472798D01*
X105279386Y-114419142D01*
X105268000Y-114366800D01*
X105268000Y-113966685D01*
X105776000Y-113966685D01*
X105780475Y-113981924D01*
X105781865Y-113983129D01*
X105789548Y-113984800D01*
X106840344Y-113984800D01*
X106853875Y-113980827D01*
X106855180Y-113971747D01*
X106813214Y-113804675D01*
X106809894Y-113794924D01*
X106724972Y-113599614D01*
X106720105Y-113590539D01*
X106604426Y-113411726D01*
X106598136Y-113403557D01*
X106454806Y-113246040D01*
X106447273Y-113239015D01*
X106280139Y-113107022D01*
X106271552Y-113101317D01*
X106085117Y-112998399D01*
X106075705Y-112994169D01*
X105874959Y-112923080D01*
X105864988Y-112920446D01*
X105793837Y-112907772D01*
X105780540Y-112909232D01*
X105776000Y-112923789D01*
X105776000Y-113966685D01*
X105268000Y-113966685D01*
X105268000Y-112921902D01*
X105264082Y-112908558D01*
X105249806Y-112906571D01*
X105211324Y-112912460D01*
X105201288Y-112914851D01*
X104998868Y-112981012D01*
X104989359Y-112985009D01*
X104800463Y-113083342D01*
X104791738Y-113088836D01*
X104621433Y-113216705D01*
X104613726Y-113223548D01*
X104536478Y-113304384D01*
X104474954Y-113339814D01*
X104404042Y-113336357D01*
X104346255Y-113295111D01*
X104327402Y-113261563D01*
X104285767Y-113150503D01*
X104282615Y-113142095D01*
X104195261Y-113025539D01*
X104078705Y-112938185D01*
X103942316Y-112887055D01*
X103880134Y-112880300D01*
X102098725Y-112880300D01*
X102030604Y-112860298D01*
X101984111Y-112806642D01*
X101972725Y-112754300D01*
X101972725Y-111370875D01*
X101992727Y-111302754D01*
X102046383Y-111256261D01*
X102098725Y-111244875D01*
X104852115Y-111244875D01*
X104920236Y-111264877D01*
G37*
%TD.AperFunction*%
%TA.AperFunction,Conductor*%
G36*
X111811541Y-109419911D02*
G01*
X114865395Y-112473765D01*
X114899421Y-112536077D01*
X114902300Y-112562860D01*
X114902300Y-112983089D01*
X114882298Y-113051210D01*
X114828642Y-113097703D01*
X114758368Y-113107807D01*
X114715406Y-113093398D01*
X114543307Y-112998394D01*
X114533905Y-112994169D01*
X114333159Y-112923080D01*
X114323188Y-112920446D01*
X114252037Y-112907772D01*
X114238740Y-112909232D01*
X114234200Y-112923789D01*
X114234200Y-114366800D01*
X114214198Y-114434921D01*
X114160542Y-114481414D01*
X114108200Y-114492800D01*
X113852200Y-114492800D01*
X113784079Y-114472798D01*
X113737586Y-114419142D01*
X113726200Y-114366800D01*
X113726200Y-112921902D01*
X113722282Y-112908558D01*
X113708006Y-112906571D01*
X113669524Y-112912460D01*
X113659488Y-112914851D01*
X113457068Y-112981012D01*
X113447559Y-112985009D01*
X113258663Y-113083342D01*
X113249938Y-113088836D01*
X113079633Y-113216705D01*
X113071926Y-113223548D01*
X112994678Y-113304384D01*
X112933154Y-113339814D01*
X112862242Y-113336357D01*
X112804455Y-113295111D01*
X112785602Y-113261563D01*
X112743967Y-113150503D01*
X112740815Y-113142095D01*
X112653461Y-113025539D01*
X112536905Y-112938185D01*
X112400516Y-112887055D01*
X112338334Y-112880300D01*
X110542066Y-112880300D01*
X110479884Y-112887055D01*
X110343495Y-112938185D01*
X110226939Y-113025539D01*
X110139585Y-113142095D01*
X110088455Y-113278484D01*
X110081700Y-113340666D01*
X110081700Y-114114140D01*
X110061698Y-114182261D01*
X110008042Y-114228754D01*
X109937768Y-114238858D01*
X109873188Y-114209364D01*
X109866605Y-114203235D01*
X106492765Y-110829395D01*
X106458739Y-110767083D01*
X106463804Y-110696268D01*
X106506351Y-110639432D01*
X106572871Y-110614621D01*
X106581860Y-110614300D01*
X109495888Y-110614300D01*
X109504458Y-110614592D01*
X109554576Y-110618009D01*
X109554580Y-110618009D01*
X109562152Y-110618525D01*
X109569629Y-110617220D01*
X109569630Y-110617220D01*
X109596108Y-110612599D01*
X109625103Y-110607538D01*
X109631621Y-110606577D01*
X109695042Y-110598902D01*
X109702143Y-110596219D01*
X109704752Y-110595578D01*
X109721062Y-110591115D01*
X109723598Y-110590350D01*
X109731084Y-110589043D01*
X109789600Y-110563356D01*
X109795704Y-110560865D01*
X109848348Y-110540973D01*
X109848349Y-110540972D01*
X109855456Y-110538287D01*
X109861719Y-110533983D01*
X109864085Y-110532746D01*
X109878897Y-110524501D01*
X109881151Y-110523168D01*
X109888105Y-110520115D01*
X109938802Y-110481213D01*
X109944132Y-110477341D01*
X109990520Y-110445461D01*
X109990525Y-110445456D01*
X109996781Y-110441157D01*
X110038236Y-110394629D01*
X110043216Y-110389354D01*
X110996684Y-109435886D01*
X111058996Y-109401860D01*
X111110896Y-109401510D01*
X111202597Y-109420167D01*
X111207772Y-109420357D01*
X111207774Y-109420357D01*
X111420673Y-109428164D01*
X111420677Y-109428164D01*
X111425837Y-109428353D01*
X111430957Y-109427697D01*
X111430959Y-109427697D01*
X111500153Y-109418833D01*
X111647416Y-109399968D01*
X111652369Y-109398482D01*
X111652374Y-109398481D01*
X111686237Y-109388321D01*
X111757232Y-109387903D01*
X111811541Y-109419911D01*
G37*
%TD.AperFunction*%
%TA.AperFunction,Conductor*%
G36*
X116433621Y-100528502D02*
G01*
X116480114Y-100582158D01*
X116491500Y-100634500D01*
X116491500Y-111853510D01*
X116471498Y-111921631D01*
X116417842Y-111968124D01*
X116347568Y-111978228D01*
X116282988Y-111948734D01*
X116247634Y-111898048D01*
X116245973Y-111893651D01*
X116245971Y-111893648D01*
X116243287Y-111886544D01*
X116238984Y-111880284D01*
X116237747Y-111877917D01*
X116229520Y-111863137D01*
X116228169Y-111860852D01*
X116225115Y-111853895D01*
X116220495Y-111847875D01*
X116220492Y-111847869D01*
X116186221Y-111803209D01*
X116182341Y-111797868D01*
X116150461Y-111751480D01*
X116150456Y-111751475D01*
X116146157Y-111745219D01*
X116099629Y-111703764D01*
X116094354Y-111698784D01*
X114021504Y-109625934D01*
X113987478Y-109563622D01*
X113992543Y-109492807D01*
X114035090Y-109435971D01*
X114094588Y-109411860D01*
X114182290Y-109400625D01*
X114182294Y-109400624D01*
X114187416Y-109399968D01*
X114192366Y-109398483D01*
X114396429Y-109337261D01*
X114396434Y-109337259D01*
X114401384Y-109335774D01*
X114601994Y-109237496D01*
X114783860Y-109107773D01*
X114838456Y-109053368D01*
X114865209Y-109026707D01*
X114942096Y-108950089D01*
X114961978Y-108922421D01*
X115069435Y-108772877D01*
X115072453Y-108768677D01*
X115168739Y-108573857D01*
X115169136Y-108573053D01*
X115169137Y-108573051D01*
X115171430Y-108568411D01*
X115212114Y-108434504D01*
X115234865Y-108359623D01*
X115234865Y-108359621D01*
X115236370Y-108354669D01*
X115265529Y-108133190D01*
X115267156Y-108066600D01*
X115248852Y-107843961D01*
X115194431Y-107627302D01*
X115105354Y-107422440D01*
X114984014Y-107234877D01*
X114833670Y-107069651D01*
X114829619Y-107066452D01*
X114829615Y-107066448D01*
X114662414Y-106934400D01*
X114662410Y-106934398D01*
X114658359Y-106931198D01*
X114617053Y-106908396D01*
X114567084Y-106857964D01*
X114552312Y-106788521D01*
X114577428Y-106722116D01*
X114604780Y-106695509D01*
X114668123Y-106650327D01*
X114783860Y-106567773D01*
X114942096Y-106410089D01*
X115001594Y-106327289D01*
X115069435Y-106232877D01*
X115072453Y-106228677D01*
X115088180Y-106196857D01*
X115169136Y-106033053D01*
X115169137Y-106033051D01*
X115171430Y-106028411D01*
X115236370Y-105814669D01*
X115265529Y-105593190D01*
X115267156Y-105526600D01*
X115248852Y-105303961D01*
X115194431Y-105087302D01*
X115105354Y-104882440D01*
X114988271Y-104701457D01*
X114986822Y-104699217D01*
X114986820Y-104699214D01*
X114984014Y-104694877D01*
X114833670Y-104529651D01*
X114829619Y-104526452D01*
X114829615Y-104526448D01*
X114662414Y-104394400D01*
X114662410Y-104394398D01*
X114658359Y-104391198D01*
X114650052Y-104386612D01*
X114616569Y-104368129D01*
X114566598Y-104317697D01*
X114551826Y-104248254D01*
X114576942Y-104181848D01*
X114604294Y-104155241D01*
X114779328Y-104030392D01*
X114787200Y-104023739D01*
X114938052Y-103873412D01*
X114944730Y-103865565D01*
X115069003Y-103692620D01*
X115074313Y-103683783D01*
X115168670Y-103492867D01*
X115172469Y-103483272D01*
X115234377Y-103279510D01*
X115236555Y-103269437D01*
X115237986Y-103258562D01*
X115235775Y-103244378D01*
X115222617Y-103240600D01*
X113776000Y-103240600D01*
X113707879Y-103220598D01*
X113661386Y-103166942D01*
X113650000Y-103114600D01*
X113650000Y-102714485D01*
X114158000Y-102714485D01*
X114162475Y-102729724D01*
X114163865Y-102730929D01*
X114171548Y-102732600D01*
X115222344Y-102732600D01*
X115235875Y-102728627D01*
X115237180Y-102719547D01*
X115195214Y-102552475D01*
X115191894Y-102542724D01*
X115106972Y-102347414D01*
X115102105Y-102338339D01*
X114986426Y-102159526D01*
X114980136Y-102151357D01*
X114836806Y-101993840D01*
X114829273Y-101986815D01*
X114662139Y-101854822D01*
X114653552Y-101849117D01*
X114467117Y-101746199D01*
X114457705Y-101741969D01*
X114256959Y-101670880D01*
X114246988Y-101668246D01*
X114175837Y-101655572D01*
X114162540Y-101657032D01*
X114158000Y-101671589D01*
X114158000Y-102714485D01*
X113650000Y-102714485D01*
X113650000Y-101669702D01*
X113646082Y-101656358D01*
X113631806Y-101654371D01*
X113593324Y-101660260D01*
X113583288Y-101662651D01*
X113380868Y-101728812D01*
X113371359Y-101732809D01*
X113182463Y-101831142D01*
X113173738Y-101836636D01*
X113003433Y-101964505D01*
X112995726Y-101971348D01*
X112918478Y-102052184D01*
X112856954Y-102087614D01*
X112786042Y-102084157D01*
X112728255Y-102042911D01*
X112709402Y-102009363D01*
X112667767Y-101898303D01*
X112664615Y-101889895D01*
X112577261Y-101773339D01*
X112460705Y-101685985D01*
X112324316Y-101634855D01*
X112262134Y-101628100D01*
X110465866Y-101628100D01*
X110403684Y-101634855D01*
X110267295Y-101685985D01*
X110150739Y-101773339D01*
X110063385Y-101889895D01*
X110012255Y-102026284D01*
X110005500Y-102088466D01*
X110005500Y-103884734D01*
X110012255Y-103946916D01*
X110063385Y-104083305D01*
X110150739Y-104199861D01*
X110267295Y-104287215D01*
X110275704Y-104290367D01*
X110275705Y-104290368D01*
X110384451Y-104331135D01*
X110441216Y-104373776D01*
X110465916Y-104440338D01*
X110450709Y-104509687D01*
X110431316Y-104536168D01*
X110304629Y-104668738D01*
X110301720Y-104673003D01*
X110301714Y-104673011D01*
X110279704Y-104705277D01*
X110178743Y-104853280D01*
X110084688Y-105055905D01*
X110024989Y-105271170D01*
X110001251Y-105493295D01*
X110001548Y-105498448D01*
X110001548Y-105498451D01*
X110007011Y-105593190D01*
X110014110Y-105716315D01*
X110015247Y-105721361D01*
X110015248Y-105721367D01*
X110017592Y-105731767D01*
X110063222Y-105934239D01*
X110147266Y-106141216D01*
X110190731Y-106212144D01*
X110261291Y-106327288D01*
X110263987Y-106331688D01*
X110410250Y-106500538D01*
X110582126Y-106643232D01*
X110594268Y-106650327D01*
X110655445Y-106686076D01*
X110704169Y-106737714D01*
X110717240Y-106807497D01*
X110690509Y-106873269D01*
X110650055Y-106906627D01*
X110637607Y-106913107D01*
X110633474Y-106916210D01*
X110633471Y-106916212D01*
X110474035Y-107035920D01*
X110458965Y-107047235D01*
X110304629Y-107208738D01*
X110301720Y-107213003D01*
X110301714Y-107213011D01*
X110220824Y-107331591D01*
X110178743Y-107393280D01*
X110084688Y-107595905D01*
X110024989Y-107811170D01*
X110001251Y-108033295D01*
X110001548Y-108038448D01*
X110001548Y-108038451D01*
X110007011Y-108133190D01*
X110014110Y-108256315D01*
X110027946Y-108317709D01*
X110023410Y-108388559D01*
X109994125Y-108434504D01*
X109268235Y-109160395D01*
X109205922Y-109194420D01*
X109179139Y-109197300D01*
X106683201Y-109197300D01*
X106615080Y-109177298D01*
X106568587Y-109123642D01*
X106558483Y-109053368D01*
X106587977Y-108988788D01*
X106594260Y-108982050D01*
X106612235Y-108964138D01*
X106612239Y-108964133D01*
X106615896Y-108960489D01*
X106643251Y-108922421D01*
X106743235Y-108783277D01*
X106746253Y-108779077D01*
X106845230Y-108578811D01*
X106910170Y-108365069D01*
X106939329Y-108143590D01*
X106940956Y-108077000D01*
X106922652Y-107854361D01*
X106868231Y-107637702D01*
X106779154Y-107432840D01*
X106657814Y-107245277D01*
X106507470Y-107080051D01*
X106503419Y-107076852D01*
X106503415Y-107076848D01*
X106336214Y-106944800D01*
X106336210Y-106944798D01*
X106332159Y-106941598D01*
X106290853Y-106918796D01*
X106240884Y-106868364D01*
X106226112Y-106798921D01*
X106251228Y-106732516D01*
X106278580Y-106705909D01*
X106322403Y-106674650D01*
X106457660Y-106578173D01*
X106468097Y-106567773D01*
X106612235Y-106424137D01*
X106615896Y-106420489D01*
X106746253Y-106239077D01*
X106767120Y-106196857D01*
X106842936Y-106043453D01*
X106842937Y-106043451D01*
X106845230Y-106038811D01*
X106885914Y-105904906D01*
X106908665Y-105830023D01*
X106908665Y-105830021D01*
X106910170Y-105825069D01*
X106939329Y-105603590D01*
X106940956Y-105537000D01*
X106922652Y-105314361D01*
X106868231Y-105097702D01*
X106779154Y-104892840D01*
X106657814Y-104705277D01*
X106507470Y-104540051D01*
X106503419Y-104536852D01*
X106503415Y-104536848D01*
X106336214Y-104404800D01*
X106336210Y-104404798D01*
X106332159Y-104401598D01*
X106290369Y-104378529D01*
X106240398Y-104328097D01*
X106225626Y-104258654D01*
X106250742Y-104192248D01*
X106278094Y-104165641D01*
X106453128Y-104040792D01*
X106461000Y-104034139D01*
X106611852Y-103883812D01*
X106618530Y-103875965D01*
X106742803Y-103703020D01*
X106748113Y-103694183D01*
X106842470Y-103503267D01*
X106846269Y-103493672D01*
X106908177Y-103289910D01*
X106910355Y-103279837D01*
X106911786Y-103268962D01*
X106909575Y-103254778D01*
X106896417Y-103251000D01*
X105449800Y-103251000D01*
X105381679Y-103230998D01*
X105335186Y-103177342D01*
X105323800Y-103125000D01*
X105323800Y-102724885D01*
X105831800Y-102724885D01*
X105836275Y-102740124D01*
X105837665Y-102741329D01*
X105845348Y-102743000D01*
X106896144Y-102743000D01*
X106909675Y-102739027D01*
X106910980Y-102729947D01*
X106869014Y-102562875D01*
X106865694Y-102553124D01*
X106780772Y-102357814D01*
X106775905Y-102348739D01*
X106660226Y-102169926D01*
X106653936Y-102161757D01*
X106510606Y-102004240D01*
X106503073Y-101997215D01*
X106335939Y-101865222D01*
X106327352Y-101859517D01*
X106140917Y-101756599D01*
X106131505Y-101752369D01*
X105930759Y-101681280D01*
X105920788Y-101678646D01*
X105849637Y-101665972D01*
X105836340Y-101667432D01*
X105831800Y-101681989D01*
X105831800Y-102724885D01*
X105323800Y-102724885D01*
X105323800Y-101680102D01*
X105319882Y-101666758D01*
X105305606Y-101664771D01*
X105267124Y-101670660D01*
X105257088Y-101673051D01*
X105054668Y-101739212D01*
X105045159Y-101743209D01*
X104856263Y-101841542D01*
X104847538Y-101847036D01*
X104677233Y-101974905D01*
X104669526Y-101981748D01*
X104592278Y-102062584D01*
X104530754Y-102098014D01*
X104459842Y-102094557D01*
X104402055Y-102053311D01*
X104383202Y-102019763D01*
X104341567Y-101908703D01*
X104338415Y-101900295D01*
X104251061Y-101783739D01*
X104134505Y-101696385D01*
X103998116Y-101645255D01*
X103935934Y-101638500D01*
X102139666Y-101638500D01*
X102077484Y-101645255D01*
X101941095Y-101696385D01*
X101824539Y-101783739D01*
X101737185Y-101900295D01*
X101686055Y-102036684D01*
X101679300Y-102098866D01*
X101679300Y-103895134D01*
X101686055Y-103957316D01*
X101737185Y-104093705D01*
X101824539Y-104210261D01*
X101941095Y-104297615D01*
X101949504Y-104300767D01*
X101949505Y-104300768D01*
X102058251Y-104341535D01*
X102115016Y-104384176D01*
X102139716Y-104450738D01*
X102124509Y-104520087D01*
X102105116Y-104546568D01*
X101991939Y-104665001D01*
X101978429Y-104679138D01*
X101975520Y-104683403D01*
X101975514Y-104683411D01*
X101964732Y-104699217D01*
X101852543Y-104863680D01*
X101758488Y-105066305D01*
X101698789Y-105281570D01*
X101675051Y-105503695D01*
X101675348Y-105508848D01*
X101675348Y-105508851D01*
X101680811Y-105603590D01*
X101687910Y-105726715D01*
X101689047Y-105731761D01*
X101689048Y-105731767D01*
X101701746Y-105788110D01*
X101697210Y-105858962D01*
X101667924Y-105904906D01*
X100783705Y-106789125D01*
X100777440Y-106794979D01*
X100733840Y-106833014D01*
X100729474Y-106839226D01*
X100728136Y-106840712D01*
X100667689Y-106877951D01*
X100596706Y-106876599D01*
X100537721Y-106837085D01*
X100509464Y-106771954D01*
X100508500Y-106756401D01*
X100508500Y-100634500D01*
X100528502Y-100566379D01*
X100582158Y-100519886D01*
X100634500Y-100508500D01*
X116365500Y-100508500D01*
X116433621Y-100528502D01*
G37*
%TD.AperFunction*%
%TD*%
M02*
